M48
; DRILL file {KiCad (5.1.6)-1} date 07/31/20 18:05:47
; FORMAT={-:-/ absolute / inch / decimal}
; #@! TF.CreationDate,2020-07-31T18:05:47-07:00
; #@! TF.GenerationSoftware,Kicad,Pcbnew,(5.1.6)-1
FMAT,2
INCH
T1C0.0150
T2C0.0394
%
G90
G05
T1
X6.1925Y-3.8
X6.215Y-3.3275
X6.33Y-3.37
X6.33Y-3.5
X6.37Y-3.37
X6.37Y-3.5
X6.41Y-3.37
X6.4125Y-3.1475
X6.45Y-3.37
X6.49Y-3.37
X6.53Y-3.37
X6.57Y-3.685
X6.57Y-3.78
X6.6Y-3.01
X6.82Y-3.13
X6.82Y-3.235
X6.82Y-3.32
X7.67Y-3.24
X7.67Y-3.44
X7.67Y-3.64
X7.74Y-3.14
X7.74Y-3.34
X7.74Y-3.54
X7.74Y-3.74
T2
X6.915Y-3.75
X7.015Y-3.75
X7.115Y-3.75
X7.215Y-3.75
X7.315Y-3.75
X7.415Y-3.75
X7.515Y-3.75
X6.915Y-3.45
X7.015Y-3.45
X7.115Y-3.45
X7.215Y-3.45
X7.315Y-3.45
X7.415Y-3.45
X7.515Y-3.45
X6.915Y-3.9
X7.015Y-3.9
X7.115Y-3.9
X7.215Y-3.9
X7.315Y-3.9
X7.415Y-3.9
X7.515Y-3.9
X6.055Y-3.25
X6.055Y-3.35
X6.055Y-3.45
X6.055Y-3.55
X6.055Y-3.65
X6.915Y-3.3
X7.015Y-3.3
X7.115Y-3.3
X7.215Y-3.3
X7.315Y-3.3
X7.415Y-3.3
X7.515Y-3.3
X6.915Y-3.15
X7.015Y-3.15
X7.115Y-3.15
X7.215Y-3.15
X7.315Y-3.15
X7.415Y-3.15
X7.515Y-3.15
X6.915Y-3.0
X7.015Y-3.0
X7.115Y-3.0
X7.215Y-3.0
X7.315Y-3.0
X7.415Y-3.0
X7.515Y-3.0
X6.915Y-3.6
X7.015Y-3.6
X7.115Y-3.6
X7.215Y-3.6
X7.315Y-3.6
X7.415Y-3.6
X7.515Y-3.6
T0
M30
