%TF.GenerationSoftware,KiCad,Pcbnew,(5.1.6)-1*%
%TF.CreationDate,2020-07-31T18:02:46-07:00*%
%TF.ProjectId,dspic33ev256gm102,64737069-6333-4336-9576-323536676d31,rev?*%
%TF.SameCoordinates,Original*%
%TF.FileFunction,Legend,Top*%
%TF.FilePolarity,Positive*%
%FSLAX46Y46*%
G04 Gerber Fmt 4.6, Leading zero omitted, Abs format (unit mm)*
G04 Created by KiCad (PCBNEW (5.1.6)-1) date 2020-07-31 18:02:46*
%MOMM*%
%LPD*%
G01*
G04 APERTURE LIST*
%ADD10C,0.127000*%
%ADD11C,0.254000*%
%ADD12C,0.120000*%
G04 APERTURE END LIST*
D10*
X195936809Y-93689714D02*
X195428809Y-93689714D01*
X195428809Y-93568761D01*
X195453000Y-93496190D01*
X195501380Y-93447809D01*
X195549761Y-93423619D01*
X195646523Y-93399428D01*
X195719095Y-93399428D01*
X195815857Y-93423619D01*
X195864238Y-93447809D01*
X195912619Y-93496190D01*
X195936809Y-93568761D01*
X195936809Y-93689714D01*
X195912619Y-93205904D02*
X195936809Y-93133333D01*
X195936809Y-93012380D01*
X195912619Y-92964000D01*
X195888428Y-92939809D01*
X195840047Y-92915619D01*
X195791666Y-92915619D01*
X195743285Y-92939809D01*
X195719095Y-92964000D01*
X195694904Y-93012380D01*
X195670714Y-93109142D01*
X195646523Y-93157523D01*
X195622333Y-93181714D01*
X195573952Y-93205904D01*
X195525571Y-93205904D01*
X195477190Y-93181714D01*
X195453000Y-93157523D01*
X195428809Y-93109142D01*
X195428809Y-92988190D01*
X195453000Y-92915619D01*
X195936809Y-92697904D02*
X195428809Y-92697904D01*
X195428809Y-92504380D01*
X195453000Y-92456000D01*
X195477190Y-92431809D01*
X195525571Y-92407619D01*
X195598142Y-92407619D01*
X195646523Y-92431809D01*
X195670714Y-92456000D01*
X195694904Y-92504380D01*
X195694904Y-92697904D01*
X195936809Y-92189904D02*
X195428809Y-92189904D01*
X195888428Y-91657714D02*
X195912619Y-91681904D01*
X195936809Y-91754476D01*
X195936809Y-91802857D01*
X195912619Y-91875428D01*
X195864238Y-91923809D01*
X195815857Y-91948000D01*
X195719095Y-91972190D01*
X195646523Y-91972190D01*
X195549761Y-91948000D01*
X195501380Y-91923809D01*
X195453000Y-91875428D01*
X195428809Y-91802857D01*
X195428809Y-91754476D01*
X195453000Y-91681904D01*
X195477190Y-91657714D01*
X195428809Y-91488380D02*
X195428809Y-91173904D01*
X195622333Y-91343238D01*
X195622333Y-91270666D01*
X195646523Y-91222285D01*
X195670714Y-91198095D01*
X195719095Y-91173904D01*
X195840047Y-91173904D01*
X195888428Y-91198095D01*
X195912619Y-91222285D01*
X195936809Y-91270666D01*
X195936809Y-91415809D01*
X195912619Y-91464190D01*
X195888428Y-91488380D01*
X195428809Y-91004571D02*
X195428809Y-90690095D01*
X195622333Y-90859428D01*
X195622333Y-90786857D01*
X195646523Y-90738476D01*
X195670714Y-90714285D01*
X195719095Y-90690095D01*
X195840047Y-90690095D01*
X195888428Y-90714285D01*
X195912619Y-90738476D01*
X195936809Y-90786857D01*
X195936809Y-90932000D01*
X195912619Y-90980380D01*
X195888428Y-91004571D01*
X195670714Y-90472380D02*
X195670714Y-90303047D01*
X195936809Y-90230476D02*
X195936809Y-90472380D01*
X195428809Y-90472380D01*
X195428809Y-90230476D01*
X195428809Y-90085333D02*
X195936809Y-89916000D01*
X195428809Y-89746666D01*
X195477190Y-89601523D02*
X195453000Y-89577333D01*
X195428809Y-89528952D01*
X195428809Y-89408000D01*
X195453000Y-89359619D01*
X195477190Y-89335428D01*
X195525571Y-89311238D01*
X195573952Y-89311238D01*
X195646523Y-89335428D01*
X195936809Y-89625714D01*
X195936809Y-89311238D01*
X195428809Y-88851619D02*
X195428809Y-89093523D01*
X195670714Y-89117714D01*
X195646523Y-89093523D01*
X195622333Y-89045142D01*
X195622333Y-88924190D01*
X195646523Y-88875809D01*
X195670714Y-88851619D01*
X195719095Y-88827428D01*
X195840047Y-88827428D01*
X195888428Y-88851619D01*
X195912619Y-88875809D01*
X195936809Y-88924190D01*
X195936809Y-89045142D01*
X195912619Y-89093523D01*
X195888428Y-89117714D01*
X195428809Y-88392000D02*
X195428809Y-88488761D01*
X195453000Y-88537142D01*
X195477190Y-88561333D01*
X195549761Y-88609714D01*
X195646523Y-88633904D01*
X195840047Y-88633904D01*
X195888428Y-88609714D01*
X195912619Y-88585523D01*
X195936809Y-88537142D01*
X195936809Y-88440380D01*
X195912619Y-88392000D01*
X195888428Y-88367809D01*
X195840047Y-88343619D01*
X195719095Y-88343619D01*
X195670714Y-88367809D01*
X195646523Y-88392000D01*
X195622333Y-88440380D01*
X195622333Y-88537142D01*
X195646523Y-88585523D01*
X195670714Y-88609714D01*
X195719095Y-88633904D01*
X195453000Y-87859809D02*
X195428809Y-87908190D01*
X195428809Y-87980761D01*
X195453000Y-88053333D01*
X195501380Y-88101714D01*
X195549761Y-88125904D01*
X195646523Y-88150095D01*
X195719095Y-88150095D01*
X195815857Y-88125904D01*
X195864238Y-88101714D01*
X195912619Y-88053333D01*
X195936809Y-87980761D01*
X195936809Y-87932380D01*
X195912619Y-87859809D01*
X195888428Y-87835619D01*
X195719095Y-87835619D01*
X195719095Y-87932380D01*
X195936809Y-87617904D02*
X195428809Y-87617904D01*
X195791666Y-87448571D01*
X195428809Y-87279238D01*
X195936809Y-87279238D01*
X195936809Y-86771238D02*
X195936809Y-87061523D01*
X195936809Y-86916380D02*
X195428809Y-86916380D01*
X195501380Y-86964761D01*
X195549761Y-87013142D01*
X195573952Y-87061523D01*
X195428809Y-86456761D02*
X195428809Y-86408380D01*
X195453000Y-86360000D01*
X195477190Y-86335809D01*
X195525571Y-86311619D01*
X195622333Y-86287428D01*
X195743285Y-86287428D01*
X195840047Y-86311619D01*
X195888428Y-86335809D01*
X195912619Y-86360000D01*
X195936809Y-86408380D01*
X195936809Y-86456761D01*
X195912619Y-86505142D01*
X195888428Y-86529333D01*
X195840047Y-86553523D01*
X195743285Y-86577714D01*
X195622333Y-86577714D01*
X195525571Y-86553523D01*
X195477190Y-86529333D01*
X195453000Y-86505142D01*
X195428809Y-86456761D01*
X195477190Y-86093904D02*
X195453000Y-86069714D01*
X195428809Y-86021333D01*
X195428809Y-85900380D01*
X195453000Y-85852000D01*
X195477190Y-85827809D01*
X195525571Y-85803619D01*
X195573952Y-85803619D01*
X195646523Y-85827809D01*
X195936809Y-86118095D01*
X195936809Y-85803619D01*
X195670714Y-85029523D02*
X195694904Y-84956952D01*
X195719095Y-84932761D01*
X195767476Y-84908571D01*
X195840047Y-84908571D01*
X195888428Y-84932761D01*
X195912619Y-84956952D01*
X195936809Y-85005333D01*
X195936809Y-85198857D01*
X195428809Y-85198857D01*
X195428809Y-85029523D01*
X195453000Y-84981142D01*
X195477190Y-84956952D01*
X195525571Y-84932761D01*
X195573952Y-84932761D01*
X195622333Y-84956952D01*
X195646523Y-84981142D01*
X195670714Y-85029523D01*
X195670714Y-85198857D01*
X195936809Y-84400571D02*
X195694904Y-84569904D01*
X195936809Y-84690857D02*
X195428809Y-84690857D01*
X195428809Y-84497333D01*
X195453000Y-84448952D01*
X195477190Y-84424761D01*
X195525571Y-84400571D01*
X195598142Y-84400571D01*
X195646523Y-84424761D01*
X195670714Y-84448952D01*
X195694904Y-84497333D01*
X195694904Y-84690857D01*
X195670714Y-84182857D02*
X195670714Y-84013523D01*
X195936809Y-83940952D02*
X195936809Y-84182857D01*
X195428809Y-84182857D01*
X195428809Y-83940952D01*
X195791666Y-83747428D02*
X195791666Y-83505523D01*
X195936809Y-83795809D02*
X195428809Y-83626476D01*
X195936809Y-83457142D01*
X195936809Y-83287809D02*
X195428809Y-83287809D01*
X195936809Y-82997523D02*
X195646523Y-83215238D01*
X195428809Y-82997523D02*
X195719095Y-83287809D01*
X195428809Y-82683047D02*
X195428809Y-82586285D01*
X195453000Y-82537904D01*
X195501380Y-82489523D01*
X195598142Y-82465333D01*
X195767476Y-82465333D01*
X195864238Y-82489523D01*
X195912619Y-82537904D01*
X195936809Y-82586285D01*
X195936809Y-82683047D01*
X195912619Y-82731428D01*
X195864238Y-82779809D01*
X195767476Y-82804000D01*
X195598142Y-82804000D01*
X195501380Y-82779809D01*
X195453000Y-82731428D01*
X195428809Y-82683047D01*
X195428809Y-82247619D02*
X195840047Y-82247619D01*
X195888428Y-82223428D01*
X195912619Y-82199238D01*
X195936809Y-82150857D01*
X195936809Y-82054095D01*
X195912619Y-82005714D01*
X195888428Y-81981523D01*
X195840047Y-81957333D01*
X195428809Y-81957333D01*
X195428809Y-81788000D02*
X195428809Y-81497714D01*
X195936809Y-81642857D02*
X195428809Y-81642857D01*
X165989000Y-94234000D02*
X165989000Y-94488000D01*
X165862000Y-94361000D02*
X166116000Y-94361000D01*
D11*
X152654000Y-80772000D02*
G75*
G03*
X152654000Y-80772000I-127000J0D01*
G01*
X157226000Y-99060000D02*
G75*
G03*
X157226000Y-99060000I-127000J0D01*
G01*
X173482000Y-76200000D02*
G75*
G03*
X173482000Y-76200000I-127000J0D01*
G01*
X170561000Y-83820000D02*
G75*
G03*
X170561000Y-83820000I-127000J0D01*
G01*
D10*
%TO.C,R14*%
X188178221Y-101348000D02*
X188503779Y-101348000D01*
X188178221Y-100328000D02*
X188503779Y-100328000D01*
%TO.C,R13*%
X188178221Y-97665000D02*
X188503779Y-97665000D01*
X188178221Y-96645000D02*
X188503779Y-96645000D01*
%TO.C,R12*%
X188178221Y-93855000D02*
X188503779Y-93855000D01*
X188178221Y-92835000D02*
X188503779Y-92835000D01*
%TO.C,R11*%
X188178221Y-90045000D02*
X188503779Y-90045000D01*
X188178221Y-89025000D02*
X188503779Y-89025000D01*
%TO.C,R7*%
X193867500Y-98897221D02*
X193867500Y-99222779D01*
X192847500Y-98897221D02*
X192847500Y-99222779D01*
%TO.C,R6*%
X193867500Y-95087221D02*
X193867500Y-95412779D01*
X192847500Y-95087221D02*
X192847500Y-95412779D01*
%TO.C,R5*%
X193867500Y-91277221D02*
X193867500Y-91602779D01*
X192847500Y-91277221D02*
X192847500Y-91602779D01*
%TO.C,R4*%
X193867500Y-87467221D02*
X193867500Y-87792779D01*
X192847500Y-87467221D02*
X192847500Y-87792779D01*
%TO.C,R10*%
X188178221Y-86235000D02*
X188503779Y-86235000D01*
X188178221Y-85215000D02*
X188503779Y-85215000D01*
%TO.C,R3*%
X193867500Y-83657221D02*
X193867500Y-83982779D01*
X192847500Y-83657221D02*
X192847500Y-83982779D01*
%TO.C,R9*%
X188178221Y-82425000D02*
X188503779Y-82425000D01*
X188178221Y-81405000D02*
X188503779Y-81405000D01*
%TO.C,R8*%
X188178221Y-78615000D02*
X188503779Y-78615000D01*
X188178221Y-77595000D02*
X188503779Y-77595000D01*
%TO.C,R2*%
X193867500Y-79847221D02*
X193867500Y-80172779D01*
X192847500Y-79847221D02*
X192847500Y-80172779D01*
%TO.C,R1*%
X193867500Y-76037221D02*
X193867500Y-76362779D01*
X192847500Y-76037221D02*
X192847500Y-76362779D01*
%TO.C,C2*%
X164429064Y-94128000D02*
X163224936Y-94128000D01*
X164429064Y-92308000D02*
X163224936Y-92308000D01*
%TO.C,C3*%
X163184721Y-82171000D02*
X163510279Y-82171000D01*
X163184721Y-81151000D02*
X163510279Y-81151000D01*
%TO.C,C4*%
X169098279Y-92327000D02*
X168772721Y-92327000D01*
X169098279Y-93347000D02*
X168772721Y-93347000D01*
%TO.C,J10*%
X152467000Y-81220000D02*
X153797000Y-81220000D01*
X152467000Y-82550000D02*
X152467000Y-81220000D01*
X152467000Y-83820000D02*
X155127000Y-83820000D01*
X155127000Y-83820000D02*
X155127000Y-94040000D01*
X152467000Y-83820000D02*
X152467000Y-94040000D01*
X152467000Y-94040000D02*
X155127000Y-94040000D01*
%TO.C,U1*%
X170552000Y-84374000D02*
X169977000Y-84374000D01*
X170552000Y-90124000D02*
X169902000Y-90124000D01*
X159902000Y-90124000D02*
X160552000Y-90124000D01*
X159902000Y-84374000D02*
X160552000Y-84374000D01*
X170552000Y-84374000D02*
X170552000Y-90124000D01*
X159902000Y-84374000D02*
X159902000Y-90124000D01*
X169977000Y-84374000D02*
X169977000Y-82774000D01*
%TO.C,J8*%
X157547000Y-99120000D02*
X157547000Y-96460000D01*
X172907000Y-99120000D02*
X172907000Y-96460000D01*
X159637000Y-96460000D02*
X163197000Y-96460000D01*
X164717000Y-96460000D02*
X168277000Y-96460000D01*
X169797000Y-96460000D02*
X172907000Y-96460000D01*
X157547000Y-99120000D02*
X160657000Y-99120000D01*
X158117000Y-96460000D02*
X158117000Y-94940000D01*
X157547000Y-96460000D02*
X158117000Y-96460000D01*
X172337000Y-99120000D02*
X172907000Y-99120000D01*
X162177000Y-99120000D02*
X165737000Y-99120000D01*
X167257000Y-99120000D02*
X170817000Y-99120000D01*
%TO.C,J9*%
X163197000Y-76140000D02*
X159637000Y-76140000D01*
X168277000Y-76140000D02*
X164717000Y-76140000D01*
X158117000Y-76140000D02*
X157547000Y-76140000D01*
X172907000Y-78800000D02*
X172337000Y-78800000D01*
X172337000Y-78800000D02*
X172337000Y-80320000D01*
X172907000Y-76140000D02*
X169797000Y-76140000D01*
X160657000Y-78800000D02*
X157547000Y-78800000D01*
X165737000Y-78800000D02*
X162177000Y-78800000D01*
X170817000Y-78800000D02*
X167257000Y-78800000D01*
X157547000Y-76140000D02*
X157547000Y-78800000D01*
X172907000Y-76140000D02*
X172907000Y-78800000D01*
D12*
%TO.C,JP2*%
X155577000Y-97601721D02*
X155577000Y-97927279D01*
X154557000Y-97601721D02*
X154557000Y-97927279D01*
%TO.C,R14*%
D10*
X185728428Y-101067809D02*
X185559095Y-100825904D01*
X185438142Y-101067809D02*
X185438142Y-100559809D01*
X185631666Y-100559809D01*
X185680047Y-100584000D01*
X185704238Y-100608190D01*
X185728428Y-100656571D01*
X185728428Y-100729142D01*
X185704238Y-100777523D01*
X185680047Y-100801714D01*
X185631666Y-100825904D01*
X185438142Y-100825904D01*
X186212238Y-101067809D02*
X185921952Y-101067809D01*
X186067095Y-101067809D02*
X186067095Y-100559809D01*
X186018714Y-100632380D01*
X185970333Y-100680761D01*
X185921952Y-100704952D01*
X186647666Y-100729142D02*
X186647666Y-101067809D01*
X186526714Y-100535619D02*
X186405761Y-100898476D01*
X186720238Y-100898476D01*
%TO.C,R13*%
X185728428Y-97384809D02*
X185559095Y-97142904D01*
X185438142Y-97384809D02*
X185438142Y-96876809D01*
X185631666Y-96876809D01*
X185680047Y-96901000D01*
X185704238Y-96925190D01*
X185728428Y-96973571D01*
X185728428Y-97046142D01*
X185704238Y-97094523D01*
X185680047Y-97118714D01*
X185631666Y-97142904D01*
X185438142Y-97142904D01*
X186212238Y-97384809D02*
X185921952Y-97384809D01*
X186067095Y-97384809D02*
X186067095Y-96876809D01*
X186018714Y-96949380D01*
X185970333Y-96997761D01*
X185921952Y-97021952D01*
X186381571Y-96876809D02*
X186696047Y-96876809D01*
X186526714Y-97070333D01*
X186599285Y-97070333D01*
X186647666Y-97094523D01*
X186671857Y-97118714D01*
X186696047Y-97167095D01*
X186696047Y-97288047D01*
X186671857Y-97336428D01*
X186647666Y-97360619D01*
X186599285Y-97384809D01*
X186454142Y-97384809D01*
X186405761Y-97360619D01*
X186381571Y-97336428D01*
%TO.C,R12*%
X185728428Y-93574809D02*
X185559095Y-93332904D01*
X185438142Y-93574809D02*
X185438142Y-93066809D01*
X185631666Y-93066809D01*
X185680047Y-93091000D01*
X185704238Y-93115190D01*
X185728428Y-93163571D01*
X185728428Y-93236142D01*
X185704238Y-93284523D01*
X185680047Y-93308714D01*
X185631666Y-93332904D01*
X185438142Y-93332904D01*
X186212238Y-93574809D02*
X185921952Y-93574809D01*
X186067095Y-93574809D02*
X186067095Y-93066809D01*
X186018714Y-93139380D01*
X185970333Y-93187761D01*
X185921952Y-93211952D01*
X186405761Y-93115190D02*
X186429952Y-93091000D01*
X186478333Y-93066809D01*
X186599285Y-93066809D01*
X186647666Y-93091000D01*
X186671857Y-93115190D01*
X186696047Y-93163571D01*
X186696047Y-93211952D01*
X186671857Y-93284523D01*
X186381571Y-93574809D01*
X186696047Y-93574809D01*
%TO.C,R11*%
X185728428Y-89764809D02*
X185559095Y-89522904D01*
X185438142Y-89764809D02*
X185438142Y-89256809D01*
X185631666Y-89256809D01*
X185680047Y-89281000D01*
X185704238Y-89305190D01*
X185728428Y-89353571D01*
X185728428Y-89426142D01*
X185704238Y-89474523D01*
X185680047Y-89498714D01*
X185631666Y-89522904D01*
X185438142Y-89522904D01*
X186212238Y-89764809D02*
X185921952Y-89764809D01*
X186067095Y-89764809D02*
X186067095Y-89256809D01*
X186018714Y-89329380D01*
X185970333Y-89377761D01*
X185921952Y-89401952D01*
X186696047Y-89764809D02*
X186405761Y-89764809D01*
X186550904Y-89764809D02*
X186550904Y-89256809D01*
X186502523Y-89329380D01*
X186454142Y-89377761D01*
X186405761Y-89401952D01*
%TO.C,R7*%
X193272833Y-97435509D02*
X193103500Y-97193604D01*
X192982547Y-97435509D02*
X192982547Y-96927509D01*
X193176071Y-96927509D01*
X193224452Y-96951700D01*
X193248642Y-96975890D01*
X193272833Y-97024271D01*
X193272833Y-97096842D01*
X193248642Y-97145223D01*
X193224452Y-97169414D01*
X193176071Y-97193604D01*
X192982547Y-97193604D01*
X193442166Y-96927509D02*
X193780833Y-96927509D01*
X193563119Y-97435509D01*
%TO.C,R6*%
X193272833Y-93625709D02*
X193103500Y-93383804D01*
X192982547Y-93625709D02*
X192982547Y-93117709D01*
X193176071Y-93117709D01*
X193224452Y-93141900D01*
X193248642Y-93166090D01*
X193272833Y-93214471D01*
X193272833Y-93287042D01*
X193248642Y-93335423D01*
X193224452Y-93359614D01*
X193176071Y-93383804D01*
X192982547Y-93383804D01*
X193708261Y-93117709D02*
X193611500Y-93117709D01*
X193563119Y-93141900D01*
X193538928Y-93166090D01*
X193490547Y-93238661D01*
X193466357Y-93335423D01*
X193466357Y-93528947D01*
X193490547Y-93577328D01*
X193514738Y-93601519D01*
X193563119Y-93625709D01*
X193659880Y-93625709D01*
X193708261Y-93601519D01*
X193732452Y-93577328D01*
X193756642Y-93528947D01*
X193756642Y-93407995D01*
X193732452Y-93359614D01*
X193708261Y-93335423D01*
X193659880Y-93311233D01*
X193563119Y-93311233D01*
X193514738Y-93335423D01*
X193490547Y-93359614D01*
X193466357Y-93407995D01*
%TO.C,R5*%
X193272833Y-89815609D02*
X193103500Y-89573704D01*
X192982547Y-89815609D02*
X192982547Y-89307609D01*
X193176071Y-89307609D01*
X193224452Y-89331800D01*
X193248642Y-89355990D01*
X193272833Y-89404371D01*
X193272833Y-89476942D01*
X193248642Y-89525323D01*
X193224452Y-89549514D01*
X193176071Y-89573704D01*
X192982547Y-89573704D01*
X193732452Y-89307609D02*
X193490547Y-89307609D01*
X193466357Y-89549514D01*
X193490547Y-89525323D01*
X193538928Y-89501133D01*
X193659880Y-89501133D01*
X193708261Y-89525323D01*
X193732452Y-89549514D01*
X193756642Y-89597895D01*
X193756642Y-89718847D01*
X193732452Y-89767228D01*
X193708261Y-89791419D01*
X193659880Y-89815609D01*
X193538928Y-89815609D01*
X193490547Y-89791419D01*
X193466357Y-89767228D01*
%TO.C,R4*%
X193272833Y-86005609D02*
X193103500Y-85763704D01*
X192982547Y-86005609D02*
X192982547Y-85497609D01*
X193176071Y-85497609D01*
X193224452Y-85521800D01*
X193248642Y-85545990D01*
X193272833Y-85594371D01*
X193272833Y-85666942D01*
X193248642Y-85715323D01*
X193224452Y-85739514D01*
X193176071Y-85763704D01*
X192982547Y-85763704D01*
X193708261Y-85666942D02*
X193708261Y-86005609D01*
X193587309Y-85473419D02*
X193466357Y-85836276D01*
X193780833Y-85836276D01*
%TO.C,R10*%
X185753928Y-85954809D02*
X185584595Y-85712904D01*
X185463642Y-85954809D02*
X185463642Y-85446809D01*
X185657166Y-85446809D01*
X185705547Y-85471000D01*
X185729738Y-85495190D01*
X185753928Y-85543571D01*
X185753928Y-85616142D01*
X185729738Y-85664523D01*
X185705547Y-85688714D01*
X185657166Y-85712904D01*
X185463642Y-85712904D01*
X186237738Y-85954809D02*
X185947452Y-85954809D01*
X186092595Y-85954809D02*
X186092595Y-85446809D01*
X186044214Y-85519380D01*
X185995833Y-85567761D01*
X185947452Y-85591952D01*
X186552214Y-85446809D02*
X186600595Y-85446809D01*
X186648976Y-85471000D01*
X186673166Y-85495190D01*
X186697357Y-85543571D01*
X186721547Y-85640333D01*
X186721547Y-85761285D01*
X186697357Y-85858047D01*
X186673166Y-85906428D01*
X186648976Y-85930619D01*
X186600595Y-85954809D01*
X186552214Y-85954809D01*
X186503833Y-85930619D01*
X186479642Y-85906428D01*
X186455452Y-85858047D01*
X186431261Y-85761285D01*
X186431261Y-85640333D01*
X186455452Y-85543571D01*
X186479642Y-85495190D01*
X186503833Y-85471000D01*
X186552214Y-85446809D01*
%TO.C,R3*%
X193272833Y-82195609D02*
X193103500Y-81953704D01*
X192982547Y-82195609D02*
X192982547Y-81687609D01*
X193176071Y-81687609D01*
X193224452Y-81711800D01*
X193248642Y-81735990D01*
X193272833Y-81784371D01*
X193272833Y-81856942D01*
X193248642Y-81905323D01*
X193224452Y-81929514D01*
X193176071Y-81953704D01*
X192982547Y-81953704D01*
X193442166Y-81687609D02*
X193756642Y-81687609D01*
X193587309Y-81881133D01*
X193659880Y-81881133D01*
X193708261Y-81905323D01*
X193732452Y-81929514D01*
X193756642Y-81977895D01*
X193756642Y-82098847D01*
X193732452Y-82147228D01*
X193708261Y-82171419D01*
X193659880Y-82195609D01*
X193514738Y-82195609D01*
X193466357Y-82171419D01*
X193442166Y-82147228D01*
%TO.C,R9*%
X186224333Y-82144809D02*
X186055000Y-81902904D01*
X185934047Y-82144809D02*
X185934047Y-81636809D01*
X186127571Y-81636809D01*
X186175952Y-81661000D01*
X186200142Y-81685190D01*
X186224333Y-81733571D01*
X186224333Y-81806142D01*
X186200142Y-81854523D01*
X186175952Y-81878714D01*
X186127571Y-81902904D01*
X185934047Y-81902904D01*
X186466238Y-82144809D02*
X186563000Y-82144809D01*
X186611380Y-82120619D01*
X186635571Y-82096428D01*
X186683952Y-82023857D01*
X186708142Y-81927095D01*
X186708142Y-81733571D01*
X186683952Y-81685190D01*
X186659761Y-81661000D01*
X186611380Y-81636809D01*
X186514619Y-81636809D01*
X186466238Y-81661000D01*
X186442047Y-81685190D01*
X186417857Y-81733571D01*
X186417857Y-81854523D01*
X186442047Y-81902904D01*
X186466238Y-81927095D01*
X186514619Y-81951285D01*
X186611380Y-81951285D01*
X186659761Y-81927095D01*
X186683952Y-81902904D01*
X186708142Y-81854523D01*
%TO.C,R8*%
X186224333Y-78334809D02*
X186055000Y-78092904D01*
X185934047Y-78334809D02*
X185934047Y-77826809D01*
X186127571Y-77826809D01*
X186175952Y-77851000D01*
X186200142Y-77875190D01*
X186224333Y-77923571D01*
X186224333Y-77996142D01*
X186200142Y-78044523D01*
X186175952Y-78068714D01*
X186127571Y-78092904D01*
X185934047Y-78092904D01*
X186514619Y-78044523D02*
X186466238Y-78020333D01*
X186442047Y-77996142D01*
X186417857Y-77947761D01*
X186417857Y-77923571D01*
X186442047Y-77875190D01*
X186466238Y-77851000D01*
X186514619Y-77826809D01*
X186611380Y-77826809D01*
X186659761Y-77851000D01*
X186683952Y-77875190D01*
X186708142Y-77923571D01*
X186708142Y-77947761D01*
X186683952Y-77996142D01*
X186659761Y-78020333D01*
X186611380Y-78044523D01*
X186514619Y-78044523D01*
X186466238Y-78068714D01*
X186442047Y-78092904D01*
X186417857Y-78141285D01*
X186417857Y-78238047D01*
X186442047Y-78286428D01*
X186466238Y-78310619D01*
X186514619Y-78334809D01*
X186611380Y-78334809D01*
X186659761Y-78310619D01*
X186683952Y-78286428D01*
X186708142Y-78238047D01*
X186708142Y-78141285D01*
X186683952Y-78092904D01*
X186659761Y-78068714D01*
X186611380Y-78044523D01*
%TO.C,R2*%
X193272833Y-78385709D02*
X193103500Y-78143804D01*
X192982547Y-78385709D02*
X192982547Y-77877709D01*
X193176071Y-77877709D01*
X193224452Y-77901900D01*
X193248642Y-77926090D01*
X193272833Y-77974471D01*
X193272833Y-78047042D01*
X193248642Y-78095423D01*
X193224452Y-78119614D01*
X193176071Y-78143804D01*
X192982547Y-78143804D01*
X193466357Y-77926090D02*
X193490547Y-77901900D01*
X193538928Y-77877709D01*
X193659880Y-77877709D01*
X193708261Y-77901900D01*
X193732452Y-77926090D01*
X193756642Y-77974471D01*
X193756642Y-78022852D01*
X193732452Y-78095423D01*
X193442166Y-78385709D01*
X193756642Y-78385709D01*
%TO.C,R1*%
X193272833Y-74575709D02*
X193103500Y-74333804D01*
X192982547Y-74575709D02*
X192982547Y-74067709D01*
X193176071Y-74067709D01*
X193224452Y-74091900D01*
X193248642Y-74116090D01*
X193272833Y-74164471D01*
X193272833Y-74237042D01*
X193248642Y-74285423D01*
X193224452Y-74309614D01*
X193176071Y-74333804D01*
X192982547Y-74333804D01*
X193756642Y-74575709D02*
X193466357Y-74575709D01*
X193611500Y-74575709D02*
X193611500Y-74067709D01*
X193563119Y-74140280D01*
X193514738Y-74188661D01*
X193466357Y-74212852D01*
%TO.C,C2*%
X160951333Y-93272428D02*
X160927142Y-93296619D01*
X160854571Y-93320809D01*
X160806190Y-93320809D01*
X160733619Y-93296619D01*
X160685238Y-93248238D01*
X160661047Y-93199857D01*
X160636857Y-93103095D01*
X160636857Y-93030523D01*
X160661047Y-92933761D01*
X160685238Y-92885380D01*
X160733619Y-92837000D01*
X160806190Y-92812809D01*
X160854571Y-92812809D01*
X160927142Y-92837000D01*
X160951333Y-92861190D01*
X161144857Y-92861190D02*
X161169047Y-92837000D01*
X161217428Y-92812809D01*
X161338380Y-92812809D01*
X161386761Y-92837000D01*
X161410952Y-92861190D01*
X161435142Y-92909571D01*
X161435142Y-92957952D01*
X161410952Y-93030523D01*
X161120666Y-93320809D01*
X161435142Y-93320809D01*
%TO.C,C3*%
X161256333Y-81842428D02*
X161232142Y-81866619D01*
X161159571Y-81890809D01*
X161111190Y-81890809D01*
X161038619Y-81866619D01*
X160990238Y-81818238D01*
X160966047Y-81769857D01*
X160941857Y-81673095D01*
X160941857Y-81600523D01*
X160966047Y-81503761D01*
X160990238Y-81455380D01*
X161038619Y-81407000D01*
X161111190Y-81382809D01*
X161159571Y-81382809D01*
X161232142Y-81407000D01*
X161256333Y-81431190D01*
X161425666Y-81382809D02*
X161740142Y-81382809D01*
X161570809Y-81576333D01*
X161643380Y-81576333D01*
X161691761Y-81600523D01*
X161715952Y-81624714D01*
X161740142Y-81673095D01*
X161740142Y-81794047D01*
X161715952Y-81842428D01*
X161691761Y-81866619D01*
X161643380Y-81890809D01*
X161498238Y-81890809D01*
X161449857Y-81866619D01*
X161425666Y-81842428D01*
%TO.C,C4*%
X166793333Y-93018428D02*
X166769142Y-93042619D01*
X166696571Y-93066809D01*
X166648190Y-93066809D01*
X166575619Y-93042619D01*
X166527238Y-92994238D01*
X166503047Y-92945857D01*
X166478857Y-92849095D01*
X166478857Y-92776523D01*
X166503047Y-92679761D01*
X166527238Y-92631380D01*
X166575619Y-92583000D01*
X166648190Y-92558809D01*
X166696571Y-92558809D01*
X166769142Y-92583000D01*
X166793333Y-92607190D01*
X167228761Y-92728142D02*
X167228761Y-93066809D01*
X167107809Y-92534619D02*
X166986857Y-92897476D01*
X167301333Y-92897476D01*
%TO.C,J10*%
X153385761Y-79941809D02*
X153385761Y-80304666D01*
X153361571Y-80377238D01*
X153313190Y-80425619D01*
X153240619Y-80449809D01*
X153192238Y-80449809D01*
X153893761Y-80449809D02*
X153603476Y-80449809D01*
X153748619Y-80449809D02*
X153748619Y-79941809D01*
X153700238Y-80014380D01*
X153651857Y-80062761D01*
X153603476Y-80086952D01*
X154208238Y-79941809D02*
X154256619Y-79941809D01*
X154305000Y-79966000D01*
X154329190Y-79990190D01*
X154353380Y-80038571D01*
X154377571Y-80135333D01*
X154377571Y-80256285D01*
X154353380Y-80353047D01*
X154329190Y-80401428D01*
X154305000Y-80425619D01*
X154256619Y-80449809D01*
X154208238Y-80449809D01*
X154159857Y-80425619D01*
X154135666Y-80401428D01*
X154111476Y-80353047D01*
X154087285Y-80256285D01*
X154087285Y-80135333D01*
X154111476Y-80038571D01*
X154135666Y-79990190D01*
X154159857Y-79966000D01*
X154208238Y-79941809D01*
%TO.C,U1*%
X159632952Y-83414809D02*
X159632952Y-83826047D01*
X159657142Y-83874428D01*
X159681333Y-83898619D01*
X159729714Y-83922809D01*
X159826476Y-83922809D01*
X159874857Y-83898619D01*
X159899047Y-83874428D01*
X159923238Y-83826047D01*
X159923238Y-83414809D01*
X160431238Y-83922809D02*
X160140952Y-83922809D01*
X160286095Y-83922809D02*
X160286095Y-83414809D01*
X160237714Y-83487380D01*
X160189333Y-83535761D01*
X160140952Y-83559952D01*
%TO.C,J8*%
X156421666Y-97511809D02*
X156421666Y-97874666D01*
X156397476Y-97947238D01*
X156349095Y-97995619D01*
X156276523Y-98019809D01*
X156228142Y-98019809D01*
X156736142Y-97729523D02*
X156687761Y-97705333D01*
X156663571Y-97681142D01*
X156639380Y-97632761D01*
X156639380Y-97608571D01*
X156663571Y-97560190D01*
X156687761Y-97536000D01*
X156736142Y-97511809D01*
X156832904Y-97511809D01*
X156881285Y-97536000D01*
X156905476Y-97560190D01*
X156929666Y-97608571D01*
X156929666Y-97632761D01*
X156905476Y-97681142D01*
X156881285Y-97705333D01*
X156832904Y-97729523D01*
X156736142Y-97729523D01*
X156687761Y-97753714D01*
X156663571Y-97777904D01*
X156639380Y-97826285D01*
X156639380Y-97923047D01*
X156663571Y-97971428D01*
X156687761Y-97995619D01*
X156736142Y-98019809D01*
X156832904Y-98019809D01*
X156881285Y-97995619D01*
X156905476Y-97971428D01*
X156929666Y-97923047D01*
X156929666Y-97826285D01*
X156905476Y-97777904D01*
X156881285Y-97753714D01*
X156832904Y-97729523D01*
%TO.C,J9*%
X156421666Y-77191809D02*
X156421666Y-77554666D01*
X156397476Y-77627238D01*
X156349095Y-77675619D01*
X156276523Y-77699809D01*
X156228142Y-77699809D01*
X156687761Y-77699809D02*
X156784523Y-77699809D01*
X156832904Y-77675619D01*
X156857095Y-77651428D01*
X156905476Y-77578857D01*
X156929666Y-77482095D01*
X156929666Y-77288571D01*
X156905476Y-77240190D01*
X156881285Y-77216000D01*
X156832904Y-77191809D01*
X156736142Y-77191809D01*
X156687761Y-77216000D01*
X156663571Y-77240190D01*
X156639380Y-77288571D01*
X156639380Y-77409523D01*
X156663571Y-77457904D01*
X156687761Y-77482095D01*
X156736142Y-77506285D01*
X156832904Y-77506285D01*
X156881285Y-77482095D01*
X156905476Y-77457904D01*
X156929666Y-77409523D01*
%TO.C,JP2*%
X153119666Y-97486309D02*
X153119666Y-97849166D01*
X153095476Y-97921738D01*
X153047095Y-97970119D01*
X152974523Y-97994309D01*
X152926142Y-97994309D01*
X153361571Y-97994309D02*
X153361571Y-97486309D01*
X153555095Y-97486309D01*
X153603476Y-97510500D01*
X153627666Y-97534690D01*
X153651857Y-97583071D01*
X153651857Y-97655642D01*
X153627666Y-97704023D01*
X153603476Y-97728214D01*
X153555095Y-97752404D01*
X153361571Y-97752404D01*
X153845380Y-97534690D02*
X153869571Y-97510500D01*
X153917952Y-97486309D01*
X154038904Y-97486309D01*
X154087285Y-97510500D01*
X154111476Y-97534690D01*
X154135666Y-97583071D01*
X154135666Y-97631452D01*
X154111476Y-97704023D01*
X153821190Y-97994309D01*
X154135666Y-97994309D01*
%TD*%
M02*
