%TF.GenerationSoftware,KiCad,Pcbnew,(5.1.6)-1*%
%TF.CreationDate,2020-07-31T18:02:46-07:00*%
%TF.ProjectId,dspic33ev256gm102,64737069-6333-4336-9576-323536676d31,rev?*%
%TF.SameCoordinates,Original*%
%TF.FileFunction,Copper,L2,Bot*%
%TF.FilePolarity,Positive*%
%FSLAX46Y46*%
G04 Gerber Fmt 4.6, Leading zero omitted, Abs format (unit mm)*
G04 Created by KiCad (PCBNEW (5.1.6)-1) date 2020-07-31 18:02:46*
%MOMM*%
%LPD*%
G01*
G04 APERTURE LIST*
%TA.AperFunction,ComponentPad*%
%ADD10O,1.700000X1.700000*%
%TD*%
%TA.AperFunction,ComponentPad*%
%ADD11R,1.700000X1.700000*%
%TD*%
%TA.AperFunction,SMDPad,CuDef*%
%ADD12R,2.440000X1.120000*%
%TD*%
%TA.AperFunction,SMDPad,CuDef*%
%ADD13R,2.100000X1.400000*%
%TD*%
%TA.AperFunction,SMDPad,CuDef*%
%ADD14R,1.400000X2.100000*%
%TD*%
%TA.AperFunction,ViaPad*%
%ADD15C,0.762000*%
%TD*%
%TA.AperFunction,Conductor*%
%ADD16C,0.254000*%
%TD*%
%TA.AperFunction,Conductor*%
%ADD17C,0.508000*%
%TD*%
G04 APERTURE END LIST*
D10*
%TO.P,J3,7*%
%TO.N,Net-(J3-Pad7)*%
X190881000Y-83820000D03*
%TO.P,J3,6*%
%TO.N,Net-(J3-Pad6)*%
X188341000Y-83820000D03*
%TO.P,J3,5*%
%TO.N,GNDREF*%
X185801000Y-83820000D03*
%TO.P,J3,4*%
%TO.N,VCC*%
X183261000Y-83820000D03*
%TO.P,J3,3*%
%TO.N,Net-(J3-Pad3)*%
X180721000Y-83820000D03*
%TO.P,J3,2*%
%TO.N,Net-(J3-Pad2)*%
X178181000Y-83820000D03*
D11*
%TO.P,J3,1*%
%TO.N,Net-(J3-Pad1)*%
X175641000Y-83820000D03*
%TD*%
%TO.P,R15,1*%
%TO.N,Net-(J9-Pad1)*%
%TA.AperFunction,SMDPad,CuDef*%
G36*
G01*
X172319500Y-78102750D02*
X172319500Y-78615250D01*
G75*
G02*
X172100750Y-78834000I-218750J0D01*
G01*
X171663250Y-78834000D01*
G75*
G02*
X171444500Y-78615250I0J218750D01*
G01*
X171444500Y-78102750D01*
G75*
G02*
X171663250Y-77884000I218750J0D01*
G01*
X172100750Y-77884000D01*
G75*
G02*
X172319500Y-78102750I0J-218750D01*
G01*
G37*
%TD.AperFunction*%
%TO.P,R15,2*%
%TO.N,Net-(JP1-Pad1)*%
%TA.AperFunction,SMDPad,CuDef*%
G36*
G01*
X170744500Y-78102750D02*
X170744500Y-78615250D01*
G75*
G02*
X170525750Y-78834000I-218750J0D01*
G01*
X170088250Y-78834000D01*
G75*
G02*
X169869500Y-78615250I0J218750D01*
G01*
X169869500Y-78102750D01*
G75*
G02*
X170088250Y-77884000I218750J0D01*
G01*
X170525750Y-77884000D01*
G75*
G02*
X170744500Y-78102750I0J-218750D01*
G01*
G37*
%TD.AperFunction*%
%TD*%
%TO.P,R16,1*%
%TO.N,Net-(JP1-Pad1)*%
%TA.AperFunction,SMDPad,CuDef*%
G36*
G01*
X169869500Y-81028250D02*
X169869500Y-80515750D01*
G75*
G02*
X170088250Y-80297000I218750J0D01*
G01*
X170525750Y-80297000D01*
G75*
G02*
X170744500Y-80515750I0J-218750D01*
G01*
X170744500Y-81028250D01*
G75*
G02*
X170525750Y-81247000I-218750J0D01*
G01*
X170088250Y-81247000D01*
G75*
G02*
X169869500Y-81028250I0J218750D01*
G01*
G37*
%TD.AperFunction*%
%TO.P,R16,2*%
%TO.N,VCC*%
%TA.AperFunction,SMDPad,CuDef*%
G36*
G01*
X171444500Y-81028250D02*
X171444500Y-80515750D01*
G75*
G02*
X171663250Y-80297000I218750J0D01*
G01*
X172100750Y-80297000D01*
G75*
G02*
X172319500Y-80515750I0J-218750D01*
G01*
X172319500Y-81028250D01*
G75*
G02*
X172100750Y-81247000I-218750J0D01*
G01*
X171663250Y-81247000D01*
G75*
G02*
X171444500Y-81028250I0J218750D01*
G01*
G37*
%TD.AperFunction*%
%TD*%
D10*
%TO.P,J1,7*%
%TO.N,Net-(J1-Pad7)*%
X190881000Y-76200000D03*
%TO.P,J1,6*%
%TO.N,Net-(J1-Pad6)*%
X188341000Y-76200000D03*
%TO.P,J1,5*%
%TO.N,GNDREF*%
X185801000Y-76200000D03*
%TO.P,J1,4*%
%TO.N,VCC*%
X183261000Y-76200000D03*
%TO.P,J1,3*%
%TO.N,Net-(J1-Pad3)*%
X180721000Y-76200000D03*
%TO.P,J1,2*%
%TO.N,Net-(J1-Pad2)*%
X178181000Y-76200000D03*
D11*
%TO.P,J1,1*%
%TO.N,Net-(J1-Pad1)*%
X175641000Y-76200000D03*
%TD*%
%TO.P,C1,2*%
%TO.N,GNDREF*%
%TA.AperFunction,SMDPad,CuDef*%
G36*
G01*
X171444500Y-85854250D02*
X171444500Y-85341750D01*
G75*
G02*
X171663250Y-85123000I218750J0D01*
G01*
X172100750Y-85123000D01*
G75*
G02*
X172319500Y-85341750I0J-218750D01*
G01*
X172319500Y-85854250D01*
G75*
G02*
X172100750Y-86073000I-218750J0D01*
G01*
X171663250Y-86073000D01*
G75*
G02*
X171444500Y-85854250I0J218750D01*
G01*
G37*
%TD.AperFunction*%
%TO.P,C1,1*%
%TO.N,Net-(C1-Pad1)*%
%TA.AperFunction,SMDPad,CuDef*%
G36*
G01*
X169869500Y-85854250D02*
X169869500Y-85341750D01*
G75*
G02*
X170088250Y-85123000I218750J0D01*
G01*
X170525750Y-85123000D01*
G75*
G02*
X170744500Y-85341750I0J-218750D01*
G01*
X170744500Y-85854250D01*
G75*
G02*
X170525750Y-86073000I-218750J0D01*
G01*
X170088250Y-86073000D01*
G75*
G02*
X169869500Y-85854250I0J218750D01*
G01*
G37*
%TD.AperFunction*%
%TD*%
%TO.P,D1,2*%
%TO.N,Net-(D1-Pad2)*%
%TA.AperFunction,SMDPad,CuDef*%
G36*
G01*
X195074250Y-79622000D02*
X194561750Y-79622000D01*
G75*
G02*
X194343000Y-79403250I0J218750D01*
G01*
X194343000Y-78965750D01*
G75*
G02*
X194561750Y-78747000I218750J0D01*
G01*
X195074250Y-78747000D01*
G75*
G02*
X195293000Y-78965750I0J-218750D01*
G01*
X195293000Y-79403250D01*
G75*
G02*
X195074250Y-79622000I-218750J0D01*
G01*
G37*
%TD.AperFunction*%
%TO.P,D1,1*%
%TO.N,GNDREF*%
%TA.AperFunction,SMDPad,CuDef*%
G36*
G01*
X195074250Y-81197000D02*
X194561750Y-81197000D01*
G75*
G02*
X194343000Y-80978250I0J218750D01*
G01*
X194343000Y-80540750D01*
G75*
G02*
X194561750Y-80322000I218750J0D01*
G01*
X195074250Y-80322000D01*
G75*
G02*
X195293000Y-80540750I0J-218750D01*
G01*
X195293000Y-80978250D01*
G75*
G02*
X195074250Y-81197000I-218750J0D01*
G01*
G37*
%TD.AperFunction*%
%TD*%
%TO.P,D2,1*%
%TO.N,GNDREF*%
%TA.AperFunction,SMDPad,CuDef*%
G36*
G01*
X196852250Y-83737000D02*
X196339750Y-83737000D01*
G75*
G02*
X196121000Y-83518250I0J218750D01*
G01*
X196121000Y-83080750D01*
G75*
G02*
X196339750Y-82862000I218750J0D01*
G01*
X196852250Y-82862000D01*
G75*
G02*
X197071000Y-83080750I0J-218750D01*
G01*
X197071000Y-83518250D01*
G75*
G02*
X196852250Y-83737000I-218750J0D01*
G01*
G37*
%TD.AperFunction*%
%TO.P,D2,2*%
%TO.N,Net-(D2-Pad2)*%
%TA.AperFunction,SMDPad,CuDef*%
G36*
G01*
X196852250Y-82162000D02*
X196339750Y-82162000D01*
G75*
G02*
X196121000Y-81943250I0J218750D01*
G01*
X196121000Y-81505750D01*
G75*
G02*
X196339750Y-81287000I218750J0D01*
G01*
X196852250Y-81287000D01*
G75*
G02*
X197071000Y-81505750I0J-218750D01*
G01*
X197071000Y-81943250D01*
G75*
G02*
X196852250Y-82162000I-218750J0D01*
G01*
G37*
%TD.AperFunction*%
%TD*%
%TO.P,D3,2*%
%TO.N,Net-(D3-Pad2)*%
%TA.AperFunction,SMDPad,CuDef*%
G36*
G01*
X195074250Y-84706166D02*
X194561750Y-84706166D01*
G75*
G02*
X194343000Y-84487416I0J218750D01*
G01*
X194343000Y-84049916D01*
G75*
G02*
X194561750Y-83831166I218750J0D01*
G01*
X195074250Y-83831166D01*
G75*
G02*
X195293000Y-84049916I0J-218750D01*
G01*
X195293000Y-84487416D01*
G75*
G02*
X195074250Y-84706166I-218750J0D01*
G01*
G37*
%TD.AperFunction*%
%TO.P,D3,1*%
%TO.N,GNDREF*%
%TA.AperFunction,SMDPad,CuDef*%
G36*
G01*
X195074250Y-86281166D02*
X194561750Y-86281166D01*
G75*
G02*
X194343000Y-86062416I0J218750D01*
G01*
X194343000Y-85624916D01*
G75*
G02*
X194561750Y-85406166I218750J0D01*
G01*
X195074250Y-85406166D01*
G75*
G02*
X195293000Y-85624916I0J-218750D01*
G01*
X195293000Y-86062416D01*
G75*
G02*
X195074250Y-86281166I-218750J0D01*
G01*
G37*
%TD.AperFunction*%
%TD*%
%TO.P,D4,1*%
%TO.N,GNDREF*%
%TA.AperFunction,SMDPad,CuDef*%
G36*
G01*
X196852250Y-88829600D02*
X196339750Y-88829600D01*
G75*
G02*
X196121000Y-88610850I0J218750D01*
G01*
X196121000Y-88173350D01*
G75*
G02*
X196339750Y-87954600I218750J0D01*
G01*
X196852250Y-87954600D01*
G75*
G02*
X197071000Y-88173350I0J-218750D01*
G01*
X197071000Y-88610850D01*
G75*
G02*
X196852250Y-88829600I-218750J0D01*
G01*
G37*
%TD.AperFunction*%
%TO.P,D4,2*%
%TO.N,Net-(D4-Pad2)*%
%TA.AperFunction,SMDPad,CuDef*%
G36*
G01*
X196852250Y-87254600D02*
X196339750Y-87254600D01*
G75*
G02*
X196121000Y-87035850I0J218750D01*
G01*
X196121000Y-86598350D01*
G75*
G02*
X196339750Y-86379600I218750J0D01*
G01*
X196852250Y-86379600D01*
G75*
G02*
X197071000Y-86598350I0J-218750D01*
G01*
X197071000Y-87035850D01*
G75*
G02*
X196852250Y-87254600I-218750J0D01*
G01*
G37*
%TD.AperFunction*%
%TD*%
%TO.P,D5,2*%
%TO.N,Net-(D5-Pad2)*%
%TA.AperFunction,SMDPad,CuDef*%
G36*
G01*
X195074250Y-89790332D02*
X194561750Y-89790332D01*
G75*
G02*
X194343000Y-89571582I0J218750D01*
G01*
X194343000Y-89134082D01*
G75*
G02*
X194561750Y-88915332I218750J0D01*
G01*
X195074250Y-88915332D01*
G75*
G02*
X195293000Y-89134082I0J-218750D01*
G01*
X195293000Y-89571582D01*
G75*
G02*
X195074250Y-89790332I-218750J0D01*
G01*
G37*
%TD.AperFunction*%
%TO.P,D5,1*%
%TO.N,GNDREF*%
%TA.AperFunction,SMDPad,CuDef*%
G36*
G01*
X195074250Y-91365332D02*
X194561750Y-91365332D01*
G75*
G02*
X194343000Y-91146582I0J218750D01*
G01*
X194343000Y-90709082D01*
G75*
G02*
X194561750Y-90490332I218750J0D01*
G01*
X195074250Y-90490332D01*
G75*
G02*
X195293000Y-90709082I0J-218750D01*
G01*
X195293000Y-91146582D01*
G75*
G02*
X195074250Y-91365332I-218750J0D01*
G01*
G37*
%TD.AperFunction*%
%TD*%
%TO.P,D6,2*%
%TO.N,Net-(D6-Pad2)*%
%TA.AperFunction,SMDPad,CuDef*%
G36*
G01*
X196852250Y-92322000D02*
X196339750Y-92322000D01*
G75*
G02*
X196121000Y-92103250I0J218750D01*
G01*
X196121000Y-91665750D01*
G75*
G02*
X196339750Y-91447000I218750J0D01*
G01*
X196852250Y-91447000D01*
G75*
G02*
X197071000Y-91665750I0J-218750D01*
G01*
X197071000Y-92103250D01*
G75*
G02*
X196852250Y-92322000I-218750J0D01*
G01*
G37*
%TD.AperFunction*%
%TO.P,D6,1*%
%TO.N,GNDREF*%
%TA.AperFunction,SMDPad,CuDef*%
G36*
G01*
X196852250Y-93897000D02*
X196339750Y-93897000D01*
G75*
G02*
X196121000Y-93678250I0J218750D01*
G01*
X196121000Y-93240750D01*
G75*
G02*
X196339750Y-93022000I218750J0D01*
G01*
X196852250Y-93022000D01*
G75*
G02*
X197071000Y-93240750I0J-218750D01*
G01*
X197071000Y-93678250D01*
G75*
G02*
X196852250Y-93897000I-218750J0D01*
G01*
G37*
%TD.AperFunction*%
%TD*%
%TO.P,D7,1*%
%TO.N,GNDREF*%
%TA.AperFunction,SMDPad,CuDef*%
G36*
G01*
X195074250Y-96449500D02*
X194561750Y-96449500D01*
G75*
G02*
X194343000Y-96230750I0J218750D01*
G01*
X194343000Y-95793250D01*
G75*
G02*
X194561750Y-95574500I218750J0D01*
G01*
X195074250Y-95574500D01*
G75*
G02*
X195293000Y-95793250I0J-218750D01*
G01*
X195293000Y-96230750D01*
G75*
G02*
X195074250Y-96449500I-218750J0D01*
G01*
G37*
%TD.AperFunction*%
%TO.P,D7,2*%
%TO.N,Net-(D7-Pad2)*%
%TA.AperFunction,SMDPad,CuDef*%
G36*
G01*
X195074250Y-94874500D02*
X194561750Y-94874500D01*
G75*
G02*
X194343000Y-94655750I0J218750D01*
G01*
X194343000Y-94218250D01*
G75*
G02*
X194561750Y-93999500I218750J0D01*
G01*
X195074250Y-93999500D01*
G75*
G02*
X195293000Y-94218250I0J-218750D01*
G01*
X195293000Y-94655750D01*
G75*
G02*
X195074250Y-94874500I-218750J0D01*
G01*
G37*
%TD.AperFunction*%
%TD*%
%TO.P,J2,1*%
%TO.N,Net-(J2-Pad1)*%
X175641000Y-80010000D03*
D10*
%TO.P,J2,2*%
%TO.N,Net-(J2-Pad2)*%
X178181000Y-80010000D03*
%TO.P,J2,3*%
%TO.N,Net-(J2-Pad3)*%
X180721000Y-80010000D03*
%TO.P,J2,4*%
%TO.N,VCC*%
X183261000Y-80010000D03*
%TO.P,J2,5*%
%TO.N,GNDREF*%
X185801000Y-80010000D03*
%TO.P,J2,6*%
%TO.N,Net-(J2-Pad6)*%
X188341000Y-80010000D03*
%TO.P,J2,7*%
%TO.N,Net-(J2-Pad7)*%
X190881000Y-80010000D03*
%TD*%
D11*
%TO.P,J4,1*%
%TO.N,Net-(J4-Pad1)*%
X175641000Y-87630000D03*
D10*
%TO.P,J4,2*%
%TO.N,Net-(J4-Pad2)*%
X178181000Y-87630000D03*
%TO.P,J4,3*%
%TO.N,Net-(J4-Pad3)*%
X180721000Y-87630000D03*
%TO.P,J4,4*%
%TO.N,VCC*%
X183261000Y-87630000D03*
%TO.P,J4,5*%
%TO.N,GNDREF*%
X185801000Y-87630000D03*
%TO.P,J4,6*%
%TO.N,Net-(J4-Pad6)*%
X188341000Y-87630000D03*
%TO.P,J4,7*%
%TO.N,Net-(J4-Pad7)*%
X190881000Y-87630000D03*
%TD*%
%TO.P,J5,7*%
%TO.N,Net-(J5-Pad7)*%
X190881000Y-91440000D03*
%TO.P,J5,6*%
%TO.N,Net-(J5-Pad6)*%
X188341000Y-91440000D03*
%TO.P,J5,5*%
%TO.N,GNDREF*%
X185801000Y-91440000D03*
%TO.P,J5,4*%
%TO.N,VCC*%
X183261000Y-91440000D03*
%TO.P,J5,3*%
%TO.N,Net-(J5-Pad3)*%
X180721000Y-91440000D03*
%TO.P,J5,2*%
%TO.N,Net-(J5-Pad2)*%
X178181000Y-91440000D03*
D11*
%TO.P,J5,1*%
%TO.N,Net-(J5-Pad1)*%
X175641000Y-91440000D03*
%TD*%
D10*
%TO.P,J6,7*%
%TO.N,Net-(J6-Pad7)*%
X190881000Y-95250000D03*
%TO.P,J6,6*%
%TO.N,Net-(J6-Pad6)*%
X188341000Y-95250000D03*
%TO.P,J6,5*%
%TO.N,GNDREF*%
X185801000Y-95250000D03*
%TO.P,J6,4*%
%TO.N,VCC*%
X183261000Y-95250000D03*
%TO.P,J6,3*%
%TO.N,Net-(J6-Pad3)*%
X180721000Y-95250000D03*
%TO.P,J6,2*%
%TO.N,Net-(J6-Pad2)*%
X178181000Y-95250000D03*
D11*
%TO.P,J6,1*%
%TO.N,Net-(J6-Pad1)*%
X175641000Y-95250000D03*
%TD*%
%TO.P,J7,1*%
%TO.N,Net-(J7-Pad1)*%
X175641000Y-99060000D03*
D10*
%TO.P,J7,2*%
%TO.N,Net-(J7-Pad2)*%
X178181000Y-99060000D03*
%TO.P,J7,3*%
%TO.N,Net-(J7-Pad3)*%
X180721000Y-99060000D03*
%TO.P,J7,4*%
%TO.N,VCC*%
X183261000Y-99060000D03*
%TO.P,J7,5*%
%TO.N,GNDREF*%
X185801000Y-99060000D03*
%TO.P,J7,6*%
%TO.N,Net-(J7-Pad6)*%
X188341000Y-99060000D03*
%TO.P,J7,7*%
%TO.N,Net-(J7-Pad7)*%
X190881000Y-99060000D03*
%TD*%
%TO.P,J10,5*%
%TO.N,GNDREF*%
X153797000Y-92710000D03*
%TO.P,J10,4*%
%TO.N,Net-(J10-Pad4)*%
X153797000Y-90170000D03*
%TO.P,J10,3*%
%TO.N,Net-(J10-Pad3)*%
X153797000Y-87630000D03*
%TO.P,J10,2*%
%TO.N,Net-(J10-Pad2)*%
X153797000Y-85090000D03*
D11*
%TO.P,J10,1*%
%TO.N,VCC*%
X153797000Y-82550000D03*
%TD*%
D12*
%TO.P,SW4,8*%
%TO.N,VCC*%
X163589000Y-91313000D03*
%TO.P,SW4,4*%
%TO.N,Net-(J7-Pad6)*%
X172199000Y-98933000D03*
%TO.P,SW4,7*%
%TO.N,VCC*%
X163589000Y-93853000D03*
%TO.P,SW4,3*%
%TO.N,Net-(J6-Pad6)*%
X172199000Y-96393000D03*
%TO.P,SW4,6*%
%TO.N,VCC*%
X163589000Y-96393000D03*
%TO.P,SW4,2*%
%TO.N,Net-(J5-Pad6)*%
X172199000Y-93853000D03*
%TO.P,SW4,5*%
%TO.N,VCC*%
X163589000Y-98933000D03*
%TO.P,SW4,1*%
%TO.N,Net-(J4-Pad6)*%
X172199000Y-91313000D03*
%TD*%
%TO.P,JP1,2*%
%TO.N,Net-(C1-Pad1)*%
%TA.AperFunction,SMDPad,CuDef*%
G36*
G01*
X171444500Y-83441250D02*
X171444500Y-82928750D01*
G75*
G02*
X171663250Y-82710000I218750J0D01*
G01*
X172100750Y-82710000D01*
G75*
G02*
X172319500Y-82928750I0J-218750D01*
G01*
X172319500Y-83441250D01*
G75*
G02*
X172100750Y-83660000I-218750J0D01*
G01*
X171663250Y-83660000D01*
G75*
G02*
X171444500Y-83441250I0J218750D01*
G01*
G37*
%TD.AperFunction*%
%TO.P,JP1,1*%
%TO.N,Net-(JP1-Pad1)*%
%TA.AperFunction,SMDPad,CuDef*%
G36*
G01*
X169869500Y-83441250D02*
X169869500Y-82928750D01*
G75*
G02*
X170088250Y-82710000I218750J0D01*
G01*
X170525750Y-82710000D01*
G75*
G02*
X170744500Y-82928750I0J-218750D01*
G01*
X170744500Y-83441250D01*
G75*
G02*
X170525750Y-83660000I-218750J0D01*
G01*
X170088250Y-83660000D01*
G75*
G02*
X169869500Y-83441250I0J218750D01*
G01*
G37*
%TD.AperFunction*%
%TD*%
D13*
%TO.P,SW1,1*%
%TO.N,N/C*%
X156613000Y-80101000D03*
%TO.P,SW1,3*%
X156613000Y-75601000D03*
%TO.P,SW1,4*%
%TO.N,Net-(J1-Pad6)*%
X165713000Y-75601000D03*
%TO.P,SW1,2*%
%TO.N,VCC*%
X165713000Y-80101000D03*
%TD*%
%TO.P,SW2,2*%
%TO.N,N/C*%
X165713000Y-86959000D03*
%TO.P,SW2,4*%
%TO.N,Net-(J2-Pad6)*%
X165713000Y-82459000D03*
%TO.P,SW2,3*%
%TO.N,N/C*%
X156613000Y-82459000D03*
%TO.P,SW2,1*%
%TO.N,VCC*%
X156613000Y-86959000D03*
%TD*%
D14*
%TO.P,SW3,1*%
%TO.N,N/C*%
X156309500Y-90890500D03*
%TO.P,SW3,3*%
X160809500Y-90890500D03*
%TO.P,SW3,4*%
%TO.N,Net-(J3-Pad6)*%
X160809500Y-99990500D03*
%TO.P,SW3,2*%
%TO.N,VCC*%
X156309500Y-99990500D03*
%TD*%
D15*
%TO.N,GNDREF*%
X157861000Y-84518500D03*
X162877500Y-79946500D03*
%TO.N,Net-(J2-Pad3)*%
X165862000Y-85598000D03*
%TO.N,Net-(J3-Pad1)*%
X164846000Y-85598000D03*
%TO.N,Net-(J3-Pad2)*%
X163830000Y-85598000D03*
%TO.N,Net-(J4-Pad1)*%
X161798000Y-85598000D03*
%TO.N,Net-(J4-Pad2)*%
X160782000Y-85598000D03*
%TO.N,Net-(J4-Pad3)*%
X160782000Y-88900000D03*
%TO.N,Net-(J6-Pad1)*%
X166878000Y-96012000D03*
%TO.N,Net-(D1-Pad2)*%
X196596000Y-79756000D03*
%TO.N,Net-(D2-Pad2)*%
X194818000Y-82296000D03*
%TO.N,VCC*%
X167640000Y-76454000D03*
X173228000Y-82169000D03*
%TO.N,GNDREF*%
X173228000Y-84328000D03*
X157289500Y-96520000D03*
X166878000Y-93599000D03*
%TO.N,Net-(D3-Pad2)*%
X196596000Y-84836000D03*
%TO.N,Net-(D4-Pad2)*%
X194818000Y-87376000D03*
%TO.N,Net-(J5-Pad1)*%
X161798000Y-88900000D03*
%TO.N,Net-(J9-Pad1)*%
X173228000Y-79502000D03*
%TO.N,Net-(D5-Pad2)*%
X196596000Y-89916000D03*
%TO.N,Net-(D6-Pad2)*%
X194818000Y-92456000D03*
%TO.N,Net-(D7-Pad2)*%
X196596000Y-94996000D03*
%TO.N,Net-(J3-Pad3)*%
X162814000Y-85598000D03*
%TD*%
D16*
%TO.N,Net-(J1-Pad6)*%
X178732882Y-74930000D02*
X179489999Y-75687117D01*
X179489999Y-75687117D02*
X179489999Y-77127999D01*
X179489999Y-77127999D02*
X179832000Y-77470000D01*
X187071000Y-77470000D02*
X188341000Y-76200000D01*
X169545000Y-74930000D02*
X178732882Y-74930000D01*
X179832000Y-77470000D02*
X187071000Y-77470000D01*
X165713000Y-75601000D02*
X168874000Y-75601000D01*
X168874000Y-75601000D02*
X169545000Y-74930000D01*
%TO.N,Net-(J2-Pad3)*%
X166787802Y-85598000D02*
X167271001Y-86081199D01*
X165862000Y-85598000D02*
X166787802Y-85598000D01*
X167271001Y-86081199D02*
X167271001Y-87134001D01*
X167271001Y-87134001D02*
X167795991Y-87658991D01*
X173226207Y-87658991D02*
X174525198Y-86360000D01*
X167795991Y-87658991D02*
X173226207Y-87658991D01*
X179489999Y-84289001D02*
X179489999Y-82892001D01*
X174525198Y-86360000D02*
X177419000Y-86360000D01*
X177419000Y-86360000D02*
X179489999Y-84289001D01*
X180721000Y-81661000D02*
X180721000Y-80010000D01*
X179489999Y-82892001D02*
X180721000Y-81661000D01*
%TO.N,Net-(J3-Pad1)*%
X175641000Y-83880624D02*
X175641000Y-83820000D01*
X166744235Y-84835999D02*
X167779011Y-85870775D01*
X164846000Y-85598000D02*
X164973000Y-85598000D01*
X165099999Y-85471001D02*
X165099999Y-85232239D01*
X165099999Y-85232239D02*
X165496239Y-84835999D01*
X164973000Y-85598000D02*
X165099999Y-85471001D01*
X165496239Y-84835999D02*
X166744235Y-84835999D01*
X167779011Y-86880011D02*
X168049981Y-87150981D01*
X167779011Y-85870775D02*
X167779011Y-86880011D01*
X175641000Y-84525764D02*
X175641000Y-83820000D01*
X173015783Y-87150981D02*
X175641000Y-84525764D01*
X168049981Y-87150981D02*
X173015783Y-87150981D01*
%TO.N,Net-(J3-Pad2)*%
X164988249Y-84327989D02*
X166954660Y-84327990D01*
X163830000Y-85598000D02*
X163830000Y-85486238D01*
X163830000Y-85486238D02*
X164988249Y-84327989D01*
X166954660Y-84327990D02*
X168287021Y-85660351D01*
X168287021Y-86499021D02*
X168430971Y-86642971D01*
X168287021Y-85660351D02*
X168287021Y-86499021D01*
X168430971Y-86642971D02*
X172805359Y-86642971D01*
X172805359Y-86642971D02*
X174371000Y-85077330D01*
X174371000Y-82704198D02*
X174779198Y-82296000D01*
X174371000Y-85077330D02*
X174371000Y-82704198D01*
X176657000Y-82296000D02*
X178181000Y-83820000D01*
X174779198Y-82296000D02*
X176657000Y-82296000D01*
%TO.N,Net-(J4-Pad1)*%
X175103999Y-88167001D02*
X175641000Y-87630000D01*
X161798000Y-86136815D02*
X162783165Y-87121980D01*
X164485199Y-88167001D02*
X175103999Y-88167001D01*
X161798000Y-85598000D02*
X161798000Y-86136815D01*
X162783165Y-87121980D02*
X163440178Y-87121980D01*
X163440178Y-87121980D02*
X164485199Y-88167001D01*
%TO.N,Net-(J4-Pad2)*%
X160782000Y-85598000D02*
X160782000Y-87121989D01*
X161290000Y-87629989D02*
X163229757Y-87629990D01*
X160782000Y-87121989D02*
X161290000Y-87629989D01*
X174409999Y-88675009D02*
X175396980Y-89661990D01*
X163229757Y-87629990D02*
X164274776Y-88675009D01*
X164274776Y-88675009D02*
X174409999Y-88675009D01*
X176149010Y-89661990D02*
X178181000Y-87630000D01*
X175396980Y-89661990D02*
X176149010Y-89661990D01*
%TO.N,Net-(J4-Pad3)*%
X161005186Y-88137999D02*
X163019332Y-88137999D01*
X160782000Y-88900000D02*
X160782000Y-88361185D01*
X160782000Y-88361185D02*
X161005186Y-88137999D01*
X164064352Y-89183019D02*
X174146019Y-89183019D01*
X163019332Y-88137999D02*
X164064352Y-89183019D01*
X174146019Y-89183019D02*
X175133000Y-90170000D01*
X178181000Y-90170000D02*
X180721000Y-87630000D01*
X175133000Y-90170000D02*
X178181000Y-90170000D01*
%TO.N,Net-(J6-Pad1)*%
X167640000Y-95250000D02*
X166878000Y-96012000D01*
X175641000Y-95250000D02*
X167640000Y-95250000D01*
%TO.N,Net-(J6-Pad6)*%
X172199000Y-96393000D02*
X172961000Y-97155000D01*
X186436000Y-97155000D02*
X188341000Y-95250000D01*
X172961000Y-97155000D02*
X186436000Y-97155000D01*
%TO.N,Net-(D1-Pad2)*%
X196024500Y-79184500D02*
X196596000Y-79756000D01*
X194818000Y-79184500D02*
X196024500Y-79184500D01*
%TO.N,Net-(D2-Pad2)*%
X195389500Y-81724500D02*
X194818000Y-82296000D01*
X196596000Y-81724500D02*
X195389500Y-81724500D01*
D17*
%TO.N,VCC*%
X163589000Y-98933000D02*
X163589000Y-96393000D01*
X163589000Y-96393000D02*
X163589000Y-93853000D01*
X163589000Y-93853000D02*
X163589000Y-91313000D01*
X173228000Y-82118000D02*
X171882000Y-80772000D01*
X173228000Y-82169000D02*
X173228000Y-82118000D01*
X153797000Y-82935000D02*
X153797000Y-82550000D01*
X156613000Y-85751000D02*
X153797000Y-82935000D01*
X156613000Y-86959000D02*
X156613000Y-85751000D01*
X156309500Y-87262500D02*
X156613000Y-86959000D01*
X165713000Y-78381000D02*
X167640000Y-76454000D01*
X165713000Y-80101000D02*
X165713000Y-78381000D01*
X158732222Y-96393000D02*
X163589000Y-96393000D01*
X156309500Y-98815722D02*
X158732222Y-96393000D01*
X156309500Y-99990500D02*
X156309500Y-98815722D01*
X156309500Y-99990500D02*
X153965500Y-99990500D01*
X152438999Y-83908001D02*
X153797000Y-82550000D01*
X152438999Y-98463999D02*
X152438999Y-83908001D01*
X153965500Y-99990500D02*
X152438999Y-98463999D01*
X156613000Y-86959000D02*
X156627000Y-86959000D01*
X183261000Y-76200000D02*
X181254010Y-74193010D01*
X153797000Y-80252598D02*
X153797000Y-82550000D01*
X181254010Y-74193010D02*
X164456588Y-74193010D01*
X164456588Y-74193010D02*
X159756599Y-78892999D01*
X159756599Y-78892999D02*
X155156599Y-78892999D01*
X155156599Y-78892999D02*
X153797000Y-80252598D01*
X164155000Y-80101000D02*
X159512000Y-84744000D01*
X165713000Y-80101000D02*
X164155000Y-80101000D01*
X159512000Y-84744000D02*
X159512000Y-85598000D01*
X158151000Y-86959000D02*
X156613000Y-86959000D01*
X159512000Y-85598000D02*
X158151000Y-86959000D01*
D16*
%TO.N,Net-(D3-Pad2)*%
X196028666Y-84268666D02*
X196596000Y-84836000D01*
X194818000Y-84268666D02*
X196028666Y-84268666D01*
%TO.N,Net-(D4-Pad2)*%
X195376900Y-86817100D02*
X194818000Y-87376000D01*
X196596000Y-86817100D02*
X195376900Y-86817100D01*
%TO.N,Net-(J3-Pad6)*%
X161403000Y-100584000D02*
X160809500Y-99990500D01*
X188638882Y-100584000D02*
X161403000Y-100584000D01*
X189572001Y-99650881D02*
X188638882Y-100584000D01*
X188341000Y-83820000D02*
X189572001Y-85051001D01*
X189572001Y-85051001D02*
X189572001Y-99650881D01*
%TO.N,Net-(J4-Pad6)*%
X187109999Y-88861001D02*
X188341000Y-87630000D01*
X187109999Y-91952883D02*
X187109999Y-88861001D01*
X185844882Y-93218000D02*
X187109999Y-91952883D01*
X172199000Y-91313000D02*
X174104000Y-93218000D01*
X174104000Y-93218000D02*
X185844882Y-93218000D01*
%TO.N,Net-(J5-Pad1)*%
X161798000Y-88900000D02*
X163062899Y-88900000D01*
X163062899Y-88900000D02*
X163853929Y-89691029D01*
X173892029Y-89691029D02*
X175641000Y-91440000D01*
X163853929Y-89691029D02*
X173892029Y-89691029D01*
%TO.N,Net-(J5-Pad6)*%
X172325990Y-93726010D02*
X172199000Y-93853000D01*
X187324990Y-93726010D02*
X172325990Y-93726010D01*
X188341000Y-92710000D02*
X187324990Y-93726010D01*
X188341000Y-91440000D02*
X188341000Y-92710000D01*
%TO.N,Net-(J7-Pad6)*%
X172489001Y-97828999D02*
X187109999Y-97828999D01*
X172199000Y-98119000D02*
X172489001Y-97828999D01*
X187109999Y-97828999D02*
X188341000Y-99060000D01*
X172199000Y-98933000D02*
X172199000Y-98119000D01*
%TO.N,Net-(J9-Pad1)*%
X172085000Y-78359000D02*
X173228000Y-79502000D01*
X171882000Y-78359000D02*
X172085000Y-78359000D01*
%TO.N,Net-(C1-Pad1)*%
X170307000Y-84760000D02*
X171882000Y-83185000D01*
X170307000Y-85598000D02*
X170307000Y-84760000D01*
%TO.N,Net-(D5-Pad2)*%
X196032832Y-89352832D02*
X196596000Y-89916000D01*
X194818000Y-89352832D02*
X196032832Y-89352832D01*
%TO.N,Net-(D6-Pad2)*%
X195389500Y-91884500D02*
X194818000Y-92456000D01*
X196596000Y-91884500D02*
X195389500Y-91884500D01*
%TO.N,Net-(D7-Pad2)*%
X196037000Y-94437000D02*
X196596000Y-94996000D01*
X194818000Y-94437000D02*
X196037000Y-94437000D01*
%TO.N,Net-(J2-Pad6)*%
X167271001Y-77922433D02*
X169755434Y-75438000D01*
X169755434Y-75438000D02*
X172466000Y-75438000D01*
X172466000Y-75438000D02*
X175006010Y-77978010D01*
X186309010Y-77978010D02*
X188341000Y-80010000D01*
X175006010Y-77978010D02*
X186309010Y-77978010D01*
X167271001Y-80900999D02*
X165713000Y-82459000D01*
X167271001Y-77922433D02*
X167271001Y-80900999D01*
%TO.N,Net-(J3-Pad3)*%
X162941000Y-85598000D02*
X163067999Y-85724999D01*
X162814000Y-85598000D02*
X162941000Y-85598000D01*
X182029999Y-82511001D02*
X180721000Y-83820000D01*
X182029999Y-79540999D02*
X182029999Y-82511001D01*
X163067999Y-85471001D02*
X163067999Y-85232239D01*
X167194801Y-83667001D02*
X167894000Y-82967802D01*
X167894000Y-78232000D02*
X170180000Y-75946000D01*
X163067999Y-85232239D02*
X164633237Y-83667001D01*
X174795586Y-78486020D02*
X180975020Y-78486020D01*
X164633237Y-83667001D02*
X167194801Y-83667001D01*
X162941000Y-85598000D02*
X163067999Y-85471001D01*
X170180000Y-75946000D02*
X172255566Y-75946000D01*
X172255566Y-75946000D02*
X174795586Y-78486020D01*
X167894000Y-82967802D02*
X167894000Y-78232000D01*
X180975020Y-78486020D02*
X182029999Y-79540999D01*
%TO.N,Net-(JP1-Pad1)*%
X170307000Y-78359000D02*
X170307000Y-80772000D01*
X170307000Y-83185000D02*
X170307000Y-80772000D01*
%TD*%
%TO.N,GNDREF*%
G36*
X195667443Y-74093841D02*
G01*
X195669081Y-74099268D01*
X195760699Y-74395239D01*
X195774981Y-74429215D01*
X195788744Y-74463279D01*
X195791405Y-74468285D01*
X195938766Y-74740823D01*
X195959366Y-74771364D01*
X195979492Y-74802119D01*
X195983074Y-74806513D01*
X196180565Y-75045238D01*
X196206682Y-75071173D01*
X196232422Y-75097458D01*
X196236790Y-75101072D01*
X196476888Y-75296890D01*
X196507527Y-75317247D01*
X196537898Y-75338042D01*
X196542882Y-75340737D01*
X196542890Y-75340741D01*
X196816445Y-75486193D01*
X196850485Y-75500224D01*
X196884289Y-75514712D01*
X196889697Y-75516387D01*
X196889703Y-75516389D01*
X196889709Y-75516390D01*
X197186306Y-75605938D01*
X197206001Y-75609838D01*
X197206001Y-79297367D01*
X197187884Y-79270253D01*
X197081747Y-79164116D01*
X196956942Y-79080724D01*
X196818267Y-79023283D01*
X196671050Y-78994000D01*
X196552420Y-78994000D01*
X196401355Y-78842935D01*
X196385448Y-78823552D01*
X196308095Y-78760071D01*
X196219843Y-78712899D01*
X196124085Y-78683851D01*
X196049447Y-78676500D01*
X196049444Y-78676500D01*
X196024500Y-78674043D01*
X195999556Y-78676500D01*
X195598497Y-78676500D01*
X195574456Y-78631523D01*
X195499640Y-78540360D01*
X195408477Y-78465544D01*
X195304470Y-78409951D01*
X195191615Y-78375716D01*
X195074250Y-78364157D01*
X194561750Y-78364157D01*
X194444385Y-78375716D01*
X194331530Y-78409951D01*
X194227523Y-78465544D01*
X194136360Y-78540360D01*
X194061544Y-78631523D01*
X194005951Y-78735530D01*
X193971716Y-78848385D01*
X193960157Y-78965750D01*
X193960157Y-79403250D01*
X193971716Y-79520615D01*
X194005951Y-79633470D01*
X194061544Y-79737477D01*
X194070070Y-79747866D01*
X193988506Y-79791463D01*
X193891815Y-79870815D01*
X193812463Y-79967506D01*
X193753498Y-80077820D01*
X193717188Y-80197518D01*
X193704928Y-80322000D01*
X193708000Y-80473750D01*
X193866750Y-80632500D01*
X194691000Y-80632500D01*
X194691000Y-80612500D01*
X194945000Y-80612500D01*
X194945000Y-80632500D01*
X195769250Y-80632500D01*
X195928000Y-80473750D01*
X195931072Y-80322000D01*
X195918812Y-80197518D01*
X195882502Y-80077820D01*
X195823537Y-79967506D01*
X195744185Y-79870815D01*
X195647494Y-79791463D01*
X195565930Y-79747866D01*
X195574456Y-79737477D01*
X195598497Y-79692500D01*
X195814080Y-79692500D01*
X195834000Y-79712420D01*
X195834000Y-79831050D01*
X195863283Y-79978267D01*
X195920724Y-80116942D01*
X196004116Y-80241747D01*
X196110253Y-80347884D01*
X196235058Y-80431276D01*
X196373733Y-80488717D01*
X196520950Y-80518000D01*
X196671050Y-80518000D01*
X196818267Y-80488717D01*
X196956942Y-80431276D01*
X197081747Y-80347884D01*
X197187884Y-80241747D01*
X197206001Y-80214633D01*
X197206001Y-81021567D01*
X197186477Y-81005544D01*
X197082470Y-80949951D01*
X196969615Y-80915716D01*
X196852250Y-80904157D01*
X196339750Y-80904157D01*
X196222385Y-80915716D01*
X196109530Y-80949951D01*
X196005523Y-81005544D01*
X195928476Y-81068775D01*
X195928000Y-81045250D01*
X195769250Y-80886500D01*
X194945000Y-80886500D01*
X194945000Y-80906500D01*
X194691000Y-80906500D01*
X194691000Y-80886500D01*
X193866750Y-80886500D01*
X193708000Y-81045250D01*
X193704928Y-81197000D01*
X193717188Y-81321482D01*
X193753498Y-81441180D01*
X193812463Y-81551494D01*
X193891815Y-81648185D01*
X193988506Y-81727537D01*
X194098820Y-81786502D01*
X194217858Y-81822612D01*
X194142724Y-81935058D01*
X194085283Y-82073733D01*
X194056000Y-82220950D01*
X194056000Y-82371050D01*
X194085283Y-82518267D01*
X194142724Y-82656942D01*
X194226116Y-82781747D01*
X194332253Y-82887884D01*
X194457058Y-82971276D01*
X194595733Y-83028717D01*
X194742950Y-83058000D01*
X194893050Y-83058000D01*
X195040267Y-83028717D01*
X195178942Y-82971276D01*
X195303747Y-82887884D01*
X195409884Y-82781747D01*
X195493276Y-82656942D01*
X195550717Y-82518267D01*
X195580000Y-82371050D01*
X195580000Y-82252421D01*
X195599921Y-82232500D01*
X195815503Y-82232500D01*
X195839544Y-82277477D01*
X195848070Y-82287866D01*
X195766506Y-82331463D01*
X195669815Y-82410815D01*
X195590463Y-82507506D01*
X195531498Y-82617820D01*
X195495188Y-82737518D01*
X195482928Y-82862000D01*
X195486000Y-83013750D01*
X195644750Y-83172500D01*
X196469000Y-83172500D01*
X196469000Y-83152500D01*
X196723000Y-83152500D01*
X196723000Y-83172500D01*
X196743000Y-83172500D01*
X196743000Y-83426500D01*
X196723000Y-83426500D01*
X196723000Y-83446500D01*
X196469000Y-83446500D01*
X196469000Y-83426500D01*
X195644750Y-83426500D01*
X195486000Y-83585250D01*
X195485441Y-83612873D01*
X195408477Y-83549710D01*
X195304470Y-83494117D01*
X195191615Y-83459882D01*
X195074250Y-83448323D01*
X194561750Y-83448323D01*
X194444385Y-83459882D01*
X194331530Y-83494117D01*
X194227523Y-83549710D01*
X194136360Y-83624526D01*
X194061544Y-83715689D01*
X194005951Y-83819696D01*
X193971716Y-83932551D01*
X193960157Y-84049916D01*
X193960157Y-84487416D01*
X193971716Y-84604781D01*
X194005951Y-84717636D01*
X194061544Y-84821643D01*
X194070070Y-84832032D01*
X193988506Y-84875629D01*
X193891815Y-84954981D01*
X193812463Y-85051672D01*
X193753498Y-85161986D01*
X193717188Y-85281684D01*
X193704928Y-85406166D01*
X193708000Y-85557916D01*
X193866750Y-85716666D01*
X194691000Y-85716666D01*
X194691000Y-85696666D01*
X194945000Y-85696666D01*
X194945000Y-85716666D01*
X195769250Y-85716666D01*
X195928000Y-85557916D01*
X195931072Y-85406166D01*
X195918812Y-85281684D01*
X195882502Y-85161986D01*
X195823537Y-85051672D01*
X195744185Y-84954981D01*
X195647494Y-84875629D01*
X195565930Y-84832032D01*
X195574456Y-84821643D01*
X195598497Y-84776666D01*
X195818246Y-84776666D01*
X195834000Y-84792420D01*
X195834000Y-84911050D01*
X195863283Y-85058267D01*
X195920724Y-85196942D01*
X196004116Y-85321747D01*
X196110253Y-85427884D01*
X196235058Y-85511276D01*
X196373733Y-85568717D01*
X196520950Y-85598000D01*
X196671050Y-85598000D01*
X196818267Y-85568717D01*
X196956942Y-85511276D01*
X197081747Y-85427884D01*
X197187884Y-85321747D01*
X197206001Y-85294634D01*
X197206001Y-86114167D01*
X197186477Y-86098144D01*
X197082470Y-86042551D01*
X196969615Y-86008316D01*
X196852250Y-85996757D01*
X196339750Y-85996757D01*
X196222385Y-86008316D01*
X196109530Y-86042551D01*
X196005523Y-86098144D01*
X195928644Y-86161237D01*
X195928000Y-86129416D01*
X195769250Y-85970666D01*
X194945000Y-85970666D01*
X194945000Y-85990666D01*
X194691000Y-85990666D01*
X194691000Y-85970666D01*
X193866750Y-85970666D01*
X193708000Y-86129416D01*
X193704928Y-86281166D01*
X193717188Y-86405648D01*
X193753498Y-86525346D01*
X193812463Y-86635660D01*
X193891815Y-86732351D01*
X193988506Y-86811703D01*
X194098820Y-86870668D01*
X194215544Y-86906076D01*
X194142724Y-87015058D01*
X194085283Y-87153733D01*
X194056000Y-87300950D01*
X194056000Y-87451050D01*
X194085283Y-87598267D01*
X194142724Y-87736942D01*
X194226116Y-87861747D01*
X194332253Y-87967884D01*
X194457058Y-88051276D01*
X194595733Y-88108717D01*
X194742950Y-88138000D01*
X194893050Y-88138000D01*
X195040267Y-88108717D01*
X195178942Y-88051276D01*
X195303747Y-87967884D01*
X195409884Y-87861747D01*
X195493276Y-87736942D01*
X195550717Y-87598267D01*
X195580000Y-87451050D01*
X195580000Y-87332421D01*
X195587321Y-87325100D01*
X195815503Y-87325100D01*
X195839544Y-87370077D01*
X195848070Y-87380466D01*
X195766506Y-87424063D01*
X195669815Y-87503415D01*
X195590463Y-87600106D01*
X195531498Y-87710420D01*
X195495188Y-87830118D01*
X195482928Y-87954600D01*
X195486000Y-88106350D01*
X195644750Y-88265100D01*
X196469000Y-88265100D01*
X196469000Y-88245100D01*
X196723000Y-88245100D01*
X196723000Y-88265100D01*
X196743000Y-88265100D01*
X196743000Y-88519100D01*
X196723000Y-88519100D01*
X196723000Y-88539100D01*
X196469000Y-88539100D01*
X196469000Y-88519100D01*
X195644750Y-88519100D01*
X195486000Y-88677850D01*
X195485609Y-88697177D01*
X195408477Y-88633876D01*
X195304470Y-88578283D01*
X195191615Y-88544048D01*
X195074250Y-88532489D01*
X194561750Y-88532489D01*
X194444385Y-88544048D01*
X194331530Y-88578283D01*
X194227523Y-88633876D01*
X194136360Y-88708692D01*
X194061544Y-88799855D01*
X194005951Y-88903862D01*
X193971716Y-89016717D01*
X193960157Y-89134082D01*
X193960157Y-89571582D01*
X193971716Y-89688947D01*
X194005951Y-89801802D01*
X194061544Y-89905809D01*
X194070070Y-89916198D01*
X193988506Y-89959795D01*
X193891815Y-90039147D01*
X193812463Y-90135838D01*
X193753498Y-90246152D01*
X193717188Y-90365850D01*
X193704928Y-90490332D01*
X193708000Y-90642082D01*
X193866750Y-90800832D01*
X194691000Y-90800832D01*
X194691000Y-90780832D01*
X194945000Y-90780832D01*
X194945000Y-90800832D01*
X195769250Y-90800832D01*
X195928000Y-90642082D01*
X195931072Y-90490332D01*
X195918812Y-90365850D01*
X195882502Y-90246152D01*
X195823537Y-90135838D01*
X195744185Y-90039147D01*
X195647494Y-89959795D01*
X195565930Y-89916198D01*
X195574456Y-89905809D01*
X195598497Y-89860832D01*
X195822412Y-89860832D01*
X195834000Y-89872420D01*
X195834000Y-89991050D01*
X195863283Y-90138267D01*
X195920724Y-90276942D01*
X196004116Y-90401747D01*
X196110253Y-90507884D01*
X196235058Y-90591276D01*
X196373733Y-90648717D01*
X196520950Y-90678000D01*
X196671050Y-90678000D01*
X196818267Y-90648717D01*
X196956942Y-90591276D01*
X197081747Y-90507884D01*
X197187884Y-90401747D01*
X197206000Y-90374634D01*
X197206000Y-91181567D01*
X197186477Y-91165544D01*
X197082470Y-91109951D01*
X196969615Y-91075716D01*
X196852250Y-91064157D01*
X196339750Y-91064157D01*
X196222385Y-91075716D01*
X196109530Y-91109951D01*
X196005523Y-91165544D01*
X195928310Y-91228911D01*
X195928000Y-91213582D01*
X195769250Y-91054832D01*
X194945000Y-91054832D01*
X194945000Y-91074832D01*
X194691000Y-91074832D01*
X194691000Y-91054832D01*
X193866750Y-91054832D01*
X193708000Y-91213582D01*
X193704928Y-91365332D01*
X193717188Y-91489814D01*
X193753498Y-91609512D01*
X193812463Y-91719826D01*
X193891815Y-91816517D01*
X193988506Y-91895869D01*
X194098820Y-91954834D01*
X194213229Y-91989540D01*
X194142724Y-92095058D01*
X194085283Y-92233733D01*
X194056000Y-92380950D01*
X194056000Y-92531050D01*
X194085283Y-92678267D01*
X194142724Y-92816942D01*
X194226116Y-92941747D01*
X194332253Y-93047884D01*
X194457058Y-93131276D01*
X194595733Y-93188717D01*
X194742950Y-93218000D01*
X194893050Y-93218000D01*
X195040267Y-93188717D01*
X195178942Y-93131276D01*
X195303747Y-93047884D01*
X195409884Y-92941747D01*
X195493276Y-92816942D01*
X195550717Y-92678267D01*
X195580000Y-92531050D01*
X195580000Y-92412421D01*
X195599921Y-92392500D01*
X195815503Y-92392500D01*
X195839544Y-92437477D01*
X195848070Y-92447866D01*
X195766506Y-92491463D01*
X195669815Y-92570815D01*
X195590463Y-92667506D01*
X195531498Y-92777820D01*
X195495188Y-92897518D01*
X195482928Y-93022000D01*
X195486000Y-93173750D01*
X195644750Y-93332500D01*
X196469000Y-93332500D01*
X196469000Y-93312500D01*
X196723000Y-93312500D01*
X196723000Y-93332500D01*
X196743000Y-93332500D01*
X196743000Y-93586500D01*
X196723000Y-93586500D01*
X196723000Y-93606500D01*
X196469000Y-93606500D01*
X196469000Y-93586500D01*
X195644750Y-93586500D01*
X195486000Y-93745250D01*
X195485275Y-93781071D01*
X195408477Y-93718044D01*
X195304470Y-93662451D01*
X195191615Y-93628216D01*
X195074250Y-93616657D01*
X194561750Y-93616657D01*
X194444385Y-93628216D01*
X194331530Y-93662451D01*
X194227523Y-93718044D01*
X194136360Y-93792860D01*
X194061544Y-93884023D01*
X194005951Y-93988030D01*
X193971716Y-94100885D01*
X193960157Y-94218250D01*
X193960157Y-94655750D01*
X193971716Y-94773115D01*
X194005951Y-94885970D01*
X194061544Y-94989977D01*
X194070070Y-95000366D01*
X193988506Y-95043963D01*
X193891815Y-95123315D01*
X193812463Y-95220006D01*
X193753498Y-95330320D01*
X193717188Y-95450018D01*
X193704928Y-95574500D01*
X193708000Y-95726250D01*
X193866750Y-95885000D01*
X194691000Y-95885000D01*
X194691000Y-95865000D01*
X194945000Y-95865000D01*
X194945000Y-95885000D01*
X195769250Y-95885000D01*
X195928000Y-95726250D01*
X195931072Y-95574500D01*
X195918812Y-95450018D01*
X195882502Y-95330320D01*
X195823537Y-95220006D01*
X195744185Y-95123315D01*
X195647494Y-95043963D01*
X195565930Y-95000366D01*
X195574456Y-94989977D01*
X195598497Y-94945000D01*
X195826580Y-94945000D01*
X195834000Y-94952420D01*
X195834000Y-95071050D01*
X195863283Y-95218267D01*
X195920724Y-95356942D01*
X196004116Y-95481747D01*
X196110253Y-95587884D01*
X196235058Y-95671276D01*
X196373733Y-95728717D01*
X196520950Y-95758000D01*
X196671050Y-95758000D01*
X196818267Y-95728717D01*
X196956942Y-95671276D01*
X197081747Y-95587884D01*
X197187884Y-95481747D01*
X197206000Y-95454634D01*
X197206000Y-99650132D01*
X197178159Y-99655443D01*
X197172732Y-99657081D01*
X196876762Y-99748699D01*
X196842799Y-99762976D01*
X196808721Y-99776744D01*
X196803720Y-99779402D01*
X196803716Y-99779404D01*
X196803715Y-99779405D01*
X196531177Y-99926766D01*
X196500686Y-99947333D01*
X196469881Y-99967491D01*
X196465488Y-99971074D01*
X196226762Y-100168564D01*
X196200791Y-100194717D01*
X196174542Y-100220422D01*
X196170933Y-100224784D01*
X196170929Y-100224788D01*
X196170928Y-100224790D01*
X195975110Y-100464888D01*
X195954753Y-100495527D01*
X195933958Y-100525898D01*
X195931262Y-100530885D01*
X195785807Y-100804445D01*
X195771776Y-100838485D01*
X195757288Y-100872289D01*
X195755613Y-100877697D01*
X195755611Y-100877703D01*
X195755611Y-100877705D01*
X195666062Y-101174307D01*
X195662163Y-101194000D01*
X161859464Y-101194000D01*
X161863201Y-101187008D01*
X161884987Y-101115189D01*
X161887271Y-101092000D01*
X188613938Y-101092000D01*
X188638882Y-101094457D01*
X188663826Y-101092000D01*
X188663829Y-101092000D01*
X188738467Y-101084649D01*
X188834225Y-101055601D01*
X188922477Y-101008429D01*
X188999830Y-100944948D01*
X189015737Y-100925565D01*
X189913566Y-100027736D01*
X189932949Y-100011829D01*
X189996430Y-99934476D01*
X190002752Y-99922649D01*
X190096283Y-100016180D01*
X190297903Y-100150898D01*
X190521931Y-100243693D01*
X190759757Y-100291000D01*
X191002243Y-100291000D01*
X191240069Y-100243693D01*
X191464097Y-100150898D01*
X191665717Y-100016180D01*
X191837180Y-99844717D01*
X191971898Y-99643097D01*
X192064693Y-99419069D01*
X192112000Y-99181243D01*
X192112000Y-98938757D01*
X192064693Y-98700931D01*
X191971898Y-98476903D01*
X191837180Y-98275283D01*
X191665717Y-98103820D01*
X191464097Y-97969102D01*
X191240069Y-97876307D01*
X191002243Y-97829000D01*
X190759757Y-97829000D01*
X190521931Y-97876307D01*
X190297903Y-97969102D01*
X190096283Y-98103820D01*
X190080001Y-98120102D01*
X190080001Y-96189898D01*
X190096283Y-96206180D01*
X190297903Y-96340898D01*
X190521931Y-96433693D01*
X190759757Y-96481000D01*
X191002243Y-96481000D01*
X191160602Y-96449500D01*
X193704928Y-96449500D01*
X193717188Y-96573982D01*
X193753498Y-96693680D01*
X193812463Y-96803994D01*
X193891815Y-96900685D01*
X193988506Y-96980037D01*
X194098820Y-97039002D01*
X194218518Y-97075312D01*
X194343000Y-97087572D01*
X194532250Y-97084500D01*
X194691000Y-96925750D01*
X194691000Y-96139000D01*
X194945000Y-96139000D01*
X194945000Y-96925750D01*
X195103750Y-97084500D01*
X195293000Y-97087572D01*
X195417482Y-97075312D01*
X195537180Y-97039002D01*
X195647494Y-96980037D01*
X195744185Y-96900685D01*
X195823537Y-96803994D01*
X195882502Y-96693680D01*
X195918812Y-96573982D01*
X195931072Y-96449500D01*
X195928000Y-96297750D01*
X195769250Y-96139000D01*
X194945000Y-96139000D01*
X194691000Y-96139000D01*
X193866750Y-96139000D01*
X193708000Y-96297750D01*
X193704928Y-96449500D01*
X191160602Y-96449500D01*
X191240069Y-96433693D01*
X191464097Y-96340898D01*
X191665717Y-96206180D01*
X191837180Y-96034717D01*
X191971898Y-95833097D01*
X192064693Y-95609069D01*
X192112000Y-95371243D01*
X192112000Y-95128757D01*
X192064693Y-94890931D01*
X191971898Y-94666903D01*
X191837180Y-94465283D01*
X191665717Y-94293820D01*
X191464097Y-94159102D01*
X191240069Y-94066307D01*
X191002243Y-94019000D01*
X190759757Y-94019000D01*
X190521931Y-94066307D01*
X190297903Y-94159102D01*
X190096283Y-94293820D01*
X190080001Y-94310102D01*
X190080001Y-92379898D01*
X190096283Y-92396180D01*
X190297903Y-92530898D01*
X190521931Y-92623693D01*
X190759757Y-92671000D01*
X191002243Y-92671000D01*
X191240069Y-92623693D01*
X191464097Y-92530898D01*
X191665717Y-92396180D01*
X191837180Y-92224717D01*
X191971898Y-92023097D01*
X192064693Y-91799069D01*
X192112000Y-91561243D01*
X192112000Y-91318757D01*
X192064693Y-91080931D01*
X191971898Y-90856903D01*
X191837180Y-90655283D01*
X191665717Y-90483820D01*
X191464097Y-90349102D01*
X191240069Y-90256307D01*
X191002243Y-90209000D01*
X190759757Y-90209000D01*
X190521931Y-90256307D01*
X190297903Y-90349102D01*
X190096283Y-90483820D01*
X190080001Y-90500102D01*
X190080001Y-88569898D01*
X190096283Y-88586180D01*
X190297903Y-88720898D01*
X190521931Y-88813693D01*
X190759757Y-88861000D01*
X191002243Y-88861000D01*
X191240069Y-88813693D01*
X191464097Y-88720898D01*
X191665717Y-88586180D01*
X191837180Y-88414717D01*
X191971898Y-88213097D01*
X192064693Y-87989069D01*
X192112000Y-87751243D01*
X192112000Y-87508757D01*
X192064693Y-87270931D01*
X191971898Y-87046903D01*
X191837180Y-86845283D01*
X191665717Y-86673820D01*
X191464097Y-86539102D01*
X191240069Y-86446307D01*
X191002243Y-86399000D01*
X190759757Y-86399000D01*
X190521931Y-86446307D01*
X190297903Y-86539102D01*
X190096283Y-86673820D01*
X190080001Y-86690102D01*
X190080001Y-85075944D01*
X190082458Y-85051000D01*
X190079769Y-85023701D01*
X190072650Y-84951416D01*
X190043602Y-84855658D01*
X190029159Y-84828637D01*
X189996430Y-84767405D01*
X189948851Y-84709430D01*
X189932949Y-84690053D01*
X189913572Y-84674151D01*
X189493587Y-84254166D01*
X189524693Y-84179069D01*
X189572000Y-83941243D01*
X189572000Y-83698757D01*
X189650000Y-83698757D01*
X189650000Y-83941243D01*
X189697307Y-84179069D01*
X189790102Y-84403097D01*
X189924820Y-84604717D01*
X190096283Y-84776180D01*
X190297903Y-84910898D01*
X190521931Y-85003693D01*
X190759757Y-85051000D01*
X191002243Y-85051000D01*
X191240069Y-85003693D01*
X191464097Y-84910898D01*
X191665717Y-84776180D01*
X191837180Y-84604717D01*
X191971898Y-84403097D01*
X192064693Y-84179069D01*
X192112000Y-83941243D01*
X192112000Y-83698757D01*
X192064693Y-83460931D01*
X191971898Y-83236903D01*
X191837180Y-83035283D01*
X191665717Y-82863820D01*
X191464097Y-82729102D01*
X191240069Y-82636307D01*
X191002243Y-82589000D01*
X190759757Y-82589000D01*
X190521931Y-82636307D01*
X190297903Y-82729102D01*
X190096283Y-82863820D01*
X189924820Y-83035283D01*
X189790102Y-83236903D01*
X189697307Y-83460931D01*
X189650000Y-83698757D01*
X189572000Y-83698757D01*
X189524693Y-83460931D01*
X189431898Y-83236903D01*
X189297180Y-83035283D01*
X189125717Y-82863820D01*
X188924097Y-82729102D01*
X188700069Y-82636307D01*
X188462243Y-82589000D01*
X188219757Y-82589000D01*
X187981931Y-82636307D01*
X187757903Y-82729102D01*
X187556283Y-82863820D01*
X187384820Y-83035283D01*
X187250102Y-83236903D01*
X187202772Y-83351168D01*
X187145157Y-83188748D01*
X186996178Y-82938645D01*
X186801269Y-82722412D01*
X186567920Y-82548359D01*
X186305099Y-82423175D01*
X186157890Y-82378524D01*
X185928000Y-82499845D01*
X185928000Y-83693000D01*
X185948000Y-83693000D01*
X185948000Y-83947000D01*
X185928000Y-83947000D01*
X185928000Y-85140155D01*
X186157890Y-85261476D01*
X186305099Y-85216825D01*
X186567920Y-85091641D01*
X186801269Y-84917588D01*
X186996178Y-84701355D01*
X187145157Y-84451252D01*
X187202772Y-84288832D01*
X187250102Y-84403097D01*
X187384820Y-84604717D01*
X187556283Y-84776180D01*
X187757903Y-84910898D01*
X187981931Y-85003693D01*
X188219757Y-85051000D01*
X188462243Y-85051000D01*
X188700069Y-85003693D01*
X188775166Y-84972587D01*
X189064001Y-85261422D01*
X189064001Y-86632583D01*
X188924097Y-86539102D01*
X188700069Y-86446307D01*
X188462243Y-86399000D01*
X188219757Y-86399000D01*
X187981931Y-86446307D01*
X187757903Y-86539102D01*
X187556283Y-86673820D01*
X187384820Y-86845283D01*
X187250102Y-87046903D01*
X187202772Y-87161168D01*
X187145157Y-86998748D01*
X186996178Y-86748645D01*
X186801269Y-86532412D01*
X186567920Y-86358359D01*
X186305099Y-86233175D01*
X186157890Y-86188524D01*
X185928000Y-86309845D01*
X185928000Y-87503000D01*
X185948000Y-87503000D01*
X185948000Y-87757000D01*
X185928000Y-87757000D01*
X185928000Y-88950155D01*
X186157890Y-89071476D01*
X186305099Y-89026825D01*
X186567920Y-88901641D01*
X186601107Y-88876887D01*
X186602000Y-88885955D01*
X186602000Y-90193779D01*
X186567920Y-90168359D01*
X186305099Y-90043175D01*
X186157890Y-89998524D01*
X185928000Y-90119845D01*
X185928000Y-91313000D01*
X185948000Y-91313000D01*
X185948000Y-91567000D01*
X185928000Y-91567000D01*
X185928000Y-91587000D01*
X185674000Y-91587000D01*
X185674000Y-91567000D01*
X185654000Y-91567000D01*
X185654000Y-91313000D01*
X185674000Y-91313000D01*
X185674000Y-90119845D01*
X185444110Y-89998524D01*
X185296901Y-90043175D01*
X185034080Y-90168359D01*
X184800731Y-90342412D01*
X184605822Y-90558645D01*
X184456843Y-90808748D01*
X184399228Y-90971168D01*
X184351898Y-90856903D01*
X184217180Y-90655283D01*
X184045717Y-90483820D01*
X183844097Y-90349102D01*
X183620069Y-90256307D01*
X183382243Y-90209000D01*
X183139757Y-90209000D01*
X182901931Y-90256307D01*
X182677903Y-90349102D01*
X182476283Y-90483820D01*
X182304820Y-90655283D01*
X182170102Y-90856903D01*
X182077307Y-91080931D01*
X182030000Y-91318757D01*
X182030000Y-91561243D01*
X182077307Y-91799069D01*
X182170102Y-92023097D01*
X182304820Y-92224717D01*
X182476283Y-92396180D01*
X182677903Y-92530898D01*
X182901931Y-92623693D01*
X183139757Y-92671000D01*
X183382243Y-92671000D01*
X183620069Y-92623693D01*
X183844097Y-92530898D01*
X184045717Y-92396180D01*
X184217180Y-92224717D01*
X184351898Y-92023097D01*
X184399228Y-91908832D01*
X184456843Y-92071252D01*
X184605822Y-92321355D01*
X184800731Y-92537588D01*
X185031880Y-92710000D01*
X174314420Y-92710000D01*
X173716044Y-92111624D01*
X173737322Y-92085696D01*
X173772701Y-92019508D01*
X173794487Y-91947689D01*
X173801843Y-91873000D01*
X173801843Y-90753000D01*
X173794487Y-90678311D01*
X173772701Y-90606492D01*
X173737322Y-90540304D01*
X173689711Y-90482289D01*
X173631696Y-90434678D01*
X173565508Y-90399299D01*
X173493689Y-90377513D01*
X173419000Y-90370157D01*
X170979000Y-90370157D01*
X170904311Y-90377513D01*
X170832492Y-90399299D01*
X170766304Y-90434678D01*
X170708289Y-90482289D01*
X170660678Y-90540304D01*
X170625299Y-90606492D01*
X170603513Y-90678311D01*
X170596157Y-90753000D01*
X170596157Y-91873000D01*
X170603513Y-91947689D01*
X170625299Y-92019508D01*
X170660678Y-92085696D01*
X170708289Y-92143711D01*
X170766304Y-92191322D01*
X170832492Y-92226701D01*
X170904311Y-92248487D01*
X170979000Y-92255843D01*
X172423423Y-92255843D01*
X173077737Y-92910157D01*
X170979000Y-92910157D01*
X170904311Y-92917513D01*
X170832492Y-92939299D01*
X170766304Y-92974678D01*
X170708289Y-93022289D01*
X170660678Y-93080304D01*
X170625299Y-93146492D01*
X170603513Y-93218311D01*
X170596157Y-93293000D01*
X170596157Y-94413000D01*
X170603513Y-94487689D01*
X170625299Y-94559508D01*
X170660678Y-94625696D01*
X170708289Y-94683711D01*
X170766304Y-94731322D01*
X170786281Y-94742000D01*
X167664944Y-94742000D01*
X167640000Y-94739543D01*
X167615056Y-94742000D01*
X167615053Y-94742000D01*
X167540415Y-94749351D01*
X167444657Y-94778399D01*
X167356405Y-94825571D01*
X167279052Y-94889052D01*
X167263145Y-94908435D01*
X166921580Y-95250000D01*
X166802950Y-95250000D01*
X166655733Y-95279283D01*
X166517058Y-95336724D01*
X166392253Y-95420116D01*
X166286116Y-95526253D01*
X166202724Y-95651058D01*
X166145283Y-95789733D01*
X166116000Y-95936950D01*
X166116000Y-96087050D01*
X166145283Y-96234267D01*
X166202724Y-96372942D01*
X166286116Y-96497747D01*
X166392253Y-96603884D01*
X166517058Y-96687276D01*
X166655733Y-96744717D01*
X166802950Y-96774000D01*
X166953050Y-96774000D01*
X167100267Y-96744717D01*
X167238942Y-96687276D01*
X167363747Y-96603884D01*
X167469884Y-96497747D01*
X167553276Y-96372942D01*
X167610717Y-96234267D01*
X167640000Y-96087050D01*
X167640000Y-95968420D01*
X167850420Y-95758000D01*
X170603607Y-95758000D01*
X170603513Y-95758311D01*
X170596157Y-95833000D01*
X170596157Y-96953000D01*
X170603513Y-97027689D01*
X170625299Y-97099508D01*
X170660678Y-97165696D01*
X170708289Y-97223711D01*
X170766304Y-97271322D01*
X170832492Y-97306701D01*
X170904311Y-97328487D01*
X170979000Y-97335843D01*
X172364715Y-97335843D01*
X172293658Y-97357398D01*
X172293656Y-97357399D01*
X172205405Y-97404570D01*
X172177289Y-97427645D01*
X172128053Y-97468051D01*
X172112146Y-97487434D01*
X171857430Y-97742150D01*
X171838053Y-97758052D01*
X171822151Y-97777429D01*
X171822150Y-97777430D01*
X171774571Y-97835405D01*
X171752709Y-97876307D01*
X171727400Y-97923657D01*
X171707227Y-97990157D01*
X170979000Y-97990157D01*
X170904311Y-97997513D01*
X170832492Y-98019299D01*
X170766304Y-98054678D01*
X170708289Y-98102289D01*
X170660678Y-98160304D01*
X170625299Y-98226492D01*
X170603513Y-98298311D01*
X170596157Y-98373000D01*
X170596157Y-99493000D01*
X170603513Y-99567689D01*
X170625299Y-99639508D01*
X170660678Y-99705696D01*
X170708289Y-99763711D01*
X170766304Y-99811322D01*
X170832492Y-99846701D01*
X170904311Y-99868487D01*
X170979000Y-99875843D01*
X173419000Y-99875843D01*
X173493689Y-99868487D01*
X173565508Y-99846701D01*
X173631696Y-99811322D01*
X173689711Y-99763711D01*
X173737322Y-99705696D01*
X173772701Y-99639508D01*
X173794487Y-99567689D01*
X173801843Y-99493000D01*
X173801843Y-98373000D01*
X173798297Y-98336999D01*
X174408157Y-98336999D01*
X174408157Y-99910000D01*
X174415513Y-99984689D01*
X174437299Y-100056508D01*
X174447718Y-100076000D01*
X161892343Y-100076000D01*
X161892343Y-98940500D01*
X161884987Y-98865811D01*
X161863201Y-98793992D01*
X161827822Y-98727804D01*
X161780211Y-98669789D01*
X161722196Y-98622178D01*
X161656008Y-98586799D01*
X161584189Y-98565013D01*
X161509500Y-98557657D01*
X160109500Y-98557657D01*
X160034811Y-98565013D01*
X159962992Y-98586799D01*
X159896804Y-98622178D01*
X159838789Y-98669789D01*
X159791178Y-98727804D01*
X159755799Y-98793992D01*
X159734013Y-98865811D01*
X159726657Y-98940500D01*
X159726657Y-101040500D01*
X159734013Y-101115189D01*
X159755799Y-101187008D01*
X159759536Y-101194000D01*
X157359464Y-101194000D01*
X157363201Y-101187008D01*
X157384987Y-101115189D01*
X157392343Y-101040500D01*
X157392343Y-98940500D01*
X157384987Y-98865811D01*
X157363201Y-98793992D01*
X157327822Y-98727804D01*
X157313227Y-98710019D01*
X158995247Y-97028000D01*
X161993607Y-97028000D01*
X162015299Y-97099508D01*
X162050678Y-97165696D01*
X162098289Y-97223711D01*
X162156304Y-97271322D01*
X162222492Y-97306701D01*
X162294311Y-97328487D01*
X162369000Y-97335843D01*
X162954001Y-97335843D01*
X162954000Y-97990157D01*
X162369000Y-97990157D01*
X162294311Y-97997513D01*
X162222492Y-98019299D01*
X162156304Y-98054678D01*
X162098289Y-98102289D01*
X162050678Y-98160304D01*
X162015299Y-98226492D01*
X161993513Y-98298311D01*
X161986157Y-98373000D01*
X161986157Y-99493000D01*
X161993513Y-99567689D01*
X162015299Y-99639508D01*
X162050678Y-99705696D01*
X162098289Y-99763711D01*
X162156304Y-99811322D01*
X162222492Y-99846701D01*
X162294311Y-99868487D01*
X162369000Y-99875843D01*
X164809000Y-99875843D01*
X164883689Y-99868487D01*
X164955508Y-99846701D01*
X165021696Y-99811322D01*
X165079711Y-99763711D01*
X165127322Y-99705696D01*
X165162701Y-99639508D01*
X165184487Y-99567689D01*
X165191843Y-99493000D01*
X165191843Y-98373000D01*
X165184487Y-98298311D01*
X165162701Y-98226492D01*
X165127322Y-98160304D01*
X165079711Y-98102289D01*
X165021696Y-98054678D01*
X164955508Y-98019299D01*
X164883689Y-97997513D01*
X164809000Y-97990157D01*
X164224000Y-97990157D01*
X164224000Y-97335843D01*
X164809000Y-97335843D01*
X164883689Y-97328487D01*
X164955508Y-97306701D01*
X165021696Y-97271322D01*
X165079711Y-97223711D01*
X165127322Y-97165696D01*
X165162701Y-97099508D01*
X165184487Y-97027689D01*
X165191843Y-96953000D01*
X165191843Y-95833000D01*
X165184487Y-95758311D01*
X165162701Y-95686492D01*
X165127322Y-95620304D01*
X165079711Y-95562289D01*
X165021696Y-95514678D01*
X164955508Y-95479299D01*
X164883689Y-95457513D01*
X164809000Y-95450157D01*
X164224000Y-95450157D01*
X164224000Y-94795843D01*
X164809000Y-94795843D01*
X164883689Y-94788487D01*
X164955508Y-94766701D01*
X165021696Y-94731322D01*
X165079711Y-94683711D01*
X165127322Y-94625696D01*
X165162701Y-94559508D01*
X165184487Y-94487689D01*
X165191843Y-94413000D01*
X165191843Y-93293000D01*
X165184487Y-93218311D01*
X165162701Y-93146492D01*
X165127322Y-93080304D01*
X165079711Y-93022289D01*
X165021696Y-92974678D01*
X164955508Y-92939299D01*
X164883689Y-92917513D01*
X164809000Y-92910157D01*
X164224000Y-92910157D01*
X164224000Y-92255843D01*
X164809000Y-92255843D01*
X164883689Y-92248487D01*
X164955508Y-92226701D01*
X165021696Y-92191322D01*
X165079711Y-92143711D01*
X165127322Y-92085696D01*
X165162701Y-92019508D01*
X165184487Y-91947689D01*
X165191843Y-91873000D01*
X165191843Y-90753000D01*
X165184487Y-90678311D01*
X165162701Y-90606492D01*
X165127322Y-90540304D01*
X165079711Y-90482289D01*
X165021696Y-90434678D01*
X164955508Y-90399299D01*
X164883689Y-90377513D01*
X164809000Y-90370157D01*
X162369000Y-90370157D01*
X162294311Y-90377513D01*
X162222492Y-90399299D01*
X162156304Y-90434678D01*
X162098289Y-90482289D01*
X162050678Y-90540304D01*
X162015299Y-90606492D01*
X161993513Y-90678311D01*
X161986157Y-90753000D01*
X161986157Y-91873000D01*
X161993513Y-91947689D01*
X162015299Y-92019508D01*
X162050678Y-92085696D01*
X162098289Y-92143711D01*
X162156304Y-92191322D01*
X162222492Y-92226701D01*
X162294311Y-92248487D01*
X162369000Y-92255843D01*
X162954001Y-92255843D01*
X162954000Y-92910157D01*
X162369000Y-92910157D01*
X162294311Y-92917513D01*
X162222492Y-92939299D01*
X162156304Y-92974678D01*
X162098289Y-93022289D01*
X162050678Y-93080304D01*
X162015299Y-93146492D01*
X161993513Y-93218311D01*
X161986157Y-93293000D01*
X161986157Y-94413000D01*
X161993513Y-94487689D01*
X162015299Y-94559508D01*
X162050678Y-94625696D01*
X162098289Y-94683711D01*
X162156304Y-94731322D01*
X162222492Y-94766701D01*
X162294311Y-94788487D01*
X162369000Y-94795843D01*
X162954001Y-94795843D01*
X162954000Y-95450157D01*
X162369000Y-95450157D01*
X162294311Y-95457513D01*
X162222492Y-95479299D01*
X162156304Y-95514678D01*
X162098289Y-95562289D01*
X162050678Y-95620304D01*
X162015299Y-95686492D01*
X161993607Y-95758000D01*
X158763402Y-95758000D01*
X158732221Y-95754929D01*
X158701040Y-95758000D01*
X158701030Y-95758000D01*
X158607740Y-95767188D01*
X158488042Y-95803498D01*
X158432849Y-95833000D01*
X158377727Y-95862463D01*
X158354833Y-95881252D01*
X158281037Y-95941815D01*
X158261152Y-95966045D01*
X155882546Y-98344652D01*
X155858316Y-98364537D01*
X155838432Y-98388766D01*
X155778963Y-98461229D01*
X155727420Y-98557657D01*
X155609500Y-98557657D01*
X155534811Y-98565013D01*
X155462992Y-98586799D01*
X155396804Y-98622178D01*
X155338789Y-98669789D01*
X155291178Y-98727804D01*
X155255799Y-98793992D01*
X155234013Y-98865811D01*
X155226657Y-98940500D01*
X155226657Y-99355500D01*
X154228526Y-99355500D01*
X153073999Y-98200975D01*
X153073999Y-93999505D01*
X153165748Y-94054157D01*
X153440109Y-94151481D01*
X153670000Y-94030814D01*
X153670000Y-92837000D01*
X153924000Y-92837000D01*
X153924000Y-94030814D01*
X154153891Y-94151481D01*
X154428252Y-94054157D01*
X154678355Y-93905178D01*
X154894588Y-93710269D01*
X155068641Y-93476920D01*
X155193825Y-93214099D01*
X155238476Y-93066890D01*
X155117155Y-92837000D01*
X153924000Y-92837000D01*
X153670000Y-92837000D01*
X153650000Y-92837000D01*
X153650000Y-92583000D01*
X153670000Y-92583000D01*
X153670000Y-92563000D01*
X153924000Y-92563000D01*
X153924000Y-92583000D01*
X155117155Y-92583000D01*
X155238476Y-92353110D01*
X155193825Y-92205901D01*
X155068641Y-91943080D01*
X154894588Y-91709731D01*
X154678355Y-91514822D01*
X154428252Y-91365843D01*
X154265832Y-91308228D01*
X154380097Y-91260898D01*
X154581717Y-91126180D01*
X154753180Y-90954717D01*
X154887898Y-90753097D01*
X154980693Y-90529069D01*
X155028000Y-90291243D01*
X155028000Y-90048757D01*
X154986575Y-89840500D01*
X155226657Y-89840500D01*
X155226657Y-91940500D01*
X155234013Y-92015189D01*
X155255799Y-92087008D01*
X155291178Y-92153196D01*
X155338789Y-92211211D01*
X155396804Y-92258822D01*
X155462992Y-92294201D01*
X155534811Y-92315987D01*
X155609500Y-92323343D01*
X157009500Y-92323343D01*
X157084189Y-92315987D01*
X157156008Y-92294201D01*
X157222196Y-92258822D01*
X157280211Y-92211211D01*
X157327822Y-92153196D01*
X157363201Y-92087008D01*
X157384987Y-92015189D01*
X157392343Y-91940500D01*
X157392343Y-89840500D01*
X157384987Y-89765811D01*
X157363201Y-89693992D01*
X157327822Y-89627804D01*
X157280211Y-89569789D01*
X157222196Y-89522178D01*
X157156008Y-89486799D01*
X157084189Y-89465013D01*
X157009500Y-89457657D01*
X155609500Y-89457657D01*
X155534811Y-89465013D01*
X155462992Y-89486799D01*
X155396804Y-89522178D01*
X155338789Y-89569789D01*
X155291178Y-89627804D01*
X155255799Y-89693992D01*
X155234013Y-89765811D01*
X155226657Y-89840500D01*
X154986575Y-89840500D01*
X154980693Y-89810931D01*
X154887898Y-89586903D01*
X154753180Y-89385283D01*
X154581717Y-89213820D01*
X154380097Y-89079102D01*
X154156069Y-88986307D01*
X153918243Y-88939000D01*
X153675757Y-88939000D01*
X153437931Y-88986307D01*
X153213903Y-89079102D01*
X153073999Y-89172583D01*
X153073999Y-88627417D01*
X153213903Y-88720898D01*
X153437931Y-88813693D01*
X153675757Y-88861000D01*
X153918243Y-88861000D01*
X154156069Y-88813693D01*
X154380097Y-88720898D01*
X154581717Y-88586180D01*
X154753180Y-88414717D01*
X154887898Y-88213097D01*
X154980693Y-87989069D01*
X155028000Y-87751243D01*
X155028000Y-87508757D01*
X154980693Y-87270931D01*
X154887898Y-87046903D01*
X154753180Y-86845283D01*
X154581717Y-86673820D01*
X154380097Y-86539102D01*
X154156069Y-86446307D01*
X153918243Y-86399000D01*
X153675757Y-86399000D01*
X153437931Y-86446307D01*
X153213903Y-86539102D01*
X153073999Y-86632583D01*
X153073999Y-86087417D01*
X153213903Y-86180898D01*
X153437931Y-86273693D01*
X153675757Y-86321000D01*
X153918243Y-86321000D01*
X154156069Y-86273693D01*
X154380097Y-86180898D01*
X154581717Y-86046180D01*
X154753180Y-85874717D01*
X154887898Y-85673097D01*
X154980693Y-85449069D01*
X155028000Y-85211243D01*
X155028000Y-85064025D01*
X155840131Y-85876157D01*
X155563000Y-85876157D01*
X155488311Y-85883513D01*
X155416492Y-85905299D01*
X155350304Y-85940678D01*
X155292289Y-85988289D01*
X155244678Y-86046304D01*
X155209299Y-86112492D01*
X155187513Y-86184311D01*
X155180157Y-86259000D01*
X155180157Y-87659000D01*
X155187513Y-87733689D01*
X155209299Y-87805508D01*
X155244678Y-87871696D01*
X155292289Y-87929711D01*
X155350304Y-87977322D01*
X155416492Y-88012701D01*
X155488311Y-88034487D01*
X155563000Y-88041843D01*
X157663000Y-88041843D01*
X157737689Y-88034487D01*
X157809508Y-88012701D01*
X157875696Y-87977322D01*
X157933711Y-87929711D01*
X157981322Y-87871696D01*
X158016701Y-87805508D01*
X158038487Y-87733689D01*
X158045843Y-87659000D01*
X158045843Y-87594000D01*
X158119819Y-87594000D01*
X158151000Y-87597071D01*
X158182181Y-87594000D01*
X158182192Y-87594000D01*
X158275482Y-87584812D01*
X158395180Y-87548502D01*
X158505494Y-87489537D01*
X158602185Y-87410185D01*
X158622074Y-87385950D01*
X159938960Y-86069066D01*
X159963185Y-86049185D01*
X159983065Y-86024961D01*
X159983069Y-86024957D01*
X160042538Y-85952494D01*
X160077196Y-85887654D01*
X160106724Y-85958942D01*
X160190116Y-86083747D01*
X160274000Y-86167631D01*
X160274001Y-87097035D01*
X160271543Y-87121989D01*
X160277065Y-87178048D01*
X160281352Y-87221574D01*
X160290931Y-87253150D01*
X160310400Y-87317332D01*
X160357571Y-87405584D01*
X160381430Y-87434656D01*
X160421053Y-87482937D01*
X160440430Y-87498839D01*
X160685104Y-87743514D01*
X160644238Y-87777051D01*
X160628327Y-87796439D01*
X160440431Y-87984334D01*
X160421053Y-88000237D01*
X160405151Y-88019614D01*
X160405150Y-88019615D01*
X160357571Y-88077590D01*
X160313716Y-88159639D01*
X160310400Y-88165842D01*
X160299005Y-88203408D01*
X160281352Y-88261601D01*
X160274642Y-88329727D01*
X160190116Y-88414253D01*
X160106724Y-88539058D01*
X160049283Y-88677733D01*
X160020000Y-88824950D01*
X160020000Y-88975050D01*
X160049283Y-89122267D01*
X160106724Y-89260942D01*
X160190116Y-89385747D01*
X160262026Y-89457657D01*
X160109500Y-89457657D01*
X160034811Y-89465013D01*
X159962992Y-89486799D01*
X159896804Y-89522178D01*
X159838789Y-89569789D01*
X159791178Y-89627804D01*
X159755799Y-89693992D01*
X159734013Y-89765811D01*
X159726657Y-89840500D01*
X159726657Y-91940500D01*
X159734013Y-92015189D01*
X159755799Y-92087008D01*
X159791178Y-92153196D01*
X159838789Y-92211211D01*
X159896804Y-92258822D01*
X159962992Y-92294201D01*
X160034811Y-92315987D01*
X160109500Y-92323343D01*
X161509500Y-92323343D01*
X161584189Y-92315987D01*
X161656008Y-92294201D01*
X161722196Y-92258822D01*
X161780211Y-92211211D01*
X161827822Y-92153196D01*
X161863201Y-92087008D01*
X161884987Y-92015189D01*
X161892343Y-91940500D01*
X161892343Y-89840500D01*
X161884987Y-89765811D01*
X161863201Y-89693992D01*
X161846101Y-89662000D01*
X161873050Y-89662000D01*
X162020267Y-89632717D01*
X162158942Y-89575276D01*
X162283747Y-89491884D01*
X162367631Y-89408000D01*
X162852479Y-89408000D01*
X163477074Y-90032594D01*
X163492981Y-90051977D01*
X163570334Y-90115458D01*
X163658586Y-90162630D01*
X163754344Y-90191678D01*
X163828982Y-90199029D01*
X163828985Y-90199029D01*
X163853929Y-90201486D01*
X163878873Y-90199029D01*
X173681609Y-90199029D01*
X174408157Y-90925577D01*
X174408157Y-92290000D01*
X174415513Y-92364689D01*
X174437299Y-92436508D01*
X174472678Y-92502696D01*
X174520289Y-92560711D01*
X174578304Y-92608322D01*
X174644492Y-92643701D01*
X174716311Y-92665487D01*
X174791000Y-92672843D01*
X176491000Y-92672843D01*
X176565689Y-92665487D01*
X176637508Y-92643701D01*
X176703696Y-92608322D01*
X176761711Y-92560711D01*
X176809322Y-92502696D01*
X176844701Y-92436508D01*
X176866487Y-92364689D01*
X176873843Y-92290000D01*
X176873843Y-90678000D01*
X177209641Y-90678000D01*
X177090102Y-90856903D01*
X176997307Y-91080931D01*
X176950000Y-91318757D01*
X176950000Y-91561243D01*
X176997307Y-91799069D01*
X177090102Y-92023097D01*
X177224820Y-92224717D01*
X177396283Y-92396180D01*
X177597903Y-92530898D01*
X177821931Y-92623693D01*
X178059757Y-92671000D01*
X178302243Y-92671000D01*
X178540069Y-92623693D01*
X178764097Y-92530898D01*
X178965717Y-92396180D01*
X179137180Y-92224717D01*
X179271898Y-92023097D01*
X179364693Y-91799069D01*
X179412000Y-91561243D01*
X179412000Y-91318757D01*
X179490000Y-91318757D01*
X179490000Y-91561243D01*
X179537307Y-91799069D01*
X179630102Y-92023097D01*
X179764820Y-92224717D01*
X179936283Y-92396180D01*
X180137903Y-92530898D01*
X180361931Y-92623693D01*
X180599757Y-92671000D01*
X180842243Y-92671000D01*
X181080069Y-92623693D01*
X181304097Y-92530898D01*
X181505717Y-92396180D01*
X181677180Y-92224717D01*
X181811898Y-92023097D01*
X181904693Y-91799069D01*
X181952000Y-91561243D01*
X181952000Y-91318757D01*
X181904693Y-91080931D01*
X181811898Y-90856903D01*
X181677180Y-90655283D01*
X181505717Y-90483820D01*
X181304097Y-90349102D01*
X181080069Y-90256307D01*
X180842243Y-90209000D01*
X180599757Y-90209000D01*
X180361931Y-90256307D01*
X180137903Y-90349102D01*
X179936283Y-90483820D01*
X179764820Y-90655283D01*
X179630102Y-90856903D01*
X179537307Y-91080931D01*
X179490000Y-91318757D01*
X179412000Y-91318757D01*
X179364693Y-91080931D01*
X179271898Y-90856903D01*
X179137180Y-90655283D01*
X178965717Y-90483820D01*
X178764097Y-90349102D01*
X178733141Y-90336279D01*
X180286834Y-88782587D01*
X180361931Y-88813693D01*
X180599757Y-88861000D01*
X180842243Y-88861000D01*
X181080069Y-88813693D01*
X181304097Y-88720898D01*
X181505717Y-88586180D01*
X181677180Y-88414717D01*
X181811898Y-88213097D01*
X181904693Y-87989069D01*
X181952000Y-87751243D01*
X181952000Y-87508757D01*
X182030000Y-87508757D01*
X182030000Y-87751243D01*
X182077307Y-87989069D01*
X182170102Y-88213097D01*
X182304820Y-88414717D01*
X182476283Y-88586180D01*
X182677903Y-88720898D01*
X182901931Y-88813693D01*
X183139757Y-88861000D01*
X183382243Y-88861000D01*
X183620069Y-88813693D01*
X183844097Y-88720898D01*
X184045717Y-88586180D01*
X184217180Y-88414717D01*
X184351898Y-88213097D01*
X184399228Y-88098832D01*
X184456843Y-88261252D01*
X184605822Y-88511355D01*
X184800731Y-88727588D01*
X185034080Y-88901641D01*
X185296901Y-89026825D01*
X185444110Y-89071476D01*
X185674000Y-88950155D01*
X185674000Y-87757000D01*
X185654000Y-87757000D01*
X185654000Y-87503000D01*
X185674000Y-87503000D01*
X185674000Y-86309845D01*
X185444110Y-86188524D01*
X185296901Y-86233175D01*
X185034080Y-86358359D01*
X184800731Y-86532412D01*
X184605822Y-86748645D01*
X184456843Y-86998748D01*
X184399228Y-87161168D01*
X184351898Y-87046903D01*
X184217180Y-86845283D01*
X184045717Y-86673820D01*
X183844097Y-86539102D01*
X183620069Y-86446307D01*
X183382243Y-86399000D01*
X183139757Y-86399000D01*
X182901931Y-86446307D01*
X182677903Y-86539102D01*
X182476283Y-86673820D01*
X182304820Y-86845283D01*
X182170102Y-87046903D01*
X182077307Y-87270931D01*
X182030000Y-87508757D01*
X181952000Y-87508757D01*
X181904693Y-87270931D01*
X181811898Y-87046903D01*
X181677180Y-86845283D01*
X181505717Y-86673820D01*
X181304097Y-86539102D01*
X181080069Y-86446307D01*
X180842243Y-86399000D01*
X180599757Y-86399000D01*
X180361931Y-86446307D01*
X180137903Y-86539102D01*
X179936283Y-86673820D01*
X179764820Y-86845283D01*
X179630102Y-87046903D01*
X179537307Y-87270931D01*
X179490000Y-87508757D01*
X179490000Y-87751243D01*
X179537307Y-87989069D01*
X179568413Y-88064166D01*
X177970580Y-89662000D01*
X176867420Y-89662000D01*
X177746833Y-88782587D01*
X177821931Y-88813693D01*
X178059757Y-88861000D01*
X178302243Y-88861000D01*
X178540069Y-88813693D01*
X178764097Y-88720898D01*
X178965717Y-88586180D01*
X179137180Y-88414717D01*
X179271898Y-88213097D01*
X179364693Y-87989069D01*
X179412000Y-87751243D01*
X179412000Y-87508757D01*
X179364693Y-87270931D01*
X179271898Y-87046903D01*
X179137180Y-86845283D01*
X178965717Y-86673820D01*
X178764097Y-86539102D01*
X178540069Y-86446307D01*
X178302243Y-86399000D01*
X178098420Y-86399000D01*
X179828762Y-84668659D01*
X179936283Y-84776180D01*
X180137903Y-84910898D01*
X180361931Y-85003693D01*
X180599757Y-85051000D01*
X180842243Y-85051000D01*
X181080069Y-85003693D01*
X181304097Y-84910898D01*
X181505717Y-84776180D01*
X181677180Y-84604717D01*
X181811898Y-84403097D01*
X181904693Y-84179069D01*
X181952000Y-83941243D01*
X181952000Y-83698757D01*
X182030000Y-83698757D01*
X182030000Y-83941243D01*
X182077307Y-84179069D01*
X182170102Y-84403097D01*
X182304820Y-84604717D01*
X182476283Y-84776180D01*
X182677903Y-84910898D01*
X182901931Y-85003693D01*
X183139757Y-85051000D01*
X183382243Y-85051000D01*
X183620069Y-85003693D01*
X183844097Y-84910898D01*
X184045717Y-84776180D01*
X184217180Y-84604717D01*
X184351898Y-84403097D01*
X184399228Y-84288832D01*
X184456843Y-84451252D01*
X184605822Y-84701355D01*
X184800731Y-84917588D01*
X185034080Y-85091641D01*
X185296901Y-85216825D01*
X185444110Y-85261476D01*
X185674000Y-85140155D01*
X185674000Y-83947000D01*
X185654000Y-83947000D01*
X185654000Y-83693000D01*
X185674000Y-83693000D01*
X185674000Y-82499845D01*
X185444110Y-82378524D01*
X185296901Y-82423175D01*
X185034080Y-82548359D01*
X184800731Y-82722412D01*
X184605822Y-82938645D01*
X184456843Y-83188748D01*
X184399228Y-83351168D01*
X184351898Y-83236903D01*
X184217180Y-83035283D01*
X184045717Y-82863820D01*
X183844097Y-82729102D01*
X183620069Y-82636307D01*
X183382243Y-82589000D01*
X183139757Y-82589000D01*
X182901931Y-82636307D01*
X182677903Y-82729102D01*
X182476283Y-82863820D01*
X182304820Y-83035283D01*
X182170102Y-83236903D01*
X182077307Y-83460931D01*
X182030000Y-83698757D01*
X181952000Y-83698757D01*
X181904693Y-83460931D01*
X181873587Y-83385834D01*
X182371570Y-82887851D01*
X182390947Y-82871949D01*
X182430714Y-82823492D01*
X182454428Y-82794597D01*
X182501599Y-82706346D01*
X182502251Y-82704198D01*
X182530648Y-82610586D01*
X182537999Y-82535948D01*
X182537999Y-82535946D01*
X182540456Y-82511002D01*
X182537999Y-82486058D01*
X182537999Y-81007417D01*
X182677903Y-81100898D01*
X182901931Y-81193693D01*
X183139757Y-81241000D01*
X183382243Y-81241000D01*
X183620069Y-81193693D01*
X183844097Y-81100898D01*
X184045717Y-80966180D01*
X184217180Y-80794717D01*
X184351898Y-80593097D01*
X184399228Y-80478832D01*
X184456843Y-80641252D01*
X184605822Y-80891355D01*
X184800731Y-81107588D01*
X185034080Y-81281641D01*
X185296901Y-81406825D01*
X185444110Y-81451476D01*
X185674000Y-81330155D01*
X185674000Y-80137000D01*
X185654000Y-80137000D01*
X185654000Y-79883000D01*
X185674000Y-79883000D01*
X185674000Y-78689845D01*
X185444110Y-78568524D01*
X185296901Y-78613175D01*
X185034080Y-78738359D01*
X184800731Y-78912412D01*
X184605822Y-79128645D01*
X184456843Y-79378748D01*
X184399228Y-79541168D01*
X184351898Y-79426903D01*
X184217180Y-79225283D01*
X184045717Y-79053820D01*
X183844097Y-78919102D01*
X183620069Y-78826307D01*
X183382243Y-78779000D01*
X183139757Y-78779000D01*
X182901931Y-78826307D01*
X182677903Y-78919102D01*
X182476283Y-79053820D01*
X182368762Y-79161342D01*
X181693430Y-78486010D01*
X186098590Y-78486010D01*
X186191211Y-78578631D01*
X186157890Y-78568524D01*
X185928000Y-78689845D01*
X185928000Y-79883000D01*
X185948000Y-79883000D01*
X185948000Y-80137000D01*
X185928000Y-80137000D01*
X185928000Y-81330155D01*
X186157890Y-81451476D01*
X186305099Y-81406825D01*
X186567920Y-81281641D01*
X186801269Y-81107588D01*
X186996178Y-80891355D01*
X187145157Y-80641252D01*
X187202772Y-80478832D01*
X187250102Y-80593097D01*
X187384820Y-80794717D01*
X187556283Y-80966180D01*
X187757903Y-81100898D01*
X187981931Y-81193693D01*
X188219757Y-81241000D01*
X188462243Y-81241000D01*
X188700069Y-81193693D01*
X188924097Y-81100898D01*
X189125717Y-80966180D01*
X189297180Y-80794717D01*
X189431898Y-80593097D01*
X189524693Y-80369069D01*
X189572000Y-80131243D01*
X189572000Y-79888757D01*
X189650000Y-79888757D01*
X189650000Y-80131243D01*
X189697307Y-80369069D01*
X189790102Y-80593097D01*
X189924820Y-80794717D01*
X190096283Y-80966180D01*
X190297903Y-81100898D01*
X190521931Y-81193693D01*
X190759757Y-81241000D01*
X191002243Y-81241000D01*
X191240069Y-81193693D01*
X191464097Y-81100898D01*
X191665717Y-80966180D01*
X191837180Y-80794717D01*
X191971898Y-80593097D01*
X192064693Y-80369069D01*
X192112000Y-80131243D01*
X192112000Y-79888757D01*
X192064693Y-79650931D01*
X191971898Y-79426903D01*
X191837180Y-79225283D01*
X191665717Y-79053820D01*
X191464097Y-78919102D01*
X191240069Y-78826307D01*
X191002243Y-78779000D01*
X190759757Y-78779000D01*
X190521931Y-78826307D01*
X190297903Y-78919102D01*
X190096283Y-79053820D01*
X189924820Y-79225283D01*
X189790102Y-79426903D01*
X189697307Y-79650931D01*
X189650000Y-79888757D01*
X189572000Y-79888757D01*
X189524693Y-79650931D01*
X189431898Y-79426903D01*
X189297180Y-79225283D01*
X189125717Y-79053820D01*
X188924097Y-78919102D01*
X188700069Y-78826307D01*
X188462243Y-78779000D01*
X188219757Y-78779000D01*
X187981931Y-78826307D01*
X187906833Y-78857413D01*
X187027420Y-77978000D01*
X187046056Y-77978000D01*
X187071000Y-77980457D01*
X187095944Y-77978000D01*
X187095947Y-77978000D01*
X187170585Y-77970649D01*
X187266343Y-77941601D01*
X187354595Y-77894429D01*
X187431948Y-77830948D01*
X187447855Y-77811565D01*
X187906834Y-77352587D01*
X187981931Y-77383693D01*
X188219757Y-77431000D01*
X188462243Y-77431000D01*
X188700069Y-77383693D01*
X188924097Y-77290898D01*
X189125717Y-77156180D01*
X189297180Y-76984717D01*
X189431898Y-76783097D01*
X189524693Y-76559069D01*
X189572000Y-76321243D01*
X189572000Y-76078757D01*
X189650000Y-76078757D01*
X189650000Y-76321243D01*
X189697307Y-76559069D01*
X189790102Y-76783097D01*
X189924820Y-76984717D01*
X190096283Y-77156180D01*
X190297903Y-77290898D01*
X190521931Y-77383693D01*
X190759757Y-77431000D01*
X191002243Y-77431000D01*
X191240069Y-77383693D01*
X191464097Y-77290898D01*
X191665717Y-77156180D01*
X191837180Y-76984717D01*
X191971898Y-76783097D01*
X192064693Y-76559069D01*
X192112000Y-76321243D01*
X192112000Y-76078757D01*
X192064693Y-75840931D01*
X191971898Y-75616903D01*
X191837180Y-75415283D01*
X191665717Y-75243820D01*
X191464097Y-75109102D01*
X191240069Y-75016307D01*
X191002243Y-74969000D01*
X190759757Y-74969000D01*
X190521931Y-75016307D01*
X190297903Y-75109102D01*
X190096283Y-75243820D01*
X189924820Y-75415283D01*
X189790102Y-75616903D01*
X189697307Y-75840931D01*
X189650000Y-76078757D01*
X189572000Y-76078757D01*
X189524693Y-75840931D01*
X189431898Y-75616903D01*
X189297180Y-75415283D01*
X189125717Y-75243820D01*
X188924097Y-75109102D01*
X188700069Y-75016307D01*
X188462243Y-74969000D01*
X188219757Y-74969000D01*
X187981931Y-75016307D01*
X187757903Y-75109102D01*
X187556283Y-75243820D01*
X187384820Y-75415283D01*
X187250102Y-75616903D01*
X187202772Y-75731168D01*
X187145157Y-75568748D01*
X186996178Y-75318645D01*
X186801269Y-75102412D01*
X186567920Y-74928359D01*
X186305099Y-74803175D01*
X186157890Y-74758524D01*
X185928000Y-74879845D01*
X185928000Y-76073000D01*
X185948000Y-76073000D01*
X185948000Y-76327000D01*
X185928000Y-76327000D01*
X185928000Y-76347000D01*
X185674000Y-76347000D01*
X185674000Y-76327000D01*
X185654000Y-76327000D01*
X185654000Y-76073000D01*
X185674000Y-76073000D01*
X185674000Y-74879845D01*
X185444110Y-74758524D01*
X185296901Y-74803175D01*
X185034080Y-74928359D01*
X184800731Y-75102412D01*
X184605822Y-75318645D01*
X184456843Y-75568748D01*
X184399228Y-75731168D01*
X184351898Y-75616903D01*
X184217180Y-75415283D01*
X184045717Y-75243820D01*
X183844097Y-75109102D01*
X183620069Y-75016307D01*
X183382243Y-74969000D01*
X183139757Y-74969000D01*
X182963154Y-75004129D01*
X182025024Y-74066000D01*
X195662132Y-74066000D01*
X195667443Y-74093841D01*
G37*
X195667443Y-74093841D02*
X195669081Y-74099268D01*
X195760699Y-74395239D01*
X195774981Y-74429215D01*
X195788744Y-74463279D01*
X195791405Y-74468285D01*
X195938766Y-74740823D01*
X195959366Y-74771364D01*
X195979492Y-74802119D01*
X195983074Y-74806513D01*
X196180565Y-75045238D01*
X196206682Y-75071173D01*
X196232422Y-75097458D01*
X196236790Y-75101072D01*
X196476888Y-75296890D01*
X196507527Y-75317247D01*
X196537898Y-75338042D01*
X196542882Y-75340737D01*
X196542890Y-75340741D01*
X196816445Y-75486193D01*
X196850485Y-75500224D01*
X196884289Y-75514712D01*
X196889697Y-75516387D01*
X196889703Y-75516389D01*
X196889709Y-75516390D01*
X197186306Y-75605938D01*
X197206001Y-75609838D01*
X197206001Y-79297367D01*
X197187884Y-79270253D01*
X197081747Y-79164116D01*
X196956942Y-79080724D01*
X196818267Y-79023283D01*
X196671050Y-78994000D01*
X196552420Y-78994000D01*
X196401355Y-78842935D01*
X196385448Y-78823552D01*
X196308095Y-78760071D01*
X196219843Y-78712899D01*
X196124085Y-78683851D01*
X196049447Y-78676500D01*
X196049444Y-78676500D01*
X196024500Y-78674043D01*
X195999556Y-78676500D01*
X195598497Y-78676500D01*
X195574456Y-78631523D01*
X195499640Y-78540360D01*
X195408477Y-78465544D01*
X195304470Y-78409951D01*
X195191615Y-78375716D01*
X195074250Y-78364157D01*
X194561750Y-78364157D01*
X194444385Y-78375716D01*
X194331530Y-78409951D01*
X194227523Y-78465544D01*
X194136360Y-78540360D01*
X194061544Y-78631523D01*
X194005951Y-78735530D01*
X193971716Y-78848385D01*
X193960157Y-78965750D01*
X193960157Y-79403250D01*
X193971716Y-79520615D01*
X194005951Y-79633470D01*
X194061544Y-79737477D01*
X194070070Y-79747866D01*
X193988506Y-79791463D01*
X193891815Y-79870815D01*
X193812463Y-79967506D01*
X193753498Y-80077820D01*
X193717188Y-80197518D01*
X193704928Y-80322000D01*
X193708000Y-80473750D01*
X193866750Y-80632500D01*
X194691000Y-80632500D01*
X194691000Y-80612500D01*
X194945000Y-80612500D01*
X194945000Y-80632500D01*
X195769250Y-80632500D01*
X195928000Y-80473750D01*
X195931072Y-80322000D01*
X195918812Y-80197518D01*
X195882502Y-80077820D01*
X195823537Y-79967506D01*
X195744185Y-79870815D01*
X195647494Y-79791463D01*
X195565930Y-79747866D01*
X195574456Y-79737477D01*
X195598497Y-79692500D01*
X195814080Y-79692500D01*
X195834000Y-79712420D01*
X195834000Y-79831050D01*
X195863283Y-79978267D01*
X195920724Y-80116942D01*
X196004116Y-80241747D01*
X196110253Y-80347884D01*
X196235058Y-80431276D01*
X196373733Y-80488717D01*
X196520950Y-80518000D01*
X196671050Y-80518000D01*
X196818267Y-80488717D01*
X196956942Y-80431276D01*
X197081747Y-80347884D01*
X197187884Y-80241747D01*
X197206001Y-80214633D01*
X197206001Y-81021567D01*
X197186477Y-81005544D01*
X197082470Y-80949951D01*
X196969615Y-80915716D01*
X196852250Y-80904157D01*
X196339750Y-80904157D01*
X196222385Y-80915716D01*
X196109530Y-80949951D01*
X196005523Y-81005544D01*
X195928476Y-81068775D01*
X195928000Y-81045250D01*
X195769250Y-80886500D01*
X194945000Y-80886500D01*
X194945000Y-80906500D01*
X194691000Y-80906500D01*
X194691000Y-80886500D01*
X193866750Y-80886500D01*
X193708000Y-81045250D01*
X193704928Y-81197000D01*
X193717188Y-81321482D01*
X193753498Y-81441180D01*
X193812463Y-81551494D01*
X193891815Y-81648185D01*
X193988506Y-81727537D01*
X194098820Y-81786502D01*
X194217858Y-81822612D01*
X194142724Y-81935058D01*
X194085283Y-82073733D01*
X194056000Y-82220950D01*
X194056000Y-82371050D01*
X194085283Y-82518267D01*
X194142724Y-82656942D01*
X194226116Y-82781747D01*
X194332253Y-82887884D01*
X194457058Y-82971276D01*
X194595733Y-83028717D01*
X194742950Y-83058000D01*
X194893050Y-83058000D01*
X195040267Y-83028717D01*
X195178942Y-82971276D01*
X195303747Y-82887884D01*
X195409884Y-82781747D01*
X195493276Y-82656942D01*
X195550717Y-82518267D01*
X195580000Y-82371050D01*
X195580000Y-82252421D01*
X195599921Y-82232500D01*
X195815503Y-82232500D01*
X195839544Y-82277477D01*
X195848070Y-82287866D01*
X195766506Y-82331463D01*
X195669815Y-82410815D01*
X195590463Y-82507506D01*
X195531498Y-82617820D01*
X195495188Y-82737518D01*
X195482928Y-82862000D01*
X195486000Y-83013750D01*
X195644750Y-83172500D01*
X196469000Y-83172500D01*
X196469000Y-83152500D01*
X196723000Y-83152500D01*
X196723000Y-83172500D01*
X196743000Y-83172500D01*
X196743000Y-83426500D01*
X196723000Y-83426500D01*
X196723000Y-83446500D01*
X196469000Y-83446500D01*
X196469000Y-83426500D01*
X195644750Y-83426500D01*
X195486000Y-83585250D01*
X195485441Y-83612873D01*
X195408477Y-83549710D01*
X195304470Y-83494117D01*
X195191615Y-83459882D01*
X195074250Y-83448323D01*
X194561750Y-83448323D01*
X194444385Y-83459882D01*
X194331530Y-83494117D01*
X194227523Y-83549710D01*
X194136360Y-83624526D01*
X194061544Y-83715689D01*
X194005951Y-83819696D01*
X193971716Y-83932551D01*
X193960157Y-84049916D01*
X193960157Y-84487416D01*
X193971716Y-84604781D01*
X194005951Y-84717636D01*
X194061544Y-84821643D01*
X194070070Y-84832032D01*
X193988506Y-84875629D01*
X193891815Y-84954981D01*
X193812463Y-85051672D01*
X193753498Y-85161986D01*
X193717188Y-85281684D01*
X193704928Y-85406166D01*
X193708000Y-85557916D01*
X193866750Y-85716666D01*
X194691000Y-85716666D01*
X194691000Y-85696666D01*
X194945000Y-85696666D01*
X194945000Y-85716666D01*
X195769250Y-85716666D01*
X195928000Y-85557916D01*
X195931072Y-85406166D01*
X195918812Y-85281684D01*
X195882502Y-85161986D01*
X195823537Y-85051672D01*
X195744185Y-84954981D01*
X195647494Y-84875629D01*
X195565930Y-84832032D01*
X195574456Y-84821643D01*
X195598497Y-84776666D01*
X195818246Y-84776666D01*
X195834000Y-84792420D01*
X195834000Y-84911050D01*
X195863283Y-85058267D01*
X195920724Y-85196942D01*
X196004116Y-85321747D01*
X196110253Y-85427884D01*
X196235058Y-85511276D01*
X196373733Y-85568717D01*
X196520950Y-85598000D01*
X196671050Y-85598000D01*
X196818267Y-85568717D01*
X196956942Y-85511276D01*
X197081747Y-85427884D01*
X197187884Y-85321747D01*
X197206001Y-85294634D01*
X197206001Y-86114167D01*
X197186477Y-86098144D01*
X197082470Y-86042551D01*
X196969615Y-86008316D01*
X196852250Y-85996757D01*
X196339750Y-85996757D01*
X196222385Y-86008316D01*
X196109530Y-86042551D01*
X196005523Y-86098144D01*
X195928644Y-86161237D01*
X195928000Y-86129416D01*
X195769250Y-85970666D01*
X194945000Y-85970666D01*
X194945000Y-85990666D01*
X194691000Y-85990666D01*
X194691000Y-85970666D01*
X193866750Y-85970666D01*
X193708000Y-86129416D01*
X193704928Y-86281166D01*
X193717188Y-86405648D01*
X193753498Y-86525346D01*
X193812463Y-86635660D01*
X193891815Y-86732351D01*
X193988506Y-86811703D01*
X194098820Y-86870668D01*
X194215544Y-86906076D01*
X194142724Y-87015058D01*
X194085283Y-87153733D01*
X194056000Y-87300950D01*
X194056000Y-87451050D01*
X194085283Y-87598267D01*
X194142724Y-87736942D01*
X194226116Y-87861747D01*
X194332253Y-87967884D01*
X194457058Y-88051276D01*
X194595733Y-88108717D01*
X194742950Y-88138000D01*
X194893050Y-88138000D01*
X195040267Y-88108717D01*
X195178942Y-88051276D01*
X195303747Y-87967884D01*
X195409884Y-87861747D01*
X195493276Y-87736942D01*
X195550717Y-87598267D01*
X195580000Y-87451050D01*
X195580000Y-87332421D01*
X195587321Y-87325100D01*
X195815503Y-87325100D01*
X195839544Y-87370077D01*
X195848070Y-87380466D01*
X195766506Y-87424063D01*
X195669815Y-87503415D01*
X195590463Y-87600106D01*
X195531498Y-87710420D01*
X195495188Y-87830118D01*
X195482928Y-87954600D01*
X195486000Y-88106350D01*
X195644750Y-88265100D01*
X196469000Y-88265100D01*
X196469000Y-88245100D01*
X196723000Y-88245100D01*
X196723000Y-88265100D01*
X196743000Y-88265100D01*
X196743000Y-88519100D01*
X196723000Y-88519100D01*
X196723000Y-88539100D01*
X196469000Y-88539100D01*
X196469000Y-88519100D01*
X195644750Y-88519100D01*
X195486000Y-88677850D01*
X195485609Y-88697177D01*
X195408477Y-88633876D01*
X195304470Y-88578283D01*
X195191615Y-88544048D01*
X195074250Y-88532489D01*
X194561750Y-88532489D01*
X194444385Y-88544048D01*
X194331530Y-88578283D01*
X194227523Y-88633876D01*
X194136360Y-88708692D01*
X194061544Y-88799855D01*
X194005951Y-88903862D01*
X193971716Y-89016717D01*
X193960157Y-89134082D01*
X193960157Y-89571582D01*
X193971716Y-89688947D01*
X194005951Y-89801802D01*
X194061544Y-89905809D01*
X194070070Y-89916198D01*
X193988506Y-89959795D01*
X193891815Y-90039147D01*
X193812463Y-90135838D01*
X193753498Y-90246152D01*
X193717188Y-90365850D01*
X193704928Y-90490332D01*
X193708000Y-90642082D01*
X193866750Y-90800832D01*
X194691000Y-90800832D01*
X194691000Y-90780832D01*
X194945000Y-90780832D01*
X194945000Y-90800832D01*
X195769250Y-90800832D01*
X195928000Y-90642082D01*
X195931072Y-90490332D01*
X195918812Y-90365850D01*
X195882502Y-90246152D01*
X195823537Y-90135838D01*
X195744185Y-90039147D01*
X195647494Y-89959795D01*
X195565930Y-89916198D01*
X195574456Y-89905809D01*
X195598497Y-89860832D01*
X195822412Y-89860832D01*
X195834000Y-89872420D01*
X195834000Y-89991050D01*
X195863283Y-90138267D01*
X195920724Y-90276942D01*
X196004116Y-90401747D01*
X196110253Y-90507884D01*
X196235058Y-90591276D01*
X196373733Y-90648717D01*
X196520950Y-90678000D01*
X196671050Y-90678000D01*
X196818267Y-90648717D01*
X196956942Y-90591276D01*
X197081747Y-90507884D01*
X197187884Y-90401747D01*
X197206000Y-90374634D01*
X197206000Y-91181567D01*
X197186477Y-91165544D01*
X197082470Y-91109951D01*
X196969615Y-91075716D01*
X196852250Y-91064157D01*
X196339750Y-91064157D01*
X196222385Y-91075716D01*
X196109530Y-91109951D01*
X196005523Y-91165544D01*
X195928310Y-91228911D01*
X195928000Y-91213582D01*
X195769250Y-91054832D01*
X194945000Y-91054832D01*
X194945000Y-91074832D01*
X194691000Y-91074832D01*
X194691000Y-91054832D01*
X193866750Y-91054832D01*
X193708000Y-91213582D01*
X193704928Y-91365332D01*
X193717188Y-91489814D01*
X193753498Y-91609512D01*
X193812463Y-91719826D01*
X193891815Y-91816517D01*
X193988506Y-91895869D01*
X194098820Y-91954834D01*
X194213229Y-91989540D01*
X194142724Y-92095058D01*
X194085283Y-92233733D01*
X194056000Y-92380950D01*
X194056000Y-92531050D01*
X194085283Y-92678267D01*
X194142724Y-92816942D01*
X194226116Y-92941747D01*
X194332253Y-93047884D01*
X194457058Y-93131276D01*
X194595733Y-93188717D01*
X194742950Y-93218000D01*
X194893050Y-93218000D01*
X195040267Y-93188717D01*
X195178942Y-93131276D01*
X195303747Y-93047884D01*
X195409884Y-92941747D01*
X195493276Y-92816942D01*
X195550717Y-92678267D01*
X195580000Y-92531050D01*
X195580000Y-92412421D01*
X195599921Y-92392500D01*
X195815503Y-92392500D01*
X195839544Y-92437477D01*
X195848070Y-92447866D01*
X195766506Y-92491463D01*
X195669815Y-92570815D01*
X195590463Y-92667506D01*
X195531498Y-92777820D01*
X195495188Y-92897518D01*
X195482928Y-93022000D01*
X195486000Y-93173750D01*
X195644750Y-93332500D01*
X196469000Y-93332500D01*
X196469000Y-93312500D01*
X196723000Y-93312500D01*
X196723000Y-93332500D01*
X196743000Y-93332500D01*
X196743000Y-93586500D01*
X196723000Y-93586500D01*
X196723000Y-93606500D01*
X196469000Y-93606500D01*
X196469000Y-93586500D01*
X195644750Y-93586500D01*
X195486000Y-93745250D01*
X195485275Y-93781071D01*
X195408477Y-93718044D01*
X195304470Y-93662451D01*
X195191615Y-93628216D01*
X195074250Y-93616657D01*
X194561750Y-93616657D01*
X194444385Y-93628216D01*
X194331530Y-93662451D01*
X194227523Y-93718044D01*
X194136360Y-93792860D01*
X194061544Y-93884023D01*
X194005951Y-93988030D01*
X193971716Y-94100885D01*
X193960157Y-94218250D01*
X193960157Y-94655750D01*
X193971716Y-94773115D01*
X194005951Y-94885970D01*
X194061544Y-94989977D01*
X194070070Y-95000366D01*
X193988506Y-95043963D01*
X193891815Y-95123315D01*
X193812463Y-95220006D01*
X193753498Y-95330320D01*
X193717188Y-95450018D01*
X193704928Y-95574500D01*
X193708000Y-95726250D01*
X193866750Y-95885000D01*
X194691000Y-95885000D01*
X194691000Y-95865000D01*
X194945000Y-95865000D01*
X194945000Y-95885000D01*
X195769250Y-95885000D01*
X195928000Y-95726250D01*
X195931072Y-95574500D01*
X195918812Y-95450018D01*
X195882502Y-95330320D01*
X195823537Y-95220006D01*
X195744185Y-95123315D01*
X195647494Y-95043963D01*
X195565930Y-95000366D01*
X195574456Y-94989977D01*
X195598497Y-94945000D01*
X195826580Y-94945000D01*
X195834000Y-94952420D01*
X195834000Y-95071050D01*
X195863283Y-95218267D01*
X195920724Y-95356942D01*
X196004116Y-95481747D01*
X196110253Y-95587884D01*
X196235058Y-95671276D01*
X196373733Y-95728717D01*
X196520950Y-95758000D01*
X196671050Y-95758000D01*
X196818267Y-95728717D01*
X196956942Y-95671276D01*
X197081747Y-95587884D01*
X197187884Y-95481747D01*
X197206000Y-95454634D01*
X197206000Y-99650132D01*
X197178159Y-99655443D01*
X197172732Y-99657081D01*
X196876762Y-99748699D01*
X196842799Y-99762976D01*
X196808721Y-99776744D01*
X196803720Y-99779402D01*
X196803716Y-99779404D01*
X196803715Y-99779405D01*
X196531177Y-99926766D01*
X196500686Y-99947333D01*
X196469881Y-99967491D01*
X196465488Y-99971074D01*
X196226762Y-100168564D01*
X196200791Y-100194717D01*
X196174542Y-100220422D01*
X196170933Y-100224784D01*
X196170929Y-100224788D01*
X196170928Y-100224790D01*
X195975110Y-100464888D01*
X195954753Y-100495527D01*
X195933958Y-100525898D01*
X195931262Y-100530885D01*
X195785807Y-100804445D01*
X195771776Y-100838485D01*
X195757288Y-100872289D01*
X195755613Y-100877697D01*
X195755611Y-100877703D01*
X195755611Y-100877705D01*
X195666062Y-101174307D01*
X195662163Y-101194000D01*
X161859464Y-101194000D01*
X161863201Y-101187008D01*
X161884987Y-101115189D01*
X161887271Y-101092000D01*
X188613938Y-101092000D01*
X188638882Y-101094457D01*
X188663826Y-101092000D01*
X188663829Y-101092000D01*
X188738467Y-101084649D01*
X188834225Y-101055601D01*
X188922477Y-101008429D01*
X188999830Y-100944948D01*
X189015737Y-100925565D01*
X189913566Y-100027736D01*
X189932949Y-100011829D01*
X189996430Y-99934476D01*
X190002752Y-99922649D01*
X190096283Y-100016180D01*
X190297903Y-100150898D01*
X190521931Y-100243693D01*
X190759757Y-100291000D01*
X191002243Y-100291000D01*
X191240069Y-100243693D01*
X191464097Y-100150898D01*
X191665717Y-100016180D01*
X191837180Y-99844717D01*
X191971898Y-99643097D01*
X192064693Y-99419069D01*
X192112000Y-99181243D01*
X192112000Y-98938757D01*
X192064693Y-98700931D01*
X191971898Y-98476903D01*
X191837180Y-98275283D01*
X191665717Y-98103820D01*
X191464097Y-97969102D01*
X191240069Y-97876307D01*
X191002243Y-97829000D01*
X190759757Y-97829000D01*
X190521931Y-97876307D01*
X190297903Y-97969102D01*
X190096283Y-98103820D01*
X190080001Y-98120102D01*
X190080001Y-96189898D01*
X190096283Y-96206180D01*
X190297903Y-96340898D01*
X190521931Y-96433693D01*
X190759757Y-96481000D01*
X191002243Y-96481000D01*
X191160602Y-96449500D01*
X193704928Y-96449500D01*
X193717188Y-96573982D01*
X193753498Y-96693680D01*
X193812463Y-96803994D01*
X193891815Y-96900685D01*
X193988506Y-96980037D01*
X194098820Y-97039002D01*
X194218518Y-97075312D01*
X194343000Y-97087572D01*
X194532250Y-97084500D01*
X194691000Y-96925750D01*
X194691000Y-96139000D01*
X194945000Y-96139000D01*
X194945000Y-96925750D01*
X195103750Y-97084500D01*
X195293000Y-97087572D01*
X195417482Y-97075312D01*
X195537180Y-97039002D01*
X195647494Y-96980037D01*
X195744185Y-96900685D01*
X195823537Y-96803994D01*
X195882502Y-96693680D01*
X195918812Y-96573982D01*
X195931072Y-96449500D01*
X195928000Y-96297750D01*
X195769250Y-96139000D01*
X194945000Y-96139000D01*
X194691000Y-96139000D01*
X193866750Y-96139000D01*
X193708000Y-96297750D01*
X193704928Y-96449500D01*
X191160602Y-96449500D01*
X191240069Y-96433693D01*
X191464097Y-96340898D01*
X191665717Y-96206180D01*
X191837180Y-96034717D01*
X191971898Y-95833097D01*
X192064693Y-95609069D01*
X192112000Y-95371243D01*
X192112000Y-95128757D01*
X192064693Y-94890931D01*
X191971898Y-94666903D01*
X191837180Y-94465283D01*
X191665717Y-94293820D01*
X191464097Y-94159102D01*
X191240069Y-94066307D01*
X191002243Y-94019000D01*
X190759757Y-94019000D01*
X190521931Y-94066307D01*
X190297903Y-94159102D01*
X190096283Y-94293820D01*
X190080001Y-94310102D01*
X190080001Y-92379898D01*
X190096283Y-92396180D01*
X190297903Y-92530898D01*
X190521931Y-92623693D01*
X190759757Y-92671000D01*
X191002243Y-92671000D01*
X191240069Y-92623693D01*
X191464097Y-92530898D01*
X191665717Y-92396180D01*
X191837180Y-92224717D01*
X191971898Y-92023097D01*
X192064693Y-91799069D01*
X192112000Y-91561243D01*
X192112000Y-91318757D01*
X192064693Y-91080931D01*
X191971898Y-90856903D01*
X191837180Y-90655283D01*
X191665717Y-90483820D01*
X191464097Y-90349102D01*
X191240069Y-90256307D01*
X191002243Y-90209000D01*
X190759757Y-90209000D01*
X190521931Y-90256307D01*
X190297903Y-90349102D01*
X190096283Y-90483820D01*
X190080001Y-90500102D01*
X190080001Y-88569898D01*
X190096283Y-88586180D01*
X190297903Y-88720898D01*
X190521931Y-88813693D01*
X190759757Y-88861000D01*
X191002243Y-88861000D01*
X191240069Y-88813693D01*
X191464097Y-88720898D01*
X191665717Y-88586180D01*
X191837180Y-88414717D01*
X191971898Y-88213097D01*
X192064693Y-87989069D01*
X192112000Y-87751243D01*
X192112000Y-87508757D01*
X192064693Y-87270931D01*
X191971898Y-87046903D01*
X191837180Y-86845283D01*
X191665717Y-86673820D01*
X191464097Y-86539102D01*
X191240069Y-86446307D01*
X191002243Y-86399000D01*
X190759757Y-86399000D01*
X190521931Y-86446307D01*
X190297903Y-86539102D01*
X190096283Y-86673820D01*
X190080001Y-86690102D01*
X190080001Y-85075944D01*
X190082458Y-85051000D01*
X190079769Y-85023701D01*
X190072650Y-84951416D01*
X190043602Y-84855658D01*
X190029159Y-84828637D01*
X189996430Y-84767405D01*
X189948851Y-84709430D01*
X189932949Y-84690053D01*
X189913572Y-84674151D01*
X189493587Y-84254166D01*
X189524693Y-84179069D01*
X189572000Y-83941243D01*
X189572000Y-83698757D01*
X189650000Y-83698757D01*
X189650000Y-83941243D01*
X189697307Y-84179069D01*
X189790102Y-84403097D01*
X189924820Y-84604717D01*
X190096283Y-84776180D01*
X190297903Y-84910898D01*
X190521931Y-85003693D01*
X190759757Y-85051000D01*
X191002243Y-85051000D01*
X191240069Y-85003693D01*
X191464097Y-84910898D01*
X191665717Y-84776180D01*
X191837180Y-84604717D01*
X191971898Y-84403097D01*
X192064693Y-84179069D01*
X192112000Y-83941243D01*
X192112000Y-83698757D01*
X192064693Y-83460931D01*
X191971898Y-83236903D01*
X191837180Y-83035283D01*
X191665717Y-82863820D01*
X191464097Y-82729102D01*
X191240069Y-82636307D01*
X191002243Y-82589000D01*
X190759757Y-82589000D01*
X190521931Y-82636307D01*
X190297903Y-82729102D01*
X190096283Y-82863820D01*
X189924820Y-83035283D01*
X189790102Y-83236903D01*
X189697307Y-83460931D01*
X189650000Y-83698757D01*
X189572000Y-83698757D01*
X189524693Y-83460931D01*
X189431898Y-83236903D01*
X189297180Y-83035283D01*
X189125717Y-82863820D01*
X188924097Y-82729102D01*
X188700069Y-82636307D01*
X188462243Y-82589000D01*
X188219757Y-82589000D01*
X187981931Y-82636307D01*
X187757903Y-82729102D01*
X187556283Y-82863820D01*
X187384820Y-83035283D01*
X187250102Y-83236903D01*
X187202772Y-83351168D01*
X187145157Y-83188748D01*
X186996178Y-82938645D01*
X186801269Y-82722412D01*
X186567920Y-82548359D01*
X186305099Y-82423175D01*
X186157890Y-82378524D01*
X185928000Y-82499845D01*
X185928000Y-83693000D01*
X185948000Y-83693000D01*
X185948000Y-83947000D01*
X185928000Y-83947000D01*
X185928000Y-85140155D01*
X186157890Y-85261476D01*
X186305099Y-85216825D01*
X186567920Y-85091641D01*
X186801269Y-84917588D01*
X186996178Y-84701355D01*
X187145157Y-84451252D01*
X187202772Y-84288832D01*
X187250102Y-84403097D01*
X187384820Y-84604717D01*
X187556283Y-84776180D01*
X187757903Y-84910898D01*
X187981931Y-85003693D01*
X188219757Y-85051000D01*
X188462243Y-85051000D01*
X188700069Y-85003693D01*
X188775166Y-84972587D01*
X189064001Y-85261422D01*
X189064001Y-86632583D01*
X188924097Y-86539102D01*
X188700069Y-86446307D01*
X188462243Y-86399000D01*
X188219757Y-86399000D01*
X187981931Y-86446307D01*
X187757903Y-86539102D01*
X187556283Y-86673820D01*
X187384820Y-86845283D01*
X187250102Y-87046903D01*
X187202772Y-87161168D01*
X187145157Y-86998748D01*
X186996178Y-86748645D01*
X186801269Y-86532412D01*
X186567920Y-86358359D01*
X186305099Y-86233175D01*
X186157890Y-86188524D01*
X185928000Y-86309845D01*
X185928000Y-87503000D01*
X185948000Y-87503000D01*
X185948000Y-87757000D01*
X185928000Y-87757000D01*
X185928000Y-88950155D01*
X186157890Y-89071476D01*
X186305099Y-89026825D01*
X186567920Y-88901641D01*
X186601107Y-88876887D01*
X186602000Y-88885955D01*
X186602000Y-90193779D01*
X186567920Y-90168359D01*
X186305099Y-90043175D01*
X186157890Y-89998524D01*
X185928000Y-90119845D01*
X185928000Y-91313000D01*
X185948000Y-91313000D01*
X185948000Y-91567000D01*
X185928000Y-91567000D01*
X185928000Y-91587000D01*
X185674000Y-91587000D01*
X185674000Y-91567000D01*
X185654000Y-91567000D01*
X185654000Y-91313000D01*
X185674000Y-91313000D01*
X185674000Y-90119845D01*
X185444110Y-89998524D01*
X185296901Y-90043175D01*
X185034080Y-90168359D01*
X184800731Y-90342412D01*
X184605822Y-90558645D01*
X184456843Y-90808748D01*
X184399228Y-90971168D01*
X184351898Y-90856903D01*
X184217180Y-90655283D01*
X184045717Y-90483820D01*
X183844097Y-90349102D01*
X183620069Y-90256307D01*
X183382243Y-90209000D01*
X183139757Y-90209000D01*
X182901931Y-90256307D01*
X182677903Y-90349102D01*
X182476283Y-90483820D01*
X182304820Y-90655283D01*
X182170102Y-90856903D01*
X182077307Y-91080931D01*
X182030000Y-91318757D01*
X182030000Y-91561243D01*
X182077307Y-91799069D01*
X182170102Y-92023097D01*
X182304820Y-92224717D01*
X182476283Y-92396180D01*
X182677903Y-92530898D01*
X182901931Y-92623693D01*
X183139757Y-92671000D01*
X183382243Y-92671000D01*
X183620069Y-92623693D01*
X183844097Y-92530898D01*
X184045717Y-92396180D01*
X184217180Y-92224717D01*
X184351898Y-92023097D01*
X184399228Y-91908832D01*
X184456843Y-92071252D01*
X184605822Y-92321355D01*
X184800731Y-92537588D01*
X185031880Y-92710000D01*
X174314420Y-92710000D01*
X173716044Y-92111624D01*
X173737322Y-92085696D01*
X173772701Y-92019508D01*
X173794487Y-91947689D01*
X173801843Y-91873000D01*
X173801843Y-90753000D01*
X173794487Y-90678311D01*
X173772701Y-90606492D01*
X173737322Y-90540304D01*
X173689711Y-90482289D01*
X173631696Y-90434678D01*
X173565508Y-90399299D01*
X173493689Y-90377513D01*
X173419000Y-90370157D01*
X170979000Y-90370157D01*
X170904311Y-90377513D01*
X170832492Y-90399299D01*
X170766304Y-90434678D01*
X170708289Y-90482289D01*
X170660678Y-90540304D01*
X170625299Y-90606492D01*
X170603513Y-90678311D01*
X170596157Y-90753000D01*
X170596157Y-91873000D01*
X170603513Y-91947689D01*
X170625299Y-92019508D01*
X170660678Y-92085696D01*
X170708289Y-92143711D01*
X170766304Y-92191322D01*
X170832492Y-92226701D01*
X170904311Y-92248487D01*
X170979000Y-92255843D01*
X172423423Y-92255843D01*
X173077737Y-92910157D01*
X170979000Y-92910157D01*
X170904311Y-92917513D01*
X170832492Y-92939299D01*
X170766304Y-92974678D01*
X170708289Y-93022289D01*
X170660678Y-93080304D01*
X170625299Y-93146492D01*
X170603513Y-93218311D01*
X170596157Y-93293000D01*
X170596157Y-94413000D01*
X170603513Y-94487689D01*
X170625299Y-94559508D01*
X170660678Y-94625696D01*
X170708289Y-94683711D01*
X170766304Y-94731322D01*
X170786281Y-94742000D01*
X167664944Y-94742000D01*
X167640000Y-94739543D01*
X167615056Y-94742000D01*
X167615053Y-94742000D01*
X167540415Y-94749351D01*
X167444657Y-94778399D01*
X167356405Y-94825571D01*
X167279052Y-94889052D01*
X167263145Y-94908435D01*
X166921580Y-95250000D01*
X166802950Y-95250000D01*
X166655733Y-95279283D01*
X166517058Y-95336724D01*
X166392253Y-95420116D01*
X166286116Y-95526253D01*
X166202724Y-95651058D01*
X166145283Y-95789733D01*
X166116000Y-95936950D01*
X166116000Y-96087050D01*
X166145283Y-96234267D01*
X166202724Y-96372942D01*
X166286116Y-96497747D01*
X166392253Y-96603884D01*
X166517058Y-96687276D01*
X166655733Y-96744717D01*
X166802950Y-96774000D01*
X166953050Y-96774000D01*
X167100267Y-96744717D01*
X167238942Y-96687276D01*
X167363747Y-96603884D01*
X167469884Y-96497747D01*
X167553276Y-96372942D01*
X167610717Y-96234267D01*
X167640000Y-96087050D01*
X167640000Y-95968420D01*
X167850420Y-95758000D01*
X170603607Y-95758000D01*
X170603513Y-95758311D01*
X170596157Y-95833000D01*
X170596157Y-96953000D01*
X170603513Y-97027689D01*
X170625299Y-97099508D01*
X170660678Y-97165696D01*
X170708289Y-97223711D01*
X170766304Y-97271322D01*
X170832492Y-97306701D01*
X170904311Y-97328487D01*
X170979000Y-97335843D01*
X172364715Y-97335843D01*
X172293658Y-97357398D01*
X172293656Y-97357399D01*
X172205405Y-97404570D01*
X172177289Y-97427645D01*
X172128053Y-97468051D01*
X172112146Y-97487434D01*
X171857430Y-97742150D01*
X171838053Y-97758052D01*
X171822151Y-97777429D01*
X171822150Y-97777430D01*
X171774571Y-97835405D01*
X171752709Y-97876307D01*
X171727400Y-97923657D01*
X171707227Y-97990157D01*
X170979000Y-97990157D01*
X170904311Y-97997513D01*
X170832492Y-98019299D01*
X170766304Y-98054678D01*
X170708289Y-98102289D01*
X170660678Y-98160304D01*
X170625299Y-98226492D01*
X170603513Y-98298311D01*
X170596157Y-98373000D01*
X170596157Y-99493000D01*
X170603513Y-99567689D01*
X170625299Y-99639508D01*
X170660678Y-99705696D01*
X170708289Y-99763711D01*
X170766304Y-99811322D01*
X170832492Y-99846701D01*
X170904311Y-99868487D01*
X170979000Y-99875843D01*
X173419000Y-99875843D01*
X173493689Y-99868487D01*
X173565508Y-99846701D01*
X173631696Y-99811322D01*
X173689711Y-99763711D01*
X173737322Y-99705696D01*
X173772701Y-99639508D01*
X173794487Y-99567689D01*
X173801843Y-99493000D01*
X173801843Y-98373000D01*
X173798297Y-98336999D01*
X174408157Y-98336999D01*
X174408157Y-99910000D01*
X174415513Y-99984689D01*
X174437299Y-100056508D01*
X174447718Y-100076000D01*
X161892343Y-100076000D01*
X161892343Y-98940500D01*
X161884987Y-98865811D01*
X161863201Y-98793992D01*
X161827822Y-98727804D01*
X161780211Y-98669789D01*
X161722196Y-98622178D01*
X161656008Y-98586799D01*
X161584189Y-98565013D01*
X161509500Y-98557657D01*
X160109500Y-98557657D01*
X160034811Y-98565013D01*
X159962992Y-98586799D01*
X159896804Y-98622178D01*
X159838789Y-98669789D01*
X159791178Y-98727804D01*
X159755799Y-98793992D01*
X159734013Y-98865811D01*
X159726657Y-98940500D01*
X159726657Y-101040500D01*
X159734013Y-101115189D01*
X159755799Y-101187008D01*
X159759536Y-101194000D01*
X157359464Y-101194000D01*
X157363201Y-101187008D01*
X157384987Y-101115189D01*
X157392343Y-101040500D01*
X157392343Y-98940500D01*
X157384987Y-98865811D01*
X157363201Y-98793992D01*
X157327822Y-98727804D01*
X157313227Y-98710019D01*
X158995247Y-97028000D01*
X161993607Y-97028000D01*
X162015299Y-97099508D01*
X162050678Y-97165696D01*
X162098289Y-97223711D01*
X162156304Y-97271322D01*
X162222492Y-97306701D01*
X162294311Y-97328487D01*
X162369000Y-97335843D01*
X162954001Y-97335843D01*
X162954000Y-97990157D01*
X162369000Y-97990157D01*
X162294311Y-97997513D01*
X162222492Y-98019299D01*
X162156304Y-98054678D01*
X162098289Y-98102289D01*
X162050678Y-98160304D01*
X162015299Y-98226492D01*
X161993513Y-98298311D01*
X161986157Y-98373000D01*
X161986157Y-99493000D01*
X161993513Y-99567689D01*
X162015299Y-99639508D01*
X162050678Y-99705696D01*
X162098289Y-99763711D01*
X162156304Y-99811322D01*
X162222492Y-99846701D01*
X162294311Y-99868487D01*
X162369000Y-99875843D01*
X164809000Y-99875843D01*
X164883689Y-99868487D01*
X164955508Y-99846701D01*
X165021696Y-99811322D01*
X165079711Y-99763711D01*
X165127322Y-99705696D01*
X165162701Y-99639508D01*
X165184487Y-99567689D01*
X165191843Y-99493000D01*
X165191843Y-98373000D01*
X165184487Y-98298311D01*
X165162701Y-98226492D01*
X165127322Y-98160304D01*
X165079711Y-98102289D01*
X165021696Y-98054678D01*
X164955508Y-98019299D01*
X164883689Y-97997513D01*
X164809000Y-97990157D01*
X164224000Y-97990157D01*
X164224000Y-97335843D01*
X164809000Y-97335843D01*
X164883689Y-97328487D01*
X164955508Y-97306701D01*
X165021696Y-97271322D01*
X165079711Y-97223711D01*
X165127322Y-97165696D01*
X165162701Y-97099508D01*
X165184487Y-97027689D01*
X165191843Y-96953000D01*
X165191843Y-95833000D01*
X165184487Y-95758311D01*
X165162701Y-95686492D01*
X165127322Y-95620304D01*
X165079711Y-95562289D01*
X165021696Y-95514678D01*
X164955508Y-95479299D01*
X164883689Y-95457513D01*
X164809000Y-95450157D01*
X164224000Y-95450157D01*
X164224000Y-94795843D01*
X164809000Y-94795843D01*
X164883689Y-94788487D01*
X164955508Y-94766701D01*
X165021696Y-94731322D01*
X165079711Y-94683711D01*
X165127322Y-94625696D01*
X165162701Y-94559508D01*
X165184487Y-94487689D01*
X165191843Y-94413000D01*
X165191843Y-93293000D01*
X165184487Y-93218311D01*
X165162701Y-93146492D01*
X165127322Y-93080304D01*
X165079711Y-93022289D01*
X165021696Y-92974678D01*
X164955508Y-92939299D01*
X164883689Y-92917513D01*
X164809000Y-92910157D01*
X164224000Y-92910157D01*
X164224000Y-92255843D01*
X164809000Y-92255843D01*
X164883689Y-92248487D01*
X164955508Y-92226701D01*
X165021696Y-92191322D01*
X165079711Y-92143711D01*
X165127322Y-92085696D01*
X165162701Y-92019508D01*
X165184487Y-91947689D01*
X165191843Y-91873000D01*
X165191843Y-90753000D01*
X165184487Y-90678311D01*
X165162701Y-90606492D01*
X165127322Y-90540304D01*
X165079711Y-90482289D01*
X165021696Y-90434678D01*
X164955508Y-90399299D01*
X164883689Y-90377513D01*
X164809000Y-90370157D01*
X162369000Y-90370157D01*
X162294311Y-90377513D01*
X162222492Y-90399299D01*
X162156304Y-90434678D01*
X162098289Y-90482289D01*
X162050678Y-90540304D01*
X162015299Y-90606492D01*
X161993513Y-90678311D01*
X161986157Y-90753000D01*
X161986157Y-91873000D01*
X161993513Y-91947689D01*
X162015299Y-92019508D01*
X162050678Y-92085696D01*
X162098289Y-92143711D01*
X162156304Y-92191322D01*
X162222492Y-92226701D01*
X162294311Y-92248487D01*
X162369000Y-92255843D01*
X162954001Y-92255843D01*
X162954000Y-92910157D01*
X162369000Y-92910157D01*
X162294311Y-92917513D01*
X162222492Y-92939299D01*
X162156304Y-92974678D01*
X162098289Y-93022289D01*
X162050678Y-93080304D01*
X162015299Y-93146492D01*
X161993513Y-93218311D01*
X161986157Y-93293000D01*
X161986157Y-94413000D01*
X161993513Y-94487689D01*
X162015299Y-94559508D01*
X162050678Y-94625696D01*
X162098289Y-94683711D01*
X162156304Y-94731322D01*
X162222492Y-94766701D01*
X162294311Y-94788487D01*
X162369000Y-94795843D01*
X162954001Y-94795843D01*
X162954000Y-95450157D01*
X162369000Y-95450157D01*
X162294311Y-95457513D01*
X162222492Y-95479299D01*
X162156304Y-95514678D01*
X162098289Y-95562289D01*
X162050678Y-95620304D01*
X162015299Y-95686492D01*
X161993607Y-95758000D01*
X158763402Y-95758000D01*
X158732221Y-95754929D01*
X158701040Y-95758000D01*
X158701030Y-95758000D01*
X158607740Y-95767188D01*
X158488042Y-95803498D01*
X158432849Y-95833000D01*
X158377727Y-95862463D01*
X158354833Y-95881252D01*
X158281037Y-95941815D01*
X158261152Y-95966045D01*
X155882546Y-98344652D01*
X155858316Y-98364537D01*
X155838432Y-98388766D01*
X155778963Y-98461229D01*
X155727420Y-98557657D01*
X155609500Y-98557657D01*
X155534811Y-98565013D01*
X155462992Y-98586799D01*
X155396804Y-98622178D01*
X155338789Y-98669789D01*
X155291178Y-98727804D01*
X155255799Y-98793992D01*
X155234013Y-98865811D01*
X155226657Y-98940500D01*
X155226657Y-99355500D01*
X154228526Y-99355500D01*
X153073999Y-98200975D01*
X153073999Y-93999505D01*
X153165748Y-94054157D01*
X153440109Y-94151481D01*
X153670000Y-94030814D01*
X153670000Y-92837000D01*
X153924000Y-92837000D01*
X153924000Y-94030814D01*
X154153891Y-94151481D01*
X154428252Y-94054157D01*
X154678355Y-93905178D01*
X154894588Y-93710269D01*
X155068641Y-93476920D01*
X155193825Y-93214099D01*
X155238476Y-93066890D01*
X155117155Y-92837000D01*
X153924000Y-92837000D01*
X153670000Y-92837000D01*
X153650000Y-92837000D01*
X153650000Y-92583000D01*
X153670000Y-92583000D01*
X153670000Y-92563000D01*
X153924000Y-92563000D01*
X153924000Y-92583000D01*
X155117155Y-92583000D01*
X155238476Y-92353110D01*
X155193825Y-92205901D01*
X155068641Y-91943080D01*
X154894588Y-91709731D01*
X154678355Y-91514822D01*
X154428252Y-91365843D01*
X154265832Y-91308228D01*
X154380097Y-91260898D01*
X154581717Y-91126180D01*
X154753180Y-90954717D01*
X154887898Y-90753097D01*
X154980693Y-90529069D01*
X155028000Y-90291243D01*
X155028000Y-90048757D01*
X154986575Y-89840500D01*
X155226657Y-89840500D01*
X155226657Y-91940500D01*
X155234013Y-92015189D01*
X155255799Y-92087008D01*
X155291178Y-92153196D01*
X155338789Y-92211211D01*
X155396804Y-92258822D01*
X155462992Y-92294201D01*
X155534811Y-92315987D01*
X155609500Y-92323343D01*
X157009500Y-92323343D01*
X157084189Y-92315987D01*
X157156008Y-92294201D01*
X157222196Y-92258822D01*
X157280211Y-92211211D01*
X157327822Y-92153196D01*
X157363201Y-92087008D01*
X157384987Y-92015189D01*
X157392343Y-91940500D01*
X157392343Y-89840500D01*
X157384987Y-89765811D01*
X157363201Y-89693992D01*
X157327822Y-89627804D01*
X157280211Y-89569789D01*
X157222196Y-89522178D01*
X157156008Y-89486799D01*
X157084189Y-89465013D01*
X157009500Y-89457657D01*
X155609500Y-89457657D01*
X155534811Y-89465013D01*
X155462992Y-89486799D01*
X155396804Y-89522178D01*
X155338789Y-89569789D01*
X155291178Y-89627804D01*
X155255799Y-89693992D01*
X155234013Y-89765811D01*
X155226657Y-89840500D01*
X154986575Y-89840500D01*
X154980693Y-89810931D01*
X154887898Y-89586903D01*
X154753180Y-89385283D01*
X154581717Y-89213820D01*
X154380097Y-89079102D01*
X154156069Y-88986307D01*
X153918243Y-88939000D01*
X153675757Y-88939000D01*
X153437931Y-88986307D01*
X153213903Y-89079102D01*
X153073999Y-89172583D01*
X153073999Y-88627417D01*
X153213903Y-88720898D01*
X153437931Y-88813693D01*
X153675757Y-88861000D01*
X153918243Y-88861000D01*
X154156069Y-88813693D01*
X154380097Y-88720898D01*
X154581717Y-88586180D01*
X154753180Y-88414717D01*
X154887898Y-88213097D01*
X154980693Y-87989069D01*
X155028000Y-87751243D01*
X155028000Y-87508757D01*
X154980693Y-87270931D01*
X154887898Y-87046903D01*
X154753180Y-86845283D01*
X154581717Y-86673820D01*
X154380097Y-86539102D01*
X154156069Y-86446307D01*
X153918243Y-86399000D01*
X153675757Y-86399000D01*
X153437931Y-86446307D01*
X153213903Y-86539102D01*
X153073999Y-86632583D01*
X153073999Y-86087417D01*
X153213903Y-86180898D01*
X153437931Y-86273693D01*
X153675757Y-86321000D01*
X153918243Y-86321000D01*
X154156069Y-86273693D01*
X154380097Y-86180898D01*
X154581717Y-86046180D01*
X154753180Y-85874717D01*
X154887898Y-85673097D01*
X154980693Y-85449069D01*
X155028000Y-85211243D01*
X155028000Y-85064025D01*
X155840131Y-85876157D01*
X155563000Y-85876157D01*
X155488311Y-85883513D01*
X155416492Y-85905299D01*
X155350304Y-85940678D01*
X155292289Y-85988289D01*
X155244678Y-86046304D01*
X155209299Y-86112492D01*
X155187513Y-86184311D01*
X155180157Y-86259000D01*
X155180157Y-87659000D01*
X155187513Y-87733689D01*
X155209299Y-87805508D01*
X155244678Y-87871696D01*
X155292289Y-87929711D01*
X155350304Y-87977322D01*
X155416492Y-88012701D01*
X155488311Y-88034487D01*
X155563000Y-88041843D01*
X157663000Y-88041843D01*
X157737689Y-88034487D01*
X157809508Y-88012701D01*
X157875696Y-87977322D01*
X157933711Y-87929711D01*
X157981322Y-87871696D01*
X158016701Y-87805508D01*
X158038487Y-87733689D01*
X158045843Y-87659000D01*
X158045843Y-87594000D01*
X158119819Y-87594000D01*
X158151000Y-87597071D01*
X158182181Y-87594000D01*
X158182192Y-87594000D01*
X158275482Y-87584812D01*
X158395180Y-87548502D01*
X158505494Y-87489537D01*
X158602185Y-87410185D01*
X158622074Y-87385950D01*
X159938960Y-86069066D01*
X159963185Y-86049185D01*
X159983065Y-86024961D01*
X159983069Y-86024957D01*
X160042538Y-85952494D01*
X160077196Y-85887654D01*
X160106724Y-85958942D01*
X160190116Y-86083747D01*
X160274000Y-86167631D01*
X160274001Y-87097035D01*
X160271543Y-87121989D01*
X160277065Y-87178048D01*
X160281352Y-87221574D01*
X160290931Y-87253150D01*
X160310400Y-87317332D01*
X160357571Y-87405584D01*
X160381430Y-87434656D01*
X160421053Y-87482937D01*
X160440430Y-87498839D01*
X160685104Y-87743514D01*
X160644238Y-87777051D01*
X160628327Y-87796439D01*
X160440431Y-87984334D01*
X160421053Y-88000237D01*
X160405151Y-88019614D01*
X160405150Y-88019615D01*
X160357571Y-88077590D01*
X160313716Y-88159639D01*
X160310400Y-88165842D01*
X160299005Y-88203408D01*
X160281352Y-88261601D01*
X160274642Y-88329727D01*
X160190116Y-88414253D01*
X160106724Y-88539058D01*
X160049283Y-88677733D01*
X160020000Y-88824950D01*
X160020000Y-88975050D01*
X160049283Y-89122267D01*
X160106724Y-89260942D01*
X160190116Y-89385747D01*
X160262026Y-89457657D01*
X160109500Y-89457657D01*
X160034811Y-89465013D01*
X159962992Y-89486799D01*
X159896804Y-89522178D01*
X159838789Y-89569789D01*
X159791178Y-89627804D01*
X159755799Y-89693992D01*
X159734013Y-89765811D01*
X159726657Y-89840500D01*
X159726657Y-91940500D01*
X159734013Y-92015189D01*
X159755799Y-92087008D01*
X159791178Y-92153196D01*
X159838789Y-92211211D01*
X159896804Y-92258822D01*
X159962992Y-92294201D01*
X160034811Y-92315987D01*
X160109500Y-92323343D01*
X161509500Y-92323343D01*
X161584189Y-92315987D01*
X161656008Y-92294201D01*
X161722196Y-92258822D01*
X161780211Y-92211211D01*
X161827822Y-92153196D01*
X161863201Y-92087008D01*
X161884987Y-92015189D01*
X161892343Y-91940500D01*
X161892343Y-89840500D01*
X161884987Y-89765811D01*
X161863201Y-89693992D01*
X161846101Y-89662000D01*
X161873050Y-89662000D01*
X162020267Y-89632717D01*
X162158942Y-89575276D01*
X162283747Y-89491884D01*
X162367631Y-89408000D01*
X162852479Y-89408000D01*
X163477074Y-90032594D01*
X163492981Y-90051977D01*
X163570334Y-90115458D01*
X163658586Y-90162630D01*
X163754344Y-90191678D01*
X163828982Y-90199029D01*
X163828985Y-90199029D01*
X163853929Y-90201486D01*
X163878873Y-90199029D01*
X173681609Y-90199029D01*
X174408157Y-90925577D01*
X174408157Y-92290000D01*
X174415513Y-92364689D01*
X174437299Y-92436508D01*
X174472678Y-92502696D01*
X174520289Y-92560711D01*
X174578304Y-92608322D01*
X174644492Y-92643701D01*
X174716311Y-92665487D01*
X174791000Y-92672843D01*
X176491000Y-92672843D01*
X176565689Y-92665487D01*
X176637508Y-92643701D01*
X176703696Y-92608322D01*
X176761711Y-92560711D01*
X176809322Y-92502696D01*
X176844701Y-92436508D01*
X176866487Y-92364689D01*
X176873843Y-92290000D01*
X176873843Y-90678000D01*
X177209641Y-90678000D01*
X177090102Y-90856903D01*
X176997307Y-91080931D01*
X176950000Y-91318757D01*
X176950000Y-91561243D01*
X176997307Y-91799069D01*
X177090102Y-92023097D01*
X177224820Y-92224717D01*
X177396283Y-92396180D01*
X177597903Y-92530898D01*
X177821931Y-92623693D01*
X178059757Y-92671000D01*
X178302243Y-92671000D01*
X178540069Y-92623693D01*
X178764097Y-92530898D01*
X178965717Y-92396180D01*
X179137180Y-92224717D01*
X179271898Y-92023097D01*
X179364693Y-91799069D01*
X179412000Y-91561243D01*
X179412000Y-91318757D01*
X179490000Y-91318757D01*
X179490000Y-91561243D01*
X179537307Y-91799069D01*
X179630102Y-92023097D01*
X179764820Y-92224717D01*
X179936283Y-92396180D01*
X180137903Y-92530898D01*
X180361931Y-92623693D01*
X180599757Y-92671000D01*
X180842243Y-92671000D01*
X181080069Y-92623693D01*
X181304097Y-92530898D01*
X181505717Y-92396180D01*
X181677180Y-92224717D01*
X181811898Y-92023097D01*
X181904693Y-91799069D01*
X181952000Y-91561243D01*
X181952000Y-91318757D01*
X181904693Y-91080931D01*
X181811898Y-90856903D01*
X181677180Y-90655283D01*
X181505717Y-90483820D01*
X181304097Y-90349102D01*
X181080069Y-90256307D01*
X180842243Y-90209000D01*
X180599757Y-90209000D01*
X180361931Y-90256307D01*
X180137903Y-90349102D01*
X179936283Y-90483820D01*
X179764820Y-90655283D01*
X179630102Y-90856903D01*
X179537307Y-91080931D01*
X179490000Y-91318757D01*
X179412000Y-91318757D01*
X179364693Y-91080931D01*
X179271898Y-90856903D01*
X179137180Y-90655283D01*
X178965717Y-90483820D01*
X178764097Y-90349102D01*
X178733141Y-90336279D01*
X180286834Y-88782587D01*
X180361931Y-88813693D01*
X180599757Y-88861000D01*
X180842243Y-88861000D01*
X181080069Y-88813693D01*
X181304097Y-88720898D01*
X181505717Y-88586180D01*
X181677180Y-88414717D01*
X181811898Y-88213097D01*
X181904693Y-87989069D01*
X181952000Y-87751243D01*
X181952000Y-87508757D01*
X182030000Y-87508757D01*
X182030000Y-87751243D01*
X182077307Y-87989069D01*
X182170102Y-88213097D01*
X182304820Y-88414717D01*
X182476283Y-88586180D01*
X182677903Y-88720898D01*
X182901931Y-88813693D01*
X183139757Y-88861000D01*
X183382243Y-88861000D01*
X183620069Y-88813693D01*
X183844097Y-88720898D01*
X184045717Y-88586180D01*
X184217180Y-88414717D01*
X184351898Y-88213097D01*
X184399228Y-88098832D01*
X184456843Y-88261252D01*
X184605822Y-88511355D01*
X184800731Y-88727588D01*
X185034080Y-88901641D01*
X185296901Y-89026825D01*
X185444110Y-89071476D01*
X185674000Y-88950155D01*
X185674000Y-87757000D01*
X185654000Y-87757000D01*
X185654000Y-87503000D01*
X185674000Y-87503000D01*
X185674000Y-86309845D01*
X185444110Y-86188524D01*
X185296901Y-86233175D01*
X185034080Y-86358359D01*
X184800731Y-86532412D01*
X184605822Y-86748645D01*
X184456843Y-86998748D01*
X184399228Y-87161168D01*
X184351898Y-87046903D01*
X184217180Y-86845283D01*
X184045717Y-86673820D01*
X183844097Y-86539102D01*
X183620069Y-86446307D01*
X183382243Y-86399000D01*
X183139757Y-86399000D01*
X182901931Y-86446307D01*
X182677903Y-86539102D01*
X182476283Y-86673820D01*
X182304820Y-86845283D01*
X182170102Y-87046903D01*
X182077307Y-87270931D01*
X182030000Y-87508757D01*
X181952000Y-87508757D01*
X181904693Y-87270931D01*
X181811898Y-87046903D01*
X181677180Y-86845283D01*
X181505717Y-86673820D01*
X181304097Y-86539102D01*
X181080069Y-86446307D01*
X180842243Y-86399000D01*
X180599757Y-86399000D01*
X180361931Y-86446307D01*
X180137903Y-86539102D01*
X179936283Y-86673820D01*
X179764820Y-86845283D01*
X179630102Y-87046903D01*
X179537307Y-87270931D01*
X179490000Y-87508757D01*
X179490000Y-87751243D01*
X179537307Y-87989069D01*
X179568413Y-88064166D01*
X177970580Y-89662000D01*
X176867420Y-89662000D01*
X177746833Y-88782587D01*
X177821931Y-88813693D01*
X178059757Y-88861000D01*
X178302243Y-88861000D01*
X178540069Y-88813693D01*
X178764097Y-88720898D01*
X178965717Y-88586180D01*
X179137180Y-88414717D01*
X179271898Y-88213097D01*
X179364693Y-87989069D01*
X179412000Y-87751243D01*
X179412000Y-87508757D01*
X179364693Y-87270931D01*
X179271898Y-87046903D01*
X179137180Y-86845283D01*
X178965717Y-86673820D01*
X178764097Y-86539102D01*
X178540069Y-86446307D01*
X178302243Y-86399000D01*
X178098420Y-86399000D01*
X179828762Y-84668659D01*
X179936283Y-84776180D01*
X180137903Y-84910898D01*
X180361931Y-85003693D01*
X180599757Y-85051000D01*
X180842243Y-85051000D01*
X181080069Y-85003693D01*
X181304097Y-84910898D01*
X181505717Y-84776180D01*
X181677180Y-84604717D01*
X181811898Y-84403097D01*
X181904693Y-84179069D01*
X181952000Y-83941243D01*
X181952000Y-83698757D01*
X182030000Y-83698757D01*
X182030000Y-83941243D01*
X182077307Y-84179069D01*
X182170102Y-84403097D01*
X182304820Y-84604717D01*
X182476283Y-84776180D01*
X182677903Y-84910898D01*
X182901931Y-85003693D01*
X183139757Y-85051000D01*
X183382243Y-85051000D01*
X183620069Y-85003693D01*
X183844097Y-84910898D01*
X184045717Y-84776180D01*
X184217180Y-84604717D01*
X184351898Y-84403097D01*
X184399228Y-84288832D01*
X184456843Y-84451252D01*
X184605822Y-84701355D01*
X184800731Y-84917588D01*
X185034080Y-85091641D01*
X185296901Y-85216825D01*
X185444110Y-85261476D01*
X185674000Y-85140155D01*
X185674000Y-83947000D01*
X185654000Y-83947000D01*
X185654000Y-83693000D01*
X185674000Y-83693000D01*
X185674000Y-82499845D01*
X185444110Y-82378524D01*
X185296901Y-82423175D01*
X185034080Y-82548359D01*
X184800731Y-82722412D01*
X184605822Y-82938645D01*
X184456843Y-83188748D01*
X184399228Y-83351168D01*
X184351898Y-83236903D01*
X184217180Y-83035283D01*
X184045717Y-82863820D01*
X183844097Y-82729102D01*
X183620069Y-82636307D01*
X183382243Y-82589000D01*
X183139757Y-82589000D01*
X182901931Y-82636307D01*
X182677903Y-82729102D01*
X182476283Y-82863820D01*
X182304820Y-83035283D01*
X182170102Y-83236903D01*
X182077307Y-83460931D01*
X182030000Y-83698757D01*
X181952000Y-83698757D01*
X181904693Y-83460931D01*
X181873587Y-83385834D01*
X182371570Y-82887851D01*
X182390947Y-82871949D01*
X182430714Y-82823492D01*
X182454428Y-82794597D01*
X182501599Y-82706346D01*
X182502251Y-82704198D01*
X182530648Y-82610586D01*
X182537999Y-82535948D01*
X182537999Y-82535946D01*
X182540456Y-82511002D01*
X182537999Y-82486058D01*
X182537999Y-81007417D01*
X182677903Y-81100898D01*
X182901931Y-81193693D01*
X183139757Y-81241000D01*
X183382243Y-81241000D01*
X183620069Y-81193693D01*
X183844097Y-81100898D01*
X184045717Y-80966180D01*
X184217180Y-80794717D01*
X184351898Y-80593097D01*
X184399228Y-80478832D01*
X184456843Y-80641252D01*
X184605822Y-80891355D01*
X184800731Y-81107588D01*
X185034080Y-81281641D01*
X185296901Y-81406825D01*
X185444110Y-81451476D01*
X185674000Y-81330155D01*
X185674000Y-80137000D01*
X185654000Y-80137000D01*
X185654000Y-79883000D01*
X185674000Y-79883000D01*
X185674000Y-78689845D01*
X185444110Y-78568524D01*
X185296901Y-78613175D01*
X185034080Y-78738359D01*
X184800731Y-78912412D01*
X184605822Y-79128645D01*
X184456843Y-79378748D01*
X184399228Y-79541168D01*
X184351898Y-79426903D01*
X184217180Y-79225283D01*
X184045717Y-79053820D01*
X183844097Y-78919102D01*
X183620069Y-78826307D01*
X183382243Y-78779000D01*
X183139757Y-78779000D01*
X182901931Y-78826307D01*
X182677903Y-78919102D01*
X182476283Y-79053820D01*
X182368762Y-79161342D01*
X181693430Y-78486010D01*
X186098590Y-78486010D01*
X186191211Y-78578631D01*
X186157890Y-78568524D01*
X185928000Y-78689845D01*
X185928000Y-79883000D01*
X185948000Y-79883000D01*
X185948000Y-80137000D01*
X185928000Y-80137000D01*
X185928000Y-81330155D01*
X186157890Y-81451476D01*
X186305099Y-81406825D01*
X186567920Y-81281641D01*
X186801269Y-81107588D01*
X186996178Y-80891355D01*
X187145157Y-80641252D01*
X187202772Y-80478832D01*
X187250102Y-80593097D01*
X187384820Y-80794717D01*
X187556283Y-80966180D01*
X187757903Y-81100898D01*
X187981931Y-81193693D01*
X188219757Y-81241000D01*
X188462243Y-81241000D01*
X188700069Y-81193693D01*
X188924097Y-81100898D01*
X189125717Y-80966180D01*
X189297180Y-80794717D01*
X189431898Y-80593097D01*
X189524693Y-80369069D01*
X189572000Y-80131243D01*
X189572000Y-79888757D01*
X189650000Y-79888757D01*
X189650000Y-80131243D01*
X189697307Y-80369069D01*
X189790102Y-80593097D01*
X189924820Y-80794717D01*
X190096283Y-80966180D01*
X190297903Y-81100898D01*
X190521931Y-81193693D01*
X190759757Y-81241000D01*
X191002243Y-81241000D01*
X191240069Y-81193693D01*
X191464097Y-81100898D01*
X191665717Y-80966180D01*
X191837180Y-80794717D01*
X191971898Y-80593097D01*
X192064693Y-80369069D01*
X192112000Y-80131243D01*
X192112000Y-79888757D01*
X192064693Y-79650931D01*
X191971898Y-79426903D01*
X191837180Y-79225283D01*
X191665717Y-79053820D01*
X191464097Y-78919102D01*
X191240069Y-78826307D01*
X191002243Y-78779000D01*
X190759757Y-78779000D01*
X190521931Y-78826307D01*
X190297903Y-78919102D01*
X190096283Y-79053820D01*
X189924820Y-79225283D01*
X189790102Y-79426903D01*
X189697307Y-79650931D01*
X189650000Y-79888757D01*
X189572000Y-79888757D01*
X189524693Y-79650931D01*
X189431898Y-79426903D01*
X189297180Y-79225283D01*
X189125717Y-79053820D01*
X188924097Y-78919102D01*
X188700069Y-78826307D01*
X188462243Y-78779000D01*
X188219757Y-78779000D01*
X187981931Y-78826307D01*
X187906833Y-78857413D01*
X187027420Y-77978000D01*
X187046056Y-77978000D01*
X187071000Y-77980457D01*
X187095944Y-77978000D01*
X187095947Y-77978000D01*
X187170585Y-77970649D01*
X187266343Y-77941601D01*
X187354595Y-77894429D01*
X187431948Y-77830948D01*
X187447855Y-77811565D01*
X187906834Y-77352587D01*
X187981931Y-77383693D01*
X188219757Y-77431000D01*
X188462243Y-77431000D01*
X188700069Y-77383693D01*
X188924097Y-77290898D01*
X189125717Y-77156180D01*
X189297180Y-76984717D01*
X189431898Y-76783097D01*
X189524693Y-76559069D01*
X189572000Y-76321243D01*
X189572000Y-76078757D01*
X189650000Y-76078757D01*
X189650000Y-76321243D01*
X189697307Y-76559069D01*
X189790102Y-76783097D01*
X189924820Y-76984717D01*
X190096283Y-77156180D01*
X190297903Y-77290898D01*
X190521931Y-77383693D01*
X190759757Y-77431000D01*
X191002243Y-77431000D01*
X191240069Y-77383693D01*
X191464097Y-77290898D01*
X191665717Y-77156180D01*
X191837180Y-76984717D01*
X191971898Y-76783097D01*
X192064693Y-76559069D01*
X192112000Y-76321243D01*
X192112000Y-76078757D01*
X192064693Y-75840931D01*
X191971898Y-75616903D01*
X191837180Y-75415283D01*
X191665717Y-75243820D01*
X191464097Y-75109102D01*
X191240069Y-75016307D01*
X191002243Y-74969000D01*
X190759757Y-74969000D01*
X190521931Y-75016307D01*
X190297903Y-75109102D01*
X190096283Y-75243820D01*
X189924820Y-75415283D01*
X189790102Y-75616903D01*
X189697307Y-75840931D01*
X189650000Y-76078757D01*
X189572000Y-76078757D01*
X189524693Y-75840931D01*
X189431898Y-75616903D01*
X189297180Y-75415283D01*
X189125717Y-75243820D01*
X188924097Y-75109102D01*
X188700069Y-75016307D01*
X188462243Y-74969000D01*
X188219757Y-74969000D01*
X187981931Y-75016307D01*
X187757903Y-75109102D01*
X187556283Y-75243820D01*
X187384820Y-75415283D01*
X187250102Y-75616903D01*
X187202772Y-75731168D01*
X187145157Y-75568748D01*
X186996178Y-75318645D01*
X186801269Y-75102412D01*
X186567920Y-74928359D01*
X186305099Y-74803175D01*
X186157890Y-74758524D01*
X185928000Y-74879845D01*
X185928000Y-76073000D01*
X185948000Y-76073000D01*
X185948000Y-76327000D01*
X185928000Y-76327000D01*
X185928000Y-76347000D01*
X185674000Y-76347000D01*
X185674000Y-76327000D01*
X185654000Y-76327000D01*
X185654000Y-76073000D01*
X185674000Y-76073000D01*
X185674000Y-74879845D01*
X185444110Y-74758524D01*
X185296901Y-74803175D01*
X185034080Y-74928359D01*
X184800731Y-75102412D01*
X184605822Y-75318645D01*
X184456843Y-75568748D01*
X184399228Y-75731168D01*
X184351898Y-75616903D01*
X184217180Y-75415283D01*
X184045717Y-75243820D01*
X183844097Y-75109102D01*
X183620069Y-75016307D01*
X183382243Y-74969000D01*
X183139757Y-74969000D01*
X182963154Y-75004129D01*
X182025024Y-74066000D01*
X195662132Y-74066000D01*
X195667443Y-74093841D01*
G36*
X185928000Y-98933000D02*
G01*
X185948000Y-98933000D01*
X185948000Y-99187000D01*
X185928000Y-99187000D01*
X185928000Y-99207000D01*
X185674000Y-99207000D01*
X185674000Y-99187000D01*
X185654000Y-99187000D01*
X185654000Y-98933000D01*
X185674000Y-98933000D01*
X185674000Y-98913000D01*
X185928000Y-98913000D01*
X185928000Y-98933000D01*
G37*
X185928000Y-98933000D02*
X185948000Y-98933000D01*
X185948000Y-99187000D01*
X185928000Y-99187000D01*
X185928000Y-99207000D01*
X185674000Y-99207000D01*
X185674000Y-99187000D01*
X185654000Y-99187000D01*
X185654000Y-98933000D01*
X185674000Y-98933000D01*
X185674000Y-98913000D01*
X185928000Y-98913000D01*
X185928000Y-98933000D01*
G36*
X185928000Y-95123000D02*
G01*
X185948000Y-95123000D01*
X185948000Y-95377000D01*
X185928000Y-95377000D01*
X185928000Y-95397000D01*
X185674000Y-95397000D01*
X185674000Y-95377000D01*
X185654000Y-95377000D01*
X185654000Y-95123000D01*
X185674000Y-95123000D01*
X185674000Y-95103000D01*
X185928000Y-95103000D01*
X185928000Y-95123000D01*
G37*
X185928000Y-95123000D02*
X185948000Y-95123000D01*
X185948000Y-95377000D01*
X185928000Y-95377000D01*
X185928000Y-95397000D01*
X185674000Y-95397000D01*
X185674000Y-95377000D01*
X185654000Y-95377000D01*
X185654000Y-95123000D01*
X185674000Y-95123000D01*
X185674000Y-95103000D01*
X185928000Y-95103000D01*
X185928000Y-95123000D01*
G36*
X164280157Y-76301000D02*
G01*
X164287513Y-76375689D01*
X164309299Y-76447508D01*
X164344678Y-76513696D01*
X164392289Y-76571711D01*
X164450304Y-76619322D01*
X164516492Y-76654701D01*
X164588311Y-76676487D01*
X164663000Y-76683843D01*
X166512132Y-76683843D01*
X165286046Y-77909930D01*
X165261816Y-77929815D01*
X165241932Y-77954044D01*
X165182463Y-78026507D01*
X165123498Y-78136821D01*
X165103598Y-78202425D01*
X165087672Y-78254928D01*
X165087189Y-78256519D01*
X165074929Y-78381000D01*
X165078001Y-78412191D01*
X165078001Y-79018157D01*
X164663000Y-79018157D01*
X164588311Y-79025513D01*
X164516492Y-79047299D01*
X164450304Y-79082678D01*
X164392289Y-79130289D01*
X164344678Y-79188304D01*
X164309299Y-79254492D01*
X164287513Y-79326311D01*
X164280157Y-79401000D01*
X164280157Y-79466000D01*
X164186189Y-79466000D01*
X164155000Y-79462928D01*
X164123811Y-79466000D01*
X164123808Y-79466000D01*
X164030518Y-79475188D01*
X163917898Y-79509351D01*
X163910820Y-79511498D01*
X163800506Y-79570462D01*
X163728043Y-79629931D01*
X163728039Y-79629935D01*
X163703815Y-79649815D01*
X163683935Y-79674039D01*
X159085050Y-84272926D01*
X159060815Y-84292815D01*
X158981463Y-84389507D01*
X158922498Y-84499821D01*
X158886188Y-84619519D01*
X158877000Y-84712809D01*
X158877000Y-84712819D01*
X158873929Y-84744000D01*
X158877000Y-84775181D01*
X158877000Y-85334974D01*
X158035968Y-86176007D01*
X158016701Y-86112492D01*
X157981322Y-86046304D01*
X157933711Y-85988289D01*
X157875696Y-85940678D01*
X157809508Y-85905299D01*
X157737689Y-85883513D01*
X157663000Y-85876157D01*
X157248000Y-85876157D01*
X157248000Y-85782180D01*
X157251071Y-85750999D01*
X157248000Y-85719818D01*
X157248000Y-85719808D01*
X157238812Y-85626518D01*
X157202502Y-85506820D01*
X157151791Y-85411948D01*
X157143537Y-85396505D01*
X157084068Y-85324042D01*
X157084065Y-85324039D01*
X157064185Y-85299815D01*
X157039960Y-85279935D01*
X155029843Y-83269818D01*
X155029843Y-81759000D01*
X155180157Y-81759000D01*
X155180157Y-83159000D01*
X155187513Y-83233689D01*
X155209299Y-83305508D01*
X155244678Y-83371696D01*
X155292289Y-83429711D01*
X155350304Y-83477322D01*
X155416492Y-83512701D01*
X155488311Y-83534487D01*
X155563000Y-83541843D01*
X157663000Y-83541843D01*
X157737689Y-83534487D01*
X157809508Y-83512701D01*
X157875696Y-83477322D01*
X157933711Y-83429711D01*
X157981322Y-83371696D01*
X158016701Y-83305508D01*
X158038487Y-83233689D01*
X158045843Y-83159000D01*
X158045843Y-81759000D01*
X158038487Y-81684311D01*
X158016701Y-81612492D01*
X157981322Y-81546304D01*
X157933711Y-81488289D01*
X157875696Y-81440678D01*
X157809508Y-81405299D01*
X157737689Y-81383513D01*
X157663000Y-81376157D01*
X155563000Y-81376157D01*
X155488311Y-81383513D01*
X155416492Y-81405299D01*
X155350304Y-81440678D01*
X155292289Y-81488289D01*
X155244678Y-81546304D01*
X155209299Y-81612492D01*
X155187513Y-81684311D01*
X155180157Y-81759000D01*
X155029843Y-81759000D01*
X155029843Y-81700000D01*
X155022487Y-81625311D01*
X155000701Y-81553492D01*
X154965322Y-81487304D01*
X154917711Y-81429289D01*
X154859696Y-81381678D01*
X154793508Y-81346299D01*
X154721689Y-81324513D01*
X154647000Y-81317157D01*
X154432000Y-81317157D01*
X154432000Y-80515622D01*
X155180157Y-79767466D01*
X155180157Y-80801000D01*
X155187513Y-80875689D01*
X155209299Y-80947508D01*
X155244678Y-81013696D01*
X155292289Y-81071711D01*
X155350304Y-81119322D01*
X155416492Y-81154701D01*
X155488311Y-81176487D01*
X155563000Y-81183843D01*
X157663000Y-81183843D01*
X157737689Y-81176487D01*
X157809508Y-81154701D01*
X157875696Y-81119322D01*
X157933711Y-81071711D01*
X157981322Y-81013696D01*
X158016701Y-80947508D01*
X158038487Y-80875689D01*
X158045843Y-80801000D01*
X158045843Y-79527999D01*
X159725418Y-79527999D01*
X159756599Y-79531070D01*
X159787780Y-79527999D01*
X159787791Y-79527999D01*
X159881081Y-79518811D01*
X160000779Y-79482501D01*
X160111093Y-79423536D01*
X160207784Y-79344184D01*
X160227673Y-79319949D01*
X164280157Y-75267466D01*
X164280157Y-76301000D01*
G37*
X164280157Y-76301000D02*
X164287513Y-76375689D01*
X164309299Y-76447508D01*
X164344678Y-76513696D01*
X164392289Y-76571711D01*
X164450304Y-76619322D01*
X164516492Y-76654701D01*
X164588311Y-76676487D01*
X164663000Y-76683843D01*
X166512132Y-76683843D01*
X165286046Y-77909930D01*
X165261816Y-77929815D01*
X165241932Y-77954044D01*
X165182463Y-78026507D01*
X165123498Y-78136821D01*
X165103598Y-78202425D01*
X165087672Y-78254928D01*
X165087189Y-78256519D01*
X165074929Y-78381000D01*
X165078001Y-78412191D01*
X165078001Y-79018157D01*
X164663000Y-79018157D01*
X164588311Y-79025513D01*
X164516492Y-79047299D01*
X164450304Y-79082678D01*
X164392289Y-79130289D01*
X164344678Y-79188304D01*
X164309299Y-79254492D01*
X164287513Y-79326311D01*
X164280157Y-79401000D01*
X164280157Y-79466000D01*
X164186189Y-79466000D01*
X164155000Y-79462928D01*
X164123811Y-79466000D01*
X164123808Y-79466000D01*
X164030518Y-79475188D01*
X163917898Y-79509351D01*
X163910820Y-79511498D01*
X163800506Y-79570462D01*
X163728043Y-79629931D01*
X163728039Y-79629935D01*
X163703815Y-79649815D01*
X163683935Y-79674039D01*
X159085050Y-84272926D01*
X159060815Y-84292815D01*
X158981463Y-84389507D01*
X158922498Y-84499821D01*
X158886188Y-84619519D01*
X158877000Y-84712809D01*
X158877000Y-84712819D01*
X158873929Y-84744000D01*
X158877000Y-84775181D01*
X158877000Y-85334974D01*
X158035968Y-86176007D01*
X158016701Y-86112492D01*
X157981322Y-86046304D01*
X157933711Y-85988289D01*
X157875696Y-85940678D01*
X157809508Y-85905299D01*
X157737689Y-85883513D01*
X157663000Y-85876157D01*
X157248000Y-85876157D01*
X157248000Y-85782180D01*
X157251071Y-85750999D01*
X157248000Y-85719818D01*
X157248000Y-85719808D01*
X157238812Y-85626518D01*
X157202502Y-85506820D01*
X157151791Y-85411948D01*
X157143537Y-85396505D01*
X157084068Y-85324042D01*
X157084065Y-85324039D01*
X157064185Y-85299815D01*
X157039960Y-85279935D01*
X155029843Y-83269818D01*
X155029843Y-81759000D01*
X155180157Y-81759000D01*
X155180157Y-83159000D01*
X155187513Y-83233689D01*
X155209299Y-83305508D01*
X155244678Y-83371696D01*
X155292289Y-83429711D01*
X155350304Y-83477322D01*
X155416492Y-83512701D01*
X155488311Y-83534487D01*
X155563000Y-83541843D01*
X157663000Y-83541843D01*
X157737689Y-83534487D01*
X157809508Y-83512701D01*
X157875696Y-83477322D01*
X157933711Y-83429711D01*
X157981322Y-83371696D01*
X158016701Y-83305508D01*
X158038487Y-83233689D01*
X158045843Y-83159000D01*
X158045843Y-81759000D01*
X158038487Y-81684311D01*
X158016701Y-81612492D01*
X157981322Y-81546304D01*
X157933711Y-81488289D01*
X157875696Y-81440678D01*
X157809508Y-81405299D01*
X157737689Y-81383513D01*
X157663000Y-81376157D01*
X155563000Y-81376157D01*
X155488311Y-81383513D01*
X155416492Y-81405299D01*
X155350304Y-81440678D01*
X155292289Y-81488289D01*
X155244678Y-81546304D01*
X155209299Y-81612492D01*
X155187513Y-81684311D01*
X155180157Y-81759000D01*
X155029843Y-81759000D01*
X155029843Y-81700000D01*
X155022487Y-81625311D01*
X155000701Y-81553492D01*
X154965322Y-81487304D01*
X154917711Y-81429289D01*
X154859696Y-81381678D01*
X154793508Y-81346299D01*
X154721689Y-81324513D01*
X154647000Y-81317157D01*
X154432000Y-81317157D01*
X154432000Y-80515622D01*
X155180157Y-79767466D01*
X155180157Y-80801000D01*
X155187513Y-80875689D01*
X155209299Y-80947508D01*
X155244678Y-81013696D01*
X155292289Y-81071711D01*
X155350304Y-81119322D01*
X155416492Y-81154701D01*
X155488311Y-81176487D01*
X155563000Y-81183843D01*
X157663000Y-81183843D01*
X157737689Y-81176487D01*
X157809508Y-81154701D01*
X157875696Y-81119322D01*
X157933711Y-81071711D01*
X157981322Y-81013696D01*
X158016701Y-80947508D01*
X158038487Y-80875689D01*
X158045843Y-80801000D01*
X158045843Y-79527999D01*
X159725418Y-79527999D01*
X159756599Y-79531070D01*
X159787780Y-79527999D01*
X159787791Y-79527999D01*
X159881081Y-79518811D01*
X160000779Y-79482501D01*
X160111093Y-79423536D01*
X160207784Y-79344184D01*
X160227673Y-79319949D01*
X164280157Y-75267466D01*
X164280157Y-76301000D01*
G36*
X173881100Y-82569184D02*
G01*
X173870352Y-82604614D01*
X173860543Y-82704198D01*
X173863001Y-82729152D01*
X173863000Y-84866910D01*
X172900330Y-85829580D01*
X172795750Y-85725000D01*
X172009000Y-85725000D01*
X172009000Y-85745000D01*
X171755000Y-85745000D01*
X171755000Y-85725000D01*
X171735000Y-85725000D01*
X171735000Y-85471000D01*
X171755000Y-85471000D01*
X171755000Y-84646750D01*
X172009000Y-84646750D01*
X172009000Y-85471000D01*
X172795750Y-85471000D01*
X172954500Y-85312250D01*
X172957572Y-85123000D01*
X172945312Y-84998518D01*
X172909002Y-84878820D01*
X172850037Y-84768506D01*
X172770685Y-84671815D01*
X172673994Y-84592463D01*
X172563680Y-84533498D01*
X172443982Y-84497188D01*
X172319500Y-84484928D01*
X172167750Y-84488000D01*
X172009000Y-84646750D01*
X171755000Y-84646750D01*
X171596250Y-84488000D01*
X171444500Y-84484928D01*
X171320018Y-84497188D01*
X171274392Y-84511029D01*
X171742578Y-84042843D01*
X172100750Y-84042843D01*
X172218115Y-84031284D01*
X172330970Y-83997049D01*
X172434977Y-83941456D01*
X172526140Y-83866640D01*
X172600956Y-83775477D01*
X172656549Y-83671470D01*
X172690784Y-83558615D01*
X172702343Y-83441250D01*
X172702343Y-82928750D01*
X172690784Y-82811385D01*
X172656549Y-82698530D01*
X172621272Y-82632531D01*
X172636116Y-82654747D01*
X172742253Y-82760884D01*
X172867058Y-82844276D01*
X173005733Y-82901717D01*
X173152950Y-82931000D01*
X173303050Y-82931000D01*
X173450267Y-82901717D01*
X173588942Y-82844276D01*
X173713747Y-82760884D01*
X173819884Y-82654747D01*
X173884462Y-82558099D01*
X173881100Y-82569184D01*
G37*
X173881100Y-82569184D02*
X173870352Y-82604614D01*
X173860543Y-82704198D01*
X173863001Y-82729152D01*
X173863000Y-84866910D01*
X172900330Y-85829580D01*
X172795750Y-85725000D01*
X172009000Y-85725000D01*
X172009000Y-85745000D01*
X171755000Y-85745000D01*
X171755000Y-85725000D01*
X171735000Y-85725000D01*
X171735000Y-85471000D01*
X171755000Y-85471000D01*
X171755000Y-84646750D01*
X172009000Y-84646750D01*
X172009000Y-85471000D01*
X172795750Y-85471000D01*
X172954500Y-85312250D01*
X172957572Y-85123000D01*
X172945312Y-84998518D01*
X172909002Y-84878820D01*
X172850037Y-84768506D01*
X172770685Y-84671815D01*
X172673994Y-84592463D01*
X172563680Y-84533498D01*
X172443982Y-84497188D01*
X172319500Y-84484928D01*
X172167750Y-84488000D01*
X172009000Y-84646750D01*
X171755000Y-84646750D01*
X171596250Y-84488000D01*
X171444500Y-84484928D01*
X171320018Y-84497188D01*
X171274392Y-84511029D01*
X171742578Y-84042843D01*
X172100750Y-84042843D01*
X172218115Y-84031284D01*
X172330970Y-83997049D01*
X172434977Y-83941456D01*
X172526140Y-83866640D01*
X172600956Y-83775477D01*
X172656549Y-83671470D01*
X172690784Y-83558615D01*
X172702343Y-83441250D01*
X172702343Y-82928750D01*
X172690784Y-82811385D01*
X172656549Y-82698530D01*
X172621272Y-82632531D01*
X172636116Y-82654747D01*
X172742253Y-82760884D01*
X172867058Y-82844276D01*
X173005733Y-82901717D01*
X173152950Y-82931000D01*
X173303050Y-82931000D01*
X173450267Y-82901717D01*
X173588942Y-82844276D01*
X173713747Y-82760884D01*
X173819884Y-82654747D01*
X173884462Y-82558099D01*
X173881100Y-82569184D01*
%TD*%
M02*
