%TF.GenerationSoftware,KiCad,Pcbnew,(5.1.6)-1*%
%TF.CreationDate,2020-07-31T18:02:46-07:00*%
%TF.ProjectId,dspic33ev256gm102,64737069-6333-4336-9576-323536676d31,rev?*%
%TF.SameCoordinates,Original*%
%TF.FileFunction,Soldermask,Bot*%
%TF.FilePolarity,Negative*%
%FSLAX46Y46*%
G04 Gerber Fmt 4.6, Leading zero omitted, Abs format (unit mm)*
G04 Created by KiCad (PCBNEW (5.1.6)-1) date 2020-07-31 18:02:46*
%MOMM*%
%LPD*%
G01*
G04 APERTURE LIST*
%ADD10O,1.801600X1.801600*%
%ADD11R,1.801600X1.801600*%
%ADD12R,2.541600X1.221600*%
%ADD13R,2.201600X1.501600*%
%ADD14R,1.501600X2.201600*%
G04 APERTURE END LIST*
D10*
%TO.C,J3*%
X190881000Y-83820000D03*
X188341000Y-83820000D03*
X185801000Y-83820000D03*
X183261000Y-83820000D03*
X180721000Y-83820000D03*
X178181000Y-83820000D03*
D11*
X175641000Y-83820000D03*
%TD*%
%TO.C,R15*%
G36*
G01*
X172370300Y-78077350D02*
X172370300Y-78640650D01*
G75*
G02*
X172126150Y-78884800I-244150J0D01*
G01*
X171637850Y-78884800D01*
G75*
G02*
X171393700Y-78640650I0J244150D01*
G01*
X171393700Y-78077350D01*
G75*
G02*
X171637850Y-77833200I244150J0D01*
G01*
X172126150Y-77833200D01*
G75*
G02*
X172370300Y-78077350I0J-244150D01*
G01*
G37*
G36*
G01*
X170795300Y-78077350D02*
X170795300Y-78640650D01*
G75*
G02*
X170551150Y-78884800I-244150J0D01*
G01*
X170062850Y-78884800D01*
G75*
G02*
X169818700Y-78640650I0J244150D01*
G01*
X169818700Y-78077350D01*
G75*
G02*
X170062850Y-77833200I244150J0D01*
G01*
X170551150Y-77833200D01*
G75*
G02*
X170795300Y-78077350I0J-244150D01*
G01*
G37*
%TD*%
%TO.C,R16*%
G36*
G01*
X169818700Y-81053650D02*
X169818700Y-80490350D01*
G75*
G02*
X170062850Y-80246200I244150J0D01*
G01*
X170551150Y-80246200D01*
G75*
G02*
X170795300Y-80490350I0J-244150D01*
G01*
X170795300Y-81053650D01*
G75*
G02*
X170551150Y-81297800I-244150J0D01*
G01*
X170062850Y-81297800D01*
G75*
G02*
X169818700Y-81053650I0J244150D01*
G01*
G37*
G36*
G01*
X171393700Y-81053650D02*
X171393700Y-80490350D01*
G75*
G02*
X171637850Y-80246200I244150J0D01*
G01*
X172126150Y-80246200D01*
G75*
G02*
X172370300Y-80490350I0J-244150D01*
G01*
X172370300Y-81053650D01*
G75*
G02*
X172126150Y-81297800I-244150J0D01*
G01*
X171637850Y-81297800D01*
G75*
G02*
X171393700Y-81053650I0J244150D01*
G01*
G37*
%TD*%
D10*
%TO.C,J1*%
X190881000Y-76200000D03*
X188341000Y-76200000D03*
X185801000Y-76200000D03*
X183261000Y-76200000D03*
X180721000Y-76200000D03*
X178181000Y-76200000D03*
D11*
X175641000Y-76200000D03*
%TD*%
%TO.C,C1*%
G36*
G01*
X171393700Y-85879650D02*
X171393700Y-85316350D01*
G75*
G02*
X171637850Y-85072200I244150J0D01*
G01*
X172126150Y-85072200D01*
G75*
G02*
X172370300Y-85316350I0J-244150D01*
G01*
X172370300Y-85879650D01*
G75*
G02*
X172126150Y-86123800I-244150J0D01*
G01*
X171637850Y-86123800D01*
G75*
G02*
X171393700Y-85879650I0J244150D01*
G01*
G37*
G36*
G01*
X169818700Y-85879650D02*
X169818700Y-85316350D01*
G75*
G02*
X170062850Y-85072200I244150J0D01*
G01*
X170551150Y-85072200D01*
G75*
G02*
X170795300Y-85316350I0J-244150D01*
G01*
X170795300Y-85879650D01*
G75*
G02*
X170551150Y-86123800I-244150J0D01*
G01*
X170062850Y-86123800D01*
G75*
G02*
X169818700Y-85879650I0J244150D01*
G01*
G37*
%TD*%
%TO.C,D1*%
G36*
G01*
X195099650Y-79672800D02*
X194536350Y-79672800D01*
G75*
G02*
X194292200Y-79428650I0J244150D01*
G01*
X194292200Y-78940350D01*
G75*
G02*
X194536350Y-78696200I244150J0D01*
G01*
X195099650Y-78696200D01*
G75*
G02*
X195343800Y-78940350I0J-244150D01*
G01*
X195343800Y-79428650D01*
G75*
G02*
X195099650Y-79672800I-244150J0D01*
G01*
G37*
G36*
G01*
X195099650Y-81247800D02*
X194536350Y-81247800D01*
G75*
G02*
X194292200Y-81003650I0J244150D01*
G01*
X194292200Y-80515350D01*
G75*
G02*
X194536350Y-80271200I244150J0D01*
G01*
X195099650Y-80271200D01*
G75*
G02*
X195343800Y-80515350I0J-244150D01*
G01*
X195343800Y-81003650D01*
G75*
G02*
X195099650Y-81247800I-244150J0D01*
G01*
G37*
%TD*%
%TO.C,D2*%
G36*
G01*
X196877650Y-83787800D02*
X196314350Y-83787800D01*
G75*
G02*
X196070200Y-83543650I0J244150D01*
G01*
X196070200Y-83055350D01*
G75*
G02*
X196314350Y-82811200I244150J0D01*
G01*
X196877650Y-82811200D01*
G75*
G02*
X197121800Y-83055350I0J-244150D01*
G01*
X197121800Y-83543650D01*
G75*
G02*
X196877650Y-83787800I-244150J0D01*
G01*
G37*
G36*
G01*
X196877650Y-82212800D02*
X196314350Y-82212800D01*
G75*
G02*
X196070200Y-81968650I0J244150D01*
G01*
X196070200Y-81480350D01*
G75*
G02*
X196314350Y-81236200I244150J0D01*
G01*
X196877650Y-81236200D01*
G75*
G02*
X197121800Y-81480350I0J-244150D01*
G01*
X197121800Y-81968650D01*
G75*
G02*
X196877650Y-82212800I-244150J0D01*
G01*
G37*
%TD*%
%TO.C,D3*%
G36*
G01*
X195099650Y-84756966D02*
X194536350Y-84756966D01*
G75*
G02*
X194292200Y-84512816I0J244150D01*
G01*
X194292200Y-84024516D01*
G75*
G02*
X194536350Y-83780366I244150J0D01*
G01*
X195099650Y-83780366D01*
G75*
G02*
X195343800Y-84024516I0J-244150D01*
G01*
X195343800Y-84512816D01*
G75*
G02*
X195099650Y-84756966I-244150J0D01*
G01*
G37*
G36*
G01*
X195099650Y-86331966D02*
X194536350Y-86331966D01*
G75*
G02*
X194292200Y-86087816I0J244150D01*
G01*
X194292200Y-85599516D01*
G75*
G02*
X194536350Y-85355366I244150J0D01*
G01*
X195099650Y-85355366D01*
G75*
G02*
X195343800Y-85599516I0J-244150D01*
G01*
X195343800Y-86087816D01*
G75*
G02*
X195099650Y-86331966I-244150J0D01*
G01*
G37*
%TD*%
%TO.C,D4*%
G36*
G01*
X196877650Y-88880400D02*
X196314350Y-88880400D01*
G75*
G02*
X196070200Y-88636250I0J244150D01*
G01*
X196070200Y-88147950D01*
G75*
G02*
X196314350Y-87903800I244150J0D01*
G01*
X196877650Y-87903800D01*
G75*
G02*
X197121800Y-88147950I0J-244150D01*
G01*
X197121800Y-88636250D01*
G75*
G02*
X196877650Y-88880400I-244150J0D01*
G01*
G37*
G36*
G01*
X196877650Y-87305400D02*
X196314350Y-87305400D01*
G75*
G02*
X196070200Y-87061250I0J244150D01*
G01*
X196070200Y-86572950D01*
G75*
G02*
X196314350Y-86328800I244150J0D01*
G01*
X196877650Y-86328800D01*
G75*
G02*
X197121800Y-86572950I0J-244150D01*
G01*
X197121800Y-87061250D01*
G75*
G02*
X196877650Y-87305400I-244150J0D01*
G01*
G37*
%TD*%
%TO.C,D5*%
G36*
G01*
X195099650Y-89841132D02*
X194536350Y-89841132D01*
G75*
G02*
X194292200Y-89596982I0J244150D01*
G01*
X194292200Y-89108682D01*
G75*
G02*
X194536350Y-88864532I244150J0D01*
G01*
X195099650Y-88864532D01*
G75*
G02*
X195343800Y-89108682I0J-244150D01*
G01*
X195343800Y-89596982D01*
G75*
G02*
X195099650Y-89841132I-244150J0D01*
G01*
G37*
G36*
G01*
X195099650Y-91416132D02*
X194536350Y-91416132D01*
G75*
G02*
X194292200Y-91171982I0J244150D01*
G01*
X194292200Y-90683682D01*
G75*
G02*
X194536350Y-90439532I244150J0D01*
G01*
X195099650Y-90439532D01*
G75*
G02*
X195343800Y-90683682I0J-244150D01*
G01*
X195343800Y-91171982D01*
G75*
G02*
X195099650Y-91416132I-244150J0D01*
G01*
G37*
%TD*%
%TO.C,D6*%
G36*
G01*
X196877650Y-92372800D02*
X196314350Y-92372800D01*
G75*
G02*
X196070200Y-92128650I0J244150D01*
G01*
X196070200Y-91640350D01*
G75*
G02*
X196314350Y-91396200I244150J0D01*
G01*
X196877650Y-91396200D01*
G75*
G02*
X197121800Y-91640350I0J-244150D01*
G01*
X197121800Y-92128650D01*
G75*
G02*
X196877650Y-92372800I-244150J0D01*
G01*
G37*
G36*
G01*
X196877650Y-93947800D02*
X196314350Y-93947800D01*
G75*
G02*
X196070200Y-93703650I0J244150D01*
G01*
X196070200Y-93215350D01*
G75*
G02*
X196314350Y-92971200I244150J0D01*
G01*
X196877650Y-92971200D01*
G75*
G02*
X197121800Y-93215350I0J-244150D01*
G01*
X197121800Y-93703650D01*
G75*
G02*
X196877650Y-93947800I-244150J0D01*
G01*
G37*
%TD*%
%TO.C,D7*%
G36*
G01*
X195099650Y-96500300D02*
X194536350Y-96500300D01*
G75*
G02*
X194292200Y-96256150I0J244150D01*
G01*
X194292200Y-95767850D01*
G75*
G02*
X194536350Y-95523700I244150J0D01*
G01*
X195099650Y-95523700D01*
G75*
G02*
X195343800Y-95767850I0J-244150D01*
G01*
X195343800Y-96256150D01*
G75*
G02*
X195099650Y-96500300I-244150J0D01*
G01*
G37*
G36*
G01*
X195099650Y-94925300D02*
X194536350Y-94925300D01*
G75*
G02*
X194292200Y-94681150I0J244150D01*
G01*
X194292200Y-94192850D01*
G75*
G02*
X194536350Y-93948700I244150J0D01*
G01*
X195099650Y-93948700D01*
G75*
G02*
X195343800Y-94192850I0J-244150D01*
G01*
X195343800Y-94681150D01*
G75*
G02*
X195099650Y-94925300I-244150J0D01*
G01*
G37*
%TD*%
%TO.C,J2*%
X175641000Y-80010000D03*
D10*
X178181000Y-80010000D03*
X180721000Y-80010000D03*
X183261000Y-80010000D03*
X185801000Y-80010000D03*
X188341000Y-80010000D03*
X190881000Y-80010000D03*
%TD*%
D11*
%TO.C,J4*%
X175641000Y-87630000D03*
D10*
X178181000Y-87630000D03*
X180721000Y-87630000D03*
X183261000Y-87630000D03*
X185801000Y-87630000D03*
X188341000Y-87630000D03*
X190881000Y-87630000D03*
%TD*%
%TO.C,J5*%
X190881000Y-91440000D03*
X188341000Y-91440000D03*
X185801000Y-91440000D03*
X183261000Y-91440000D03*
X180721000Y-91440000D03*
X178181000Y-91440000D03*
D11*
X175641000Y-91440000D03*
%TD*%
D10*
%TO.C,J6*%
X190881000Y-95250000D03*
X188341000Y-95250000D03*
X185801000Y-95250000D03*
X183261000Y-95250000D03*
X180721000Y-95250000D03*
X178181000Y-95250000D03*
D11*
X175641000Y-95250000D03*
%TD*%
%TO.C,J7*%
X175641000Y-99060000D03*
D10*
X178181000Y-99060000D03*
X180721000Y-99060000D03*
X183261000Y-99060000D03*
X185801000Y-99060000D03*
X188341000Y-99060000D03*
X190881000Y-99060000D03*
%TD*%
%TO.C,J10*%
X153797000Y-92710000D03*
X153797000Y-90170000D03*
X153797000Y-87630000D03*
X153797000Y-85090000D03*
D11*
X153797000Y-82550000D03*
%TD*%
D12*
%TO.C,SW4*%
X163589000Y-91313000D03*
X172199000Y-98933000D03*
X163589000Y-93853000D03*
X172199000Y-96393000D03*
X163589000Y-96393000D03*
X172199000Y-93853000D03*
X163589000Y-98933000D03*
X172199000Y-91313000D03*
%TD*%
%TO.C,JP1*%
G36*
G01*
X171393700Y-83466650D02*
X171393700Y-82903350D01*
G75*
G02*
X171637850Y-82659200I244150J0D01*
G01*
X172126150Y-82659200D01*
G75*
G02*
X172370300Y-82903350I0J-244150D01*
G01*
X172370300Y-83466650D01*
G75*
G02*
X172126150Y-83710800I-244150J0D01*
G01*
X171637850Y-83710800D01*
G75*
G02*
X171393700Y-83466650I0J244150D01*
G01*
G37*
G36*
G01*
X169818700Y-83466650D02*
X169818700Y-82903350D01*
G75*
G02*
X170062850Y-82659200I244150J0D01*
G01*
X170551150Y-82659200D01*
G75*
G02*
X170795300Y-82903350I0J-244150D01*
G01*
X170795300Y-83466650D01*
G75*
G02*
X170551150Y-83710800I-244150J0D01*
G01*
X170062850Y-83710800D01*
G75*
G02*
X169818700Y-83466650I0J244150D01*
G01*
G37*
%TD*%
D13*
%TO.C,SW1*%
X156613000Y-80101000D03*
X156613000Y-75601000D03*
X165713000Y-75601000D03*
X165713000Y-80101000D03*
%TD*%
%TO.C,SW2*%
X165713000Y-86959000D03*
X165713000Y-82459000D03*
X156613000Y-82459000D03*
X156613000Y-86959000D03*
%TD*%
D14*
%TO.C,SW3*%
X156309500Y-90890500D03*
X160809500Y-90890500D03*
X160809500Y-99990500D03*
X156309500Y-99990500D03*
%TD*%
M02*
