%TF.GenerationSoftware,KiCad,Pcbnew,(5.1.6)-1*%
%TF.CreationDate,2020-07-31T18:02:46-07:00*%
%TF.ProjectId,dspic33ev256gm102,64737069-6333-4336-9576-323536676d31,rev?*%
%TF.SameCoordinates,Original*%
%TF.FileFunction,Legend,Bot*%
%TF.FilePolarity,Positive*%
%FSLAX46Y46*%
G04 Gerber Fmt 4.6, Leading zero omitted, Abs format (unit mm)*
G04 Created by KiCad (PCBNEW (5.1.6)-1) date 2020-07-31 18:02:46*
%MOMM*%
%LPD*%
G01*
G04 APERTURE LIST*
%ADD10C,0.254000*%
%ADD11C,0.127000*%
%ADD12C,0.120000*%
%ADD13C,0.100000*%
G04 APERTURE END LIST*
D10*
X172085000Y-89281000D02*
G75*
G03*
X172085000Y-89281000I-127000J0D01*
G01*
X155130500Y-86995000D02*
G75*
G03*
X155130500Y-86995000I-127000J0D01*
G01*
X155130500Y-80137000D02*
G75*
G03*
X155130500Y-80137000I-127000J0D01*
G01*
X156464000Y-89281000D02*
G75*
G03*
X156464000Y-89281000I-127000J0D01*
G01*
X152654000Y-81153000D02*
G75*
G03*
X152654000Y-81153000I-127000J0D01*
G01*
D11*
X194056000Y-93853000D02*
X194310000Y-93853000D01*
X194183000Y-93980000D02*
X194183000Y-93726000D01*
X195834000Y-91313000D02*
X196088000Y-91313000D01*
X195961000Y-91440000D02*
X195961000Y-91186000D01*
X194056000Y-88773000D02*
X194310000Y-88773000D01*
X194183000Y-88900000D02*
X194183000Y-88646000D01*
X195834000Y-86233000D02*
X196088000Y-86233000D01*
X195961000Y-86360000D02*
X195961000Y-86106000D01*
X194056000Y-83693000D02*
X194310000Y-83693000D01*
X194183000Y-83820000D02*
X194183000Y-83566000D01*
X194056000Y-78613000D02*
X194310000Y-78613000D01*
X194183000Y-78740000D02*
X194183000Y-78486000D01*
X195961000Y-81280000D02*
X195961000Y-81026000D01*
X195834000Y-81153000D02*
X196088000Y-81153000D01*
X173143333Y-97868619D02*
X173070761Y-97892809D01*
X172949809Y-97892809D01*
X172901428Y-97868619D01*
X172877238Y-97844428D01*
X172853047Y-97796047D01*
X172853047Y-97747666D01*
X172877238Y-97699285D01*
X172901428Y-97675095D01*
X172949809Y-97650904D01*
X173046571Y-97626714D01*
X173094952Y-97602523D01*
X173119142Y-97578333D01*
X173143333Y-97529952D01*
X173143333Y-97481571D01*
X173119142Y-97433190D01*
X173094952Y-97409000D01*
X173046571Y-97384809D01*
X172925619Y-97384809D01*
X172853047Y-97409000D01*
X172683714Y-97384809D02*
X172562761Y-97892809D01*
X172466000Y-97529952D01*
X172369238Y-97892809D01*
X172248285Y-97384809D01*
X172103142Y-97384809D02*
X171764476Y-97384809D01*
X171982190Y-97892809D01*
X173143333Y-95328619D02*
X173070761Y-95352809D01*
X172949809Y-95352809D01*
X172901428Y-95328619D01*
X172877238Y-95304428D01*
X172853047Y-95256047D01*
X172853047Y-95207666D01*
X172877238Y-95159285D01*
X172901428Y-95135095D01*
X172949809Y-95110904D01*
X173046571Y-95086714D01*
X173094952Y-95062523D01*
X173119142Y-95038333D01*
X173143333Y-94989952D01*
X173143333Y-94941571D01*
X173119142Y-94893190D01*
X173094952Y-94869000D01*
X173046571Y-94844809D01*
X172925619Y-94844809D01*
X172853047Y-94869000D01*
X172683714Y-94844809D02*
X172562761Y-95352809D01*
X172466000Y-94989952D01*
X172369238Y-95352809D01*
X172248285Y-94844809D01*
X171837047Y-94844809D02*
X171933809Y-94844809D01*
X171982190Y-94869000D01*
X172006380Y-94893190D01*
X172054761Y-94965761D01*
X172078952Y-95062523D01*
X172078952Y-95256047D01*
X172054761Y-95304428D01*
X172030571Y-95328619D01*
X171982190Y-95352809D01*
X171885428Y-95352809D01*
X171837047Y-95328619D01*
X171812857Y-95304428D01*
X171788666Y-95256047D01*
X171788666Y-95135095D01*
X171812857Y-95086714D01*
X171837047Y-95062523D01*
X171885428Y-95038333D01*
X171982190Y-95038333D01*
X172030571Y-95062523D01*
X172054761Y-95086714D01*
X172078952Y-95135095D01*
X173143333Y-92788619D02*
X173070761Y-92812809D01*
X172949809Y-92812809D01*
X172901428Y-92788619D01*
X172877238Y-92764428D01*
X172853047Y-92716047D01*
X172853047Y-92667666D01*
X172877238Y-92619285D01*
X172901428Y-92595095D01*
X172949809Y-92570904D01*
X173046571Y-92546714D01*
X173094952Y-92522523D01*
X173119142Y-92498333D01*
X173143333Y-92449952D01*
X173143333Y-92401571D01*
X173119142Y-92353190D01*
X173094952Y-92329000D01*
X173046571Y-92304809D01*
X172925619Y-92304809D01*
X172853047Y-92329000D01*
X172683714Y-92304809D02*
X172562761Y-92812809D01*
X172466000Y-92449952D01*
X172369238Y-92812809D01*
X172248285Y-92304809D01*
X171812857Y-92304809D02*
X172054761Y-92304809D01*
X172078952Y-92546714D01*
X172054761Y-92522523D01*
X172006380Y-92498333D01*
X171885428Y-92498333D01*
X171837047Y-92522523D01*
X171812857Y-92546714D01*
X171788666Y-92595095D01*
X171788666Y-92716047D01*
X171812857Y-92764428D01*
X171837047Y-92788619D01*
X171885428Y-92812809D01*
X172006380Y-92812809D01*
X172054761Y-92788619D01*
X172078952Y-92764428D01*
X173270333Y-90248619D02*
X173197761Y-90272809D01*
X173076809Y-90272809D01*
X173028428Y-90248619D01*
X173004238Y-90224428D01*
X172980047Y-90176047D01*
X172980047Y-90127666D01*
X173004238Y-90079285D01*
X173028428Y-90055095D01*
X173076809Y-90030904D01*
X173173571Y-90006714D01*
X173221952Y-89982523D01*
X173246142Y-89958333D01*
X173270333Y-89909952D01*
X173270333Y-89861571D01*
X173246142Y-89813190D01*
X173221952Y-89789000D01*
X173173571Y-89764809D01*
X173052619Y-89764809D01*
X172980047Y-89789000D01*
X172810714Y-89764809D02*
X172689761Y-90272809D01*
X172593000Y-89909952D01*
X172496238Y-90272809D01*
X172375285Y-89764809D01*
X171964047Y-89934142D02*
X171964047Y-90272809D01*
X172085000Y-89740619D02*
X172205952Y-90103476D01*
X171891476Y-90103476D01*
X178761571Y-101194809D02*
X178930904Y-100952904D01*
X179051857Y-101194809D02*
X179051857Y-100686809D01*
X178858333Y-100686809D01*
X178809952Y-100711000D01*
X178785761Y-100735190D01*
X178761571Y-100783571D01*
X178761571Y-100856142D01*
X178785761Y-100904523D01*
X178809952Y-100928714D01*
X178858333Y-100952904D01*
X179051857Y-100952904D01*
X178374523Y-100928714D02*
X178301952Y-100952904D01*
X178277761Y-100977095D01*
X178253571Y-101025476D01*
X178253571Y-101098047D01*
X178277761Y-101146428D01*
X178301952Y-101170619D01*
X178350333Y-101194809D01*
X178543857Y-101194809D01*
X178543857Y-100686809D01*
X178374523Y-100686809D01*
X178326142Y-100711000D01*
X178301952Y-100735190D01*
X178277761Y-100783571D01*
X178277761Y-100831952D01*
X178301952Y-100880333D01*
X178326142Y-100904523D01*
X178374523Y-100928714D01*
X178543857Y-100928714D01*
X177769761Y-101194809D02*
X178060047Y-101194809D01*
X177914904Y-101194809D02*
X177914904Y-100686809D01*
X177963285Y-100759380D01*
X178011666Y-100807761D01*
X178060047Y-100831952D01*
X177334333Y-100856142D02*
X177334333Y-101194809D01*
X177455285Y-100662619D02*
X177576238Y-101025476D01*
X177261761Y-101025476D01*
X189018333Y-101170619D02*
X188945761Y-101194809D01*
X188824809Y-101194809D01*
X188776428Y-101170619D01*
X188752238Y-101146428D01*
X188728047Y-101098047D01*
X188728047Y-101049666D01*
X188752238Y-101001285D01*
X188776428Y-100977095D01*
X188824809Y-100952904D01*
X188921571Y-100928714D01*
X188969952Y-100904523D01*
X188994142Y-100880333D01*
X189018333Y-100831952D01*
X189018333Y-100783571D01*
X188994142Y-100735190D01*
X188969952Y-100711000D01*
X188921571Y-100686809D01*
X188800619Y-100686809D01*
X188728047Y-100711000D01*
X188558714Y-100686809D02*
X188437761Y-101194809D01*
X188341000Y-100831952D01*
X188244238Y-101194809D01*
X188123285Y-100686809D01*
X187978142Y-100686809D02*
X187639476Y-100686809D01*
X187857190Y-101194809D01*
X176221571Y-101194809D02*
X176390904Y-100952904D01*
X176511857Y-101194809D02*
X176511857Y-100686809D01*
X176318333Y-100686809D01*
X176269952Y-100711000D01*
X176245761Y-100735190D01*
X176221571Y-100783571D01*
X176221571Y-100856142D01*
X176245761Y-100904523D01*
X176269952Y-100928714D01*
X176318333Y-100952904D01*
X176511857Y-100952904D01*
X175834523Y-100928714D02*
X175761952Y-100952904D01*
X175737761Y-100977095D01*
X175713571Y-101025476D01*
X175713571Y-101098047D01*
X175737761Y-101146428D01*
X175761952Y-101170619D01*
X175810333Y-101194809D01*
X176003857Y-101194809D01*
X176003857Y-100686809D01*
X175834523Y-100686809D01*
X175786142Y-100711000D01*
X175761952Y-100735190D01*
X175737761Y-100783571D01*
X175737761Y-100831952D01*
X175761952Y-100880333D01*
X175786142Y-100904523D01*
X175834523Y-100928714D01*
X176003857Y-100928714D01*
X175229761Y-101194809D02*
X175520047Y-101194809D01*
X175374904Y-101194809D02*
X175374904Y-100686809D01*
X175423285Y-100759380D01*
X175471666Y-100807761D01*
X175520047Y-100831952D01*
X175060428Y-100686809D02*
X174745952Y-100686809D01*
X174915285Y-100880333D01*
X174842714Y-100880333D01*
X174794333Y-100904523D01*
X174770142Y-100928714D01*
X174745952Y-100977095D01*
X174745952Y-101098047D01*
X174770142Y-101146428D01*
X174794333Y-101170619D01*
X174842714Y-101194809D01*
X174987857Y-101194809D01*
X175036238Y-101170619D01*
X175060428Y-101146428D01*
X181301571Y-101194809D02*
X181470904Y-100952904D01*
X181591857Y-101194809D02*
X181591857Y-100686809D01*
X181398333Y-100686809D01*
X181349952Y-100711000D01*
X181325761Y-100735190D01*
X181301571Y-100783571D01*
X181301571Y-100856142D01*
X181325761Y-100904523D01*
X181349952Y-100928714D01*
X181398333Y-100952904D01*
X181591857Y-100952904D01*
X180914523Y-100928714D02*
X180841952Y-100952904D01*
X180817761Y-100977095D01*
X180793571Y-101025476D01*
X180793571Y-101098047D01*
X180817761Y-101146428D01*
X180841952Y-101170619D01*
X180890333Y-101194809D01*
X181083857Y-101194809D01*
X181083857Y-100686809D01*
X180914523Y-100686809D01*
X180866142Y-100711000D01*
X180841952Y-100735190D01*
X180817761Y-100783571D01*
X180817761Y-100831952D01*
X180841952Y-100880333D01*
X180866142Y-100904523D01*
X180914523Y-100928714D01*
X181083857Y-100928714D01*
X180309761Y-101194809D02*
X180600047Y-101194809D01*
X180454904Y-101194809D02*
X180454904Y-100686809D01*
X180503285Y-100759380D01*
X180551666Y-100807761D01*
X180600047Y-100831952D01*
X179850142Y-100686809D02*
X180092047Y-100686809D01*
X180116238Y-100928714D01*
X180092047Y-100904523D01*
X180043666Y-100880333D01*
X179922714Y-100880333D01*
X179874333Y-100904523D01*
X179850142Y-100928714D01*
X179825952Y-100977095D01*
X179825952Y-101098047D01*
X179850142Y-101146428D01*
X179874333Y-101170619D01*
X179922714Y-101194809D01*
X180043666Y-101194809D01*
X180092047Y-101170619D01*
X180116238Y-101146428D01*
X183938333Y-100686809D02*
X183769000Y-101194809D01*
X183599666Y-100686809D01*
X183140047Y-101146428D02*
X183164238Y-101170619D01*
X183236809Y-101194809D01*
X183285190Y-101194809D01*
X183357761Y-101170619D01*
X183406142Y-101122238D01*
X183430333Y-101073857D01*
X183454523Y-100977095D01*
X183454523Y-100904523D01*
X183430333Y-100807761D01*
X183406142Y-100759380D01*
X183357761Y-100711000D01*
X183285190Y-100686809D01*
X183236809Y-100686809D01*
X183164238Y-100711000D01*
X183140047Y-100735190D01*
X182632047Y-101146428D02*
X182656238Y-101170619D01*
X182728809Y-101194809D01*
X182777190Y-101194809D01*
X182849761Y-101170619D01*
X182898142Y-101122238D01*
X182922333Y-101073857D01*
X182946523Y-100977095D01*
X182946523Y-100904523D01*
X182922333Y-100807761D01*
X182898142Y-100759380D01*
X182849761Y-100711000D01*
X182777190Y-100686809D01*
X182728809Y-100686809D01*
X182656238Y-100711000D01*
X182632047Y-100735190D01*
X186188047Y-100711000D02*
X186236428Y-100686809D01*
X186309000Y-100686809D01*
X186381571Y-100711000D01*
X186429952Y-100759380D01*
X186454142Y-100807761D01*
X186478333Y-100904523D01*
X186478333Y-100977095D01*
X186454142Y-101073857D01*
X186429952Y-101122238D01*
X186381571Y-101170619D01*
X186309000Y-101194809D01*
X186260619Y-101194809D01*
X186188047Y-101170619D01*
X186163857Y-101146428D01*
X186163857Y-100977095D01*
X186260619Y-100977095D01*
X185946142Y-101194809D02*
X185946142Y-100686809D01*
X185655857Y-101194809D01*
X185655857Y-100686809D01*
X185413952Y-101194809D02*
X185413952Y-100686809D01*
X185293000Y-100686809D01*
X185220428Y-100711000D01*
X185172047Y-100759380D01*
X185147857Y-100807761D01*
X185123666Y-100904523D01*
X185123666Y-100977095D01*
X185147857Y-101073857D01*
X185172047Y-101122238D01*
X185220428Y-101170619D01*
X185293000Y-101194809D01*
X185413952Y-101194809D01*
X191255952Y-101194809D02*
X191255952Y-100686809D01*
X191135000Y-100686809D01*
X191062428Y-100711000D01*
X191014047Y-100759380D01*
X190989857Y-100807761D01*
X190965666Y-100904523D01*
X190965666Y-100977095D01*
X190989857Y-101073857D01*
X191014047Y-101122238D01*
X191062428Y-101170619D01*
X191135000Y-101194809D01*
X191255952Y-101194809D01*
X190796333Y-100686809D02*
X190457666Y-100686809D01*
X190675380Y-101194809D01*
X178761571Y-97384809D02*
X178930904Y-97142904D01*
X179051857Y-97384809D02*
X179051857Y-96876809D01*
X178858333Y-96876809D01*
X178809952Y-96901000D01*
X178785761Y-96925190D01*
X178761571Y-96973571D01*
X178761571Y-97046142D01*
X178785761Y-97094523D01*
X178809952Y-97118714D01*
X178858333Y-97142904D01*
X179051857Y-97142904D01*
X178374523Y-97118714D02*
X178301952Y-97142904D01*
X178277761Y-97167095D01*
X178253571Y-97215476D01*
X178253571Y-97288047D01*
X178277761Y-97336428D01*
X178301952Y-97360619D01*
X178350333Y-97384809D01*
X178543857Y-97384809D01*
X178543857Y-96876809D01*
X178374523Y-96876809D01*
X178326142Y-96901000D01*
X178301952Y-96925190D01*
X178277761Y-96973571D01*
X178277761Y-97021952D01*
X178301952Y-97070333D01*
X178326142Y-97094523D01*
X178374523Y-97118714D01*
X178543857Y-97118714D01*
X177769761Y-97384809D02*
X178060047Y-97384809D01*
X177914904Y-97384809D02*
X177914904Y-96876809D01*
X177963285Y-96949380D01*
X178011666Y-96997761D01*
X178060047Y-97021952D01*
X177285952Y-97384809D02*
X177576238Y-97384809D01*
X177431095Y-97384809D02*
X177431095Y-96876809D01*
X177479476Y-96949380D01*
X177527857Y-96997761D01*
X177576238Y-97021952D01*
X189018333Y-97360619D02*
X188945761Y-97384809D01*
X188824809Y-97384809D01*
X188776428Y-97360619D01*
X188752238Y-97336428D01*
X188728047Y-97288047D01*
X188728047Y-97239666D01*
X188752238Y-97191285D01*
X188776428Y-97167095D01*
X188824809Y-97142904D01*
X188921571Y-97118714D01*
X188969952Y-97094523D01*
X188994142Y-97070333D01*
X189018333Y-97021952D01*
X189018333Y-96973571D01*
X188994142Y-96925190D01*
X188969952Y-96901000D01*
X188921571Y-96876809D01*
X188800619Y-96876809D01*
X188728047Y-96901000D01*
X188558714Y-96876809D02*
X188437761Y-97384809D01*
X188341000Y-97021952D01*
X188244238Y-97384809D01*
X188123285Y-96876809D01*
X187712047Y-96876809D02*
X187808809Y-96876809D01*
X187857190Y-96901000D01*
X187881380Y-96925190D01*
X187929761Y-96997761D01*
X187953952Y-97094523D01*
X187953952Y-97288047D01*
X187929761Y-97336428D01*
X187905571Y-97360619D01*
X187857190Y-97384809D01*
X187760428Y-97384809D01*
X187712047Y-97360619D01*
X187687857Y-97336428D01*
X187663666Y-97288047D01*
X187663666Y-97167095D01*
X187687857Y-97118714D01*
X187712047Y-97094523D01*
X187760428Y-97070333D01*
X187857190Y-97070333D01*
X187905571Y-97094523D01*
X187929761Y-97118714D01*
X187953952Y-97167095D01*
X176221571Y-97384809D02*
X176390904Y-97142904D01*
X176511857Y-97384809D02*
X176511857Y-96876809D01*
X176318333Y-96876809D01*
X176269952Y-96901000D01*
X176245761Y-96925190D01*
X176221571Y-96973571D01*
X176221571Y-97046142D01*
X176245761Y-97094523D01*
X176269952Y-97118714D01*
X176318333Y-97142904D01*
X176511857Y-97142904D01*
X175834523Y-97118714D02*
X175761952Y-97142904D01*
X175737761Y-97167095D01*
X175713571Y-97215476D01*
X175713571Y-97288047D01*
X175737761Y-97336428D01*
X175761952Y-97360619D01*
X175810333Y-97384809D01*
X176003857Y-97384809D01*
X176003857Y-96876809D01*
X175834523Y-96876809D01*
X175786142Y-96901000D01*
X175761952Y-96925190D01*
X175737761Y-96973571D01*
X175737761Y-97021952D01*
X175761952Y-97070333D01*
X175786142Y-97094523D01*
X175834523Y-97118714D01*
X176003857Y-97118714D01*
X175229761Y-97384809D02*
X175520047Y-97384809D01*
X175374904Y-97384809D02*
X175374904Y-96876809D01*
X175423285Y-96949380D01*
X175471666Y-96997761D01*
X175520047Y-97021952D01*
X174915285Y-96876809D02*
X174866904Y-96876809D01*
X174818523Y-96901000D01*
X174794333Y-96925190D01*
X174770142Y-96973571D01*
X174745952Y-97070333D01*
X174745952Y-97191285D01*
X174770142Y-97288047D01*
X174794333Y-97336428D01*
X174818523Y-97360619D01*
X174866904Y-97384809D01*
X174915285Y-97384809D01*
X174963666Y-97360619D01*
X174987857Y-97336428D01*
X175012047Y-97288047D01*
X175036238Y-97191285D01*
X175036238Y-97070333D01*
X175012047Y-96973571D01*
X174987857Y-96925190D01*
X174963666Y-96901000D01*
X174915285Y-96876809D01*
X181301571Y-97384809D02*
X181470904Y-97142904D01*
X181591857Y-97384809D02*
X181591857Y-96876809D01*
X181398333Y-96876809D01*
X181349952Y-96901000D01*
X181325761Y-96925190D01*
X181301571Y-96973571D01*
X181301571Y-97046142D01*
X181325761Y-97094523D01*
X181349952Y-97118714D01*
X181398333Y-97142904D01*
X181591857Y-97142904D01*
X180914523Y-97118714D02*
X180841952Y-97142904D01*
X180817761Y-97167095D01*
X180793571Y-97215476D01*
X180793571Y-97288047D01*
X180817761Y-97336428D01*
X180841952Y-97360619D01*
X180890333Y-97384809D01*
X181083857Y-97384809D01*
X181083857Y-96876809D01*
X180914523Y-96876809D01*
X180866142Y-96901000D01*
X180841952Y-96925190D01*
X180817761Y-96973571D01*
X180817761Y-97021952D01*
X180841952Y-97070333D01*
X180866142Y-97094523D01*
X180914523Y-97118714D01*
X181083857Y-97118714D01*
X180309761Y-97384809D02*
X180600047Y-97384809D01*
X180454904Y-97384809D02*
X180454904Y-96876809D01*
X180503285Y-96949380D01*
X180551666Y-96997761D01*
X180600047Y-97021952D01*
X180116238Y-96925190D02*
X180092047Y-96901000D01*
X180043666Y-96876809D01*
X179922714Y-96876809D01*
X179874333Y-96901000D01*
X179850142Y-96925190D01*
X179825952Y-96973571D01*
X179825952Y-97021952D01*
X179850142Y-97094523D01*
X180140428Y-97384809D01*
X179825952Y-97384809D01*
X183938333Y-96876809D02*
X183769000Y-97384809D01*
X183599666Y-96876809D01*
X183140047Y-97336428D02*
X183164238Y-97360619D01*
X183236809Y-97384809D01*
X183285190Y-97384809D01*
X183357761Y-97360619D01*
X183406142Y-97312238D01*
X183430333Y-97263857D01*
X183454523Y-97167095D01*
X183454523Y-97094523D01*
X183430333Y-96997761D01*
X183406142Y-96949380D01*
X183357761Y-96901000D01*
X183285190Y-96876809D01*
X183236809Y-96876809D01*
X183164238Y-96901000D01*
X183140047Y-96925190D01*
X182632047Y-97336428D02*
X182656238Y-97360619D01*
X182728809Y-97384809D01*
X182777190Y-97384809D01*
X182849761Y-97360619D01*
X182898142Y-97312238D01*
X182922333Y-97263857D01*
X182946523Y-97167095D01*
X182946523Y-97094523D01*
X182922333Y-96997761D01*
X182898142Y-96949380D01*
X182849761Y-96901000D01*
X182777190Y-96876809D01*
X182728809Y-96876809D01*
X182656238Y-96901000D01*
X182632047Y-96925190D01*
X186188047Y-96901000D02*
X186236428Y-96876809D01*
X186309000Y-96876809D01*
X186381571Y-96901000D01*
X186429952Y-96949380D01*
X186454142Y-96997761D01*
X186478333Y-97094523D01*
X186478333Y-97167095D01*
X186454142Y-97263857D01*
X186429952Y-97312238D01*
X186381571Y-97360619D01*
X186309000Y-97384809D01*
X186260619Y-97384809D01*
X186188047Y-97360619D01*
X186163857Y-97336428D01*
X186163857Y-97167095D01*
X186260619Y-97167095D01*
X185946142Y-97384809D02*
X185946142Y-96876809D01*
X185655857Y-97384809D01*
X185655857Y-96876809D01*
X185413952Y-97384809D02*
X185413952Y-96876809D01*
X185293000Y-96876809D01*
X185220428Y-96901000D01*
X185172047Y-96949380D01*
X185147857Y-96997761D01*
X185123666Y-97094523D01*
X185123666Y-97167095D01*
X185147857Y-97263857D01*
X185172047Y-97312238D01*
X185220428Y-97360619D01*
X185293000Y-97384809D01*
X185413952Y-97384809D01*
X191255952Y-97384809D02*
X191255952Y-96876809D01*
X191135000Y-96876809D01*
X191062428Y-96901000D01*
X191014047Y-96949380D01*
X190989857Y-96997761D01*
X190965666Y-97094523D01*
X190965666Y-97167095D01*
X190989857Y-97263857D01*
X191014047Y-97312238D01*
X191062428Y-97360619D01*
X191135000Y-97384809D01*
X191255952Y-97384809D01*
X190530238Y-96876809D02*
X190627000Y-96876809D01*
X190675380Y-96901000D01*
X190699571Y-96925190D01*
X190747952Y-96997761D01*
X190772142Y-97094523D01*
X190772142Y-97288047D01*
X190747952Y-97336428D01*
X190723761Y-97360619D01*
X190675380Y-97384809D01*
X190578619Y-97384809D01*
X190530238Y-97360619D01*
X190506047Y-97336428D01*
X190481857Y-97288047D01*
X190481857Y-97167095D01*
X190506047Y-97118714D01*
X190530238Y-97094523D01*
X190578619Y-97070333D01*
X190675380Y-97070333D01*
X190723761Y-97094523D01*
X190747952Y-97118714D01*
X190772142Y-97167095D01*
X178519666Y-93574809D02*
X178689000Y-93332904D01*
X178809952Y-93574809D02*
X178809952Y-93066809D01*
X178616428Y-93066809D01*
X178568047Y-93091000D01*
X178543857Y-93115190D01*
X178519666Y-93163571D01*
X178519666Y-93236142D01*
X178543857Y-93284523D01*
X178568047Y-93308714D01*
X178616428Y-93332904D01*
X178809952Y-93332904D01*
X178132619Y-93308714D02*
X178060047Y-93332904D01*
X178035857Y-93357095D01*
X178011666Y-93405476D01*
X178011666Y-93478047D01*
X178035857Y-93526428D01*
X178060047Y-93550619D01*
X178108428Y-93574809D01*
X178301952Y-93574809D01*
X178301952Y-93066809D01*
X178132619Y-93066809D01*
X178084238Y-93091000D01*
X178060047Y-93115190D01*
X178035857Y-93163571D01*
X178035857Y-93211952D01*
X178060047Y-93260333D01*
X178084238Y-93284523D01*
X178132619Y-93308714D01*
X178301952Y-93308714D01*
X177721380Y-93284523D02*
X177769761Y-93260333D01*
X177793952Y-93236142D01*
X177818142Y-93187761D01*
X177818142Y-93163571D01*
X177793952Y-93115190D01*
X177769761Y-93091000D01*
X177721380Y-93066809D01*
X177624619Y-93066809D01*
X177576238Y-93091000D01*
X177552047Y-93115190D01*
X177527857Y-93163571D01*
X177527857Y-93187761D01*
X177552047Y-93236142D01*
X177576238Y-93260333D01*
X177624619Y-93284523D01*
X177721380Y-93284523D01*
X177769761Y-93308714D01*
X177793952Y-93332904D01*
X177818142Y-93381285D01*
X177818142Y-93478047D01*
X177793952Y-93526428D01*
X177769761Y-93550619D01*
X177721380Y-93574809D01*
X177624619Y-93574809D01*
X177576238Y-93550619D01*
X177552047Y-93526428D01*
X177527857Y-93478047D01*
X177527857Y-93381285D01*
X177552047Y-93332904D01*
X177576238Y-93308714D01*
X177624619Y-93284523D01*
X189018333Y-93550619D02*
X188945761Y-93574809D01*
X188824809Y-93574809D01*
X188776428Y-93550619D01*
X188752238Y-93526428D01*
X188728047Y-93478047D01*
X188728047Y-93429666D01*
X188752238Y-93381285D01*
X188776428Y-93357095D01*
X188824809Y-93332904D01*
X188921571Y-93308714D01*
X188969952Y-93284523D01*
X188994142Y-93260333D01*
X189018333Y-93211952D01*
X189018333Y-93163571D01*
X188994142Y-93115190D01*
X188969952Y-93091000D01*
X188921571Y-93066809D01*
X188800619Y-93066809D01*
X188728047Y-93091000D01*
X188558714Y-93066809D02*
X188437761Y-93574809D01*
X188341000Y-93211952D01*
X188244238Y-93574809D01*
X188123285Y-93066809D01*
X187687857Y-93066809D02*
X187929761Y-93066809D01*
X187953952Y-93308714D01*
X187929761Y-93284523D01*
X187881380Y-93260333D01*
X187760428Y-93260333D01*
X187712047Y-93284523D01*
X187687857Y-93308714D01*
X187663666Y-93357095D01*
X187663666Y-93478047D01*
X187687857Y-93526428D01*
X187712047Y-93550619D01*
X187760428Y-93574809D01*
X187881380Y-93574809D01*
X187929761Y-93550619D01*
X187953952Y-93526428D01*
X175979666Y-93574809D02*
X176149000Y-93332904D01*
X176269952Y-93574809D02*
X176269952Y-93066809D01*
X176076428Y-93066809D01*
X176028047Y-93091000D01*
X176003857Y-93115190D01*
X175979666Y-93163571D01*
X175979666Y-93236142D01*
X176003857Y-93284523D01*
X176028047Y-93308714D01*
X176076428Y-93332904D01*
X176269952Y-93332904D01*
X175592619Y-93308714D02*
X175520047Y-93332904D01*
X175495857Y-93357095D01*
X175471666Y-93405476D01*
X175471666Y-93478047D01*
X175495857Y-93526428D01*
X175520047Y-93550619D01*
X175568428Y-93574809D01*
X175761952Y-93574809D01*
X175761952Y-93066809D01*
X175592619Y-93066809D01*
X175544238Y-93091000D01*
X175520047Y-93115190D01*
X175495857Y-93163571D01*
X175495857Y-93211952D01*
X175520047Y-93260333D01*
X175544238Y-93284523D01*
X175592619Y-93308714D01*
X175761952Y-93308714D01*
X175302333Y-93066809D02*
X174963666Y-93066809D01*
X175181380Y-93574809D01*
X181059666Y-93574809D02*
X181229000Y-93332904D01*
X181349952Y-93574809D02*
X181349952Y-93066809D01*
X181156428Y-93066809D01*
X181108047Y-93091000D01*
X181083857Y-93115190D01*
X181059666Y-93163571D01*
X181059666Y-93236142D01*
X181083857Y-93284523D01*
X181108047Y-93308714D01*
X181156428Y-93332904D01*
X181349952Y-93332904D01*
X180672619Y-93308714D02*
X180600047Y-93332904D01*
X180575857Y-93357095D01*
X180551666Y-93405476D01*
X180551666Y-93478047D01*
X180575857Y-93526428D01*
X180600047Y-93550619D01*
X180648428Y-93574809D01*
X180841952Y-93574809D01*
X180841952Y-93066809D01*
X180672619Y-93066809D01*
X180624238Y-93091000D01*
X180600047Y-93115190D01*
X180575857Y-93163571D01*
X180575857Y-93211952D01*
X180600047Y-93260333D01*
X180624238Y-93284523D01*
X180672619Y-93308714D01*
X180841952Y-93308714D01*
X180309761Y-93574809D02*
X180213000Y-93574809D01*
X180164619Y-93550619D01*
X180140428Y-93526428D01*
X180092047Y-93453857D01*
X180067857Y-93357095D01*
X180067857Y-93163571D01*
X180092047Y-93115190D01*
X180116238Y-93091000D01*
X180164619Y-93066809D01*
X180261380Y-93066809D01*
X180309761Y-93091000D01*
X180333952Y-93115190D01*
X180358142Y-93163571D01*
X180358142Y-93284523D01*
X180333952Y-93332904D01*
X180309761Y-93357095D01*
X180261380Y-93381285D01*
X180164619Y-93381285D01*
X180116238Y-93357095D01*
X180092047Y-93332904D01*
X180067857Y-93284523D01*
X183938333Y-93066809D02*
X183769000Y-93574809D01*
X183599666Y-93066809D01*
X183140047Y-93526428D02*
X183164238Y-93550619D01*
X183236809Y-93574809D01*
X183285190Y-93574809D01*
X183357761Y-93550619D01*
X183406142Y-93502238D01*
X183430333Y-93453857D01*
X183454523Y-93357095D01*
X183454523Y-93284523D01*
X183430333Y-93187761D01*
X183406142Y-93139380D01*
X183357761Y-93091000D01*
X183285190Y-93066809D01*
X183236809Y-93066809D01*
X183164238Y-93091000D01*
X183140047Y-93115190D01*
X182632047Y-93526428D02*
X182656238Y-93550619D01*
X182728809Y-93574809D01*
X182777190Y-93574809D01*
X182849761Y-93550619D01*
X182898142Y-93502238D01*
X182922333Y-93453857D01*
X182946523Y-93357095D01*
X182946523Y-93284523D01*
X182922333Y-93187761D01*
X182898142Y-93139380D01*
X182849761Y-93091000D01*
X182777190Y-93066809D01*
X182728809Y-93066809D01*
X182656238Y-93091000D01*
X182632047Y-93115190D01*
X186188047Y-93091000D02*
X186236428Y-93066809D01*
X186309000Y-93066809D01*
X186381571Y-93091000D01*
X186429952Y-93139380D01*
X186454142Y-93187761D01*
X186478333Y-93284523D01*
X186478333Y-93357095D01*
X186454142Y-93453857D01*
X186429952Y-93502238D01*
X186381571Y-93550619D01*
X186309000Y-93574809D01*
X186260619Y-93574809D01*
X186188047Y-93550619D01*
X186163857Y-93526428D01*
X186163857Y-93357095D01*
X186260619Y-93357095D01*
X185946142Y-93574809D02*
X185946142Y-93066809D01*
X185655857Y-93574809D01*
X185655857Y-93066809D01*
X185413952Y-93574809D02*
X185413952Y-93066809D01*
X185293000Y-93066809D01*
X185220428Y-93091000D01*
X185172047Y-93139380D01*
X185147857Y-93187761D01*
X185123666Y-93284523D01*
X185123666Y-93357095D01*
X185147857Y-93453857D01*
X185172047Y-93502238D01*
X185220428Y-93550619D01*
X185293000Y-93574809D01*
X185413952Y-93574809D01*
X191255952Y-93574809D02*
X191255952Y-93066809D01*
X191135000Y-93066809D01*
X191062428Y-93091000D01*
X191014047Y-93139380D01*
X190989857Y-93187761D01*
X190965666Y-93284523D01*
X190965666Y-93357095D01*
X190989857Y-93453857D01*
X191014047Y-93502238D01*
X191062428Y-93550619D01*
X191135000Y-93574809D01*
X191255952Y-93574809D01*
X190506047Y-93066809D02*
X190747952Y-93066809D01*
X190772142Y-93308714D01*
X190747952Y-93284523D01*
X190699571Y-93260333D01*
X190578619Y-93260333D01*
X190530238Y-93284523D01*
X190506047Y-93308714D01*
X190481857Y-93357095D01*
X190481857Y-93478047D01*
X190506047Y-93526428D01*
X190530238Y-93550619D01*
X190578619Y-93574809D01*
X190699571Y-93574809D01*
X190747952Y-93550619D01*
X190772142Y-93526428D01*
X178519666Y-89764809D02*
X178689000Y-89522904D01*
X178809952Y-89764809D02*
X178809952Y-89256809D01*
X178616428Y-89256809D01*
X178568047Y-89281000D01*
X178543857Y-89305190D01*
X178519666Y-89353571D01*
X178519666Y-89426142D01*
X178543857Y-89474523D01*
X178568047Y-89498714D01*
X178616428Y-89522904D01*
X178809952Y-89522904D01*
X178132619Y-89498714D02*
X178060047Y-89522904D01*
X178035857Y-89547095D01*
X178011666Y-89595476D01*
X178011666Y-89668047D01*
X178035857Y-89716428D01*
X178060047Y-89740619D01*
X178108428Y-89764809D01*
X178301952Y-89764809D01*
X178301952Y-89256809D01*
X178132619Y-89256809D01*
X178084238Y-89281000D01*
X178060047Y-89305190D01*
X178035857Y-89353571D01*
X178035857Y-89401952D01*
X178060047Y-89450333D01*
X178084238Y-89474523D01*
X178132619Y-89498714D01*
X178301952Y-89498714D01*
X177552047Y-89256809D02*
X177793952Y-89256809D01*
X177818142Y-89498714D01*
X177793952Y-89474523D01*
X177745571Y-89450333D01*
X177624619Y-89450333D01*
X177576238Y-89474523D01*
X177552047Y-89498714D01*
X177527857Y-89547095D01*
X177527857Y-89668047D01*
X177552047Y-89716428D01*
X177576238Y-89740619D01*
X177624619Y-89764809D01*
X177745571Y-89764809D01*
X177793952Y-89740619D01*
X177818142Y-89716428D01*
X189018333Y-89740619D02*
X188945761Y-89764809D01*
X188824809Y-89764809D01*
X188776428Y-89740619D01*
X188752238Y-89716428D01*
X188728047Y-89668047D01*
X188728047Y-89619666D01*
X188752238Y-89571285D01*
X188776428Y-89547095D01*
X188824809Y-89522904D01*
X188921571Y-89498714D01*
X188969952Y-89474523D01*
X188994142Y-89450333D01*
X189018333Y-89401952D01*
X189018333Y-89353571D01*
X188994142Y-89305190D01*
X188969952Y-89281000D01*
X188921571Y-89256809D01*
X188800619Y-89256809D01*
X188728047Y-89281000D01*
X188558714Y-89256809D02*
X188437761Y-89764809D01*
X188341000Y-89401952D01*
X188244238Y-89764809D01*
X188123285Y-89256809D01*
X187712047Y-89426142D02*
X187712047Y-89764809D01*
X187833000Y-89232619D02*
X187953952Y-89595476D01*
X187639476Y-89595476D01*
X175943380Y-89764809D02*
X176112714Y-89522904D01*
X176233666Y-89764809D02*
X176233666Y-89256809D01*
X176040142Y-89256809D01*
X175991761Y-89281000D01*
X175967571Y-89305190D01*
X175943380Y-89353571D01*
X175943380Y-89426142D01*
X175967571Y-89474523D01*
X175991761Y-89498714D01*
X176040142Y-89522904D01*
X176233666Y-89522904D01*
X175749857Y-89619666D02*
X175507952Y-89619666D01*
X175798238Y-89764809D02*
X175628904Y-89256809D01*
X175459571Y-89764809D01*
X175072523Y-89426142D02*
X175072523Y-89764809D01*
X175193476Y-89232619D02*
X175314428Y-89595476D01*
X174999952Y-89595476D01*
X181059666Y-89764809D02*
X181229000Y-89522904D01*
X181349952Y-89764809D02*
X181349952Y-89256809D01*
X181156428Y-89256809D01*
X181108047Y-89281000D01*
X181083857Y-89305190D01*
X181059666Y-89353571D01*
X181059666Y-89426142D01*
X181083857Y-89474523D01*
X181108047Y-89498714D01*
X181156428Y-89522904D01*
X181349952Y-89522904D01*
X180672619Y-89498714D02*
X180600047Y-89522904D01*
X180575857Y-89547095D01*
X180551666Y-89595476D01*
X180551666Y-89668047D01*
X180575857Y-89716428D01*
X180600047Y-89740619D01*
X180648428Y-89764809D01*
X180841952Y-89764809D01*
X180841952Y-89256809D01*
X180672619Y-89256809D01*
X180624238Y-89281000D01*
X180600047Y-89305190D01*
X180575857Y-89353571D01*
X180575857Y-89401952D01*
X180600047Y-89450333D01*
X180624238Y-89474523D01*
X180672619Y-89498714D01*
X180841952Y-89498714D01*
X180116238Y-89256809D02*
X180213000Y-89256809D01*
X180261380Y-89281000D01*
X180285571Y-89305190D01*
X180333952Y-89377761D01*
X180358142Y-89474523D01*
X180358142Y-89668047D01*
X180333952Y-89716428D01*
X180309761Y-89740619D01*
X180261380Y-89764809D01*
X180164619Y-89764809D01*
X180116238Y-89740619D01*
X180092047Y-89716428D01*
X180067857Y-89668047D01*
X180067857Y-89547095D01*
X180092047Y-89498714D01*
X180116238Y-89474523D01*
X180164619Y-89450333D01*
X180261380Y-89450333D01*
X180309761Y-89474523D01*
X180333952Y-89498714D01*
X180358142Y-89547095D01*
X183938333Y-89256809D02*
X183769000Y-89764809D01*
X183599666Y-89256809D01*
X183140047Y-89716428D02*
X183164238Y-89740619D01*
X183236809Y-89764809D01*
X183285190Y-89764809D01*
X183357761Y-89740619D01*
X183406142Y-89692238D01*
X183430333Y-89643857D01*
X183454523Y-89547095D01*
X183454523Y-89474523D01*
X183430333Y-89377761D01*
X183406142Y-89329380D01*
X183357761Y-89281000D01*
X183285190Y-89256809D01*
X183236809Y-89256809D01*
X183164238Y-89281000D01*
X183140047Y-89305190D01*
X182632047Y-89716428D02*
X182656238Y-89740619D01*
X182728809Y-89764809D01*
X182777190Y-89764809D01*
X182849761Y-89740619D01*
X182898142Y-89692238D01*
X182922333Y-89643857D01*
X182946523Y-89547095D01*
X182946523Y-89474523D01*
X182922333Y-89377761D01*
X182898142Y-89329380D01*
X182849761Y-89281000D01*
X182777190Y-89256809D01*
X182728809Y-89256809D01*
X182656238Y-89281000D01*
X182632047Y-89305190D01*
X186188047Y-89281000D02*
X186236428Y-89256809D01*
X186309000Y-89256809D01*
X186381571Y-89281000D01*
X186429952Y-89329380D01*
X186454142Y-89377761D01*
X186478333Y-89474523D01*
X186478333Y-89547095D01*
X186454142Y-89643857D01*
X186429952Y-89692238D01*
X186381571Y-89740619D01*
X186309000Y-89764809D01*
X186260619Y-89764809D01*
X186188047Y-89740619D01*
X186163857Y-89716428D01*
X186163857Y-89547095D01*
X186260619Y-89547095D01*
X185946142Y-89764809D02*
X185946142Y-89256809D01*
X185655857Y-89764809D01*
X185655857Y-89256809D01*
X185413952Y-89764809D02*
X185413952Y-89256809D01*
X185293000Y-89256809D01*
X185220428Y-89281000D01*
X185172047Y-89329380D01*
X185147857Y-89377761D01*
X185123666Y-89474523D01*
X185123666Y-89547095D01*
X185147857Y-89643857D01*
X185172047Y-89692238D01*
X185220428Y-89740619D01*
X185293000Y-89764809D01*
X185413952Y-89764809D01*
X191255952Y-89764809D02*
X191255952Y-89256809D01*
X191135000Y-89256809D01*
X191062428Y-89281000D01*
X191014047Y-89329380D01*
X190989857Y-89377761D01*
X190965666Y-89474523D01*
X190965666Y-89547095D01*
X190989857Y-89643857D01*
X191014047Y-89692238D01*
X191062428Y-89740619D01*
X191135000Y-89764809D01*
X191255952Y-89764809D01*
X190530238Y-89426142D02*
X190530238Y-89764809D01*
X190651190Y-89232619D02*
X190772142Y-89595476D01*
X190457666Y-89595476D01*
X178483380Y-85954809D02*
X178652714Y-85712904D01*
X178773666Y-85954809D02*
X178773666Y-85446809D01*
X178580142Y-85446809D01*
X178531761Y-85471000D01*
X178507571Y-85495190D01*
X178483380Y-85543571D01*
X178483380Y-85616142D01*
X178507571Y-85664523D01*
X178531761Y-85688714D01*
X178580142Y-85712904D01*
X178773666Y-85712904D01*
X178289857Y-85809666D02*
X178047952Y-85809666D01*
X178338238Y-85954809D02*
X178168904Y-85446809D01*
X177999571Y-85954809D01*
X177878619Y-85446809D02*
X177564142Y-85446809D01*
X177733476Y-85640333D01*
X177660904Y-85640333D01*
X177612523Y-85664523D01*
X177588333Y-85688714D01*
X177564142Y-85737095D01*
X177564142Y-85858047D01*
X177588333Y-85906428D01*
X177612523Y-85930619D01*
X177660904Y-85954809D01*
X177806047Y-85954809D01*
X177854428Y-85930619D01*
X177878619Y-85906428D01*
X189018333Y-85930619D02*
X188945761Y-85954809D01*
X188824809Y-85954809D01*
X188776428Y-85930619D01*
X188752238Y-85906428D01*
X188728047Y-85858047D01*
X188728047Y-85809666D01*
X188752238Y-85761285D01*
X188776428Y-85737095D01*
X188824809Y-85712904D01*
X188921571Y-85688714D01*
X188969952Y-85664523D01*
X188994142Y-85640333D01*
X189018333Y-85591952D01*
X189018333Y-85543571D01*
X188994142Y-85495190D01*
X188969952Y-85471000D01*
X188921571Y-85446809D01*
X188800619Y-85446809D01*
X188728047Y-85471000D01*
X188558714Y-85446809D02*
X188437761Y-85954809D01*
X188341000Y-85591952D01*
X188244238Y-85954809D01*
X188123285Y-85446809D01*
X187978142Y-85446809D02*
X187663666Y-85446809D01*
X187833000Y-85640333D01*
X187760428Y-85640333D01*
X187712047Y-85664523D01*
X187687857Y-85688714D01*
X187663666Y-85737095D01*
X187663666Y-85858047D01*
X187687857Y-85906428D01*
X187712047Y-85930619D01*
X187760428Y-85954809D01*
X187905571Y-85954809D01*
X187953952Y-85930619D01*
X187978142Y-85906428D01*
X175943380Y-85954809D02*
X176112714Y-85712904D01*
X176233666Y-85954809D02*
X176233666Y-85446809D01*
X176040142Y-85446809D01*
X175991761Y-85471000D01*
X175967571Y-85495190D01*
X175943380Y-85543571D01*
X175943380Y-85616142D01*
X175967571Y-85664523D01*
X175991761Y-85688714D01*
X176040142Y-85712904D01*
X176233666Y-85712904D01*
X175749857Y-85809666D02*
X175507952Y-85809666D01*
X175798238Y-85954809D02*
X175628904Y-85446809D01*
X175459571Y-85954809D01*
X175314428Y-85495190D02*
X175290238Y-85471000D01*
X175241857Y-85446809D01*
X175120904Y-85446809D01*
X175072523Y-85471000D01*
X175048333Y-85495190D01*
X175024142Y-85543571D01*
X175024142Y-85591952D01*
X175048333Y-85664523D01*
X175338619Y-85954809D01*
X175024142Y-85954809D01*
X181059666Y-85954809D02*
X181229000Y-85712904D01*
X181349952Y-85954809D02*
X181349952Y-85446809D01*
X181156428Y-85446809D01*
X181108047Y-85471000D01*
X181083857Y-85495190D01*
X181059666Y-85543571D01*
X181059666Y-85616142D01*
X181083857Y-85664523D01*
X181108047Y-85688714D01*
X181156428Y-85712904D01*
X181349952Y-85712904D01*
X180672619Y-85688714D02*
X180600047Y-85712904D01*
X180575857Y-85737095D01*
X180551666Y-85785476D01*
X180551666Y-85858047D01*
X180575857Y-85906428D01*
X180600047Y-85930619D01*
X180648428Y-85954809D01*
X180841952Y-85954809D01*
X180841952Y-85446809D01*
X180672619Y-85446809D01*
X180624238Y-85471000D01*
X180600047Y-85495190D01*
X180575857Y-85543571D01*
X180575857Y-85591952D01*
X180600047Y-85640333D01*
X180624238Y-85664523D01*
X180672619Y-85688714D01*
X180841952Y-85688714D01*
X180116238Y-85616142D02*
X180116238Y-85954809D01*
X180237190Y-85422619D02*
X180358142Y-85785476D01*
X180043666Y-85785476D01*
X183938333Y-85446809D02*
X183769000Y-85954809D01*
X183599666Y-85446809D01*
X183140047Y-85906428D02*
X183164238Y-85930619D01*
X183236809Y-85954809D01*
X183285190Y-85954809D01*
X183357761Y-85930619D01*
X183406142Y-85882238D01*
X183430333Y-85833857D01*
X183454523Y-85737095D01*
X183454523Y-85664523D01*
X183430333Y-85567761D01*
X183406142Y-85519380D01*
X183357761Y-85471000D01*
X183285190Y-85446809D01*
X183236809Y-85446809D01*
X183164238Y-85471000D01*
X183140047Y-85495190D01*
X182632047Y-85906428D02*
X182656238Y-85930619D01*
X182728809Y-85954809D01*
X182777190Y-85954809D01*
X182849761Y-85930619D01*
X182898142Y-85882238D01*
X182922333Y-85833857D01*
X182946523Y-85737095D01*
X182946523Y-85664523D01*
X182922333Y-85567761D01*
X182898142Y-85519380D01*
X182849761Y-85471000D01*
X182777190Y-85446809D01*
X182728809Y-85446809D01*
X182656238Y-85471000D01*
X182632047Y-85495190D01*
X186188047Y-85471000D02*
X186236428Y-85446809D01*
X186309000Y-85446809D01*
X186381571Y-85471000D01*
X186429952Y-85519380D01*
X186454142Y-85567761D01*
X186478333Y-85664523D01*
X186478333Y-85737095D01*
X186454142Y-85833857D01*
X186429952Y-85882238D01*
X186381571Y-85930619D01*
X186309000Y-85954809D01*
X186260619Y-85954809D01*
X186188047Y-85930619D01*
X186163857Y-85906428D01*
X186163857Y-85737095D01*
X186260619Y-85737095D01*
X185946142Y-85954809D02*
X185946142Y-85446809D01*
X185655857Y-85954809D01*
X185655857Y-85446809D01*
X185413952Y-85954809D02*
X185413952Y-85446809D01*
X185293000Y-85446809D01*
X185220428Y-85471000D01*
X185172047Y-85519380D01*
X185147857Y-85567761D01*
X185123666Y-85664523D01*
X185123666Y-85737095D01*
X185147857Y-85833857D01*
X185172047Y-85882238D01*
X185220428Y-85930619D01*
X185293000Y-85954809D01*
X185413952Y-85954809D01*
X191255952Y-85954809D02*
X191255952Y-85446809D01*
X191135000Y-85446809D01*
X191062428Y-85471000D01*
X191014047Y-85519380D01*
X190989857Y-85567761D01*
X190965666Y-85664523D01*
X190965666Y-85737095D01*
X190989857Y-85833857D01*
X191014047Y-85882238D01*
X191062428Y-85930619D01*
X191135000Y-85954809D01*
X191255952Y-85954809D01*
X190796333Y-85446809D02*
X190481857Y-85446809D01*
X190651190Y-85640333D01*
X190578619Y-85640333D01*
X190530238Y-85664523D01*
X190506047Y-85688714D01*
X190481857Y-85737095D01*
X190481857Y-85858047D01*
X190506047Y-85906428D01*
X190530238Y-85930619D01*
X190578619Y-85954809D01*
X190723761Y-85954809D01*
X190772142Y-85930619D01*
X190796333Y-85906428D01*
X189018333Y-78310619D02*
X188945761Y-78334809D01*
X188824809Y-78334809D01*
X188776428Y-78310619D01*
X188752238Y-78286428D01*
X188728047Y-78238047D01*
X188728047Y-78189666D01*
X188752238Y-78141285D01*
X188776428Y-78117095D01*
X188824809Y-78092904D01*
X188921571Y-78068714D01*
X188969952Y-78044523D01*
X188994142Y-78020333D01*
X189018333Y-77971952D01*
X189018333Y-77923571D01*
X188994142Y-77875190D01*
X188969952Y-77851000D01*
X188921571Y-77826809D01*
X188800619Y-77826809D01*
X188728047Y-77851000D01*
X188558714Y-77826809D02*
X188437761Y-78334809D01*
X188341000Y-77971952D01*
X188244238Y-78334809D01*
X188123285Y-77826809D01*
X187663666Y-78334809D02*
X187953952Y-78334809D01*
X187808809Y-78334809D02*
X187808809Y-77826809D01*
X187857190Y-77899380D01*
X187905571Y-77947761D01*
X187953952Y-77971952D01*
X191255952Y-78334809D02*
X191255952Y-77826809D01*
X191135000Y-77826809D01*
X191062428Y-77851000D01*
X191014047Y-77899380D01*
X190989857Y-77947761D01*
X190965666Y-78044523D01*
X190965666Y-78117095D01*
X190989857Y-78213857D01*
X191014047Y-78262238D01*
X191062428Y-78310619D01*
X191135000Y-78334809D01*
X191255952Y-78334809D01*
X190481857Y-78334809D02*
X190772142Y-78334809D01*
X190627000Y-78334809D02*
X190627000Y-77826809D01*
X190675380Y-77899380D01*
X190723761Y-77947761D01*
X190772142Y-77971952D01*
X183938333Y-77826809D02*
X183769000Y-78334809D01*
X183599666Y-77826809D01*
X183140047Y-78286428D02*
X183164238Y-78310619D01*
X183236809Y-78334809D01*
X183285190Y-78334809D01*
X183357761Y-78310619D01*
X183406142Y-78262238D01*
X183430333Y-78213857D01*
X183454523Y-78117095D01*
X183454523Y-78044523D01*
X183430333Y-77947761D01*
X183406142Y-77899380D01*
X183357761Y-77851000D01*
X183285190Y-77826809D01*
X183236809Y-77826809D01*
X183164238Y-77851000D01*
X183140047Y-77875190D01*
X182632047Y-78286428D02*
X182656238Y-78310619D01*
X182728809Y-78334809D01*
X182777190Y-78334809D01*
X182849761Y-78310619D01*
X182898142Y-78262238D01*
X182922333Y-78213857D01*
X182946523Y-78117095D01*
X182946523Y-78044523D01*
X182922333Y-77947761D01*
X182898142Y-77899380D01*
X182849761Y-77851000D01*
X182777190Y-77826809D01*
X182728809Y-77826809D01*
X182656238Y-77851000D01*
X182632047Y-77875190D01*
X186188047Y-77851000D02*
X186236428Y-77826809D01*
X186309000Y-77826809D01*
X186381571Y-77851000D01*
X186429952Y-77899380D01*
X186454142Y-77947761D01*
X186478333Y-78044523D01*
X186478333Y-78117095D01*
X186454142Y-78213857D01*
X186429952Y-78262238D01*
X186381571Y-78310619D01*
X186309000Y-78334809D01*
X186260619Y-78334809D01*
X186188047Y-78310619D01*
X186163857Y-78286428D01*
X186163857Y-78117095D01*
X186260619Y-78117095D01*
X185946142Y-78334809D02*
X185946142Y-77826809D01*
X185655857Y-78334809D01*
X185655857Y-77826809D01*
X185413952Y-78334809D02*
X185413952Y-77826809D01*
X185293000Y-77826809D01*
X185220428Y-77851000D01*
X185172047Y-77899380D01*
X185147857Y-77947761D01*
X185123666Y-78044523D01*
X185123666Y-78117095D01*
X185147857Y-78213857D01*
X185172047Y-78262238D01*
X185220428Y-78310619D01*
X185293000Y-78334809D01*
X185413952Y-78334809D01*
X175943380Y-78334809D02*
X176112714Y-78092904D01*
X176233666Y-78334809D02*
X176233666Y-77826809D01*
X176040142Y-77826809D01*
X175991761Y-77851000D01*
X175967571Y-77875190D01*
X175943380Y-77923571D01*
X175943380Y-77996142D01*
X175967571Y-78044523D01*
X175991761Y-78068714D01*
X176040142Y-78092904D01*
X176233666Y-78092904D01*
X175749857Y-78189666D02*
X175507952Y-78189666D01*
X175798238Y-78334809D02*
X175628904Y-77826809D01*
X175459571Y-78334809D01*
X175193476Y-77826809D02*
X175145095Y-77826809D01*
X175096714Y-77851000D01*
X175072523Y-77875190D01*
X175048333Y-77923571D01*
X175024142Y-78020333D01*
X175024142Y-78141285D01*
X175048333Y-78238047D01*
X175072523Y-78286428D01*
X175096714Y-78310619D01*
X175145095Y-78334809D01*
X175193476Y-78334809D01*
X175241857Y-78310619D01*
X175266047Y-78286428D01*
X175290238Y-78238047D01*
X175314428Y-78141285D01*
X175314428Y-78020333D01*
X175290238Y-77923571D01*
X175266047Y-77875190D01*
X175241857Y-77851000D01*
X175193476Y-77826809D01*
X178483380Y-78334809D02*
X178652714Y-78092904D01*
X178773666Y-78334809D02*
X178773666Y-77826809D01*
X178580142Y-77826809D01*
X178531761Y-77851000D01*
X178507571Y-77875190D01*
X178483380Y-77923571D01*
X178483380Y-77996142D01*
X178507571Y-78044523D01*
X178531761Y-78068714D01*
X178580142Y-78092904D01*
X178773666Y-78092904D01*
X178289857Y-78189666D02*
X178047952Y-78189666D01*
X178338238Y-78334809D02*
X178168904Y-77826809D01*
X177999571Y-78334809D01*
X177564142Y-78334809D02*
X177854428Y-78334809D01*
X177709285Y-78334809D02*
X177709285Y-77826809D01*
X177757666Y-77899380D01*
X177806047Y-77947761D01*
X177854428Y-77971952D01*
X181059666Y-78334809D02*
X181229000Y-78092904D01*
X181349952Y-78334809D02*
X181349952Y-77826809D01*
X181156428Y-77826809D01*
X181108047Y-77851000D01*
X181083857Y-77875190D01*
X181059666Y-77923571D01*
X181059666Y-77996142D01*
X181083857Y-78044523D01*
X181108047Y-78068714D01*
X181156428Y-78092904D01*
X181349952Y-78092904D01*
X180672619Y-78068714D02*
X180600047Y-78092904D01*
X180575857Y-78117095D01*
X180551666Y-78165476D01*
X180551666Y-78238047D01*
X180575857Y-78286428D01*
X180600047Y-78310619D01*
X180648428Y-78334809D01*
X180841952Y-78334809D01*
X180841952Y-77826809D01*
X180672619Y-77826809D01*
X180624238Y-77851000D01*
X180600047Y-77875190D01*
X180575857Y-77923571D01*
X180575857Y-77971952D01*
X180600047Y-78020333D01*
X180624238Y-78044523D01*
X180672619Y-78068714D01*
X180841952Y-78068714D01*
X180237190Y-77826809D02*
X180188809Y-77826809D01*
X180140428Y-77851000D01*
X180116238Y-77875190D01*
X180092047Y-77923571D01*
X180067857Y-78020333D01*
X180067857Y-78141285D01*
X180092047Y-78238047D01*
X180116238Y-78286428D01*
X180140428Y-78310619D01*
X180188809Y-78334809D01*
X180237190Y-78334809D01*
X180285571Y-78310619D01*
X180309761Y-78286428D01*
X180333952Y-78238047D01*
X180358142Y-78141285D01*
X180358142Y-78020333D01*
X180333952Y-77923571D01*
X180309761Y-77875190D01*
X180285571Y-77851000D01*
X180237190Y-77826809D01*
X189018333Y-82120619D02*
X188945761Y-82144809D01*
X188824809Y-82144809D01*
X188776428Y-82120619D01*
X188752238Y-82096428D01*
X188728047Y-82048047D01*
X188728047Y-81999666D01*
X188752238Y-81951285D01*
X188776428Y-81927095D01*
X188824809Y-81902904D01*
X188921571Y-81878714D01*
X188969952Y-81854523D01*
X188994142Y-81830333D01*
X189018333Y-81781952D01*
X189018333Y-81733571D01*
X188994142Y-81685190D01*
X188969952Y-81661000D01*
X188921571Y-81636809D01*
X188800619Y-81636809D01*
X188728047Y-81661000D01*
X188558714Y-81636809D02*
X188437761Y-82144809D01*
X188341000Y-81781952D01*
X188244238Y-82144809D01*
X188123285Y-81636809D01*
X187953952Y-81685190D02*
X187929761Y-81661000D01*
X187881380Y-81636809D01*
X187760428Y-81636809D01*
X187712047Y-81661000D01*
X187687857Y-81685190D01*
X187663666Y-81733571D01*
X187663666Y-81781952D01*
X187687857Y-81854523D01*
X187978142Y-82144809D01*
X187663666Y-82144809D01*
X191255952Y-82144809D02*
X191255952Y-81636809D01*
X191135000Y-81636809D01*
X191062428Y-81661000D01*
X191014047Y-81709380D01*
X190989857Y-81757761D01*
X190965666Y-81854523D01*
X190965666Y-81927095D01*
X190989857Y-82023857D01*
X191014047Y-82072238D01*
X191062428Y-82120619D01*
X191135000Y-82144809D01*
X191255952Y-82144809D01*
X190772142Y-81685190D02*
X190747952Y-81661000D01*
X190699571Y-81636809D01*
X190578619Y-81636809D01*
X190530238Y-81661000D01*
X190506047Y-81685190D01*
X190481857Y-81733571D01*
X190481857Y-81781952D01*
X190506047Y-81854523D01*
X190796333Y-82144809D01*
X190481857Y-82144809D01*
X183938333Y-81636809D02*
X183769000Y-82144809D01*
X183599666Y-81636809D01*
X183140047Y-82096428D02*
X183164238Y-82120619D01*
X183236809Y-82144809D01*
X183285190Y-82144809D01*
X183357761Y-82120619D01*
X183406142Y-82072238D01*
X183430333Y-82023857D01*
X183454523Y-81927095D01*
X183454523Y-81854523D01*
X183430333Y-81757761D01*
X183406142Y-81709380D01*
X183357761Y-81661000D01*
X183285190Y-81636809D01*
X183236809Y-81636809D01*
X183164238Y-81661000D01*
X183140047Y-81685190D01*
X182632047Y-82096428D02*
X182656238Y-82120619D01*
X182728809Y-82144809D01*
X182777190Y-82144809D01*
X182849761Y-82120619D01*
X182898142Y-82072238D01*
X182922333Y-82023857D01*
X182946523Y-81927095D01*
X182946523Y-81854523D01*
X182922333Y-81757761D01*
X182898142Y-81709380D01*
X182849761Y-81661000D01*
X182777190Y-81636809D01*
X182728809Y-81636809D01*
X182656238Y-81661000D01*
X182632047Y-81685190D01*
X178519666Y-82144809D02*
X178689000Y-81902904D01*
X178809952Y-82144809D02*
X178809952Y-81636809D01*
X178616428Y-81636809D01*
X178568047Y-81661000D01*
X178543857Y-81685190D01*
X178519666Y-81733571D01*
X178519666Y-81806142D01*
X178543857Y-81854523D01*
X178568047Y-81878714D01*
X178616428Y-81902904D01*
X178809952Y-81902904D01*
X178132619Y-81878714D02*
X178060047Y-81902904D01*
X178035857Y-81927095D01*
X178011666Y-81975476D01*
X178011666Y-82048047D01*
X178035857Y-82096428D01*
X178060047Y-82120619D01*
X178108428Y-82144809D01*
X178301952Y-82144809D01*
X178301952Y-81636809D01*
X178132619Y-81636809D01*
X178084238Y-81661000D01*
X178060047Y-81685190D01*
X178035857Y-81733571D01*
X178035857Y-81781952D01*
X178060047Y-81830333D01*
X178084238Y-81854523D01*
X178132619Y-81878714D01*
X178301952Y-81878714D01*
X177818142Y-81685190D02*
X177793952Y-81661000D01*
X177745571Y-81636809D01*
X177624619Y-81636809D01*
X177576238Y-81661000D01*
X177552047Y-81685190D01*
X177527857Y-81733571D01*
X177527857Y-81781952D01*
X177552047Y-81854523D01*
X177842333Y-82144809D01*
X177527857Y-82144809D01*
X181059666Y-82144809D02*
X181229000Y-81902904D01*
X181349952Y-82144809D02*
X181349952Y-81636809D01*
X181156428Y-81636809D01*
X181108047Y-81661000D01*
X181083857Y-81685190D01*
X181059666Y-81733571D01*
X181059666Y-81806142D01*
X181083857Y-81854523D01*
X181108047Y-81878714D01*
X181156428Y-81902904D01*
X181349952Y-81902904D01*
X180672619Y-81878714D02*
X180600047Y-81902904D01*
X180575857Y-81927095D01*
X180551666Y-81975476D01*
X180551666Y-82048047D01*
X180575857Y-82096428D01*
X180600047Y-82120619D01*
X180648428Y-82144809D01*
X180841952Y-82144809D01*
X180841952Y-81636809D01*
X180672619Y-81636809D01*
X180624238Y-81661000D01*
X180600047Y-81685190D01*
X180575857Y-81733571D01*
X180575857Y-81781952D01*
X180600047Y-81830333D01*
X180624238Y-81854523D01*
X180672619Y-81878714D01*
X180841952Y-81878714D01*
X180382333Y-81636809D02*
X180067857Y-81636809D01*
X180237190Y-81830333D01*
X180164619Y-81830333D01*
X180116238Y-81854523D01*
X180092047Y-81878714D01*
X180067857Y-81927095D01*
X180067857Y-82048047D01*
X180092047Y-82096428D01*
X180116238Y-82120619D01*
X180164619Y-82144809D01*
X180309761Y-82144809D01*
X180358142Y-82120619D01*
X180382333Y-82096428D01*
X175979666Y-82144809D02*
X176149000Y-81902904D01*
X176269952Y-82144809D02*
X176269952Y-81636809D01*
X176076428Y-81636809D01*
X176028047Y-81661000D01*
X176003857Y-81685190D01*
X175979666Y-81733571D01*
X175979666Y-81806142D01*
X176003857Y-81854523D01*
X176028047Y-81878714D01*
X176076428Y-81902904D01*
X176269952Y-81902904D01*
X175592619Y-81878714D02*
X175520047Y-81902904D01*
X175495857Y-81927095D01*
X175471666Y-81975476D01*
X175471666Y-82048047D01*
X175495857Y-82096428D01*
X175520047Y-82120619D01*
X175568428Y-82144809D01*
X175761952Y-82144809D01*
X175761952Y-81636809D01*
X175592619Y-81636809D01*
X175544238Y-81661000D01*
X175520047Y-81685190D01*
X175495857Y-81733571D01*
X175495857Y-81781952D01*
X175520047Y-81830333D01*
X175544238Y-81854523D01*
X175592619Y-81878714D01*
X175761952Y-81878714D01*
X174987857Y-82144809D02*
X175278142Y-82144809D01*
X175133000Y-82144809D02*
X175133000Y-81636809D01*
X175181380Y-81709380D01*
X175229761Y-81757761D01*
X175278142Y-81781952D01*
X186188047Y-81661000D02*
X186236428Y-81636809D01*
X186309000Y-81636809D01*
X186381571Y-81661000D01*
X186429952Y-81709380D01*
X186454142Y-81757761D01*
X186478333Y-81854523D01*
X186478333Y-81927095D01*
X186454142Y-82023857D01*
X186429952Y-82072238D01*
X186381571Y-82120619D01*
X186309000Y-82144809D01*
X186260619Y-82144809D01*
X186188047Y-82120619D01*
X186163857Y-82096428D01*
X186163857Y-81927095D01*
X186260619Y-81927095D01*
X185946142Y-82144809D02*
X185946142Y-81636809D01*
X185655857Y-82144809D01*
X185655857Y-81636809D01*
X185413952Y-82144809D02*
X185413952Y-81636809D01*
X185293000Y-81636809D01*
X185220428Y-81661000D01*
X185172047Y-81709380D01*
X185147857Y-81757761D01*
X185123666Y-81854523D01*
X185123666Y-81927095D01*
X185147857Y-82023857D01*
X185172047Y-82072238D01*
X185220428Y-82120619D01*
X185293000Y-82144809D01*
X185413952Y-82144809D01*
%TO.C,J3*%
X174311000Y-82490000D02*
X174311000Y-83820000D01*
X175641000Y-82490000D02*
X174311000Y-82490000D01*
X176911000Y-82490000D02*
X176911000Y-85150000D01*
X176911000Y-85150000D02*
X192211000Y-85150000D01*
X176911000Y-82490000D02*
X192211000Y-82490000D01*
X192211000Y-82490000D02*
X192211000Y-85150000D01*
%TO.C,R15*%
X171257279Y-78869000D02*
X170931721Y-78869000D01*
X171257279Y-77849000D02*
X170931721Y-77849000D01*
%TO.C,R16*%
X170931721Y-80262000D02*
X171257279Y-80262000D01*
X170931721Y-81282000D02*
X171257279Y-81282000D01*
%TO.C,J1*%
X174311000Y-74870000D02*
X174311000Y-76200000D01*
X175641000Y-74870000D02*
X174311000Y-74870000D01*
X176911000Y-74870000D02*
X176911000Y-77530000D01*
X176911000Y-77530000D02*
X192211000Y-77530000D01*
X176911000Y-74870000D02*
X192211000Y-74870000D01*
X192211000Y-74870000D02*
X192211000Y-77530000D01*
%TO.C,C1*%
X170931721Y-85088000D02*
X171257279Y-85088000D01*
X170931721Y-86108000D02*
X171257279Y-86108000D01*
%TO.C,D1*%
X194083000Y-81457000D02*
X194083000Y-79172000D01*
X195553000Y-81457000D02*
X194083000Y-81457000D01*
X195553000Y-79172000D02*
X195553000Y-81457000D01*
%TO.C,D2*%
X197331000Y-81712000D02*
X197331000Y-83997000D01*
X197331000Y-83997000D02*
X195861000Y-83997000D01*
X195861000Y-83997000D02*
X195861000Y-81712000D01*
%TO.C,D3*%
X194083000Y-86541166D02*
X194083000Y-84256166D01*
X195553000Y-86541166D02*
X194083000Y-86541166D01*
X195553000Y-84256166D02*
X195553000Y-86541166D01*
%TO.C,D4*%
X197331000Y-86804600D02*
X197331000Y-89089600D01*
X197331000Y-89089600D02*
X195861000Y-89089600D01*
X195861000Y-89089600D02*
X195861000Y-86804600D01*
%TO.C,D5*%
X194083000Y-91625332D02*
X194083000Y-89340332D01*
X195553000Y-91625332D02*
X194083000Y-91625332D01*
X195553000Y-89340332D02*
X195553000Y-91625332D01*
%TO.C,D6*%
X195861000Y-94157000D02*
X195861000Y-91872000D01*
X197331000Y-94157000D02*
X195861000Y-94157000D01*
X197331000Y-91872000D02*
X197331000Y-94157000D01*
%TO.C,D7*%
X195553000Y-94424500D02*
X195553000Y-96709500D01*
X195553000Y-96709500D02*
X194083000Y-96709500D01*
X194083000Y-96709500D02*
X194083000Y-94424500D01*
%TO.C,J2*%
X192211000Y-78680000D02*
X192211000Y-81340000D01*
X176911000Y-78680000D02*
X192211000Y-78680000D01*
X176911000Y-81340000D02*
X192211000Y-81340000D01*
X176911000Y-78680000D02*
X176911000Y-81340000D01*
X175641000Y-78680000D02*
X174311000Y-78680000D01*
X174311000Y-78680000D02*
X174311000Y-80010000D01*
%TO.C,J4*%
X192211000Y-86300000D02*
X192211000Y-88960000D01*
X176911000Y-86300000D02*
X192211000Y-86300000D01*
X176911000Y-88960000D02*
X192211000Y-88960000D01*
X176911000Y-86300000D02*
X176911000Y-88960000D01*
X175641000Y-86300000D02*
X174311000Y-86300000D01*
X174311000Y-86300000D02*
X174311000Y-87630000D01*
%TO.C,J5*%
X174311000Y-90110000D02*
X174311000Y-91440000D01*
X175641000Y-90110000D02*
X174311000Y-90110000D01*
X176911000Y-90110000D02*
X176911000Y-92770000D01*
X176911000Y-92770000D02*
X192211000Y-92770000D01*
X176911000Y-90110000D02*
X192211000Y-90110000D01*
X192211000Y-90110000D02*
X192211000Y-92770000D01*
%TO.C,J6*%
X174311000Y-93920000D02*
X174311000Y-95250000D01*
X175641000Y-93920000D02*
X174311000Y-93920000D01*
X176911000Y-93920000D02*
X176911000Y-96580000D01*
X176911000Y-96580000D02*
X192211000Y-96580000D01*
X176911000Y-93920000D02*
X192211000Y-93920000D01*
X192211000Y-93920000D02*
X192211000Y-96580000D01*
%TO.C,J7*%
X192211000Y-97730000D02*
X192211000Y-100390000D01*
X176911000Y-97730000D02*
X192211000Y-97730000D01*
X176911000Y-100390000D02*
X192211000Y-100390000D01*
X176911000Y-97730000D02*
X176911000Y-100390000D01*
X175641000Y-97730000D02*
X174311000Y-97730000D01*
X174311000Y-97730000D02*
X174311000Y-99060000D01*
%TO.C,SW4*%
X168497333Y-98298000D02*
X168497333Y-99568000D01*
X169704000Y-99498000D02*
X168497333Y-99498000D01*
X169704000Y-99378000D02*
X168497333Y-99378000D01*
X169704000Y-99258000D02*
X168497333Y-99258000D01*
X169704000Y-99138000D02*
X168497333Y-99138000D01*
X169704000Y-99018000D02*
X168497333Y-99018000D01*
X169704000Y-98898000D02*
X168497333Y-98898000D01*
X169704000Y-98778000D02*
X168497333Y-98778000D01*
X169704000Y-98658000D02*
X168497333Y-98658000D01*
X169704000Y-98538000D02*
X168497333Y-98538000D01*
X169704000Y-98418000D02*
X168497333Y-98418000D01*
X166084000Y-98298000D02*
X169704000Y-98298000D01*
X166084000Y-99568000D02*
X166084000Y-98298000D01*
X169704000Y-99568000D02*
X166084000Y-99568000D01*
X169704000Y-98298000D02*
X169704000Y-99568000D01*
X168497333Y-95758000D02*
X168497333Y-97028000D01*
X169704000Y-96958000D02*
X168497333Y-96958000D01*
X169704000Y-96838000D02*
X168497333Y-96838000D01*
X169704000Y-96718000D02*
X168497333Y-96718000D01*
X169704000Y-96598000D02*
X168497333Y-96598000D01*
X169704000Y-96478000D02*
X168497333Y-96478000D01*
X169704000Y-96358000D02*
X168497333Y-96358000D01*
X169704000Y-96238000D02*
X168497333Y-96238000D01*
X169704000Y-96118000D02*
X168497333Y-96118000D01*
X169704000Y-95998000D02*
X168497333Y-95998000D01*
X169704000Y-95878000D02*
X168497333Y-95878000D01*
X166084000Y-95758000D02*
X169704000Y-95758000D01*
X166084000Y-97028000D02*
X166084000Y-95758000D01*
X169704000Y-97028000D02*
X166084000Y-97028000D01*
X169704000Y-95758000D02*
X169704000Y-97028000D01*
X168497333Y-93218000D02*
X168497333Y-94488000D01*
X169704000Y-94418000D02*
X168497333Y-94418000D01*
X169704000Y-94298000D02*
X168497333Y-94298000D01*
X169704000Y-94178000D02*
X168497333Y-94178000D01*
X169704000Y-94058000D02*
X168497333Y-94058000D01*
X169704000Y-93938000D02*
X168497333Y-93938000D01*
X169704000Y-93818000D02*
X168497333Y-93818000D01*
X169704000Y-93698000D02*
X168497333Y-93698000D01*
X169704000Y-93578000D02*
X168497333Y-93578000D01*
X169704000Y-93458000D02*
X168497333Y-93458000D01*
X169704000Y-93338000D02*
X168497333Y-93338000D01*
X166084000Y-93218000D02*
X169704000Y-93218000D01*
X166084000Y-94488000D02*
X166084000Y-93218000D01*
X169704000Y-94488000D02*
X166084000Y-94488000D01*
X169704000Y-93218000D02*
X169704000Y-94488000D01*
X168497333Y-90678000D02*
X168497333Y-91948000D01*
X169704000Y-91878000D02*
X168497333Y-91878000D01*
X169704000Y-91758000D02*
X168497333Y-91758000D01*
X169704000Y-91638000D02*
X168497333Y-91638000D01*
X169704000Y-91518000D02*
X168497333Y-91518000D01*
X169704000Y-91398000D02*
X168497333Y-91398000D01*
X169704000Y-91278000D02*
X168497333Y-91278000D01*
X169704000Y-91158000D02*
X168497333Y-91158000D01*
X169704000Y-91038000D02*
X168497333Y-91038000D01*
X169704000Y-90918000D02*
X168497333Y-90918000D01*
X169704000Y-90798000D02*
X168497333Y-90798000D01*
X166084000Y-90678000D02*
X169704000Y-90678000D01*
X166084000Y-91948000D02*
X166084000Y-90678000D01*
X169704000Y-91948000D02*
X166084000Y-91948000D01*
X169704000Y-90678000D02*
X169704000Y-91948000D01*
X171544000Y-88963000D02*
X171544000Y-90346000D01*
X171544000Y-88963000D02*
X170161000Y-88963000D01*
X164484000Y-92113000D02*
X164484000Y-93053000D01*
X164484000Y-89203000D02*
X164484000Y-90513000D01*
X164484000Y-94653000D02*
X164484000Y-95593000D01*
X164484000Y-97193000D02*
X164484000Y-98133000D01*
X164484000Y-99733000D02*
X164484000Y-101043000D01*
X171304000Y-99733000D02*
X171304000Y-101043000D01*
X171304000Y-97193000D02*
X171304000Y-98133000D01*
X171304000Y-94653000D02*
X171304000Y-95593000D01*
X171304000Y-92113000D02*
X171304000Y-93053000D01*
X171304000Y-89203000D02*
X171304000Y-90513000D01*
X171304000Y-101043000D02*
X164484000Y-101043000D01*
X171304000Y-89203000D02*
X164484000Y-89203000D01*
D12*
%TO.C,JP1*%
X170931721Y-83695000D02*
X171257279Y-83695000D01*
X170931721Y-82675000D02*
X171257279Y-82675000D01*
D13*
%TO.C,SW1*%
X158388000Y-80976000D02*
X158688000Y-80976000D01*
X158388000Y-80976000D02*
X158038000Y-80651000D01*
X158038000Y-80651000D02*
X157738000Y-80651000D01*
X157738000Y-80651000D02*
X157738000Y-80876000D01*
X157738000Y-80876000D02*
X156088000Y-80876000D01*
X164288000Y-80426000D02*
X164288000Y-80976000D01*
X164288000Y-80976000D02*
X163788000Y-80976000D01*
X158438000Y-74726000D02*
X158038000Y-74726000D01*
X158038000Y-74726000D02*
X158038000Y-75126000D01*
X164288000Y-75101000D02*
X164288000Y-74726000D01*
X164288000Y-74726000D02*
X163913000Y-74726000D01*
%TO.C,SW2*%
X164288000Y-81584000D02*
X163913000Y-81584000D01*
X164288000Y-81959000D02*
X164288000Y-81584000D01*
X158038000Y-81584000D02*
X158038000Y-81984000D01*
X158438000Y-81584000D02*
X158038000Y-81584000D01*
X164288000Y-87834000D02*
X163788000Y-87834000D01*
X164288000Y-87284000D02*
X164288000Y-87834000D01*
X157738000Y-87734000D02*
X156088000Y-87734000D01*
X157738000Y-87509000D02*
X157738000Y-87734000D01*
X158038000Y-87509000D02*
X157738000Y-87509000D01*
X158388000Y-87834000D02*
X158038000Y-87509000D01*
X158388000Y-87834000D02*
X158688000Y-87834000D01*
%TO.C,SW3*%
X155434500Y-92665500D02*
X155434500Y-92965500D01*
X155434500Y-92665500D02*
X155759500Y-92315500D01*
X155759500Y-92315500D02*
X155759500Y-92015500D01*
X155759500Y-92015500D02*
X155534500Y-92015500D01*
X155534500Y-92015500D02*
X155534500Y-90365500D01*
X155984500Y-98565500D02*
X155434500Y-98565500D01*
X155434500Y-98565500D02*
X155434500Y-98065500D01*
X161684500Y-92715500D02*
X161684500Y-92315500D01*
X161684500Y-92315500D02*
X161284500Y-92315500D01*
X161309500Y-98565500D02*
X161684500Y-98565500D01*
X161684500Y-98565500D02*
X161684500Y-98190500D01*
%TO.C,J3*%
D11*
X193463333Y-83541809D02*
X193463333Y-83904666D01*
X193487523Y-83977238D01*
X193535904Y-84025619D01*
X193608476Y-84049809D01*
X193656857Y-84049809D01*
X193269809Y-83541809D02*
X192955333Y-83541809D01*
X193124666Y-83735333D01*
X193052095Y-83735333D01*
X193003714Y-83759523D01*
X192979523Y-83783714D01*
X192955333Y-83832095D01*
X192955333Y-83953047D01*
X192979523Y-84001428D01*
X193003714Y-84025619D01*
X193052095Y-84049809D01*
X193197238Y-84049809D01*
X193245619Y-84025619D01*
X193269809Y-84001428D01*
%TO.C,R15*%
X171395571Y-77445809D02*
X171564904Y-77203904D01*
X171685857Y-77445809D02*
X171685857Y-76937809D01*
X171492333Y-76937809D01*
X171443952Y-76962000D01*
X171419761Y-76986190D01*
X171395571Y-77034571D01*
X171395571Y-77107142D01*
X171419761Y-77155523D01*
X171443952Y-77179714D01*
X171492333Y-77203904D01*
X171685857Y-77203904D01*
X170911761Y-77445809D02*
X171202047Y-77445809D01*
X171056904Y-77445809D02*
X171056904Y-76937809D01*
X171105285Y-77010380D01*
X171153666Y-77058761D01*
X171202047Y-77082952D01*
X170452142Y-76937809D02*
X170694047Y-76937809D01*
X170718238Y-77179714D01*
X170694047Y-77155523D01*
X170645666Y-77131333D01*
X170524714Y-77131333D01*
X170476333Y-77155523D01*
X170452142Y-77179714D01*
X170427952Y-77228095D01*
X170427952Y-77349047D01*
X170452142Y-77397428D01*
X170476333Y-77421619D01*
X170524714Y-77445809D01*
X170645666Y-77445809D01*
X170694047Y-77421619D01*
X170718238Y-77397428D01*
%TO.C,R16*%
X171421071Y-79858809D02*
X171590404Y-79616904D01*
X171711357Y-79858809D02*
X171711357Y-79350809D01*
X171517833Y-79350809D01*
X171469452Y-79375000D01*
X171445261Y-79399190D01*
X171421071Y-79447571D01*
X171421071Y-79520142D01*
X171445261Y-79568523D01*
X171469452Y-79592714D01*
X171517833Y-79616904D01*
X171711357Y-79616904D01*
X170937261Y-79858809D02*
X171227547Y-79858809D01*
X171082404Y-79858809D02*
X171082404Y-79350809D01*
X171130785Y-79423380D01*
X171179166Y-79471761D01*
X171227547Y-79495952D01*
X170501833Y-79350809D02*
X170598595Y-79350809D01*
X170646976Y-79375000D01*
X170671166Y-79399190D01*
X170719547Y-79471761D01*
X170743738Y-79568523D01*
X170743738Y-79762047D01*
X170719547Y-79810428D01*
X170695357Y-79834619D01*
X170646976Y-79858809D01*
X170550214Y-79858809D01*
X170501833Y-79834619D01*
X170477642Y-79810428D01*
X170453452Y-79762047D01*
X170453452Y-79641095D01*
X170477642Y-79592714D01*
X170501833Y-79568523D01*
X170550214Y-79544333D01*
X170646976Y-79544333D01*
X170695357Y-79568523D01*
X170719547Y-79592714D01*
X170743738Y-79641095D01*
%TO.C,J1*%
X193463333Y-75921809D02*
X193463333Y-76284666D01*
X193487523Y-76357238D01*
X193535904Y-76405619D01*
X193608476Y-76429809D01*
X193656857Y-76429809D01*
X192955333Y-76429809D02*
X193245619Y-76429809D01*
X193100476Y-76429809D02*
X193100476Y-75921809D01*
X193148857Y-75994380D01*
X193197238Y-76042761D01*
X193245619Y-76066952D01*
%TO.C,C1*%
X171153666Y-84636428D02*
X171177857Y-84660619D01*
X171250428Y-84684809D01*
X171298809Y-84684809D01*
X171371380Y-84660619D01*
X171419761Y-84612238D01*
X171443952Y-84563857D01*
X171468142Y-84467095D01*
X171468142Y-84394523D01*
X171443952Y-84297761D01*
X171419761Y-84249380D01*
X171371380Y-84201000D01*
X171298809Y-84176809D01*
X171250428Y-84176809D01*
X171177857Y-84201000D01*
X171153666Y-84225190D01*
X170669857Y-84684809D02*
X170960142Y-84684809D01*
X170815000Y-84684809D02*
X170815000Y-84176809D01*
X170863380Y-84249380D01*
X170911761Y-84297761D01*
X170960142Y-84321952D01*
%TO.C,D1*%
X195192952Y-78271309D02*
X195192952Y-77763309D01*
X195072000Y-77763309D01*
X194999428Y-77787500D01*
X194951047Y-77835880D01*
X194926857Y-77884261D01*
X194902666Y-77981023D01*
X194902666Y-78053595D01*
X194926857Y-78150357D01*
X194951047Y-78198738D01*
X194999428Y-78247119D01*
X195072000Y-78271309D01*
X195192952Y-78271309D01*
X194418857Y-78271309D02*
X194709142Y-78271309D01*
X194564000Y-78271309D02*
X194564000Y-77763309D01*
X194612380Y-77835880D01*
X194660761Y-77884261D01*
X194709142Y-77908452D01*
%TO.C,D2*%
X196970952Y-80811309D02*
X196970952Y-80303309D01*
X196850000Y-80303309D01*
X196777428Y-80327500D01*
X196729047Y-80375880D01*
X196704857Y-80424261D01*
X196680666Y-80521023D01*
X196680666Y-80593595D01*
X196704857Y-80690357D01*
X196729047Y-80738738D01*
X196777428Y-80787119D01*
X196850000Y-80811309D01*
X196970952Y-80811309D01*
X196487142Y-80351690D02*
X196462952Y-80327500D01*
X196414571Y-80303309D01*
X196293619Y-80303309D01*
X196245238Y-80327500D01*
X196221047Y-80351690D01*
X196196857Y-80400071D01*
X196196857Y-80448452D01*
X196221047Y-80521023D01*
X196511333Y-80811309D01*
X196196857Y-80811309D01*
%TO.C,D3*%
X195192952Y-83351309D02*
X195192952Y-82843309D01*
X195072000Y-82843309D01*
X194999428Y-82867500D01*
X194951047Y-82915880D01*
X194926857Y-82964261D01*
X194902666Y-83061023D01*
X194902666Y-83133595D01*
X194926857Y-83230357D01*
X194951047Y-83278738D01*
X194999428Y-83327119D01*
X195072000Y-83351309D01*
X195192952Y-83351309D01*
X194733333Y-82843309D02*
X194418857Y-82843309D01*
X194588190Y-83036833D01*
X194515619Y-83036833D01*
X194467238Y-83061023D01*
X194443047Y-83085214D01*
X194418857Y-83133595D01*
X194418857Y-83254547D01*
X194443047Y-83302928D01*
X194467238Y-83327119D01*
X194515619Y-83351309D01*
X194660761Y-83351309D01*
X194709142Y-83327119D01*
X194733333Y-83302928D01*
%TO.C,D4*%
X196970952Y-85891309D02*
X196970952Y-85383309D01*
X196850000Y-85383309D01*
X196777428Y-85407500D01*
X196729047Y-85455880D01*
X196704857Y-85504261D01*
X196680666Y-85601023D01*
X196680666Y-85673595D01*
X196704857Y-85770357D01*
X196729047Y-85818738D01*
X196777428Y-85867119D01*
X196850000Y-85891309D01*
X196970952Y-85891309D01*
X196245238Y-85552642D02*
X196245238Y-85891309D01*
X196366190Y-85359119D02*
X196487142Y-85721976D01*
X196172666Y-85721976D01*
%TO.C,D5*%
X195192952Y-88431309D02*
X195192952Y-87923309D01*
X195072000Y-87923309D01*
X194999428Y-87947500D01*
X194951047Y-87995880D01*
X194926857Y-88044261D01*
X194902666Y-88141023D01*
X194902666Y-88213595D01*
X194926857Y-88310357D01*
X194951047Y-88358738D01*
X194999428Y-88407119D01*
X195072000Y-88431309D01*
X195192952Y-88431309D01*
X194443047Y-87923309D02*
X194684952Y-87923309D01*
X194709142Y-88165214D01*
X194684952Y-88141023D01*
X194636571Y-88116833D01*
X194515619Y-88116833D01*
X194467238Y-88141023D01*
X194443047Y-88165214D01*
X194418857Y-88213595D01*
X194418857Y-88334547D01*
X194443047Y-88382928D01*
X194467238Y-88407119D01*
X194515619Y-88431309D01*
X194636571Y-88431309D01*
X194684952Y-88407119D01*
X194709142Y-88382928D01*
%TO.C,D6*%
X196970952Y-90971309D02*
X196970952Y-90463309D01*
X196850000Y-90463309D01*
X196777428Y-90487500D01*
X196729047Y-90535880D01*
X196704857Y-90584261D01*
X196680666Y-90681023D01*
X196680666Y-90753595D01*
X196704857Y-90850357D01*
X196729047Y-90898738D01*
X196777428Y-90947119D01*
X196850000Y-90971309D01*
X196970952Y-90971309D01*
X196245238Y-90463309D02*
X196342000Y-90463309D01*
X196390380Y-90487500D01*
X196414571Y-90511690D01*
X196462952Y-90584261D01*
X196487142Y-90681023D01*
X196487142Y-90874547D01*
X196462952Y-90922928D01*
X196438761Y-90947119D01*
X196390380Y-90971309D01*
X196293619Y-90971309D01*
X196245238Y-90947119D01*
X196221047Y-90922928D01*
X196196857Y-90874547D01*
X196196857Y-90753595D01*
X196221047Y-90705214D01*
X196245238Y-90681023D01*
X196293619Y-90656833D01*
X196390380Y-90656833D01*
X196438761Y-90681023D01*
X196462952Y-90705214D01*
X196487142Y-90753595D01*
%TO.C,D7*%
X195192952Y-93511309D02*
X195192952Y-93003309D01*
X195072000Y-93003309D01*
X194999428Y-93027500D01*
X194951047Y-93075880D01*
X194926857Y-93124261D01*
X194902666Y-93221023D01*
X194902666Y-93293595D01*
X194926857Y-93390357D01*
X194951047Y-93438738D01*
X194999428Y-93487119D01*
X195072000Y-93511309D01*
X195192952Y-93511309D01*
X194733333Y-93003309D02*
X194394666Y-93003309D01*
X194612380Y-93511309D01*
%TO.C,J2*%
X193463333Y-79731809D02*
X193463333Y-80094666D01*
X193487523Y-80167238D01*
X193535904Y-80215619D01*
X193608476Y-80239809D01*
X193656857Y-80239809D01*
X193245619Y-79780190D02*
X193221428Y-79756000D01*
X193173047Y-79731809D01*
X193052095Y-79731809D01*
X193003714Y-79756000D01*
X192979523Y-79780190D01*
X192955333Y-79828571D01*
X192955333Y-79876952D01*
X192979523Y-79949523D01*
X193269809Y-80239809D01*
X192955333Y-80239809D01*
%TO.C,J4*%
X193463333Y-87351809D02*
X193463333Y-87714666D01*
X193487523Y-87787238D01*
X193535904Y-87835619D01*
X193608476Y-87859809D01*
X193656857Y-87859809D01*
X193003714Y-87521142D02*
X193003714Y-87859809D01*
X193124666Y-87327619D02*
X193245619Y-87690476D01*
X192931142Y-87690476D01*
%TO.C,J5*%
X193463333Y-91161809D02*
X193463333Y-91524666D01*
X193487523Y-91597238D01*
X193535904Y-91645619D01*
X193608476Y-91669809D01*
X193656857Y-91669809D01*
X192979523Y-91161809D02*
X193221428Y-91161809D01*
X193245619Y-91403714D01*
X193221428Y-91379523D01*
X193173047Y-91355333D01*
X193052095Y-91355333D01*
X193003714Y-91379523D01*
X192979523Y-91403714D01*
X192955333Y-91452095D01*
X192955333Y-91573047D01*
X192979523Y-91621428D01*
X193003714Y-91645619D01*
X193052095Y-91669809D01*
X193173047Y-91669809D01*
X193221428Y-91645619D01*
X193245619Y-91621428D01*
%TO.C,J6*%
X193463333Y-94971809D02*
X193463333Y-95334666D01*
X193487523Y-95407238D01*
X193535904Y-95455619D01*
X193608476Y-95479809D01*
X193656857Y-95479809D01*
X193003714Y-94971809D02*
X193100476Y-94971809D01*
X193148857Y-94996000D01*
X193173047Y-95020190D01*
X193221428Y-95092761D01*
X193245619Y-95189523D01*
X193245619Y-95383047D01*
X193221428Y-95431428D01*
X193197238Y-95455619D01*
X193148857Y-95479809D01*
X193052095Y-95479809D01*
X193003714Y-95455619D01*
X192979523Y-95431428D01*
X192955333Y-95383047D01*
X192955333Y-95262095D01*
X192979523Y-95213714D01*
X193003714Y-95189523D01*
X193052095Y-95165333D01*
X193148857Y-95165333D01*
X193197238Y-95189523D01*
X193221428Y-95213714D01*
X193245619Y-95262095D01*
%TO.C,J7*%
X193463333Y-98781809D02*
X193463333Y-99144666D01*
X193487523Y-99217238D01*
X193535904Y-99265619D01*
X193608476Y-99289809D01*
X193656857Y-99289809D01*
X193269809Y-98781809D02*
X192931142Y-98781809D01*
X193148857Y-99289809D01*
%TO.C,JP1*%
X171502833Y-81763809D02*
X171502833Y-82126666D01*
X171527023Y-82199238D01*
X171575404Y-82247619D01*
X171647976Y-82271809D01*
X171696357Y-82271809D01*
X171260928Y-82271809D02*
X171260928Y-81763809D01*
X171067404Y-81763809D01*
X171019023Y-81788000D01*
X170994833Y-81812190D01*
X170970642Y-81860571D01*
X170970642Y-81933142D01*
X170994833Y-81981523D01*
X171019023Y-82005714D01*
X171067404Y-82029904D01*
X171260928Y-82029904D01*
X170486833Y-82271809D02*
X170777119Y-82271809D01*
X170631976Y-82271809D02*
X170631976Y-81763809D01*
X170680357Y-81836380D01*
X170728738Y-81884761D01*
X170777119Y-81908952D01*
%TO.C,SW1*%
X165967833Y-78056619D02*
X165895261Y-78080809D01*
X165774309Y-78080809D01*
X165725928Y-78056619D01*
X165701738Y-78032428D01*
X165677547Y-77984047D01*
X165677547Y-77935666D01*
X165701738Y-77887285D01*
X165725928Y-77863095D01*
X165774309Y-77838904D01*
X165871071Y-77814714D01*
X165919452Y-77790523D01*
X165943642Y-77766333D01*
X165967833Y-77717952D01*
X165967833Y-77669571D01*
X165943642Y-77621190D01*
X165919452Y-77597000D01*
X165871071Y-77572809D01*
X165750119Y-77572809D01*
X165677547Y-77597000D01*
X165508214Y-77572809D02*
X165387261Y-78080809D01*
X165290500Y-77717952D01*
X165193738Y-78080809D01*
X165072785Y-77572809D01*
X164613166Y-78080809D02*
X164903452Y-78080809D01*
X164758309Y-78080809D02*
X164758309Y-77572809D01*
X164806690Y-77645380D01*
X164855071Y-77693761D01*
X164903452Y-77717952D01*
%TO.C,SW2*%
X165967833Y-84914619D02*
X165895261Y-84938809D01*
X165774309Y-84938809D01*
X165725928Y-84914619D01*
X165701738Y-84890428D01*
X165677547Y-84842047D01*
X165677547Y-84793666D01*
X165701738Y-84745285D01*
X165725928Y-84721095D01*
X165774309Y-84696904D01*
X165871071Y-84672714D01*
X165919452Y-84648523D01*
X165943642Y-84624333D01*
X165967833Y-84575952D01*
X165967833Y-84527571D01*
X165943642Y-84479190D01*
X165919452Y-84455000D01*
X165871071Y-84430809D01*
X165750119Y-84430809D01*
X165677547Y-84455000D01*
X165508214Y-84430809D02*
X165387261Y-84938809D01*
X165290500Y-84575952D01*
X165193738Y-84938809D01*
X165072785Y-84430809D01*
X164903452Y-84479190D02*
X164879261Y-84455000D01*
X164830880Y-84430809D01*
X164709928Y-84430809D01*
X164661547Y-84455000D01*
X164637357Y-84479190D01*
X164613166Y-84527571D01*
X164613166Y-84575952D01*
X164637357Y-84648523D01*
X164927642Y-84938809D01*
X164613166Y-84938809D01*
%TO.C,SW3*%
X159236833Y-91963119D02*
X159164261Y-91987309D01*
X159043309Y-91987309D01*
X158994928Y-91963119D01*
X158970738Y-91938928D01*
X158946547Y-91890547D01*
X158946547Y-91842166D01*
X158970738Y-91793785D01*
X158994928Y-91769595D01*
X159043309Y-91745404D01*
X159140071Y-91721214D01*
X159188452Y-91697023D01*
X159212642Y-91672833D01*
X159236833Y-91624452D01*
X159236833Y-91576071D01*
X159212642Y-91527690D01*
X159188452Y-91503500D01*
X159140071Y-91479309D01*
X159019119Y-91479309D01*
X158946547Y-91503500D01*
X158777214Y-91479309D02*
X158656261Y-91987309D01*
X158559500Y-91624452D01*
X158462738Y-91987309D01*
X158341785Y-91479309D01*
X158196642Y-91479309D02*
X157882166Y-91479309D01*
X158051500Y-91672833D01*
X157978928Y-91672833D01*
X157930547Y-91697023D01*
X157906357Y-91721214D01*
X157882166Y-91769595D01*
X157882166Y-91890547D01*
X157906357Y-91938928D01*
X157930547Y-91963119D01*
X157978928Y-91987309D01*
X158124071Y-91987309D01*
X158172452Y-91963119D01*
X158196642Y-91938928D01*
%TD*%
M02*
