%TF.GenerationSoftware,KiCad,Pcbnew,(5.1.6)-1*%
%TF.CreationDate,2020-07-31T18:02:46-07:00*%
%TF.ProjectId,dspic33ev256gm102,64737069-6333-4336-9576-323536676d31,rev?*%
%TF.SameCoordinates,Original*%
%TF.FileFunction,Copper,L1,Top*%
%TF.FilePolarity,Positive*%
%FSLAX46Y46*%
G04 Gerber Fmt 4.6, Leading zero omitted, Abs format (unit mm)*
G04 Created by KiCad (PCBNEW (5.1.6)-1) date 2020-07-31 18:02:46*
%MOMM*%
%LPD*%
G01*
G04 APERTURE LIST*
%TA.AperFunction,NonConductor*%
%ADD10C,0.152400*%
%TD*%
%TA.AperFunction,ComponentPad*%
%ADD11O,1.700000X1.700000*%
%TD*%
%TA.AperFunction,ComponentPad*%
%ADD12R,1.700000X1.700000*%
%TD*%
%TA.AperFunction,SMDPad,CuDef*%
%ADD13R,0.450000X1.750000*%
%TD*%
%TA.AperFunction,SMDPad,CuDef*%
%ADD14R,1.000000X2.510000*%
%TD*%
%TA.AperFunction,ViaPad*%
%ADD15C,0.762000*%
%TD*%
%TA.AperFunction,Conductor*%
%ADD16C,0.254000*%
%TD*%
%TA.AperFunction,Conductor*%
%ADD17C,0.508000*%
%TD*%
G04 APERTURE END LIST*
D10*
X196883261Y-87902142D02*
X196883261Y-88265000D01*
X196883261Y-88083571D02*
X196248261Y-88083571D01*
X196338976Y-88144047D01*
X196399452Y-88204523D01*
X196429690Y-88265000D01*
X196822785Y-87630000D02*
X196853023Y-87599761D01*
X196883261Y-87630000D01*
X196853023Y-87660238D01*
X196822785Y-87630000D01*
X196883261Y-87630000D01*
X196248261Y-87206666D02*
X196248261Y-87146190D01*
X196278500Y-87085714D01*
X196308738Y-87055476D01*
X196369214Y-87025238D01*
X196490166Y-86995000D01*
X196641357Y-86995000D01*
X196762309Y-87025238D01*
X196822785Y-87055476D01*
X196853023Y-87085714D01*
X196883261Y-87146190D01*
X196883261Y-87206666D01*
X196853023Y-87267142D01*
X196822785Y-87297380D01*
X196762309Y-87327619D01*
X196641357Y-87357857D01*
X196490166Y-87357857D01*
X196369214Y-87327619D01*
X196308738Y-87297380D01*
X196278500Y-87267142D01*
X196248261Y-87206666D01*
D11*
%TO.P,J3,7*%
%TO.N,Net-(J3-Pad7)*%
X190881000Y-83820000D03*
%TO.P,J3,6*%
%TO.N,Net-(J3-Pad6)*%
X188341000Y-83820000D03*
%TO.P,J3,5*%
%TO.N,GNDREF*%
X185801000Y-83820000D03*
%TO.P,J3,4*%
%TO.N,VCC*%
X183261000Y-83820000D03*
%TO.P,J3,3*%
%TO.N,Net-(J3-Pad3)*%
X180721000Y-83820000D03*
%TO.P,J3,2*%
%TO.N,Net-(J3-Pad2)*%
X178181000Y-83820000D03*
D12*
%TO.P,J3,1*%
%TO.N,Net-(J3-Pad1)*%
X175641000Y-83820000D03*
%TD*%
%TO.P,R14,1*%
%TO.N,GNDREF*%
%TA.AperFunction,SMDPad,CuDef*%
G36*
G01*
X187116000Y-101094250D02*
X187116000Y-100581750D01*
G75*
G02*
X187334750Y-100363000I218750J0D01*
G01*
X187772250Y-100363000D01*
G75*
G02*
X187991000Y-100581750I0J-218750D01*
G01*
X187991000Y-101094250D01*
G75*
G02*
X187772250Y-101313000I-218750J0D01*
G01*
X187334750Y-101313000D01*
G75*
G02*
X187116000Y-101094250I0J218750D01*
G01*
G37*
%TD.AperFunction*%
%TO.P,R14,2*%
%TO.N,Net-(J7-Pad6)*%
%TA.AperFunction,SMDPad,CuDef*%
G36*
G01*
X188691000Y-101094250D02*
X188691000Y-100581750D01*
G75*
G02*
X188909750Y-100363000I218750J0D01*
G01*
X189347250Y-100363000D01*
G75*
G02*
X189566000Y-100581750I0J-218750D01*
G01*
X189566000Y-101094250D01*
G75*
G02*
X189347250Y-101313000I-218750J0D01*
G01*
X188909750Y-101313000D01*
G75*
G02*
X188691000Y-101094250I0J218750D01*
G01*
G37*
%TD.AperFunction*%
%TD*%
%TO.P,R13,1*%
%TO.N,GNDREF*%
%TA.AperFunction,SMDPad,CuDef*%
G36*
G01*
X187116000Y-97411250D02*
X187116000Y-96898750D01*
G75*
G02*
X187334750Y-96680000I218750J0D01*
G01*
X187772250Y-96680000D01*
G75*
G02*
X187991000Y-96898750I0J-218750D01*
G01*
X187991000Y-97411250D01*
G75*
G02*
X187772250Y-97630000I-218750J0D01*
G01*
X187334750Y-97630000D01*
G75*
G02*
X187116000Y-97411250I0J218750D01*
G01*
G37*
%TD.AperFunction*%
%TO.P,R13,2*%
%TO.N,Net-(J6-Pad6)*%
%TA.AperFunction,SMDPad,CuDef*%
G36*
G01*
X188691000Y-97411250D02*
X188691000Y-96898750D01*
G75*
G02*
X188909750Y-96680000I218750J0D01*
G01*
X189347250Y-96680000D01*
G75*
G02*
X189566000Y-96898750I0J-218750D01*
G01*
X189566000Y-97411250D01*
G75*
G02*
X189347250Y-97630000I-218750J0D01*
G01*
X188909750Y-97630000D01*
G75*
G02*
X188691000Y-97411250I0J218750D01*
G01*
G37*
%TD.AperFunction*%
%TD*%
%TO.P,R12,1*%
%TO.N,GNDREF*%
%TA.AperFunction,SMDPad,CuDef*%
G36*
G01*
X187116000Y-93601250D02*
X187116000Y-93088750D01*
G75*
G02*
X187334750Y-92870000I218750J0D01*
G01*
X187772250Y-92870000D01*
G75*
G02*
X187991000Y-93088750I0J-218750D01*
G01*
X187991000Y-93601250D01*
G75*
G02*
X187772250Y-93820000I-218750J0D01*
G01*
X187334750Y-93820000D01*
G75*
G02*
X187116000Y-93601250I0J218750D01*
G01*
G37*
%TD.AperFunction*%
%TO.P,R12,2*%
%TO.N,Net-(J5-Pad6)*%
%TA.AperFunction,SMDPad,CuDef*%
G36*
G01*
X188691000Y-93601250D02*
X188691000Y-93088750D01*
G75*
G02*
X188909750Y-92870000I218750J0D01*
G01*
X189347250Y-92870000D01*
G75*
G02*
X189566000Y-93088750I0J-218750D01*
G01*
X189566000Y-93601250D01*
G75*
G02*
X189347250Y-93820000I-218750J0D01*
G01*
X188909750Y-93820000D01*
G75*
G02*
X188691000Y-93601250I0J218750D01*
G01*
G37*
%TD.AperFunction*%
%TD*%
%TO.P,R11,1*%
%TO.N,GNDREF*%
%TA.AperFunction,SMDPad,CuDef*%
G36*
G01*
X187116000Y-89791250D02*
X187116000Y-89278750D01*
G75*
G02*
X187334750Y-89060000I218750J0D01*
G01*
X187772250Y-89060000D01*
G75*
G02*
X187991000Y-89278750I0J-218750D01*
G01*
X187991000Y-89791250D01*
G75*
G02*
X187772250Y-90010000I-218750J0D01*
G01*
X187334750Y-90010000D01*
G75*
G02*
X187116000Y-89791250I0J218750D01*
G01*
G37*
%TD.AperFunction*%
%TO.P,R11,2*%
%TO.N,Net-(J4-Pad6)*%
%TA.AperFunction,SMDPad,CuDef*%
G36*
G01*
X188691000Y-89791250D02*
X188691000Y-89278750D01*
G75*
G02*
X188909750Y-89060000I218750J0D01*
G01*
X189347250Y-89060000D01*
G75*
G02*
X189566000Y-89278750I0J-218750D01*
G01*
X189566000Y-89791250D01*
G75*
G02*
X189347250Y-90010000I-218750J0D01*
G01*
X188909750Y-90010000D01*
G75*
G02*
X188691000Y-89791250I0J218750D01*
G01*
G37*
%TD.AperFunction*%
%TD*%
%TO.P,R7,2*%
%TO.N,Net-(J7-Pad7)*%
%TA.AperFunction,SMDPad,CuDef*%
G36*
G01*
X193101250Y-99410000D02*
X193613750Y-99410000D01*
G75*
G02*
X193832500Y-99628750I0J-218750D01*
G01*
X193832500Y-100066250D01*
G75*
G02*
X193613750Y-100285000I-218750J0D01*
G01*
X193101250Y-100285000D01*
G75*
G02*
X192882500Y-100066250I0J218750D01*
G01*
X192882500Y-99628750D01*
G75*
G02*
X193101250Y-99410000I218750J0D01*
G01*
G37*
%TD.AperFunction*%
%TO.P,R7,1*%
%TO.N,Net-(D7-Pad2)*%
%TA.AperFunction,SMDPad,CuDef*%
G36*
G01*
X193101250Y-97835000D02*
X193613750Y-97835000D01*
G75*
G02*
X193832500Y-98053750I0J-218750D01*
G01*
X193832500Y-98491250D01*
G75*
G02*
X193613750Y-98710000I-218750J0D01*
G01*
X193101250Y-98710000D01*
G75*
G02*
X192882500Y-98491250I0J218750D01*
G01*
X192882500Y-98053750D01*
G75*
G02*
X193101250Y-97835000I218750J0D01*
G01*
G37*
%TD.AperFunction*%
%TD*%
%TO.P,R6,2*%
%TO.N,Net-(J6-Pad7)*%
%TA.AperFunction,SMDPad,CuDef*%
G36*
G01*
X193101250Y-95600000D02*
X193613750Y-95600000D01*
G75*
G02*
X193832500Y-95818750I0J-218750D01*
G01*
X193832500Y-96256250D01*
G75*
G02*
X193613750Y-96475000I-218750J0D01*
G01*
X193101250Y-96475000D01*
G75*
G02*
X192882500Y-96256250I0J218750D01*
G01*
X192882500Y-95818750D01*
G75*
G02*
X193101250Y-95600000I218750J0D01*
G01*
G37*
%TD.AperFunction*%
%TO.P,R6,1*%
%TO.N,Net-(D6-Pad2)*%
%TA.AperFunction,SMDPad,CuDef*%
G36*
G01*
X193101250Y-94025000D02*
X193613750Y-94025000D01*
G75*
G02*
X193832500Y-94243750I0J-218750D01*
G01*
X193832500Y-94681250D01*
G75*
G02*
X193613750Y-94900000I-218750J0D01*
G01*
X193101250Y-94900000D01*
G75*
G02*
X192882500Y-94681250I0J218750D01*
G01*
X192882500Y-94243750D01*
G75*
G02*
X193101250Y-94025000I218750J0D01*
G01*
G37*
%TD.AperFunction*%
%TD*%
%TO.P,R5,2*%
%TO.N,Net-(J5-Pad7)*%
%TA.AperFunction,SMDPad,CuDef*%
G36*
G01*
X193101250Y-91790000D02*
X193613750Y-91790000D01*
G75*
G02*
X193832500Y-92008750I0J-218750D01*
G01*
X193832500Y-92446250D01*
G75*
G02*
X193613750Y-92665000I-218750J0D01*
G01*
X193101250Y-92665000D01*
G75*
G02*
X192882500Y-92446250I0J218750D01*
G01*
X192882500Y-92008750D01*
G75*
G02*
X193101250Y-91790000I218750J0D01*
G01*
G37*
%TD.AperFunction*%
%TO.P,R5,1*%
%TO.N,Net-(D5-Pad2)*%
%TA.AperFunction,SMDPad,CuDef*%
G36*
G01*
X193101250Y-90215000D02*
X193613750Y-90215000D01*
G75*
G02*
X193832500Y-90433750I0J-218750D01*
G01*
X193832500Y-90871250D01*
G75*
G02*
X193613750Y-91090000I-218750J0D01*
G01*
X193101250Y-91090000D01*
G75*
G02*
X192882500Y-90871250I0J218750D01*
G01*
X192882500Y-90433750D01*
G75*
G02*
X193101250Y-90215000I218750J0D01*
G01*
G37*
%TD.AperFunction*%
%TD*%
%TO.P,R4,2*%
%TO.N,Net-(J4-Pad7)*%
%TA.AperFunction,SMDPad,CuDef*%
G36*
G01*
X193101250Y-87980000D02*
X193613750Y-87980000D01*
G75*
G02*
X193832500Y-88198750I0J-218750D01*
G01*
X193832500Y-88636250D01*
G75*
G02*
X193613750Y-88855000I-218750J0D01*
G01*
X193101250Y-88855000D01*
G75*
G02*
X192882500Y-88636250I0J218750D01*
G01*
X192882500Y-88198750D01*
G75*
G02*
X193101250Y-87980000I218750J0D01*
G01*
G37*
%TD.AperFunction*%
%TO.P,R4,1*%
%TO.N,Net-(D4-Pad2)*%
%TA.AperFunction,SMDPad,CuDef*%
G36*
G01*
X193101250Y-86405000D02*
X193613750Y-86405000D01*
G75*
G02*
X193832500Y-86623750I0J-218750D01*
G01*
X193832500Y-87061250D01*
G75*
G02*
X193613750Y-87280000I-218750J0D01*
G01*
X193101250Y-87280000D01*
G75*
G02*
X192882500Y-87061250I0J218750D01*
G01*
X192882500Y-86623750D01*
G75*
G02*
X193101250Y-86405000I218750J0D01*
G01*
G37*
%TD.AperFunction*%
%TD*%
%TO.P,R10,1*%
%TO.N,GNDREF*%
%TA.AperFunction,SMDPad,CuDef*%
G36*
G01*
X187116000Y-85981250D02*
X187116000Y-85468750D01*
G75*
G02*
X187334750Y-85250000I218750J0D01*
G01*
X187772250Y-85250000D01*
G75*
G02*
X187991000Y-85468750I0J-218750D01*
G01*
X187991000Y-85981250D01*
G75*
G02*
X187772250Y-86200000I-218750J0D01*
G01*
X187334750Y-86200000D01*
G75*
G02*
X187116000Y-85981250I0J218750D01*
G01*
G37*
%TD.AperFunction*%
%TO.P,R10,2*%
%TO.N,Net-(J3-Pad6)*%
%TA.AperFunction,SMDPad,CuDef*%
G36*
G01*
X188691000Y-85981250D02*
X188691000Y-85468750D01*
G75*
G02*
X188909750Y-85250000I218750J0D01*
G01*
X189347250Y-85250000D01*
G75*
G02*
X189566000Y-85468750I0J-218750D01*
G01*
X189566000Y-85981250D01*
G75*
G02*
X189347250Y-86200000I-218750J0D01*
G01*
X188909750Y-86200000D01*
G75*
G02*
X188691000Y-85981250I0J218750D01*
G01*
G37*
%TD.AperFunction*%
%TD*%
%TO.P,R3,2*%
%TO.N,Net-(J3-Pad7)*%
%TA.AperFunction,SMDPad,CuDef*%
G36*
G01*
X193101250Y-84170000D02*
X193613750Y-84170000D01*
G75*
G02*
X193832500Y-84388750I0J-218750D01*
G01*
X193832500Y-84826250D01*
G75*
G02*
X193613750Y-85045000I-218750J0D01*
G01*
X193101250Y-85045000D01*
G75*
G02*
X192882500Y-84826250I0J218750D01*
G01*
X192882500Y-84388750D01*
G75*
G02*
X193101250Y-84170000I218750J0D01*
G01*
G37*
%TD.AperFunction*%
%TO.P,R3,1*%
%TO.N,Net-(D3-Pad2)*%
%TA.AperFunction,SMDPad,CuDef*%
G36*
G01*
X193101250Y-82595000D02*
X193613750Y-82595000D01*
G75*
G02*
X193832500Y-82813750I0J-218750D01*
G01*
X193832500Y-83251250D01*
G75*
G02*
X193613750Y-83470000I-218750J0D01*
G01*
X193101250Y-83470000D01*
G75*
G02*
X192882500Y-83251250I0J218750D01*
G01*
X192882500Y-82813750D01*
G75*
G02*
X193101250Y-82595000I218750J0D01*
G01*
G37*
%TD.AperFunction*%
%TD*%
%TO.P,R9,1*%
%TO.N,GNDREF*%
%TA.AperFunction,SMDPad,CuDef*%
G36*
G01*
X187116000Y-82171250D02*
X187116000Y-81658750D01*
G75*
G02*
X187334750Y-81440000I218750J0D01*
G01*
X187772250Y-81440000D01*
G75*
G02*
X187991000Y-81658750I0J-218750D01*
G01*
X187991000Y-82171250D01*
G75*
G02*
X187772250Y-82390000I-218750J0D01*
G01*
X187334750Y-82390000D01*
G75*
G02*
X187116000Y-82171250I0J218750D01*
G01*
G37*
%TD.AperFunction*%
%TO.P,R9,2*%
%TO.N,Net-(J2-Pad6)*%
%TA.AperFunction,SMDPad,CuDef*%
G36*
G01*
X188691000Y-82171250D02*
X188691000Y-81658750D01*
G75*
G02*
X188909750Y-81440000I218750J0D01*
G01*
X189347250Y-81440000D01*
G75*
G02*
X189566000Y-81658750I0J-218750D01*
G01*
X189566000Y-82171250D01*
G75*
G02*
X189347250Y-82390000I-218750J0D01*
G01*
X188909750Y-82390000D01*
G75*
G02*
X188691000Y-82171250I0J218750D01*
G01*
G37*
%TD.AperFunction*%
%TD*%
%TO.P,R8,1*%
%TO.N,GNDREF*%
%TA.AperFunction,SMDPad,CuDef*%
G36*
G01*
X187116000Y-78361250D02*
X187116000Y-77848750D01*
G75*
G02*
X187334750Y-77630000I218750J0D01*
G01*
X187772250Y-77630000D01*
G75*
G02*
X187991000Y-77848750I0J-218750D01*
G01*
X187991000Y-78361250D01*
G75*
G02*
X187772250Y-78580000I-218750J0D01*
G01*
X187334750Y-78580000D01*
G75*
G02*
X187116000Y-78361250I0J218750D01*
G01*
G37*
%TD.AperFunction*%
%TO.P,R8,2*%
%TO.N,Net-(J1-Pad6)*%
%TA.AperFunction,SMDPad,CuDef*%
G36*
G01*
X188691000Y-78361250D02*
X188691000Y-77848750D01*
G75*
G02*
X188909750Y-77630000I218750J0D01*
G01*
X189347250Y-77630000D01*
G75*
G02*
X189566000Y-77848750I0J-218750D01*
G01*
X189566000Y-78361250D01*
G75*
G02*
X189347250Y-78580000I-218750J0D01*
G01*
X188909750Y-78580000D01*
G75*
G02*
X188691000Y-78361250I0J218750D01*
G01*
G37*
%TD.AperFunction*%
%TD*%
%TO.P,R2,2*%
%TO.N,Net-(J2-Pad7)*%
%TA.AperFunction,SMDPad,CuDef*%
G36*
G01*
X193101250Y-80360000D02*
X193613750Y-80360000D01*
G75*
G02*
X193832500Y-80578750I0J-218750D01*
G01*
X193832500Y-81016250D01*
G75*
G02*
X193613750Y-81235000I-218750J0D01*
G01*
X193101250Y-81235000D01*
G75*
G02*
X192882500Y-81016250I0J218750D01*
G01*
X192882500Y-80578750D01*
G75*
G02*
X193101250Y-80360000I218750J0D01*
G01*
G37*
%TD.AperFunction*%
%TO.P,R2,1*%
%TO.N,Net-(D2-Pad2)*%
%TA.AperFunction,SMDPad,CuDef*%
G36*
G01*
X193101250Y-78785000D02*
X193613750Y-78785000D01*
G75*
G02*
X193832500Y-79003750I0J-218750D01*
G01*
X193832500Y-79441250D01*
G75*
G02*
X193613750Y-79660000I-218750J0D01*
G01*
X193101250Y-79660000D01*
G75*
G02*
X192882500Y-79441250I0J218750D01*
G01*
X192882500Y-79003750D01*
G75*
G02*
X193101250Y-78785000I218750J0D01*
G01*
G37*
%TD.AperFunction*%
%TD*%
%TO.P,R1,2*%
%TO.N,Net-(J1-Pad7)*%
%TA.AperFunction,SMDPad,CuDef*%
G36*
G01*
X193101250Y-76550000D02*
X193613750Y-76550000D01*
G75*
G02*
X193832500Y-76768750I0J-218750D01*
G01*
X193832500Y-77206250D01*
G75*
G02*
X193613750Y-77425000I-218750J0D01*
G01*
X193101250Y-77425000D01*
G75*
G02*
X192882500Y-77206250I0J218750D01*
G01*
X192882500Y-76768750D01*
G75*
G02*
X193101250Y-76550000I218750J0D01*
G01*
G37*
%TD.AperFunction*%
%TO.P,R1,1*%
%TO.N,Net-(D1-Pad2)*%
%TA.AperFunction,SMDPad,CuDef*%
G36*
G01*
X193101250Y-74975000D02*
X193613750Y-74975000D01*
G75*
G02*
X193832500Y-75193750I0J-218750D01*
G01*
X193832500Y-75631250D01*
G75*
G02*
X193613750Y-75850000I-218750J0D01*
G01*
X193101250Y-75850000D01*
G75*
G02*
X192882500Y-75631250I0J218750D01*
G01*
X192882500Y-75193750D01*
G75*
G02*
X193101250Y-74975000I218750J0D01*
G01*
G37*
%TD.AperFunction*%
%TD*%
D11*
%TO.P,J1,7*%
%TO.N,Net-(J1-Pad7)*%
X190881000Y-76200000D03*
%TO.P,J1,6*%
%TO.N,Net-(J1-Pad6)*%
X188341000Y-76200000D03*
%TO.P,J1,5*%
%TO.N,GNDREF*%
X185801000Y-76200000D03*
%TO.P,J1,4*%
%TO.N,VCC*%
X183261000Y-76200000D03*
%TO.P,J1,3*%
%TO.N,Net-(J1-Pad3)*%
X180721000Y-76200000D03*
%TO.P,J1,2*%
%TO.N,Net-(J1-Pad2)*%
X178181000Y-76200000D03*
D12*
%TO.P,J1,1*%
%TO.N,Net-(J1-Pad1)*%
X175641000Y-76200000D03*
%TD*%
%TO.P,C2,1*%
%TO.N,Net-(C2-Pad1)*%
%TA.AperFunction,SMDPad,CuDef*%
G36*
G01*
X165852000Y-92593000D02*
X165852000Y-93843000D01*
G75*
G02*
X165602000Y-94093000I-250000J0D01*
G01*
X164852000Y-94093000D01*
G75*
G02*
X164602000Y-93843000I0J250000D01*
G01*
X164602000Y-92593000D01*
G75*
G02*
X164852000Y-92343000I250000J0D01*
G01*
X165602000Y-92343000D01*
G75*
G02*
X165852000Y-92593000I0J-250000D01*
G01*
G37*
%TD.AperFunction*%
%TO.P,C2,2*%
%TO.N,GNDREF*%
%TA.AperFunction,SMDPad,CuDef*%
G36*
G01*
X163052000Y-92593000D02*
X163052000Y-93843000D01*
G75*
G02*
X162802000Y-94093000I-250000J0D01*
G01*
X162052000Y-94093000D01*
G75*
G02*
X161802000Y-93843000I0J250000D01*
G01*
X161802000Y-92593000D01*
G75*
G02*
X162052000Y-92343000I250000J0D01*
G01*
X162802000Y-92343000D01*
G75*
G02*
X163052000Y-92593000I0J-250000D01*
G01*
G37*
%TD.AperFunction*%
%TD*%
%TO.P,C3,2*%
%TO.N,GNDREF*%
%TA.AperFunction,SMDPad,CuDef*%
G36*
G01*
X163697500Y-81917250D02*
X163697500Y-81404750D01*
G75*
G02*
X163916250Y-81186000I218750J0D01*
G01*
X164353750Y-81186000D01*
G75*
G02*
X164572500Y-81404750I0J-218750D01*
G01*
X164572500Y-81917250D01*
G75*
G02*
X164353750Y-82136000I-218750J0D01*
G01*
X163916250Y-82136000D01*
G75*
G02*
X163697500Y-81917250I0J218750D01*
G01*
G37*
%TD.AperFunction*%
%TO.P,C3,1*%
%TO.N,VCC*%
%TA.AperFunction,SMDPad,CuDef*%
G36*
G01*
X162122500Y-81917250D02*
X162122500Y-81404750D01*
G75*
G02*
X162341250Y-81186000I218750J0D01*
G01*
X162778750Y-81186000D01*
G75*
G02*
X162997500Y-81404750I0J-218750D01*
G01*
X162997500Y-81917250D01*
G75*
G02*
X162778750Y-82136000I-218750J0D01*
G01*
X162341250Y-82136000D01*
G75*
G02*
X162122500Y-81917250I0J218750D01*
G01*
G37*
%TD.AperFunction*%
%TD*%
%TO.P,C4,2*%
%TO.N,GNDREF*%
%TA.AperFunction,SMDPad,CuDef*%
G36*
G01*
X168585500Y-92580750D02*
X168585500Y-93093250D01*
G75*
G02*
X168366750Y-93312000I-218750J0D01*
G01*
X167929250Y-93312000D01*
G75*
G02*
X167710500Y-93093250I0J218750D01*
G01*
X167710500Y-92580750D01*
G75*
G02*
X167929250Y-92362000I218750J0D01*
G01*
X168366750Y-92362000D01*
G75*
G02*
X168585500Y-92580750I0J-218750D01*
G01*
G37*
%TD.AperFunction*%
%TO.P,C4,1*%
%TO.N,VCC*%
%TA.AperFunction,SMDPad,CuDef*%
G36*
G01*
X170160500Y-92580750D02*
X170160500Y-93093250D01*
G75*
G02*
X169941750Y-93312000I-218750J0D01*
G01*
X169504250Y-93312000D01*
G75*
G02*
X169285500Y-93093250I0J218750D01*
G01*
X169285500Y-92580750D01*
G75*
G02*
X169504250Y-92362000I218750J0D01*
G01*
X169941750Y-92362000D01*
G75*
G02*
X170160500Y-92580750I0J-218750D01*
G01*
G37*
%TD.AperFunction*%
%TD*%
%TO.P,J2,1*%
%TO.N,Net-(J2-Pad1)*%
X175641000Y-80010000D03*
D11*
%TO.P,J2,2*%
%TO.N,Net-(J2-Pad2)*%
X178181000Y-80010000D03*
%TO.P,J2,3*%
%TO.N,Net-(J2-Pad3)*%
X180721000Y-80010000D03*
%TO.P,J2,4*%
%TO.N,VCC*%
X183261000Y-80010000D03*
%TO.P,J2,5*%
%TO.N,GNDREF*%
X185801000Y-80010000D03*
%TO.P,J2,6*%
%TO.N,Net-(J2-Pad6)*%
X188341000Y-80010000D03*
%TO.P,J2,7*%
%TO.N,Net-(J2-Pad7)*%
X190881000Y-80010000D03*
%TD*%
D12*
%TO.P,J4,1*%
%TO.N,Net-(J4-Pad1)*%
X175641000Y-87630000D03*
D11*
%TO.P,J4,2*%
%TO.N,Net-(J4-Pad2)*%
X178181000Y-87630000D03*
%TO.P,J4,3*%
%TO.N,Net-(J4-Pad3)*%
X180721000Y-87630000D03*
%TO.P,J4,4*%
%TO.N,VCC*%
X183261000Y-87630000D03*
%TO.P,J4,5*%
%TO.N,GNDREF*%
X185801000Y-87630000D03*
%TO.P,J4,6*%
%TO.N,Net-(J4-Pad6)*%
X188341000Y-87630000D03*
%TO.P,J4,7*%
%TO.N,Net-(J4-Pad7)*%
X190881000Y-87630000D03*
%TD*%
%TO.P,J5,7*%
%TO.N,Net-(J5-Pad7)*%
X190881000Y-91440000D03*
%TO.P,J5,6*%
%TO.N,Net-(J5-Pad6)*%
X188341000Y-91440000D03*
%TO.P,J5,5*%
%TO.N,GNDREF*%
X185801000Y-91440000D03*
%TO.P,J5,4*%
%TO.N,VCC*%
X183261000Y-91440000D03*
%TO.P,J5,3*%
%TO.N,Net-(J5-Pad3)*%
X180721000Y-91440000D03*
%TO.P,J5,2*%
%TO.N,Net-(J5-Pad2)*%
X178181000Y-91440000D03*
D12*
%TO.P,J5,1*%
%TO.N,Net-(J5-Pad1)*%
X175641000Y-91440000D03*
%TD*%
D11*
%TO.P,J6,7*%
%TO.N,Net-(J6-Pad7)*%
X190881000Y-95250000D03*
%TO.P,J6,6*%
%TO.N,Net-(J6-Pad6)*%
X188341000Y-95250000D03*
%TO.P,J6,5*%
%TO.N,GNDREF*%
X185801000Y-95250000D03*
%TO.P,J6,4*%
%TO.N,VCC*%
X183261000Y-95250000D03*
%TO.P,J6,3*%
%TO.N,Net-(J6-Pad3)*%
X180721000Y-95250000D03*
%TO.P,J6,2*%
%TO.N,Net-(J6-Pad2)*%
X178181000Y-95250000D03*
D12*
%TO.P,J6,1*%
%TO.N,Net-(J6-Pad1)*%
X175641000Y-95250000D03*
%TD*%
%TO.P,J7,1*%
%TO.N,Net-(J7-Pad1)*%
X175641000Y-99060000D03*
D11*
%TO.P,J7,2*%
%TO.N,Net-(J7-Pad2)*%
X178181000Y-99060000D03*
%TO.P,J7,3*%
%TO.N,Net-(J7-Pad3)*%
X180721000Y-99060000D03*
%TO.P,J7,4*%
%TO.N,VCC*%
X183261000Y-99060000D03*
%TO.P,J7,5*%
%TO.N,GNDREF*%
X185801000Y-99060000D03*
%TO.P,J7,6*%
%TO.N,Net-(J7-Pad6)*%
X188341000Y-99060000D03*
%TO.P,J7,7*%
%TO.N,Net-(J7-Pad7)*%
X190881000Y-99060000D03*
%TD*%
%TO.P,J10,5*%
%TO.N,GNDREF*%
X153797000Y-92710000D03*
%TO.P,J10,4*%
%TO.N,Net-(J10-Pad4)*%
X153797000Y-90170000D03*
%TO.P,J10,3*%
%TO.N,Net-(J10-Pad3)*%
X153797000Y-87630000D03*
%TO.P,J10,2*%
%TO.N,Net-(J10-Pad2)*%
X153797000Y-85090000D03*
D12*
%TO.P,J10,1*%
%TO.N,VCC*%
X153797000Y-82550000D03*
%TD*%
D13*
%TO.P,U1,1*%
%TO.N,Net-(J9-Pad1)*%
X169452000Y-83649000D03*
%TO.P,U1,2*%
%TO.N,Net-(J1-Pad1)*%
X168802000Y-83649000D03*
%TO.P,U1,3*%
%TO.N,Net-(J1-Pad2)*%
X168152000Y-83649000D03*
%TO.P,U1,4*%
%TO.N,Net-(J1-Pad3)*%
X167502000Y-83649000D03*
%TO.P,U1,5*%
%TO.N,Net-(J2-Pad1)*%
X166852000Y-83649000D03*
%TO.P,U1,6*%
%TO.N,Net-(J2-Pad2)*%
X166202000Y-83649000D03*
%TO.P,U1,7*%
%TO.N,Net-(J2-Pad3)*%
X165552000Y-83649000D03*
%TO.P,U1,8*%
%TO.N,GNDREF*%
X164902000Y-83649000D03*
%TO.P,U1,9*%
%TO.N,Net-(J3-Pad1)*%
X164252000Y-83649000D03*
%TO.P,U1,10*%
%TO.N,Net-(J3-Pad2)*%
X163602000Y-83649000D03*
%TO.P,U1,11*%
%TO.N,Net-(J3-Pad3)*%
X162952000Y-83649000D03*
%TO.P,U1,12*%
%TO.N,Net-(J4-Pad1)*%
X162302000Y-83649000D03*
%TO.P,U1,13*%
%TO.N,VCC*%
X161652000Y-83649000D03*
%TO.P,U1,14*%
%TO.N,Net-(J4-Pad2)*%
X161002000Y-83649000D03*
%TO.P,U1,15*%
%TO.N,Net-(J4-Pad3)*%
X161002000Y-90849000D03*
%TO.P,U1,16*%
%TO.N,Net-(J5-Pad1)*%
X161652000Y-90849000D03*
%TO.P,U1,17*%
%TO.N,Net-(J5-Pad2)*%
X162302000Y-90849000D03*
%TO.P,U1,18*%
%TO.N,Net-(J5-Pad3)*%
X162952000Y-90849000D03*
%TO.P,U1,19*%
%TO.N,GNDREF*%
X163602000Y-90849000D03*
%TO.P,U1,20*%
%TO.N,Net-(C2-Pad1)*%
X164252000Y-90849000D03*
%TO.P,U1,21*%
%TO.N,Net-(J6-Pad1)*%
X164902000Y-90849000D03*
%TO.P,U1,22*%
%TO.N,Net-(J6-Pad2)*%
X165552000Y-90849000D03*
%TO.P,U1,23*%
%TO.N,Net-(J6-Pad3)*%
X166202000Y-90849000D03*
%TO.P,U1,24*%
%TO.N,Net-(J7-Pad1)*%
X166852000Y-90849000D03*
%TO.P,U1,25*%
%TO.N,Net-(J7-Pad2)*%
X167502000Y-90849000D03*
%TO.P,U1,26*%
%TO.N,Net-(J7-Pad3)*%
X168152000Y-90849000D03*
%TO.P,U1,27*%
%TO.N,GNDREF*%
X168802000Y-90849000D03*
%TO.P,U1,28*%
%TO.N,VCC*%
X169452000Y-90849000D03*
%TD*%
D14*
%TO.P,J8,2*%
%TO.N,Net-(J8-Pad2)*%
X161417000Y-99445000D03*
%TO.P,J8,4*%
%TO.N,Net-(J7-Pad3)*%
X166497000Y-99445000D03*
%TO.P,J8,6*%
%TO.N,Net-(J8-Pad6)*%
X171577000Y-99445000D03*
%TO.P,J8,1*%
%TO.N,GNDREF*%
X158877000Y-96135000D03*
%TO.P,J8,3*%
%TO.N,Net-(J8-Pad3)*%
X163957000Y-96135000D03*
%TO.P,J8,5*%
%TO.N,Net-(J6-Pad1)*%
X169037000Y-96135000D03*
%TD*%
%TO.P,J9,5*%
%TO.N,Net-(J2-Pad1)*%
X161417000Y-79125000D03*
%TO.P,J9,3*%
%TO.N,GNDREF*%
X166497000Y-79125000D03*
%TO.P,J9,1*%
%TO.N,Net-(J9-Pad1)*%
X171577000Y-79125000D03*
%TO.P,J9,6*%
%TO.N,Net-(J9-Pad6)*%
X158877000Y-75815000D03*
%TO.P,J9,4*%
%TO.N,Net-(J1-Pad3)*%
X163957000Y-75815000D03*
%TO.P,J9,2*%
%TO.N,VCC*%
X169037000Y-75815000D03*
%TD*%
%TO.P,JP2,2*%
%TO.N,VCC*%
%TA.AperFunction,SMDPad,CuDef*%
G36*
G01*
X154810750Y-98114500D02*
X155323250Y-98114500D01*
G75*
G02*
X155542000Y-98333250I0J-218750D01*
G01*
X155542000Y-98770750D01*
G75*
G02*
X155323250Y-98989500I-218750J0D01*
G01*
X154810750Y-98989500D01*
G75*
G02*
X154592000Y-98770750I0J218750D01*
G01*
X154592000Y-98333250D01*
G75*
G02*
X154810750Y-98114500I218750J0D01*
G01*
G37*
%TD.AperFunction*%
%TO.P,JP2,1*%
%TO.N,Net-(J8-Pad3)*%
%TA.AperFunction,SMDPad,CuDef*%
G36*
G01*
X154810750Y-96539500D02*
X155323250Y-96539500D01*
G75*
G02*
X155542000Y-96758250I0J-218750D01*
G01*
X155542000Y-97195750D01*
G75*
G02*
X155323250Y-97414500I-218750J0D01*
G01*
X154810750Y-97414500D01*
G75*
G02*
X154592000Y-97195750I0J218750D01*
G01*
X154592000Y-96758250D01*
G75*
G02*
X154810750Y-96539500I218750J0D01*
G01*
G37*
%TD.AperFunction*%
%TD*%
D15*
%TO.N,GNDREF*%
X157861000Y-84518500D03*
X162877500Y-79946500D03*
%TO.N,Net-(J2-Pad3)*%
X165862000Y-85598000D03*
%TO.N,Net-(J3-Pad1)*%
X164846000Y-85598000D03*
%TO.N,Net-(J3-Pad2)*%
X163830000Y-85598000D03*
%TO.N,Net-(J4-Pad1)*%
X161798000Y-85598000D03*
%TO.N,Net-(J4-Pad2)*%
X160782000Y-85598000D03*
%TO.N,Net-(J4-Pad3)*%
X160782000Y-88900000D03*
%TO.N,Net-(J6-Pad1)*%
X166878000Y-96012000D03*
%TO.N,Net-(D1-Pad2)*%
X196596000Y-79756000D03*
%TO.N,Net-(D2-Pad2)*%
X194818000Y-82296000D03*
%TO.N,VCC*%
X167640000Y-76454000D03*
X173228000Y-82169000D03*
%TO.N,GNDREF*%
X173228000Y-84328000D03*
X157289500Y-96520000D03*
X166878000Y-93599000D03*
%TO.N,Net-(D3-Pad2)*%
X196596000Y-84836000D03*
%TO.N,Net-(D4-Pad2)*%
X194818000Y-87376000D03*
%TO.N,Net-(J5-Pad1)*%
X161798000Y-88900000D03*
%TO.N,Net-(J9-Pad1)*%
X173228000Y-79502000D03*
%TO.N,Net-(D5-Pad2)*%
X196596000Y-89916000D03*
%TO.N,Net-(D6-Pad2)*%
X194818000Y-92456000D03*
%TO.N,Net-(D7-Pad2)*%
X196596000Y-94996000D03*
%TO.N,Net-(J3-Pad3)*%
X162814000Y-85598000D03*
%TD*%
D16*
%TO.N,Net-(C2-Pad1)*%
X165227000Y-92959802D02*
X165227000Y-93218000D01*
X164252000Y-90849000D02*
X164252000Y-91984802D01*
X164252000Y-91984802D02*
X165227000Y-92959802D01*
%TO.N,Net-(J1-Pad1)*%
X174625000Y-77216000D02*
X175641000Y-76200000D01*
X168802000Y-81181566D02*
X170695999Y-79287567D01*
X170695999Y-77565199D02*
X171045198Y-77216000D01*
X171045198Y-77216000D02*
X174625000Y-77216000D01*
X168802000Y-83649000D02*
X168802000Y-81181566D01*
X170695999Y-79287567D02*
X170695999Y-77565199D01*
%TO.N,Net-(J1-Pad6)*%
X189128500Y-76987500D02*
X188341000Y-76200000D01*
X189128500Y-78105000D02*
X189128500Y-76987500D01*
%TO.N,Net-(J2-Pad1)*%
X170058001Y-84828801D02*
X170058001Y-81539001D01*
X169981801Y-84905001D02*
X170058001Y-84828801D01*
X166972199Y-84905001D02*
X169981801Y-84905001D01*
X166852000Y-83649000D02*
X166852000Y-84784802D01*
X166852000Y-84784802D02*
X166972199Y-84905001D01*
X170772199Y-80814801D02*
X170825999Y-80761001D01*
X170058001Y-81539001D02*
X170772199Y-80824803D01*
X170772199Y-80824803D02*
X170772199Y-80814801D01*
X174889999Y-80761001D02*
X175641000Y-80010000D01*
X170825999Y-80761001D02*
X174889999Y-80761001D01*
X166852000Y-82639236D02*
X166852000Y-83649000D01*
X163337764Y-79125000D02*
X166852000Y-82639236D01*
X161417000Y-79125000D02*
X163337764Y-79125000D01*
%TO.N,Net-(J2-Pad2)*%
X170192226Y-85413010D02*
X170566011Y-85039225D01*
X166202000Y-84853236D02*
X166761775Y-85413011D01*
X166761775Y-85413011D02*
X170192226Y-85413010D01*
X170566011Y-85039225D02*
X170566011Y-81782989D01*
X170688000Y-81661000D02*
X170688000Y-81627436D01*
X170566011Y-81782989D02*
X170688000Y-81661000D01*
X170688000Y-81627436D02*
X171046425Y-81269011D01*
X178026802Y-80010000D02*
X178181000Y-80010000D01*
X176767791Y-81269011D02*
X178026802Y-80010000D01*
X171046425Y-81269011D02*
X176767791Y-81269011D01*
X166202000Y-84853236D02*
X166202000Y-83649000D01*
%TO.N,Net-(J2-Pad3)*%
X165552000Y-85288000D02*
X165862000Y-85598000D01*
X165552000Y-83649000D02*
X165552000Y-85288000D01*
%TO.N,Net-(J3-Pad1)*%
X164846000Y-85378802D02*
X164846000Y-85598000D01*
X164252000Y-84784802D02*
X164846000Y-85378802D01*
X164252000Y-83649000D02*
X164252000Y-84784802D01*
%TO.N,Net-(J3-Pad2)*%
X163602000Y-85370000D02*
X163830000Y-85598000D01*
X163602000Y-83649000D02*
X163602000Y-85370000D01*
%TO.N,Net-(J4-Pad1)*%
X161798000Y-85486238D02*
X161798000Y-85598000D01*
X162302000Y-84982238D02*
X161798000Y-85486238D01*
X162302000Y-83649000D02*
X162302000Y-84982238D01*
%TO.N,Net-(J4-Pad2)*%
X161002000Y-85378000D02*
X160782000Y-85598000D01*
X161002000Y-83649000D02*
X161002000Y-85378000D01*
%TO.N,Net-(J4-Pad3)*%
X161002000Y-89120000D02*
X160782000Y-88900000D01*
X161002000Y-90849000D02*
X161002000Y-89120000D01*
%TO.N,Net-(J6-Pad1)*%
X174498000Y-96393000D02*
X175641000Y-95250000D01*
X173839538Y-96393000D02*
X174498000Y-96393000D01*
X164902000Y-89371031D02*
X167220082Y-87052952D01*
X173081560Y-89100588D02*
X173081560Y-95635022D01*
X164902000Y-90849000D02*
X164902000Y-89371031D01*
X173081560Y-95635022D02*
X173839538Y-96393000D01*
X171033925Y-87052953D02*
X173081560Y-89100588D01*
X167220082Y-87052952D02*
X171033925Y-87052953D01*
X168914000Y-96012000D02*
X169037000Y-96135000D01*
X166878000Y-96012000D02*
X168914000Y-96012000D01*
%TO.N,Net-(J6-Pad2)*%
X165552000Y-90849000D02*
X165552000Y-89439463D01*
X170823500Y-87560962D02*
X172573550Y-89311012D01*
X165552000Y-89439463D02*
X167430505Y-87560961D01*
X167430505Y-87560961D02*
X170823500Y-87560962D01*
X172573550Y-89311012D02*
X172573550Y-95845446D01*
X172573550Y-95845446D02*
X174049093Y-97320989D01*
X176110011Y-97320989D02*
X178181000Y-95250000D01*
X174049093Y-97320989D02*
X176110011Y-97320989D01*
%TO.N,Net-(J6-Pad3)*%
X167640928Y-88068970D02*
X170613075Y-88068971D01*
X166202000Y-90849000D02*
X166202000Y-89507896D01*
X170613075Y-88068971D02*
X172065540Y-89521436D01*
X166202000Y-89507896D02*
X167640928Y-88068970D01*
X172065540Y-89521436D02*
X172065540Y-96055870D01*
X178142001Y-97828999D02*
X180721000Y-95250000D01*
X173838669Y-97828999D02*
X178142001Y-97828999D01*
X172065540Y-96055870D02*
X173838669Y-97828999D01*
%TO.N,Net-(J6-Pad6)*%
X189128500Y-96037500D02*
X188341000Y-95250000D01*
X189128500Y-97155000D02*
X189128500Y-96037500D01*
%TO.N,Net-(D1-Pad2)*%
X196596000Y-78651000D02*
X196596000Y-79756000D01*
X193357500Y-75412500D02*
X196596000Y-78651000D01*
%TO.N,Net-(D2-Pad2)*%
X194818000Y-80683000D02*
X194818000Y-82296000D01*
X193357500Y-79222500D02*
X194818000Y-80683000D01*
%TO.N,VCC*%
X169452000Y-92566000D02*
X169723000Y-92837000D01*
X169452000Y-90849000D02*
X169452000Y-92566000D01*
X161652000Y-82569000D02*
X162560000Y-81661000D01*
X161652000Y-83649000D02*
X161652000Y-82569000D01*
D17*
X181102000Y-82169000D02*
X183261000Y-80010000D01*
X173228000Y-82169000D02*
X181102000Y-82169000D01*
X183261000Y-76200000D02*
X183261000Y-80010000D01*
X183261000Y-80010000D02*
X183261000Y-83820000D01*
X183261000Y-83820000D02*
X183261000Y-87630000D01*
X183261000Y-87630000D02*
X183261000Y-91440000D01*
X183261000Y-91440000D02*
X183261000Y-95250000D01*
X183261000Y-95250000D02*
X183261000Y-99060000D01*
X154686000Y-81661000D02*
X153797000Y-82550000D01*
X162560000Y-81661000D02*
X154686000Y-81661000D01*
X152425010Y-96385010D02*
X152425010Y-83921990D01*
X152425010Y-83921990D02*
X153797000Y-82550000D01*
X154592000Y-98552000D02*
X152425010Y-96385010D01*
X155067000Y-98552000D02*
X154592000Y-98552000D01*
X165354000Y-97407402D02*
X164844402Y-97917000D01*
X164844402Y-97917000D02*
X164844402Y-97918598D01*
X164844402Y-97918598D02*
X164465000Y-98298000D01*
X164465000Y-98298000D02*
X163195000Y-98298000D01*
X163195000Y-98298000D02*
X162306000Y-97409000D01*
X162306000Y-97409000D02*
X160655000Y-97409000D01*
X159512000Y-98552000D02*
X155067000Y-98552000D01*
X160655000Y-97409000D02*
X159512000Y-98552000D01*
X168279000Y-75815000D02*
X167640000Y-76454000D01*
X169037000Y-75815000D02*
X168279000Y-75815000D01*
X167100679Y-94473599D02*
X168086401Y-94473599D01*
X165354000Y-96220278D02*
X167100679Y-94473599D01*
X168086401Y-94473599D02*
X169723000Y-92837000D01*
X165354000Y-97407402D02*
X165354000Y-96220278D01*
D16*
%TO.N,GNDREF*%
X168802000Y-92183000D02*
X168148000Y-92837000D01*
X168802000Y-90849000D02*
X168802000Y-92183000D01*
X164902000Y-82428000D02*
X164135000Y-81661000D01*
X164902000Y-83649000D02*
X164902000Y-82428000D01*
X163602000Y-92668000D02*
X163602000Y-90849000D01*
X163052000Y-93218000D02*
X163602000Y-92668000D01*
X162427000Y-93218000D02*
X163052000Y-93218000D01*
D17*
X166755000Y-78867000D02*
X166497000Y-79125000D01*
X164135000Y-81204000D02*
X162877500Y-79946500D01*
X164135000Y-81661000D02*
X164135000Y-81204000D01*
D16*
%TO.N,Net-(D3-Pad2)*%
X195161000Y-84836000D02*
X196596000Y-84836000D01*
X193357500Y-83032500D02*
X195161000Y-84836000D01*
%TO.N,Net-(D4-Pad2)*%
X194284500Y-86842500D02*
X194818000Y-87376000D01*
X193357500Y-86842500D02*
X194284500Y-86842500D01*
%TO.N,Net-(J3-Pad6)*%
X189128500Y-84607500D02*
X188341000Y-83820000D01*
X189128500Y-85725000D02*
X189128500Y-84607500D01*
%TO.N,Net-(J3-Pad7)*%
X192570000Y-83820000D02*
X193357500Y-84607500D01*
X190881000Y-83820000D02*
X192570000Y-83820000D01*
%TO.N,Net-(J4-Pad6)*%
X189128500Y-88417500D02*
X188341000Y-87630000D01*
X189128500Y-89535000D02*
X189128500Y-88417500D01*
%TO.N,Net-(J4-Pad7)*%
X192570000Y-87630000D02*
X193357500Y-88417500D01*
X190881000Y-87630000D02*
X192570000Y-87630000D01*
%TO.N,Net-(J5-Pad1)*%
X161652000Y-89046000D02*
X161798000Y-88900000D01*
X161652000Y-90849000D02*
X161652000Y-89046000D01*
%TO.N,Net-(J5-Pad2)*%
X174878990Y-93471990D02*
X176149010Y-93471990D01*
X174117000Y-92710000D02*
X174878990Y-93471990D01*
X174097580Y-92710000D02*
X174117000Y-92710000D01*
X174097580Y-88679740D02*
X174097580Y-92710000D01*
X171454775Y-86036935D02*
X174097580Y-88679740D01*
X162302000Y-89644764D02*
X163554774Y-88391990D01*
X162302000Y-90849000D02*
X162302000Y-89644764D01*
X176149010Y-93471990D02*
X178181000Y-91440000D01*
X163554774Y-88391990D02*
X164444175Y-88391990D01*
X166799236Y-86036934D02*
X171454775Y-86036935D01*
X164444175Y-88391990D02*
X166799236Y-86036934D01*
%TO.N,Net-(J5-Pad3)*%
X174498000Y-93980000D02*
X178181000Y-93980000D01*
X173589570Y-88890164D02*
X173589570Y-93071570D01*
X171244350Y-86544944D02*
X173589570Y-88890164D01*
X162952000Y-89713198D02*
X163765198Y-88900000D01*
X163765198Y-88900000D02*
X164654599Y-88900000D01*
X167009659Y-86544943D02*
X171244350Y-86544944D01*
X162952000Y-90849000D02*
X162952000Y-89713198D01*
X178181000Y-93980000D02*
X180721000Y-91440000D01*
X173589570Y-93071570D02*
X174498000Y-93980000D01*
X164654599Y-88900000D02*
X167009659Y-86544943D01*
%TO.N,Net-(J5-Pad6)*%
X189128500Y-92227500D02*
X188341000Y-91440000D01*
X189128500Y-93345000D02*
X189128500Y-92227500D01*
%TO.N,Net-(J5-Pad7)*%
X192570000Y-91440000D02*
X193357500Y-92227500D01*
X190881000Y-91440000D02*
X192570000Y-91440000D01*
%TO.N,Net-(J7-Pad7)*%
X192570000Y-99060000D02*
X193357500Y-99847500D01*
X190881000Y-99060000D02*
X192570000Y-99060000D01*
%TO.N,Net-(J7-Pad6)*%
X189128500Y-99847500D02*
X188341000Y-99060000D01*
X189128500Y-100838000D02*
X189128500Y-99847500D01*
%TO.N,Net-(J7-Pad3)*%
X170541510Y-97071292D02*
X168167802Y-99445000D01*
X170541510Y-90152708D02*
X170541510Y-97071292D01*
X169981801Y-89592999D02*
X170541510Y-90152708D01*
X168272199Y-89592999D02*
X169981801Y-89592999D01*
X168152000Y-89713198D02*
X168272199Y-89592999D01*
X168167802Y-99445000D02*
X166497000Y-99445000D01*
X168152000Y-90849000D02*
X168152000Y-89713198D01*
X166497000Y-99445000D02*
X168245990Y-101193990D01*
X178587010Y-101193990D02*
X180721000Y-99060000D01*
X168245990Y-101193990D02*
X178587010Y-101193990D01*
%TO.N,Net-(J7-Pad2)*%
X170192225Y-89084989D02*
X171049520Y-89942284D01*
X168061775Y-89084989D02*
X170192225Y-89084989D01*
X167502000Y-90849000D02*
X167502000Y-89644764D01*
X167502000Y-89644764D02*
X168061775Y-89084989D01*
X171049520Y-89942284D02*
X171049520Y-96627520D01*
X171200322Y-96627520D02*
X172466000Y-97893198D01*
X171049520Y-96627520D02*
X171200322Y-96627520D01*
X172466000Y-100203000D02*
X172948980Y-100685980D01*
X172466000Y-97893198D02*
X172466000Y-100203000D01*
X176555020Y-100685980D02*
X178181000Y-99060000D01*
X172948980Y-100685980D02*
X176555020Y-100685980D01*
%TO.N,Net-(J7-Pad1)*%
X174523030Y-100177970D02*
X175641000Y-99060000D01*
X173202970Y-100177970D02*
X174523030Y-100177970D01*
X172974010Y-99949010D02*
X173202970Y-100177970D01*
X172974010Y-97682774D02*
X172974010Y-99949010D01*
X171557530Y-96266294D02*
X172974010Y-97682774D01*
X166852000Y-89576330D02*
X167851351Y-88576979D01*
X166852000Y-90849000D02*
X166852000Y-89576330D01*
X167851351Y-88576979D02*
X170402650Y-88576980D01*
X170402650Y-88576980D02*
X171557530Y-89731860D01*
X171557530Y-89731860D02*
X171557530Y-96266294D01*
%TO.N,Net-(J8-Pad3)*%
X157545001Y-94498999D02*
X159776999Y-94498999D01*
X155067000Y-96977000D02*
X157545001Y-94498999D01*
X161413000Y-96135000D02*
X163957000Y-96135000D01*
X159776999Y-94498999D02*
X161413000Y-96135000D01*
%TO.N,Net-(J9-Pad1)*%
X169452000Y-81250000D02*
X171577000Y-79125000D01*
X169452000Y-83649000D02*
X169452000Y-81250000D01*
X171954000Y-79502000D02*
X171577000Y-79125000D01*
X173228000Y-79502000D02*
X171954000Y-79502000D01*
%TO.N,Net-(D5-Pad2)*%
X195859500Y-90652500D02*
X196596000Y-89916000D01*
X193357500Y-90652500D02*
X195859500Y-90652500D01*
%TO.N,Net-(D6-Pad2)*%
X193357500Y-93916500D02*
X194818000Y-92456000D01*
X193357500Y-94462500D02*
X193357500Y-93916500D01*
%TO.N,Net-(D7-Pad2)*%
X193357500Y-98234500D02*
X196596000Y-94996000D01*
X193357500Y-98272500D02*
X193357500Y-98234500D01*
%TO.N,Net-(J1-Pad2)*%
X168152000Y-83649000D02*
X168152000Y-81113132D01*
X170187989Y-79077143D02*
X170187990Y-77354774D01*
X168152000Y-81113132D02*
X170187989Y-79077143D01*
X170187990Y-77354774D02*
X170834774Y-76707990D01*
X176949999Y-74968999D02*
X178181000Y-76200000D01*
X174459001Y-74968999D02*
X176949999Y-74968999D01*
X172720010Y-76707990D02*
X174459001Y-74968999D01*
X170834774Y-76707990D02*
X172720010Y-76707990D01*
%TO.N,Net-(J1-Pad3)*%
X165593001Y-74178999D02*
X163957000Y-75815000D01*
X178699999Y-74178999D02*
X165593001Y-74178999D01*
X180721000Y-76200000D02*
X178699999Y-74178999D01*
X165627802Y-75815000D02*
X163957000Y-75815000D01*
X167502000Y-77689198D02*
X165627802Y-75815000D01*
X167502000Y-83649000D02*
X167502000Y-77689198D01*
%TO.N,Net-(J1-Pad7)*%
X192570000Y-76200000D02*
X193357500Y-76987500D01*
X190881000Y-76200000D02*
X192570000Y-76200000D01*
%TO.N,Net-(J2-Pad6)*%
X189128500Y-80797500D02*
X188341000Y-80010000D01*
X189128500Y-81915000D02*
X189128500Y-80797500D01*
%TO.N,Net-(J2-Pad7)*%
X192570000Y-80010000D02*
X193357500Y-80797500D01*
X190881000Y-80010000D02*
X192570000Y-80010000D01*
%TO.N,Net-(J3-Pad3)*%
X162952000Y-85460000D02*
X162814000Y-85598000D01*
X162952000Y-83649000D02*
X162952000Y-85460000D01*
%TO.N,Net-(J6-Pad7)*%
X192570000Y-95250000D02*
X193357500Y-96037500D01*
X190881000Y-95250000D02*
X192570000Y-95250000D01*
%TD*%
%TO.N,GNDREF*%
G36*
X195667443Y-74093841D02*
G01*
X195669081Y-74099268D01*
X195760699Y-74395239D01*
X195774981Y-74429215D01*
X195788744Y-74463279D01*
X195791405Y-74468285D01*
X195938766Y-74740823D01*
X195959366Y-74771364D01*
X195979492Y-74802119D01*
X195983074Y-74806513D01*
X196180565Y-75045238D01*
X196206682Y-75071173D01*
X196232422Y-75097458D01*
X196236790Y-75101072D01*
X196476888Y-75296890D01*
X196507527Y-75317247D01*
X196537898Y-75338042D01*
X196542882Y-75340737D01*
X196542890Y-75340741D01*
X196816445Y-75486193D01*
X196850485Y-75500224D01*
X196884289Y-75514712D01*
X196889697Y-75516387D01*
X196889703Y-75516389D01*
X196889709Y-75516390D01*
X197186306Y-75605938D01*
X197206001Y-75609838D01*
X197206001Y-79297367D01*
X197187884Y-79270253D01*
X197104000Y-79186369D01*
X197104000Y-78675944D01*
X197106457Y-78651000D01*
X197102866Y-78614543D01*
X197096649Y-78551415D01*
X197067601Y-78455657D01*
X197020429Y-78367405D01*
X196956948Y-78290052D01*
X196937565Y-78274145D01*
X194215343Y-75551923D01*
X194215343Y-75193750D01*
X194203784Y-75076385D01*
X194169549Y-74963530D01*
X194113956Y-74859523D01*
X194039140Y-74768360D01*
X193947977Y-74693544D01*
X193843970Y-74637951D01*
X193731115Y-74603716D01*
X193613750Y-74592157D01*
X193101250Y-74592157D01*
X192983885Y-74603716D01*
X192871030Y-74637951D01*
X192767023Y-74693544D01*
X192675860Y-74768360D01*
X192601044Y-74859523D01*
X192545451Y-74963530D01*
X192511216Y-75076385D01*
X192499657Y-75193750D01*
X192499657Y-75631250D01*
X192505640Y-75692000D01*
X192003004Y-75692000D01*
X191971898Y-75616903D01*
X191837180Y-75415283D01*
X191665717Y-75243820D01*
X191464097Y-75109102D01*
X191240069Y-75016307D01*
X191002243Y-74969000D01*
X190759757Y-74969000D01*
X190521931Y-75016307D01*
X190297903Y-75109102D01*
X190096283Y-75243820D01*
X189924820Y-75415283D01*
X189790102Y-75616903D01*
X189697307Y-75840931D01*
X189650000Y-76078757D01*
X189650000Y-76321243D01*
X189697307Y-76559069D01*
X189790102Y-76783097D01*
X189924820Y-76984717D01*
X190096283Y-77156180D01*
X190297903Y-77290898D01*
X190521931Y-77383693D01*
X190759757Y-77431000D01*
X191002243Y-77431000D01*
X191240069Y-77383693D01*
X191464097Y-77290898D01*
X191665717Y-77156180D01*
X191837180Y-76984717D01*
X191971898Y-76783097D01*
X192003004Y-76708000D01*
X192359580Y-76708000D01*
X192499657Y-76848077D01*
X192499657Y-77206250D01*
X192511216Y-77323615D01*
X192545451Y-77436470D01*
X192601044Y-77540477D01*
X192675860Y-77631640D01*
X192767023Y-77706456D01*
X192871030Y-77762049D01*
X192983885Y-77796284D01*
X193101250Y-77807843D01*
X193613750Y-77807843D01*
X193731115Y-77796284D01*
X193843970Y-77762049D01*
X193947977Y-77706456D01*
X194039140Y-77631640D01*
X194113956Y-77540477D01*
X194169549Y-77436470D01*
X194203784Y-77323615D01*
X194215343Y-77206250D01*
X194215343Y-76988763D01*
X196088000Y-78861420D01*
X196088000Y-79186369D01*
X196004116Y-79270253D01*
X195920724Y-79395058D01*
X195863283Y-79533733D01*
X195834000Y-79680950D01*
X195834000Y-79831050D01*
X195863283Y-79978267D01*
X195920724Y-80116942D01*
X196004116Y-80241747D01*
X196110253Y-80347884D01*
X196235058Y-80431276D01*
X196373733Y-80488717D01*
X196520950Y-80518000D01*
X196671050Y-80518000D01*
X196818267Y-80488717D01*
X196956942Y-80431276D01*
X197081747Y-80347884D01*
X197187884Y-80241747D01*
X197206001Y-80214633D01*
X197206001Y-84377366D01*
X197187884Y-84350253D01*
X197081747Y-84244116D01*
X196956942Y-84160724D01*
X196818267Y-84103283D01*
X196671050Y-84074000D01*
X196520950Y-84074000D01*
X196373733Y-84103283D01*
X196235058Y-84160724D01*
X196110253Y-84244116D01*
X196026369Y-84328000D01*
X195371421Y-84328000D01*
X194215343Y-83171923D01*
X194215343Y-82813750D01*
X194209784Y-82757304D01*
X194226116Y-82781747D01*
X194332253Y-82887884D01*
X194457058Y-82971276D01*
X194595733Y-83028717D01*
X194742950Y-83058000D01*
X194893050Y-83058000D01*
X195040267Y-83028717D01*
X195178942Y-82971276D01*
X195303747Y-82887884D01*
X195409884Y-82781747D01*
X195493276Y-82656942D01*
X195550717Y-82518267D01*
X195580000Y-82371050D01*
X195580000Y-82220950D01*
X195550717Y-82073733D01*
X195493276Y-81935058D01*
X195409884Y-81810253D01*
X195326000Y-81726369D01*
X195326000Y-80707944D01*
X195328457Y-80683000D01*
X195325017Y-80648072D01*
X195318649Y-80583415D01*
X195289601Y-80487657D01*
X195259465Y-80431276D01*
X195242429Y-80399404D01*
X195213779Y-80364494D01*
X195178948Y-80322052D01*
X195159565Y-80306145D01*
X194215343Y-79361923D01*
X194215343Y-79003750D01*
X194203784Y-78886385D01*
X194169549Y-78773530D01*
X194113956Y-78669523D01*
X194039140Y-78578360D01*
X193947977Y-78503544D01*
X193843970Y-78447951D01*
X193731115Y-78413716D01*
X193613750Y-78402157D01*
X193101250Y-78402157D01*
X192983885Y-78413716D01*
X192871030Y-78447951D01*
X192767023Y-78503544D01*
X192675860Y-78578360D01*
X192601044Y-78669523D01*
X192545451Y-78773530D01*
X192511216Y-78886385D01*
X192499657Y-79003750D01*
X192499657Y-79441250D01*
X192505640Y-79502000D01*
X192003004Y-79502000D01*
X191971898Y-79426903D01*
X191837180Y-79225283D01*
X191665717Y-79053820D01*
X191464097Y-78919102D01*
X191240069Y-78826307D01*
X191002243Y-78779000D01*
X190759757Y-78779000D01*
X190521931Y-78826307D01*
X190297903Y-78919102D01*
X190096283Y-79053820D01*
X189924820Y-79225283D01*
X189790102Y-79426903D01*
X189697307Y-79650931D01*
X189650000Y-79888757D01*
X189650000Y-80131243D01*
X189697307Y-80369069D01*
X189790102Y-80593097D01*
X189924820Y-80794717D01*
X190096283Y-80966180D01*
X190297903Y-81100898D01*
X190521931Y-81193693D01*
X190759757Y-81241000D01*
X191002243Y-81241000D01*
X191240069Y-81193693D01*
X191464097Y-81100898D01*
X191665717Y-80966180D01*
X191837180Y-80794717D01*
X191971898Y-80593097D01*
X192003004Y-80518000D01*
X192359580Y-80518000D01*
X192499657Y-80658077D01*
X192499657Y-81016250D01*
X192511216Y-81133615D01*
X192545451Y-81246470D01*
X192601044Y-81350477D01*
X192675860Y-81441640D01*
X192767023Y-81516456D01*
X192871030Y-81572049D01*
X192983885Y-81606284D01*
X193101250Y-81617843D01*
X193613750Y-81617843D01*
X193731115Y-81606284D01*
X193843970Y-81572049D01*
X193947977Y-81516456D01*
X194039140Y-81441640D01*
X194113956Y-81350477D01*
X194169549Y-81246470D01*
X194203784Y-81133615D01*
X194215343Y-81016250D01*
X194215343Y-80798763D01*
X194310000Y-80893420D01*
X194310001Y-81726368D01*
X194226116Y-81810253D01*
X194142724Y-81935058D01*
X194085283Y-82073733D01*
X194056000Y-82220950D01*
X194056000Y-82371050D01*
X194065938Y-82421014D01*
X194039140Y-82388360D01*
X193947977Y-82313544D01*
X193843970Y-82257951D01*
X193731115Y-82223716D01*
X193613750Y-82212157D01*
X193101250Y-82212157D01*
X192983885Y-82223716D01*
X192871030Y-82257951D01*
X192767023Y-82313544D01*
X192675860Y-82388360D01*
X192601044Y-82479523D01*
X192545451Y-82583530D01*
X192511216Y-82696385D01*
X192499657Y-82813750D01*
X192499657Y-83251250D01*
X192505640Y-83312000D01*
X192003004Y-83312000D01*
X191971898Y-83236903D01*
X191837180Y-83035283D01*
X191665717Y-82863820D01*
X191464097Y-82729102D01*
X191240069Y-82636307D01*
X191002243Y-82589000D01*
X190759757Y-82589000D01*
X190521931Y-82636307D01*
X190297903Y-82729102D01*
X190096283Y-82863820D01*
X189924820Y-83035283D01*
X189790102Y-83236903D01*
X189697307Y-83460931D01*
X189650000Y-83698757D01*
X189650000Y-83941243D01*
X189697307Y-84179069D01*
X189790102Y-84403097D01*
X189924820Y-84604717D01*
X190096283Y-84776180D01*
X190297903Y-84910898D01*
X190521931Y-85003693D01*
X190759757Y-85051000D01*
X191002243Y-85051000D01*
X191240069Y-85003693D01*
X191464097Y-84910898D01*
X191665717Y-84776180D01*
X191837180Y-84604717D01*
X191971898Y-84403097D01*
X192003004Y-84328000D01*
X192359580Y-84328000D01*
X192499657Y-84468077D01*
X192499657Y-84826250D01*
X192511216Y-84943615D01*
X192545451Y-85056470D01*
X192601044Y-85160477D01*
X192675860Y-85251640D01*
X192767023Y-85326456D01*
X192871030Y-85382049D01*
X192983885Y-85416284D01*
X193101250Y-85427843D01*
X193613750Y-85427843D01*
X193731115Y-85416284D01*
X193843970Y-85382049D01*
X193947977Y-85326456D01*
X194039140Y-85251640D01*
X194113956Y-85160477D01*
X194169549Y-85056470D01*
X194203784Y-84943615D01*
X194215343Y-84826250D01*
X194215343Y-84608764D01*
X194784150Y-85177571D01*
X194800052Y-85196948D01*
X194819429Y-85212850D01*
X194877404Y-85260429D01*
X194965655Y-85307600D01*
X194965657Y-85307601D01*
X195061415Y-85336649D01*
X195136053Y-85344000D01*
X195136055Y-85344000D01*
X195160999Y-85346457D01*
X195185943Y-85344000D01*
X196026369Y-85344000D01*
X196110253Y-85427884D01*
X196235058Y-85511276D01*
X196373733Y-85568717D01*
X196520950Y-85598000D01*
X196671050Y-85598000D01*
X196818267Y-85568717D01*
X196956942Y-85511276D01*
X197081747Y-85427884D01*
X197187884Y-85321747D01*
X197206001Y-85294634D01*
X197206001Y-86416847D01*
X195719700Y-86416847D01*
X195719700Y-88843152D01*
X197206000Y-88843152D01*
X197206000Y-89457366D01*
X197187884Y-89430253D01*
X197081747Y-89324116D01*
X196956942Y-89240724D01*
X196818267Y-89183283D01*
X196671050Y-89154000D01*
X196520950Y-89154000D01*
X196373733Y-89183283D01*
X196235058Y-89240724D01*
X196110253Y-89324116D01*
X196004116Y-89430253D01*
X195920724Y-89555058D01*
X195863283Y-89693733D01*
X195834000Y-89840950D01*
X195834000Y-89959580D01*
X195649080Y-90144500D01*
X194137997Y-90144500D01*
X194113956Y-90099523D01*
X194039140Y-90008360D01*
X193947977Y-89933544D01*
X193843970Y-89877951D01*
X193731115Y-89843716D01*
X193613750Y-89832157D01*
X193101250Y-89832157D01*
X192983885Y-89843716D01*
X192871030Y-89877951D01*
X192767023Y-89933544D01*
X192675860Y-90008360D01*
X192601044Y-90099523D01*
X192545451Y-90203530D01*
X192511216Y-90316385D01*
X192499657Y-90433750D01*
X192499657Y-90871250D01*
X192505640Y-90932000D01*
X192003004Y-90932000D01*
X191971898Y-90856903D01*
X191837180Y-90655283D01*
X191665717Y-90483820D01*
X191464097Y-90349102D01*
X191240069Y-90256307D01*
X191002243Y-90209000D01*
X190759757Y-90209000D01*
X190521931Y-90256307D01*
X190297903Y-90349102D01*
X190096283Y-90483820D01*
X189924820Y-90655283D01*
X189790102Y-90856903D01*
X189697307Y-91080931D01*
X189650000Y-91318757D01*
X189650000Y-91561243D01*
X189697307Y-91799069D01*
X189790102Y-92023097D01*
X189924820Y-92224717D01*
X190096283Y-92396180D01*
X190297903Y-92530898D01*
X190521931Y-92623693D01*
X190759757Y-92671000D01*
X191002243Y-92671000D01*
X191240069Y-92623693D01*
X191464097Y-92530898D01*
X191665717Y-92396180D01*
X191837180Y-92224717D01*
X191971898Y-92023097D01*
X192003004Y-91948000D01*
X192359580Y-91948000D01*
X192499657Y-92088077D01*
X192499657Y-92446250D01*
X192511216Y-92563615D01*
X192545451Y-92676470D01*
X192601044Y-92780477D01*
X192675860Y-92871640D01*
X192767023Y-92946456D01*
X192871030Y-93002049D01*
X192983885Y-93036284D01*
X193101250Y-93047843D01*
X193507737Y-93047843D01*
X193015930Y-93539650D01*
X192996553Y-93555552D01*
X192980651Y-93574929D01*
X192980650Y-93574930D01*
X192933071Y-93632905D01*
X192909961Y-93676141D01*
X192871030Y-93687951D01*
X192767023Y-93743544D01*
X192675860Y-93818360D01*
X192601044Y-93909523D01*
X192545451Y-94013530D01*
X192511216Y-94126385D01*
X192499657Y-94243750D01*
X192499657Y-94681250D01*
X192505640Y-94742000D01*
X192003004Y-94742000D01*
X191971898Y-94666903D01*
X191837180Y-94465283D01*
X191665717Y-94293820D01*
X191464097Y-94159102D01*
X191240069Y-94066307D01*
X191002243Y-94019000D01*
X190759757Y-94019000D01*
X190521931Y-94066307D01*
X190297903Y-94159102D01*
X190096283Y-94293820D01*
X189924820Y-94465283D01*
X189790102Y-94666903D01*
X189697307Y-94890931D01*
X189650000Y-95128757D01*
X189650000Y-95371243D01*
X189697307Y-95609069D01*
X189790102Y-95833097D01*
X189924820Y-96034717D01*
X190096283Y-96206180D01*
X190297903Y-96340898D01*
X190521931Y-96433693D01*
X190759757Y-96481000D01*
X191002243Y-96481000D01*
X191240069Y-96433693D01*
X191464097Y-96340898D01*
X191665717Y-96206180D01*
X191837180Y-96034717D01*
X191971898Y-95833097D01*
X192003004Y-95758000D01*
X192359580Y-95758000D01*
X192499657Y-95898077D01*
X192499657Y-96256250D01*
X192511216Y-96373615D01*
X192545451Y-96486470D01*
X192601044Y-96590477D01*
X192675860Y-96681640D01*
X192767023Y-96756456D01*
X192871030Y-96812049D01*
X192983885Y-96846284D01*
X193101250Y-96857843D01*
X193613750Y-96857843D01*
X193731115Y-96846284D01*
X193843970Y-96812049D01*
X193947977Y-96756456D01*
X194039140Y-96681640D01*
X194113956Y-96590477D01*
X194169549Y-96486470D01*
X194203784Y-96373615D01*
X194215343Y-96256250D01*
X194215343Y-95818750D01*
X194203784Y-95701385D01*
X194169549Y-95588530D01*
X194113956Y-95484523D01*
X194039140Y-95393360D01*
X193947977Y-95318544D01*
X193843970Y-95262951D01*
X193801277Y-95250000D01*
X193843970Y-95237049D01*
X193947977Y-95181456D01*
X194039140Y-95106640D01*
X194113956Y-95015477D01*
X194169549Y-94911470D01*
X194203784Y-94798615D01*
X194215343Y-94681250D01*
X194215343Y-94243750D01*
X194203784Y-94126385D01*
X194169549Y-94013530D01*
X194113956Y-93909523D01*
X194099956Y-93892464D01*
X194774420Y-93218000D01*
X194893050Y-93218000D01*
X195040267Y-93188717D01*
X195178942Y-93131276D01*
X195303747Y-93047884D01*
X195409884Y-92941747D01*
X195493276Y-92816942D01*
X195550717Y-92678267D01*
X195580000Y-92531050D01*
X195580000Y-92380950D01*
X195550717Y-92233733D01*
X195493276Y-92095058D01*
X195409884Y-91970253D01*
X195303747Y-91864116D01*
X195178942Y-91780724D01*
X195040267Y-91723283D01*
X194893050Y-91694000D01*
X194742950Y-91694000D01*
X194595733Y-91723283D01*
X194457058Y-91780724D01*
X194332253Y-91864116D01*
X194226116Y-91970253D01*
X194213423Y-91989250D01*
X194203784Y-91891385D01*
X194169549Y-91778530D01*
X194113956Y-91674523D01*
X194039140Y-91583360D01*
X193947977Y-91508544D01*
X193843970Y-91452951D01*
X193801277Y-91440000D01*
X193843970Y-91427049D01*
X193947977Y-91371456D01*
X194039140Y-91296640D01*
X194113956Y-91205477D01*
X194137997Y-91160500D01*
X195834556Y-91160500D01*
X195859500Y-91162957D01*
X195884444Y-91160500D01*
X195884447Y-91160500D01*
X195959085Y-91153149D01*
X196054843Y-91124101D01*
X196143095Y-91076929D01*
X196220448Y-91013448D01*
X196236355Y-90994065D01*
X196552420Y-90678000D01*
X196671050Y-90678000D01*
X196818267Y-90648717D01*
X196956942Y-90591276D01*
X197081747Y-90507884D01*
X197187884Y-90401747D01*
X197206000Y-90374634D01*
X197206000Y-94537366D01*
X197187884Y-94510253D01*
X197081747Y-94404116D01*
X196956942Y-94320724D01*
X196818267Y-94263283D01*
X196671050Y-94234000D01*
X196520950Y-94234000D01*
X196373733Y-94263283D01*
X196235058Y-94320724D01*
X196110253Y-94404116D01*
X196004116Y-94510253D01*
X195920724Y-94635058D01*
X195863283Y-94773733D01*
X195834000Y-94920950D01*
X195834000Y-95039580D01*
X193421423Y-97452157D01*
X193101250Y-97452157D01*
X192983885Y-97463716D01*
X192871030Y-97497951D01*
X192767023Y-97553544D01*
X192675860Y-97628360D01*
X192601044Y-97719523D01*
X192545451Y-97823530D01*
X192511216Y-97936385D01*
X192499657Y-98053750D01*
X192499657Y-98491250D01*
X192505640Y-98552000D01*
X192003004Y-98552000D01*
X191971898Y-98476903D01*
X191837180Y-98275283D01*
X191665717Y-98103820D01*
X191464097Y-97969102D01*
X191240069Y-97876307D01*
X191002243Y-97829000D01*
X190759757Y-97829000D01*
X190521931Y-97876307D01*
X190297903Y-97969102D01*
X190096283Y-98103820D01*
X189924820Y-98275283D01*
X189790102Y-98476903D01*
X189697307Y-98700931D01*
X189650000Y-98938757D01*
X189650000Y-99181243D01*
X189697307Y-99419069D01*
X189790102Y-99643097D01*
X189924820Y-99844717D01*
X190096283Y-100016180D01*
X190297903Y-100150898D01*
X190521931Y-100243693D01*
X190759757Y-100291000D01*
X191002243Y-100291000D01*
X191240069Y-100243693D01*
X191464097Y-100150898D01*
X191665717Y-100016180D01*
X191837180Y-99844717D01*
X191971898Y-99643097D01*
X192003004Y-99568000D01*
X192359580Y-99568000D01*
X192499657Y-99708077D01*
X192499657Y-100066250D01*
X192511216Y-100183615D01*
X192545451Y-100296470D01*
X192601044Y-100400477D01*
X192675860Y-100491640D01*
X192767023Y-100566456D01*
X192871030Y-100622049D01*
X192983885Y-100656284D01*
X193101250Y-100667843D01*
X193613750Y-100667843D01*
X193731115Y-100656284D01*
X193843970Y-100622049D01*
X193947977Y-100566456D01*
X194039140Y-100491640D01*
X194113956Y-100400477D01*
X194169549Y-100296470D01*
X194203784Y-100183615D01*
X194215343Y-100066250D01*
X194215343Y-99628750D01*
X194203784Y-99511385D01*
X194169549Y-99398530D01*
X194113956Y-99294523D01*
X194039140Y-99203360D01*
X193947977Y-99128544D01*
X193843970Y-99072951D01*
X193801277Y-99060000D01*
X193843970Y-99047049D01*
X193947977Y-98991456D01*
X194039140Y-98916640D01*
X194113956Y-98825477D01*
X194169549Y-98721470D01*
X194203784Y-98608615D01*
X194215343Y-98491250D01*
X194215343Y-98095077D01*
X196552420Y-95758000D01*
X196671050Y-95758000D01*
X196818267Y-95728717D01*
X196956942Y-95671276D01*
X197081747Y-95587884D01*
X197187884Y-95481747D01*
X197206000Y-95454634D01*
X197206000Y-99650132D01*
X197178159Y-99655443D01*
X197172732Y-99657081D01*
X196876762Y-99748699D01*
X196842799Y-99762976D01*
X196808721Y-99776744D01*
X196803720Y-99779402D01*
X196803716Y-99779404D01*
X196803715Y-99779405D01*
X196531177Y-99926766D01*
X196500686Y-99947333D01*
X196469881Y-99967491D01*
X196465488Y-99971074D01*
X196226762Y-100168564D01*
X196200791Y-100194717D01*
X196174542Y-100220422D01*
X196170933Y-100224784D01*
X196170929Y-100224788D01*
X196170928Y-100224790D01*
X195975110Y-100464888D01*
X195954753Y-100495527D01*
X195933958Y-100525898D01*
X195931262Y-100530885D01*
X195785807Y-100804445D01*
X195771776Y-100838485D01*
X195757288Y-100872289D01*
X195755613Y-100877697D01*
X195755611Y-100877703D01*
X195755611Y-100877705D01*
X195666062Y-101174307D01*
X195662163Y-101194000D01*
X189939019Y-101194000D01*
X189948843Y-101094250D01*
X189948843Y-100581750D01*
X189937284Y-100464385D01*
X189903049Y-100351530D01*
X189847456Y-100247523D01*
X189772640Y-100156360D01*
X189681477Y-100081544D01*
X189636500Y-100057503D01*
X189636500Y-99872443D01*
X189638957Y-99847499D01*
X189636189Y-99819397D01*
X189629149Y-99747915D01*
X189600101Y-99652157D01*
X189580000Y-99614551D01*
X189552929Y-99563904D01*
X189505350Y-99505929D01*
X189494295Y-99492458D01*
X189524693Y-99419069D01*
X189572000Y-99181243D01*
X189572000Y-98938757D01*
X189524693Y-98700931D01*
X189431898Y-98476903D01*
X189297180Y-98275283D01*
X189125717Y-98103820D01*
X188989560Y-98012843D01*
X189347250Y-98012843D01*
X189464615Y-98001284D01*
X189577470Y-97967049D01*
X189681477Y-97911456D01*
X189772640Y-97836640D01*
X189847456Y-97745477D01*
X189903049Y-97641470D01*
X189937284Y-97528615D01*
X189948843Y-97411250D01*
X189948843Y-96898750D01*
X189937284Y-96781385D01*
X189903049Y-96668530D01*
X189847456Y-96564523D01*
X189772640Y-96473360D01*
X189681477Y-96398544D01*
X189636500Y-96374503D01*
X189636500Y-96062443D01*
X189638957Y-96037499D01*
X189636500Y-96012553D01*
X189629149Y-95937915D01*
X189600101Y-95842157D01*
X189586471Y-95816657D01*
X189552929Y-95753904D01*
X189505350Y-95695929D01*
X189494295Y-95682458D01*
X189524693Y-95609069D01*
X189572000Y-95371243D01*
X189572000Y-95128757D01*
X189524693Y-94890931D01*
X189431898Y-94666903D01*
X189297180Y-94465283D01*
X189125717Y-94293820D01*
X188989560Y-94202843D01*
X189347250Y-94202843D01*
X189464615Y-94191284D01*
X189577470Y-94157049D01*
X189681477Y-94101456D01*
X189772640Y-94026640D01*
X189847456Y-93935477D01*
X189903049Y-93831470D01*
X189937284Y-93718615D01*
X189948843Y-93601250D01*
X189948843Y-93088750D01*
X189937284Y-92971385D01*
X189903049Y-92858530D01*
X189847456Y-92754523D01*
X189772640Y-92663360D01*
X189681477Y-92588544D01*
X189636500Y-92564503D01*
X189636500Y-92252443D01*
X189638957Y-92227499D01*
X189636500Y-92202553D01*
X189629149Y-92127915D01*
X189600101Y-92032157D01*
X189568116Y-91972317D01*
X189552929Y-91943904D01*
X189505350Y-91885929D01*
X189494295Y-91872458D01*
X189524693Y-91799069D01*
X189572000Y-91561243D01*
X189572000Y-91318757D01*
X189524693Y-91080931D01*
X189431898Y-90856903D01*
X189297180Y-90655283D01*
X189125717Y-90483820D01*
X188989560Y-90392843D01*
X189347250Y-90392843D01*
X189464615Y-90381284D01*
X189577470Y-90347049D01*
X189681477Y-90291456D01*
X189772640Y-90216640D01*
X189847456Y-90125477D01*
X189903049Y-90021470D01*
X189937284Y-89908615D01*
X189948843Y-89791250D01*
X189948843Y-89278750D01*
X189937284Y-89161385D01*
X189903049Y-89048530D01*
X189847456Y-88944523D01*
X189772640Y-88853360D01*
X189681477Y-88778544D01*
X189636500Y-88754503D01*
X189636500Y-88442443D01*
X189638957Y-88417499D01*
X189636500Y-88392553D01*
X189629149Y-88317915D01*
X189600101Y-88222157D01*
X189571839Y-88169283D01*
X189552929Y-88133904D01*
X189505350Y-88075929D01*
X189494295Y-88062458D01*
X189524693Y-87989069D01*
X189572000Y-87751243D01*
X189572000Y-87508757D01*
X189650000Y-87508757D01*
X189650000Y-87751243D01*
X189697307Y-87989069D01*
X189790102Y-88213097D01*
X189924820Y-88414717D01*
X190096283Y-88586180D01*
X190297903Y-88720898D01*
X190521931Y-88813693D01*
X190759757Y-88861000D01*
X191002243Y-88861000D01*
X191240069Y-88813693D01*
X191464097Y-88720898D01*
X191665717Y-88586180D01*
X191837180Y-88414717D01*
X191971898Y-88213097D01*
X192003004Y-88138000D01*
X192359580Y-88138000D01*
X192499657Y-88278077D01*
X192499657Y-88636250D01*
X192511216Y-88753615D01*
X192545451Y-88866470D01*
X192601044Y-88970477D01*
X192675860Y-89061640D01*
X192767023Y-89136456D01*
X192871030Y-89192049D01*
X192983885Y-89226284D01*
X193101250Y-89237843D01*
X193613750Y-89237843D01*
X193731115Y-89226284D01*
X193843970Y-89192049D01*
X193947977Y-89136456D01*
X194039140Y-89061640D01*
X194113956Y-88970477D01*
X194169549Y-88866470D01*
X194203784Y-88753615D01*
X194215343Y-88636250D01*
X194215343Y-88198750D01*
X194203784Y-88081385D01*
X194169549Y-87968530D01*
X194113956Y-87864523D01*
X194039140Y-87773360D01*
X193947977Y-87698544D01*
X193843970Y-87642951D01*
X193801277Y-87630000D01*
X193843970Y-87617049D01*
X193947977Y-87561456D01*
X194039140Y-87486640D01*
X194058409Y-87463161D01*
X194085283Y-87598267D01*
X194142724Y-87736942D01*
X194226116Y-87861747D01*
X194332253Y-87967884D01*
X194457058Y-88051276D01*
X194595733Y-88108717D01*
X194742950Y-88138000D01*
X194893050Y-88138000D01*
X195040267Y-88108717D01*
X195178942Y-88051276D01*
X195303747Y-87967884D01*
X195409884Y-87861747D01*
X195493276Y-87736942D01*
X195550717Y-87598267D01*
X195580000Y-87451050D01*
X195580000Y-87300950D01*
X195550717Y-87153733D01*
X195493276Y-87015058D01*
X195409884Y-86890253D01*
X195303747Y-86784116D01*
X195178942Y-86700724D01*
X195040267Y-86643283D01*
X194893050Y-86614000D01*
X194774420Y-86614000D01*
X194661355Y-86500935D01*
X194645448Y-86481552D01*
X194568095Y-86418071D01*
X194479843Y-86370899D01*
X194384085Y-86341851D01*
X194309447Y-86334500D01*
X194309444Y-86334500D01*
X194284500Y-86332043D01*
X194259556Y-86334500D01*
X194137997Y-86334500D01*
X194113956Y-86289523D01*
X194039140Y-86198360D01*
X193947977Y-86123544D01*
X193843970Y-86067951D01*
X193731115Y-86033716D01*
X193613750Y-86022157D01*
X193101250Y-86022157D01*
X192983885Y-86033716D01*
X192871030Y-86067951D01*
X192767023Y-86123544D01*
X192675860Y-86198360D01*
X192601044Y-86289523D01*
X192545451Y-86393530D01*
X192511216Y-86506385D01*
X192499657Y-86623750D01*
X192499657Y-87061250D01*
X192505640Y-87122000D01*
X192003004Y-87122000D01*
X191971898Y-87046903D01*
X191837180Y-86845283D01*
X191665717Y-86673820D01*
X191464097Y-86539102D01*
X191240069Y-86446307D01*
X191002243Y-86399000D01*
X190759757Y-86399000D01*
X190521931Y-86446307D01*
X190297903Y-86539102D01*
X190096283Y-86673820D01*
X189924820Y-86845283D01*
X189790102Y-87046903D01*
X189697307Y-87270931D01*
X189650000Y-87508757D01*
X189572000Y-87508757D01*
X189524693Y-87270931D01*
X189431898Y-87046903D01*
X189297180Y-86845283D01*
X189125717Y-86673820D01*
X188989560Y-86582843D01*
X189347250Y-86582843D01*
X189464615Y-86571284D01*
X189577470Y-86537049D01*
X189681477Y-86481456D01*
X189772640Y-86406640D01*
X189847456Y-86315477D01*
X189903049Y-86211470D01*
X189937284Y-86098615D01*
X189948843Y-85981250D01*
X189948843Y-85468750D01*
X189937284Y-85351385D01*
X189903049Y-85238530D01*
X189847456Y-85134523D01*
X189772640Y-85043360D01*
X189681477Y-84968544D01*
X189636500Y-84944503D01*
X189636500Y-84632443D01*
X189638957Y-84607499D01*
X189635228Y-84569641D01*
X189629149Y-84507915D01*
X189600101Y-84412157D01*
X189572422Y-84360373D01*
X189552929Y-84323904D01*
X189505350Y-84265929D01*
X189494295Y-84252458D01*
X189524693Y-84179069D01*
X189572000Y-83941243D01*
X189572000Y-83698757D01*
X189524693Y-83460931D01*
X189431898Y-83236903D01*
X189297180Y-83035283D01*
X189125717Y-82863820D01*
X188989560Y-82772843D01*
X189347250Y-82772843D01*
X189464615Y-82761284D01*
X189577470Y-82727049D01*
X189681477Y-82671456D01*
X189772640Y-82596640D01*
X189847456Y-82505477D01*
X189903049Y-82401470D01*
X189937284Y-82288615D01*
X189948843Y-82171250D01*
X189948843Y-81658750D01*
X189937284Y-81541385D01*
X189903049Y-81428530D01*
X189847456Y-81324523D01*
X189772640Y-81233360D01*
X189681477Y-81158544D01*
X189636500Y-81134503D01*
X189636500Y-80822443D01*
X189638957Y-80797499D01*
X189636087Y-80768362D01*
X189629149Y-80697915D01*
X189600101Y-80602157D01*
X189571115Y-80547928D01*
X189552929Y-80513904D01*
X189505350Y-80455929D01*
X189494295Y-80442458D01*
X189524693Y-80369069D01*
X189572000Y-80131243D01*
X189572000Y-79888757D01*
X189524693Y-79650931D01*
X189431898Y-79426903D01*
X189297180Y-79225283D01*
X189125717Y-79053820D01*
X188989560Y-78962843D01*
X189347250Y-78962843D01*
X189464615Y-78951284D01*
X189577470Y-78917049D01*
X189681477Y-78861456D01*
X189772640Y-78786640D01*
X189847456Y-78695477D01*
X189903049Y-78591470D01*
X189937284Y-78478615D01*
X189948843Y-78361250D01*
X189948843Y-77848750D01*
X189937284Y-77731385D01*
X189903049Y-77618530D01*
X189847456Y-77514523D01*
X189772640Y-77423360D01*
X189681477Y-77348544D01*
X189636500Y-77324503D01*
X189636500Y-77012443D01*
X189638957Y-76987499D01*
X189636500Y-76962553D01*
X189629149Y-76887915D01*
X189600101Y-76792157D01*
X189559048Y-76715352D01*
X189552929Y-76703904D01*
X189505350Y-76645929D01*
X189494295Y-76632458D01*
X189524693Y-76559069D01*
X189572000Y-76321243D01*
X189572000Y-76078757D01*
X189524693Y-75840931D01*
X189431898Y-75616903D01*
X189297180Y-75415283D01*
X189125717Y-75243820D01*
X188924097Y-75109102D01*
X188700069Y-75016307D01*
X188462243Y-74969000D01*
X188219757Y-74969000D01*
X187981931Y-75016307D01*
X187757903Y-75109102D01*
X187556283Y-75243820D01*
X187384820Y-75415283D01*
X187250102Y-75616903D01*
X187202772Y-75731168D01*
X187145157Y-75568748D01*
X186996178Y-75318645D01*
X186801269Y-75102412D01*
X186567920Y-74928359D01*
X186305099Y-74803175D01*
X186157890Y-74758524D01*
X185928000Y-74879845D01*
X185928000Y-76073000D01*
X185948000Y-76073000D01*
X185948000Y-76327000D01*
X185928000Y-76327000D01*
X185928000Y-77520155D01*
X186157890Y-77641476D01*
X186305099Y-77596825D01*
X186489863Y-77508820D01*
X186477928Y-77630000D01*
X186481000Y-77819250D01*
X186639750Y-77978000D01*
X187426500Y-77978000D01*
X187426500Y-77958000D01*
X187680500Y-77958000D01*
X187680500Y-77978000D01*
X187700500Y-77978000D01*
X187700500Y-78232000D01*
X187680500Y-78232000D01*
X187680500Y-78252000D01*
X187426500Y-78252000D01*
X187426500Y-78232000D01*
X186639750Y-78232000D01*
X186481000Y-78390750D01*
X186477928Y-78580000D01*
X186489863Y-78701180D01*
X186305099Y-78613175D01*
X186157890Y-78568524D01*
X185928000Y-78689845D01*
X185928000Y-79883000D01*
X185948000Y-79883000D01*
X185948000Y-80137000D01*
X185928000Y-80137000D01*
X185928000Y-81330155D01*
X186157890Y-81451476D01*
X186305099Y-81406825D01*
X186489863Y-81318820D01*
X186477928Y-81440000D01*
X186481000Y-81629250D01*
X186639750Y-81788000D01*
X187426500Y-81788000D01*
X187426500Y-81768000D01*
X187680500Y-81768000D01*
X187680500Y-81788000D01*
X187700500Y-81788000D01*
X187700500Y-82042000D01*
X187680500Y-82042000D01*
X187680500Y-82062000D01*
X187426500Y-82062000D01*
X187426500Y-82042000D01*
X186639750Y-82042000D01*
X186481000Y-82200750D01*
X186477928Y-82390000D01*
X186489863Y-82511180D01*
X186305099Y-82423175D01*
X186157890Y-82378524D01*
X185928000Y-82499845D01*
X185928000Y-83693000D01*
X185948000Y-83693000D01*
X185948000Y-83947000D01*
X185928000Y-83947000D01*
X185928000Y-85140155D01*
X186157890Y-85261476D01*
X186305099Y-85216825D01*
X186489863Y-85128820D01*
X186477928Y-85250000D01*
X186481000Y-85439250D01*
X186639750Y-85598000D01*
X187426500Y-85598000D01*
X187426500Y-85578000D01*
X187680500Y-85578000D01*
X187680500Y-85598000D01*
X187700500Y-85598000D01*
X187700500Y-85852000D01*
X187680500Y-85852000D01*
X187680500Y-85872000D01*
X187426500Y-85872000D01*
X187426500Y-85852000D01*
X186639750Y-85852000D01*
X186481000Y-86010750D01*
X186477928Y-86200000D01*
X186489863Y-86321180D01*
X186305099Y-86233175D01*
X186157890Y-86188524D01*
X185928000Y-86309845D01*
X185928000Y-87503000D01*
X185948000Y-87503000D01*
X185948000Y-87757000D01*
X185928000Y-87757000D01*
X185928000Y-88950155D01*
X186157890Y-89071476D01*
X186305099Y-89026825D01*
X186489863Y-88938820D01*
X186477928Y-89060000D01*
X186481000Y-89249250D01*
X186639750Y-89408000D01*
X187426500Y-89408000D01*
X187426500Y-89388000D01*
X187680500Y-89388000D01*
X187680500Y-89408000D01*
X187700500Y-89408000D01*
X187700500Y-89662000D01*
X187680500Y-89662000D01*
X187680500Y-89682000D01*
X187426500Y-89682000D01*
X187426500Y-89662000D01*
X186639750Y-89662000D01*
X186481000Y-89820750D01*
X186477928Y-90010000D01*
X186489863Y-90131180D01*
X186305099Y-90043175D01*
X186157890Y-89998524D01*
X185928000Y-90119845D01*
X185928000Y-91313000D01*
X185948000Y-91313000D01*
X185948000Y-91567000D01*
X185928000Y-91567000D01*
X185928000Y-92760155D01*
X186157890Y-92881476D01*
X186305099Y-92836825D01*
X186489863Y-92748820D01*
X186477928Y-92870000D01*
X186481000Y-93059250D01*
X186639750Y-93218000D01*
X187426500Y-93218000D01*
X187426500Y-93198000D01*
X187680500Y-93198000D01*
X187680500Y-93218000D01*
X187700500Y-93218000D01*
X187700500Y-93472000D01*
X187680500Y-93472000D01*
X187680500Y-93492000D01*
X187426500Y-93492000D01*
X187426500Y-93472000D01*
X186639750Y-93472000D01*
X186481000Y-93630750D01*
X186477928Y-93820000D01*
X186489863Y-93941180D01*
X186305099Y-93853175D01*
X186157890Y-93808524D01*
X185928000Y-93929845D01*
X185928000Y-95123000D01*
X185948000Y-95123000D01*
X185948000Y-95377000D01*
X185928000Y-95377000D01*
X185928000Y-96570155D01*
X186157890Y-96691476D01*
X186305099Y-96646825D01*
X186489863Y-96558820D01*
X186477928Y-96680000D01*
X186481000Y-96869250D01*
X186639750Y-97028000D01*
X187426500Y-97028000D01*
X187426500Y-97008000D01*
X187680500Y-97008000D01*
X187680500Y-97028000D01*
X187700500Y-97028000D01*
X187700500Y-97282000D01*
X187680500Y-97282000D01*
X187680500Y-97302000D01*
X187426500Y-97302000D01*
X187426500Y-97282000D01*
X186639750Y-97282000D01*
X186481000Y-97440750D01*
X186477928Y-97630000D01*
X186489863Y-97751180D01*
X186305099Y-97663175D01*
X186157890Y-97618524D01*
X185928000Y-97739845D01*
X185928000Y-98933000D01*
X185948000Y-98933000D01*
X185948000Y-99187000D01*
X185928000Y-99187000D01*
X185928000Y-100380155D01*
X186157890Y-100501476D01*
X186305099Y-100456825D01*
X186478113Y-100374417D01*
X186481000Y-100552250D01*
X186639750Y-100711000D01*
X187426500Y-100711000D01*
X187426500Y-100691000D01*
X187680500Y-100691000D01*
X187680500Y-100711000D01*
X187700500Y-100711000D01*
X187700500Y-100965000D01*
X187680500Y-100965000D01*
X187680500Y-100985000D01*
X187426500Y-100985000D01*
X187426500Y-100965000D01*
X186639750Y-100965000D01*
X186481000Y-101123750D01*
X186479860Y-101194000D01*
X179305420Y-101194000D01*
X180286833Y-100212587D01*
X180361931Y-100243693D01*
X180599757Y-100291000D01*
X180842243Y-100291000D01*
X181080069Y-100243693D01*
X181304097Y-100150898D01*
X181505717Y-100016180D01*
X181677180Y-99844717D01*
X181811898Y-99643097D01*
X181904693Y-99419069D01*
X181952000Y-99181243D01*
X181952000Y-98938757D01*
X181904693Y-98700931D01*
X181811898Y-98476903D01*
X181677180Y-98275283D01*
X181505717Y-98103820D01*
X181304097Y-97969102D01*
X181080069Y-97876307D01*
X180842243Y-97829000D01*
X180599757Y-97829000D01*
X180361931Y-97876307D01*
X180137903Y-97969102D01*
X179936283Y-98103820D01*
X179764820Y-98275283D01*
X179630102Y-98476903D01*
X179537307Y-98700931D01*
X179490000Y-98938757D01*
X179490000Y-99181243D01*
X179537307Y-99419069D01*
X179568413Y-99494167D01*
X178376590Y-100685990D01*
X177273430Y-100685990D01*
X177746834Y-100212587D01*
X177821931Y-100243693D01*
X178059757Y-100291000D01*
X178302243Y-100291000D01*
X178540069Y-100243693D01*
X178764097Y-100150898D01*
X178965717Y-100016180D01*
X179137180Y-99844717D01*
X179271898Y-99643097D01*
X179364693Y-99419069D01*
X179412000Y-99181243D01*
X179412000Y-98938757D01*
X179364693Y-98700931D01*
X179271898Y-98476903D01*
X179137180Y-98275283D01*
X178965717Y-98103820D01*
X178764097Y-97969102D01*
X178733141Y-97956279D01*
X180286834Y-96402587D01*
X180361931Y-96433693D01*
X180599757Y-96481000D01*
X180842243Y-96481000D01*
X181080069Y-96433693D01*
X181304097Y-96340898D01*
X181505717Y-96206180D01*
X181677180Y-96034717D01*
X181811898Y-95833097D01*
X181904693Y-95609069D01*
X181952000Y-95371243D01*
X181952000Y-95128757D01*
X181904693Y-94890931D01*
X181811898Y-94666903D01*
X181677180Y-94465283D01*
X181505717Y-94293820D01*
X181304097Y-94159102D01*
X181080069Y-94066307D01*
X180842243Y-94019000D01*
X180599757Y-94019000D01*
X180361931Y-94066307D01*
X180137903Y-94159102D01*
X179936283Y-94293820D01*
X179764820Y-94465283D01*
X179630102Y-94666903D01*
X179537307Y-94890931D01*
X179490000Y-95128757D01*
X179490000Y-95371243D01*
X179537307Y-95609069D01*
X179568413Y-95684166D01*
X177931581Y-97320999D01*
X176828421Y-97320999D01*
X177746833Y-96402587D01*
X177821931Y-96433693D01*
X178059757Y-96481000D01*
X178302243Y-96481000D01*
X178540069Y-96433693D01*
X178764097Y-96340898D01*
X178965717Y-96206180D01*
X179137180Y-96034717D01*
X179271898Y-95833097D01*
X179364693Y-95609069D01*
X179412000Y-95371243D01*
X179412000Y-95128757D01*
X179364693Y-94890931D01*
X179271898Y-94666903D01*
X179137180Y-94465283D01*
X178965717Y-94293820D01*
X178764097Y-94159102D01*
X178733141Y-94146279D01*
X180286834Y-92592587D01*
X180361931Y-92623693D01*
X180599757Y-92671000D01*
X180842243Y-92671000D01*
X181080069Y-92623693D01*
X181304097Y-92530898D01*
X181505717Y-92396180D01*
X181677180Y-92224717D01*
X181811898Y-92023097D01*
X181904693Y-91799069D01*
X181952000Y-91561243D01*
X181952000Y-91318757D01*
X181904693Y-91080931D01*
X181811898Y-90856903D01*
X181677180Y-90655283D01*
X181505717Y-90483820D01*
X181304097Y-90349102D01*
X181080069Y-90256307D01*
X180842243Y-90209000D01*
X180599757Y-90209000D01*
X180361931Y-90256307D01*
X180137903Y-90349102D01*
X179936283Y-90483820D01*
X179764820Y-90655283D01*
X179630102Y-90856903D01*
X179537307Y-91080931D01*
X179490000Y-91318757D01*
X179490000Y-91561243D01*
X179537307Y-91799069D01*
X179568413Y-91874166D01*
X177970580Y-93472000D01*
X176867420Y-93472000D01*
X177746833Y-92592587D01*
X177821931Y-92623693D01*
X178059757Y-92671000D01*
X178302243Y-92671000D01*
X178540069Y-92623693D01*
X178764097Y-92530898D01*
X178965717Y-92396180D01*
X179137180Y-92224717D01*
X179271898Y-92023097D01*
X179364693Y-91799069D01*
X179412000Y-91561243D01*
X179412000Y-91318757D01*
X179364693Y-91080931D01*
X179271898Y-90856903D01*
X179137180Y-90655283D01*
X178965717Y-90483820D01*
X178764097Y-90349102D01*
X178540069Y-90256307D01*
X178302243Y-90209000D01*
X178059757Y-90209000D01*
X177821931Y-90256307D01*
X177597903Y-90349102D01*
X177396283Y-90483820D01*
X177224820Y-90655283D01*
X177090102Y-90856903D01*
X176997307Y-91080931D01*
X176950000Y-91318757D01*
X176950000Y-91561243D01*
X176997307Y-91799069D01*
X177028413Y-91874167D01*
X176873843Y-92028737D01*
X176873843Y-90590000D01*
X176866487Y-90515311D01*
X176844701Y-90443492D01*
X176809322Y-90377304D01*
X176761711Y-90319289D01*
X176703696Y-90271678D01*
X176637508Y-90236299D01*
X176565689Y-90214513D01*
X176491000Y-90207157D01*
X174791000Y-90207157D01*
X174716311Y-90214513D01*
X174644492Y-90236299D01*
X174605580Y-90257098D01*
X174605580Y-88812902D01*
X174644492Y-88833701D01*
X174716311Y-88855487D01*
X174791000Y-88862843D01*
X176491000Y-88862843D01*
X176565689Y-88855487D01*
X176637508Y-88833701D01*
X176703696Y-88798322D01*
X176761711Y-88750711D01*
X176809322Y-88692696D01*
X176844701Y-88626508D01*
X176866487Y-88554689D01*
X176873843Y-88480000D01*
X176873843Y-87508757D01*
X176950000Y-87508757D01*
X176950000Y-87751243D01*
X176997307Y-87989069D01*
X177090102Y-88213097D01*
X177224820Y-88414717D01*
X177396283Y-88586180D01*
X177597903Y-88720898D01*
X177821931Y-88813693D01*
X178059757Y-88861000D01*
X178302243Y-88861000D01*
X178540069Y-88813693D01*
X178764097Y-88720898D01*
X178965717Y-88586180D01*
X179137180Y-88414717D01*
X179271898Y-88213097D01*
X179364693Y-87989069D01*
X179412000Y-87751243D01*
X179412000Y-87508757D01*
X179490000Y-87508757D01*
X179490000Y-87751243D01*
X179537307Y-87989069D01*
X179630102Y-88213097D01*
X179764820Y-88414717D01*
X179936283Y-88586180D01*
X180137903Y-88720898D01*
X180361931Y-88813693D01*
X180599757Y-88861000D01*
X180842243Y-88861000D01*
X181080069Y-88813693D01*
X181304097Y-88720898D01*
X181505717Y-88586180D01*
X181677180Y-88414717D01*
X181811898Y-88213097D01*
X181904693Y-87989069D01*
X181952000Y-87751243D01*
X181952000Y-87508757D01*
X181904693Y-87270931D01*
X181811898Y-87046903D01*
X181677180Y-86845283D01*
X181505717Y-86673820D01*
X181304097Y-86539102D01*
X181080069Y-86446307D01*
X180842243Y-86399000D01*
X180599757Y-86399000D01*
X180361931Y-86446307D01*
X180137903Y-86539102D01*
X179936283Y-86673820D01*
X179764820Y-86845283D01*
X179630102Y-87046903D01*
X179537307Y-87270931D01*
X179490000Y-87508757D01*
X179412000Y-87508757D01*
X179364693Y-87270931D01*
X179271898Y-87046903D01*
X179137180Y-86845283D01*
X178965717Y-86673820D01*
X178764097Y-86539102D01*
X178540069Y-86446307D01*
X178302243Y-86399000D01*
X178059757Y-86399000D01*
X177821931Y-86446307D01*
X177597903Y-86539102D01*
X177396283Y-86673820D01*
X177224820Y-86845283D01*
X177090102Y-87046903D01*
X176997307Y-87270931D01*
X176950000Y-87508757D01*
X176873843Y-87508757D01*
X176873843Y-86780000D01*
X176866487Y-86705311D01*
X176844701Y-86633492D01*
X176809322Y-86567304D01*
X176761711Y-86509289D01*
X176703696Y-86461678D01*
X176637508Y-86426299D01*
X176565689Y-86404513D01*
X176491000Y-86397157D01*
X174791000Y-86397157D01*
X174716311Y-86404513D01*
X174644492Y-86426299D01*
X174578304Y-86461678D01*
X174520289Y-86509289D01*
X174472678Y-86567304D01*
X174437299Y-86633492D01*
X174415513Y-86705311D01*
X174408157Y-86780000D01*
X174408157Y-88271897D01*
X171831625Y-85695365D01*
X171815723Y-85675988D01*
X171796345Y-85660085D01*
X171738370Y-85612506D01*
X171650118Y-85565335D01*
X171598517Y-85549682D01*
X171554360Y-85536287D01*
X171545449Y-85535409D01*
X171454775Y-85526478D01*
X171429821Y-85528936D01*
X170794720Y-85528936D01*
X170907576Y-85416080D01*
X170926959Y-85400173D01*
X170990440Y-85322820D01*
X171037612Y-85234568D01*
X171066660Y-85138810D01*
X171074011Y-85064172D01*
X171074011Y-85064169D01*
X171076468Y-85039225D01*
X171074011Y-85014281D01*
X171074011Y-81991408D01*
X171112429Y-81944595D01*
X171139032Y-81894824D01*
X171256846Y-81777011D01*
X172573469Y-81777011D01*
X172552724Y-81808058D01*
X172495283Y-81946733D01*
X172466000Y-82093950D01*
X172466000Y-82244050D01*
X172495283Y-82391267D01*
X172552724Y-82529942D01*
X172636116Y-82654747D01*
X172742253Y-82760884D01*
X172867058Y-82844276D01*
X173005733Y-82901717D01*
X173152950Y-82931000D01*
X173303050Y-82931000D01*
X173450267Y-82901717D01*
X173588942Y-82844276D01*
X173649219Y-82804000D01*
X174447718Y-82804000D01*
X174437299Y-82823492D01*
X174415513Y-82895311D01*
X174408157Y-82970000D01*
X174408157Y-84670000D01*
X174415513Y-84744689D01*
X174437299Y-84816508D01*
X174472678Y-84882696D01*
X174520289Y-84940711D01*
X174578304Y-84988322D01*
X174644492Y-85023701D01*
X174716311Y-85045487D01*
X174791000Y-85052843D01*
X176491000Y-85052843D01*
X176565689Y-85045487D01*
X176637508Y-85023701D01*
X176703696Y-84988322D01*
X176761711Y-84940711D01*
X176809322Y-84882696D01*
X176844701Y-84816508D01*
X176866487Y-84744689D01*
X176873843Y-84670000D01*
X176873843Y-82970000D01*
X176866487Y-82895311D01*
X176844701Y-82823492D01*
X176834282Y-82804000D01*
X177485810Y-82804000D01*
X177396283Y-82863820D01*
X177224820Y-83035283D01*
X177090102Y-83236903D01*
X176997307Y-83460931D01*
X176950000Y-83698757D01*
X176950000Y-83941243D01*
X176997307Y-84179069D01*
X177090102Y-84403097D01*
X177224820Y-84604717D01*
X177396283Y-84776180D01*
X177597903Y-84910898D01*
X177821931Y-85003693D01*
X178059757Y-85051000D01*
X178302243Y-85051000D01*
X178540069Y-85003693D01*
X178764097Y-84910898D01*
X178965717Y-84776180D01*
X179137180Y-84604717D01*
X179271898Y-84403097D01*
X179364693Y-84179069D01*
X179412000Y-83941243D01*
X179412000Y-83698757D01*
X179364693Y-83460931D01*
X179271898Y-83236903D01*
X179137180Y-83035283D01*
X178965717Y-82863820D01*
X178876190Y-82804000D01*
X180025810Y-82804000D01*
X179936283Y-82863820D01*
X179764820Y-83035283D01*
X179630102Y-83236903D01*
X179537307Y-83460931D01*
X179490000Y-83698757D01*
X179490000Y-83941243D01*
X179537307Y-84179069D01*
X179630102Y-84403097D01*
X179764820Y-84604717D01*
X179936283Y-84776180D01*
X180137903Y-84910898D01*
X180361931Y-85003693D01*
X180599757Y-85051000D01*
X180842243Y-85051000D01*
X181080069Y-85003693D01*
X181304097Y-84910898D01*
X181505717Y-84776180D01*
X181677180Y-84604717D01*
X181811898Y-84403097D01*
X181904693Y-84179069D01*
X181952000Y-83941243D01*
X181952000Y-83698757D01*
X181904693Y-83460931D01*
X181811898Y-83236903D01*
X181677180Y-83035283D01*
X181505717Y-82863820D01*
X181347245Y-82757933D01*
X181456494Y-82699537D01*
X181553185Y-82620185D01*
X181573074Y-82595950D01*
X182626000Y-81543024D01*
X182626001Y-82763782D01*
X182476283Y-82863820D01*
X182304820Y-83035283D01*
X182170102Y-83236903D01*
X182077307Y-83460931D01*
X182030000Y-83698757D01*
X182030000Y-83941243D01*
X182077307Y-84179069D01*
X182170102Y-84403097D01*
X182304820Y-84604717D01*
X182476283Y-84776180D01*
X182626000Y-84876218D01*
X182626001Y-86573782D01*
X182476283Y-86673820D01*
X182304820Y-86845283D01*
X182170102Y-87046903D01*
X182077307Y-87270931D01*
X182030000Y-87508757D01*
X182030000Y-87751243D01*
X182077307Y-87989069D01*
X182170102Y-88213097D01*
X182304820Y-88414717D01*
X182476283Y-88586180D01*
X182626000Y-88686218D01*
X182626001Y-90383782D01*
X182476283Y-90483820D01*
X182304820Y-90655283D01*
X182170102Y-90856903D01*
X182077307Y-91080931D01*
X182030000Y-91318757D01*
X182030000Y-91561243D01*
X182077307Y-91799069D01*
X182170102Y-92023097D01*
X182304820Y-92224717D01*
X182476283Y-92396180D01*
X182626000Y-92496218D01*
X182626001Y-94193782D01*
X182476283Y-94293820D01*
X182304820Y-94465283D01*
X182170102Y-94666903D01*
X182077307Y-94890931D01*
X182030000Y-95128757D01*
X182030000Y-95371243D01*
X182077307Y-95609069D01*
X182170102Y-95833097D01*
X182304820Y-96034717D01*
X182476283Y-96206180D01*
X182626000Y-96306218D01*
X182626001Y-98003782D01*
X182476283Y-98103820D01*
X182304820Y-98275283D01*
X182170102Y-98476903D01*
X182077307Y-98700931D01*
X182030000Y-98938757D01*
X182030000Y-99181243D01*
X182077307Y-99419069D01*
X182170102Y-99643097D01*
X182304820Y-99844717D01*
X182476283Y-100016180D01*
X182677903Y-100150898D01*
X182901931Y-100243693D01*
X183139757Y-100291000D01*
X183382243Y-100291000D01*
X183620069Y-100243693D01*
X183844097Y-100150898D01*
X184045717Y-100016180D01*
X184217180Y-99844717D01*
X184351898Y-99643097D01*
X184399228Y-99528832D01*
X184456843Y-99691252D01*
X184605822Y-99941355D01*
X184800731Y-100157588D01*
X185034080Y-100331641D01*
X185296901Y-100456825D01*
X185444110Y-100501476D01*
X185674000Y-100380155D01*
X185674000Y-99187000D01*
X185654000Y-99187000D01*
X185654000Y-98933000D01*
X185674000Y-98933000D01*
X185674000Y-97739845D01*
X185444110Y-97618524D01*
X185296901Y-97663175D01*
X185034080Y-97788359D01*
X184800731Y-97962412D01*
X184605822Y-98178645D01*
X184456843Y-98428748D01*
X184399228Y-98591168D01*
X184351898Y-98476903D01*
X184217180Y-98275283D01*
X184045717Y-98103820D01*
X183896000Y-98003782D01*
X183896000Y-96306218D01*
X184045717Y-96206180D01*
X184217180Y-96034717D01*
X184351898Y-95833097D01*
X184399228Y-95718832D01*
X184456843Y-95881252D01*
X184605822Y-96131355D01*
X184800731Y-96347588D01*
X185034080Y-96521641D01*
X185296901Y-96646825D01*
X185444110Y-96691476D01*
X185674000Y-96570155D01*
X185674000Y-95377000D01*
X185654000Y-95377000D01*
X185654000Y-95123000D01*
X185674000Y-95123000D01*
X185674000Y-93929845D01*
X185444110Y-93808524D01*
X185296901Y-93853175D01*
X185034080Y-93978359D01*
X184800731Y-94152412D01*
X184605822Y-94368645D01*
X184456843Y-94618748D01*
X184399228Y-94781168D01*
X184351898Y-94666903D01*
X184217180Y-94465283D01*
X184045717Y-94293820D01*
X183896000Y-94193782D01*
X183896000Y-92496218D01*
X184045717Y-92396180D01*
X184217180Y-92224717D01*
X184351898Y-92023097D01*
X184399228Y-91908832D01*
X184456843Y-92071252D01*
X184605822Y-92321355D01*
X184800731Y-92537588D01*
X185034080Y-92711641D01*
X185296901Y-92836825D01*
X185444110Y-92881476D01*
X185674000Y-92760155D01*
X185674000Y-91567000D01*
X185654000Y-91567000D01*
X185654000Y-91313000D01*
X185674000Y-91313000D01*
X185674000Y-90119845D01*
X185444110Y-89998524D01*
X185296901Y-90043175D01*
X185034080Y-90168359D01*
X184800731Y-90342412D01*
X184605822Y-90558645D01*
X184456843Y-90808748D01*
X184399228Y-90971168D01*
X184351898Y-90856903D01*
X184217180Y-90655283D01*
X184045717Y-90483820D01*
X183896000Y-90383782D01*
X183896000Y-88686218D01*
X184045717Y-88586180D01*
X184217180Y-88414717D01*
X184351898Y-88213097D01*
X184399228Y-88098832D01*
X184456843Y-88261252D01*
X184605822Y-88511355D01*
X184800731Y-88727588D01*
X185034080Y-88901641D01*
X185296901Y-89026825D01*
X185444110Y-89071476D01*
X185674000Y-88950155D01*
X185674000Y-87757000D01*
X185654000Y-87757000D01*
X185654000Y-87503000D01*
X185674000Y-87503000D01*
X185674000Y-86309845D01*
X185444110Y-86188524D01*
X185296901Y-86233175D01*
X185034080Y-86358359D01*
X184800731Y-86532412D01*
X184605822Y-86748645D01*
X184456843Y-86998748D01*
X184399228Y-87161168D01*
X184351898Y-87046903D01*
X184217180Y-86845283D01*
X184045717Y-86673820D01*
X183896000Y-86573782D01*
X183896000Y-84876218D01*
X184045717Y-84776180D01*
X184217180Y-84604717D01*
X184351898Y-84403097D01*
X184399228Y-84288832D01*
X184456843Y-84451252D01*
X184605822Y-84701355D01*
X184800731Y-84917588D01*
X185034080Y-85091641D01*
X185296901Y-85216825D01*
X185444110Y-85261476D01*
X185674000Y-85140155D01*
X185674000Y-83947000D01*
X185654000Y-83947000D01*
X185654000Y-83693000D01*
X185674000Y-83693000D01*
X185674000Y-82499845D01*
X185444110Y-82378524D01*
X185296901Y-82423175D01*
X185034080Y-82548359D01*
X184800731Y-82722412D01*
X184605822Y-82938645D01*
X184456843Y-83188748D01*
X184399228Y-83351168D01*
X184351898Y-83236903D01*
X184217180Y-83035283D01*
X184045717Y-82863820D01*
X183896000Y-82763782D01*
X183896000Y-81066218D01*
X184045717Y-80966180D01*
X184217180Y-80794717D01*
X184351898Y-80593097D01*
X184399228Y-80478832D01*
X184456843Y-80641252D01*
X184605822Y-80891355D01*
X184800731Y-81107588D01*
X185034080Y-81281641D01*
X185296901Y-81406825D01*
X185444110Y-81451476D01*
X185674000Y-81330155D01*
X185674000Y-80137000D01*
X185654000Y-80137000D01*
X185654000Y-79883000D01*
X185674000Y-79883000D01*
X185674000Y-78689845D01*
X185444110Y-78568524D01*
X185296901Y-78613175D01*
X185034080Y-78738359D01*
X184800731Y-78912412D01*
X184605822Y-79128645D01*
X184456843Y-79378748D01*
X184399228Y-79541168D01*
X184351898Y-79426903D01*
X184217180Y-79225283D01*
X184045717Y-79053820D01*
X183896000Y-78953782D01*
X183896000Y-77256218D01*
X184045717Y-77156180D01*
X184217180Y-76984717D01*
X184351898Y-76783097D01*
X184399228Y-76668832D01*
X184456843Y-76831252D01*
X184605822Y-77081355D01*
X184800731Y-77297588D01*
X185034080Y-77471641D01*
X185296901Y-77596825D01*
X185444110Y-77641476D01*
X185674000Y-77520155D01*
X185674000Y-76327000D01*
X185654000Y-76327000D01*
X185654000Y-76073000D01*
X185674000Y-76073000D01*
X185674000Y-74879845D01*
X185444110Y-74758524D01*
X185296901Y-74803175D01*
X185034080Y-74928359D01*
X184800731Y-75102412D01*
X184605822Y-75318645D01*
X184456843Y-75568748D01*
X184399228Y-75731168D01*
X184351898Y-75616903D01*
X184217180Y-75415283D01*
X184045717Y-75243820D01*
X183844097Y-75109102D01*
X183620069Y-75016307D01*
X183382243Y-74969000D01*
X183139757Y-74969000D01*
X182901931Y-75016307D01*
X182677903Y-75109102D01*
X182476283Y-75243820D01*
X182304820Y-75415283D01*
X182170102Y-75616903D01*
X182077307Y-75840931D01*
X182030000Y-76078757D01*
X182030000Y-76321243D01*
X182077307Y-76559069D01*
X182170102Y-76783097D01*
X182304820Y-76984717D01*
X182476283Y-77156180D01*
X182626000Y-77256218D01*
X182626001Y-78953782D01*
X182476283Y-79053820D01*
X182304820Y-79225283D01*
X182170102Y-79426903D01*
X182077307Y-79650931D01*
X182030000Y-79888757D01*
X182030000Y-80131243D01*
X182065129Y-80307846D01*
X181834539Y-80538436D01*
X181904693Y-80369069D01*
X181952000Y-80131243D01*
X181952000Y-79888757D01*
X181904693Y-79650931D01*
X181811898Y-79426903D01*
X181677180Y-79225283D01*
X181505717Y-79053820D01*
X181304097Y-78919102D01*
X181080069Y-78826307D01*
X180842243Y-78779000D01*
X180599757Y-78779000D01*
X180361931Y-78826307D01*
X180137903Y-78919102D01*
X179936283Y-79053820D01*
X179764820Y-79225283D01*
X179630102Y-79426903D01*
X179537307Y-79650931D01*
X179490000Y-79888757D01*
X179490000Y-80131243D01*
X179537307Y-80369069D01*
X179630102Y-80593097D01*
X179764820Y-80794717D01*
X179936283Y-80966180D01*
X180137903Y-81100898D01*
X180361931Y-81193693D01*
X180599757Y-81241000D01*
X180842243Y-81241000D01*
X181080069Y-81193693D01*
X181249437Y-81123539D01*
X180838976Y-81534000D01*
X177221222Y-81534000D01*
X177637799Y-81117423D01*
X177821931Y-81193693D01*
X178059757Y-81241000D01*
X178302243Y-81241000D01*
X178540069Y-81193693D01*
X178764097Y-81100898D01*
X178965717Y-80966180D01*
X179137180Y-80794717D01*
X179271898Y-80593097D01*
X179364693Y-80369069D01*
X179412000Y-80131243D01*
X179412000Y-79888757D01*
X179364693Y-79650931D01*
X179271898Y-79426903D01*
X179137180Y-79225283D01*
X178965717Y-79053820D01*
X178764097Y-78919102D01*
X178540069Y-78826307D01*
X178302243Y-78779000D01*
X178059757Y-78779000D01*
X177821931Y-78826307D01*
X177597903Y-78919102D01*
X177396283Y-79053820D01*
X177224820Y-79225283D01*
X177090102Y-79426903D01*
X176997307Y-79650931D01*
X176950000Y-79888757D01*
X176950000Y-80131243D01*
X176989344Y-80329037D01*
X176873843Y-80444539D01*
X176873843Y-79160000D01*
X176866487Y-79085311D01*
X176844701Y-79013492D01*
X176809322Y-78947304D01*
X176761711Y-78889289D01*
X176703696Y-78841678D01*
X176637508Y-78806299D01*
X176565689Y-78784513D01*
X176491000Y-78777157D01*
X174791000Y-78777157D01*
X174716311Y-78784513D01*
X174644492Y-78806299D01*
X174578304Y-78841678D01*
X174520289Y-78889289D01*
X174472678Y-78947304D01*
X174437299Y-79013492D01*
X174415513Y-79085311D01*
X174408157Y-79160000D01*
X174408157Y-80253001D01*
X173358346Y-80253001D01*
X173450267Y-80234717D01*
X173588942Y-80177276D01*
X173713747Y-80093884D01*
X173819884Y-79987747D01*
X173903276Y-79862942D01*
X173960717Y-79724267D01*
X173990000Y-79577050D01*
X173990000Y-79426950D01*
X173960717Y-79279733D01*
X173903276Y-79141058D01*
X173819884Y-79016253D01*
X173713747Y-78910116D01*
X173588942Y-78826724D01*
X173450267Y-78769283D01*
X173303050Y-78740000D01*
X173152950Y-78740000D01*
X173005733Y-78769283D01*
X172867058Y-78826724D01*
X172742253Y-78910116D01*
X172658369Y-78994000D01*
X172459843Y-78994000D01*
X172459843Y-77870000D01*
X172452487Y-77795311D01*
X172430855Y-77724000D01*
X174600056Y-77724000D01*
X174625000Y-77726457D01*
X174649944Y-77724000D01*
X174649947Y-77724000D01*
X174724585Y-77716649D01*
X174820343Y-77687601D01*
X174908595Y-77640429D01*
X174985948Y-77576948D01*
X175001855Y-77557565D01*
X175126577Y-77432843D01*
X176491000Y-77432843D01*
X176565689Y-77425487D01*
X176637508Y-77403701D01*
X176703696Y-77368322D01*
X176761711Y-77320711D01*
X176809322Y-77262696D01*
X176844701Y-77196508D01*
X176866487Y-77124689D01*
X176873843Y-77050000D01*
X176873843Y-75611263D01*
X177028413Y-75765834D01*
X176997307Y-75840931D01*
X176950000Y-76078757D01*
X176950000Y-76321243D01*
X176997307Y-76559069D01*
X177090102Y-76783097D01*
X177224820Y-76984717D01*
X177396283Y-77156180D01*
X177597903Y-77290898D01*
X177821931Y-77383693D01*
X178059757Y-77431000D01*
X178302243Y-77431000D01*
X178540069Y-77383693D01*
X178764097Y-77290898D01*
X178965717Y-77156180D01*
X179137180Y-76984717D01*
X179271898Y-76783097D01*
X179364693Y-76559069D01*
X179412000Y-76321243D01*
X179412000Y-76078757D01*
X179364693Y-75840931D01*
X179271898Y-75616903D01*
X179137180Y-75415283D01*
X178965717Y-75243820D01*
X178764097Y-75109102D01*
X178540069Y-75016307D01*
X178302243Y-74969000D01*
X178059757Y-74969000D01*
X177821931Y-75016307D01*
X177746834Y-75047413D01*
X177386419Y-74686999D01*
X178489579Y-74686999D01*
X179568413Y-75765834D01*
X179537307Y-75840931D01*
X179490000Y-76078757D01*
X179490000Y-76321243D01*
X179537307Y-76559069D01*
X179630102Y-76783097D01*
X179764820Y-76984717D01*
X179936283Y-77156180D01*
X180137903Y-77290898D01*
X180361931Y-77383693D01*
X180599757Y-77431000D01*
X180842243Y-77431000D01*
X181080069Y-77383693D01*
X181304097Y-77290898D01*
X181505717Y-77156180D01*
X181677180Y-76984717D01*
X181811898Y-76783097D01*
X181904693Y-76559069D01*
X181952000Y-76321243D01*
X181952000Y-76078757D01*
X181904693Y-75840931D01*
X181811898Y-75616903D01*
X181677180Y-75415283D01*
X181505717Y-75243820D01*
X181304097Y-75109102D01*
X181080069Y-75016307D01*
X180842243Y-74969000D01*
X180599757Y-74969000D01*
X180361931Y-75016307D01*
X180286834Y-75047413D01*
X179305420Y-74066000D01*
X195662132Y-74066000D01*
X195667443Y-74093841D01*
G37*
X195667443Y-74093841D02*
X195669081Y-74099268D01*
X195760699Y-74395239D01*
X195774981Y-74429215D01*
X195788744Y-74463279D01*
X195791405Y-74468285D01*
X195938766Y-74740823D01*
X195959366Y-74771364D01*
X195979492Y-74802119D01*
X195983074Y-74806513D01*
X196180565Y-75045238D01*
X196206682Y-75071173D01*
X196232422Y-75097458D01*
X196236790Y-75101072D01*
X196476888Y-75296890D01*
X196507527Y-75317247D01*
X196537898Y-75338042D01*
X196542882Y-75340737D01*
X196542890Y-75340741D01*
X196816445Y-75486193D01*
X196850485Y-75500224D01*
X196884289Y-75514712D01*
X196889697Y-75516387D01*
X196889703Y-75516389D01*
X196889709Y-75516390D01*
X197186306Y-75605938D01*
X197206001Y-75609838D01*
X197206001Y-79297367D01*
X197187884Y-79270253D01*
X197104000Y-79186369D01*
X197104000Y-78675944D01*
X197106457Y-78651000D01*
X197102866Y-78614543D01*
X197096649Y-78551415D01*
X197067601Y-78455657D01*
X197020429Y-78367405D01*
X196956948Y-78290052D01*
X196937565Y-78274145D01*
X194215343Y-75551923D01*
X194215343Y-75193750D01*
X194203784Y-75076385D01*
X194169549Y-74963530D01*
X194113956Y-74859523D01*
X194039140Y-74768360D01*
X193947977Y-74693544D01*
X193843970Y-74637951D01*
X193731115Y-74603716D01*
X193613750Y-74592157D01*
X193101250Y-74592157D01*
X192983885Y-74603716D01*
X192871030Y-74637951D01*
X192767023Y-74693544D01*
X192675860Y-74768360D01*
X192601044Y-74859523D01*
X192545451Y-74963530D01*
X192511216Y-75076385D01*
X192499657Y-75193750D01*
X192499657Y-75631250D01*
X192505640Y-75692000D01*
X192003004Y-75692000D01*
X191971898Y-75616903D01*
X191837180Y-75415283D01*
X191665717Y-75243820D01*
X191464097Y-75109102D01*
X191240069Y-75016307D01*
X191002243Y-74969000D01*
X190759757Y-74969000D01*
X190521931Y-75016307D01*
X190297903Y-75109102D01*
X190096283Y-75243820D01*
X189924820Y-75415283D01*
X189790102Y-75616903D01*
X189697307Y-75840931D01*
X189650000Y-76078757D01*
X189650000Y-76321243D01*
X189697307Y-76559069D01*
X189790102Y-76783097D01*
X189924820Y-76984717D01*
X190096283Y-77156180D01*
X190297903Y-77290898D01*
X190521931Y-77383693D01*
X190759757Y-77431000D01*
X191002243Y-77431000D01*
X191240069Y-77383693D01*
X191464097Y-77290898D01*
X191665717Y-77156180D01*
X191837180Y-76984717D01*
X191971898Y-76783097D01*
X192003004Y-76708000D01*
X192359580Y-76708000D01*
X192499657Y-76848077D01*
X192499657Y-77206250D01*
X192511216Y-77323615D01*
X192545451Y-77436470D01*
X192601044Y-77540477D01*
X192675860Y-77631640D01*
X192767023Y-77706456D01*
X192871030Y-77762049D01*
X192983885Y-77796284D01*
X193101250Y-77807843D01*
X193613750Y-77807843D01*
X193731115Y-77796284D01*
X193843970Y-77762049D01*
X193947977Y-77706456D01*
X194039140Y-77631640D01*
X194113956Y-77540477D01*
X194169549Y-77436470D01*
X194203784Y-77323615D01*
X194215343Y-77206250D01*
X194215343Y-76988763D01*
X196088000Y-78861420D01*
X196088000Y-79186369D01*
X196004116Y-79270253D01*
X195920724Y-79395058D01*
X195863283Y-79533733D01*
X195834000Y-79680950D01*
X195834000Y-79831050D01*
X195863283Y-79978267D01*
X195920724Y-80116942D01*
X196004116Y-80241747D01*
X196110253Y-80347884D01*
X196235058Y-80431276D01*
X196373733Y-80488717D01*
X196520950Y-80518000D01*
X196671050Y-80518000D01*
X196818267Y-80488717D01*
X196956942Y-80431276D01*
X197081747Y-80347884D01*
X197187884Y-80241747D01*
X197206001Y-80214633D01*
X197206001Y-84377366D01*
X197187884Y-84350253D01*
X197081747Y-84244116D01*
X196956942Y-84160724D01*
X196818267Y-84103283D01*
X196671050Y-84074000D01*
X196520950Y-84074000D01*
X196373733Y-84103283D01*
X196235058Y-84160724D01*
X196110253Y-84244116D01*
X196026369Y-84328000D01*
X195371421Y-84328000D01*
X194215343Y-83171923D01*
X194215343Y-82813750D01*
X194209784Y-82757304D01*
X194226116Y-82781747D01*
X194332253Y-82887884D01*
X194457058Y-82971276D01*
X194595733Y-83028717D01*
X194742950Y-83058000D01*
X194893050Y-83058000D01*
X195040267Y-83028717D01*
X195178942Y-82971276D01*
X195303747Y-82887884D01*
X195409884Y-82781747D01*
X195493276Y-82656942D01*
X195550717Y-82518267D01*
X195580000Y-82371050D01*
X195580000Y-82220950D01*
X195550717Y-82073733D01*
X195493276Y-81935058D01*
X195409884Y-81810253D01*
X195326000Y-81726369D01*
X195326000Y-80707944D01*
X195328457Y-80683000D01*
X195325017Y-80648072D01*
X195318649Y-80583415D01*
X195289601Y-80487657D01*
X195259465Y-80431276D01*
X195242429Y-80399404D01*
X195213779Y-80364494D01*
X195178948Y-80322052D01*
X195159565Y-80306145D01*
X194215343Y-79361923D01*
X194215343Y-79003750D01*
X194203784Y-78886385D01*
X194169549Y-78773530D01*
X194113956Y-78669523D01*
X194039140Y-78578360D01*
X193947977Y-78503544D01*
X193843970Y-78447951D01*
X193731115Y-78413716D01*
X193613750Y-78402157D01*
X193101250Y-78402157D01*
X192983885Y-78413716D01*
X192871030Y-78447951D01*
X192767023Y-78503544D01*
X192675860Y-78578360D01*
X192601044Y-78669523D01*
X192545451Y-78773530D01*
X192511216Y-78886385D01*
X192499657Y-79003750D01*
X192499657Y-79441250D01*
X192505640Y-79502000D01*
X192003004Y-79502000D01*
X191971898Y-79426903D01*
X191837180Y-79225283D01*
X191665717Y-79053820D01*
X191464097Y-78919102D01*
X191240069Y-78826307D01*
X191002243Y-78779000D01*
X190759757Y-78779000D01*
X190521931Y-78826307D01*
X190297903Y-78919102D01*
X190096283Y-79053820D01*
X189924820Y-79225283D01*
X189790102Y-79426903D01*
X189697307Y-79650931D01*
X189650000Y-79888757D01*
X189650000Y-80131243D01*
X189697307Y-80369069D01*
X189790102Y-80593097D01*
X189924820Y-80794717D01*
X190096283Y-80966180D01*
X190297903Y-81100898D01*
X190521931Y-81193693D01*
X190759757Y-81241000D01*
X191002243Y-81241000D01*
X191240069Y-81193693D01*
X191464097Y-81100898D01*
X191665717Y-80966180D01*
X191837180Y-80794717D01*
X191971898Y-80593097D01*
X192003004Y-80518000D01*
X192359580Y-80518000D01*
X192499657Y-80658077D01*
X192499657Y-81016250D01*
X192511216Y-81133615D01*
X192545451Y-81246470D01*
X192601044Y-81350477D01*
X192675860Y-81441640D01*
X192767023Y-81516456D01*
X192871030Y-81572049D01*
X192983885Y-81606284D01*
X193101250Y-81617843D01*
X193613750Y-81617843D01*
X193731115Y-81606284D01*
X193843970Y-81572049D01*
X193947977Y-81516456D01*
X194039140Y-81441640D01*
X194113956Y-81350477D01*
X194169549Y-81246470D01*
X194203784Y-81133615D01*
X194215343Y-81016250D01*
X194215343Y-80798763D01*
X194310000Y-80893420D01*
X194310001Y-81726368D01*
X194226116Y-81810253D01*
X194142724Y-81935058D01*
X194085283Y-82073733D01*
X194056000Y-82220950D01*
X194056000Y-82371050D01*
X194065938Y-82421014D01*
X194039140Y-82388360D01*
X193947977Y-82313544D01*
X193843970Y-82257951D01*
X193731115Y-82223716D01*
X193613750Y-82212157D01*
X193101250Y-82212157D01*
X192983885Y-82223716D01*
X192871030Y-82257951D01*
X192767023Y-82313544D01*
X192675860Y-82388360D01*
X192601044Y-82479523D01*
X192545451Y-82583530D01*
X192511216Y-82696385D01*
X192499657Y-82813750D01*
X192499657Y-83251250D01*
X192505640Y-83312000D01*
X192003004Y-83312000D01*
X191971898Y-83236903D01*
X191837180Y-83035283D01*
X191665717Y-82863820D01*
X191464097Y-82729102D01*
X191240069Y-82636307D01*
X191002243Y-82589000D01*
X190759757Y-82589000D01*
X190521931Y-82636307D01*
X190297903Y-82729102D01*
X190096283Y-82863820D01*
X189924820Y-83035283D01*
X189790102Y-83236903D01*
X189697307Y-83460931D01*
X189650000Y-83698757D01*
X189650000Y-83941243D01*
X189697307Y-84179069D01*
X189790102Y-84403097D01*
X189924820Y-84604717D01*
X190096283Y-84776180D01*
X190297903Y-84910898D01*
X190521931Y-85003693D01*
X190759757Y-85051000D01*
X191002243Y-85051000D01*
X191240069Y-85003693D01*
X191464097Y-84910898D01*
X191665717Y-84776180D01*
X191837180Y-84604717D01*
X191971898Y-84403097D01*
X192003004Y-84328000D01*
X192359580Y-84328000D01*
X192499657Y-84468077D01*
X192499657Y-84826250D01*
X192511216Y-84943615D01*
X192545451Y-85056470D01*
X192601044Y-85160477D01*
X192675860Y-85251640D01*
X192767023Y-85326456D01*
X192871030Y-85382049D01*
X192983885Y-85416284D01*
X193101250Y-85427843D01*
X193613750Y-85427843D01*
X193731115Y-85416284D01*
X193843970Y-85382049D01*
X193947977Y-85326456D01*
X194039140Y-85251640D01*
X194113956Y-85160477D01*
X194169549Y-85056470D01*
X194203784Y-84943615D01*
X194215343Y-84826250D01*
X194215343Y-84608764D01*
X194784150Y-85177571D01*
X194800052Y-85196948D01*
X194819429Y-85212850D01*
X194877404Y-85260429D01*
X194965655Y-85307600D01*
X194965657Y-85307601D01*
X195061415Y-85336649D01*
X195136053Y-85344000D01*
X195136055Y-85344000D01*
X195160999Y-85346457D01*
X195185943Y-85344000D01*
X196026369Y-85344000D01*
X196110253Y-85427884D01*
X196235058Y-85511276D01*
X196373733Y-85568717D01*
X196520950Y-85598000D01*
X196671050Y-85598000D01*
X196818267Y-85568717D01*
X196956942Y-85511276D01*
X197081747Y-85427884D01*
X197187884Y-85321747D01*
X197206001Y-85294634D01*
X197206001Y-86416847D01*
X195719700Y-86416847D01*
X195719700Y-88843152D01*
X197206000Y-88843152D01*
X197206000Y-89457366D01*
X197187884Y-89430253D01*
X197081747Y-89324116D01*
X196956942Y-89240724D01*
X196818267Y-89183283D01*
X196671050Y-89154000D01*
X196520950Y-89154000D01*
X196373733Y-89183283D01*
X196235058Y-89240724D01*
X196110253Y-89324116D01*
X196004116Y-89430253D01*
X195920724Y-89555058D01*
X195863283Y-89693733D01*
X195834000Y-89840950D01*
X195834000Y-89959580D01*
X195649080Y-90144500D01*
X194137997Y-90144500D01*
X194113956Y-90099523D01*
X194039140Y-90008360D01*
X193947977Y-89933544D01*
X193843970Y-89877951D01*
X193731115Y-89843716D01*
X193613750Y-89832157D01*
X193101250Y-89832157D01*
X192983885Y-89843716D01*
X192871030Y-89877951D01*
X192767023Y-89933544D01*
X192675860Y-90008360D01*
X192601044Y-90099523D01*
X192545451Y-90203530D01*
X192511216Y-90316385D01*
X192499657Y-90433750D01*
X192499657Y-90871250D01*
X192505640Y-90932000D01*
X192003004Y-90932000D01*
X191971898Y-90856903D01*
X191837180Y-90655283D01*
X191665717Y-90483820D01*
X191464097Y-90349102D01*
X191240069Y-90256307D01*
X191002243Y-90209000D01*
X190759757Y-90209000D01*
X190521931Y-90256307D01*
X190297903Y-90349102D01*
X190096283Y-90483820D01*
X189924820Y-90655283D01*
X189790102Y-90856903D01*
X189697307Y-91080931D01*
X189650000Y-91318757D01*
X189650000Y-91561243D01*
X189697307Y-91799069D01*
X189790102Y-92023097D01*
X189924820Y-92224717D01*
X190096283Y-92396180D01*
X190297903Y-92530898D01*
X190521931Y-92623693D01*
X190759757Y-92671000D01*
X191002243Y-92671000D01*
X191240069Y-92623693D01*
X191464097Y-92530898D01*
X191665717Y-92396180D01*
X191837180Y-92224717D01*
X191971898Y-92023097D01*
X192003004Y-91948000D01*
X192359580Y-91948000D01*
X192499657Y-92088077D01*
X192499657Y-92446250D01*
X192511216Y-92563615D01*
X192545451Y-92676470D01*
X192601044Y-92780477D01*
X192675860Y-92871640D01*
X192767023Y-92946456D01*
X192871030Y-93002049D01*
X192983885Y-93036284D01*
X193101250Y-93047843D01*
X193507737Y-93047843D01*
X193015930Y-93539650D01*
X192996553Y-93555552D01*
X192980651Y-93574929D01*
X192980650Y-93574930D01*
X192933071Y-93632905D01*
X192909961Y-93676141D01*
X192871030Y-93687951D01*
X192767023Y-93743544D01*
X192675860Y-93818360D01*
X192601044Y-93909523D01*
X192545451Y-94013530D01*
X192511216Y-94126385D01*
X192499657Y-94243750D01*
X192499657Y-94681250D01*
X192505640Y-94742000D01*
X192003004Y-94742000D01*
X191971898Y-94666903D01*
X191837180Y-94465283D01*
X191665717Y-94293820D01*
X191464097Y-94159102D01*
X191240069Y-94066307D01*
X191002243Y-94019000D01*
X190759757Y-94019000D01*
X190521931Y-94066307D01*
X190297903Y-94159102D01*
X190096283Y-94293820D01*
X189924820Y-94465283D01*
X189790102Y-94666903D01*
X189697307Y-94890931D01*
X189650000Y-95128757D01*
X189650000Y-95371243D01*
X189697307Y-95609069D01*
X189790102Y-95833097D01*
X189924820Y-96034717D01*
X190096283Y-96206180D01*
X190297903Y-96340898D01*
X190521931Y-96433693D01*
X190759757Y-96481000D01*
X191002243Y-96481000D01*
X191240069Y-96433693D01*
X191464097Y-96340898D01*
X191665717Y-96206180D01*
X191837180Y-96034717D01*
X191971898Y-95833097D01*
X192003004Y-95758000D01*
X192359580Y-95758000D01*
X192499657Y-95898077D01*
X192499657Y-96256250D01*
X192511216Y-96373615D01*
X192545451Y-96486470D01*
X192601044Y-96590477D01*
X192675860Y-96681640D01*
X192767023Y-96756456D01*
X192871030Y-96812049D01*
X192983885Y-96846284D01*
X193101250Y-96857843D01*
X193613750Y-96857843D01*
X193731115Y-96846284D01*
X193843970Y-96812049D01*
X193947977Y-96756456D01*
X194039140Y-96681640D01*
X194113956Y-96590477D01*
X194169549Y-96486470D01*
X194203784Y-96373615D01*
X194215343Y-96256250D01*
X194215343Y-95818750D01*
X194203784Y-95701385D01*
X194169549Y-95588530D01*
X194113956Y-95484523D01*
X194039140Y-95393360D01*
X193947977Y-95318544D01*
X193843970Y-95262951D01*
X193801277Y-95250000D01*
X193843970Y-95237049D01*
X193947977Y-95181456D01*
X194039140Y-95106640D01*
X194113956Y-95015477D01*
X194169549Y-94911470D01*
X194203784Y-94798615D01*
X194215343Y-94681250D01*
X194215343Y-94243750D01*
X194203784Y-94126385D01*
X194169549Y-94013530D01*
X194113956Y-93909523D01*
X194099956Y-93892464D01*
X194774420Y-93218000D01*
X194893050Y-93218000D01*
X195040267Y-93188717D01*
X195178942Y-93131276D01*
X195303747Y-93047884D01*
X195409884Y-92941747D01*
X195493276Y-92816942D01*
X195550717Y-92678267D01*
X195580000Y-92531050D01*
X195580000Y-92380950D01*
X195550717Y-92233733D01*
X195493276Y-92095058D01*
X195409884Y-91970253D01*
X195303747Y-91864116D01*
X195178942Y-91780724D01*
X195040267Y-91723283D01*
X194893050Y-91694000D01*
X194742950Y-91694000D01*
X194595733Y-91723283D01*
X194457058Y-91780724D01*
X194332253Y-91864116D01*
X194226116Y-91970253D01*
X194213423Y-91989250D01*
X194203784Y-91891385D01*
X194169549Y-91778530D01*
X194113956Y-91674523D01*
X194039140Y-91583360D01*
X193947977Y-91508544D01*
X193843970Y-91452951D01*
X193801277Y-91440000D01*
X193843970Y-91427049D01*
X193947977Y-91371456D01*
X194039140Y-91296640D01*
X194113956Y-91205477D01*
X194137997Y-91160500D01*
X195834556Y-91160500D01*
X195859500Y-91162957D01*
X195884444Y-91160500D01*
X195884447Y-91160500D01*
X195959085Y-91153149D01*
X196054843Y-91124101D01*
X196143095Y-91076929D01*
X196220448Y-91013448D01*
X196236355Y-90994065D01*
X196552420Y-90678000D01*
X196671050Y-90678000D01*
X196818267Y-90648717D01*
X196956942Y-90591276D01*
X197081747Y-90507884D01*
X197187884Y-90401747D01*
X197206000Y-90374634D01*
X197206000Y-94537366D01*
X197187884Y-94510253D01*
X197081747Y-94404116D01*
X196956942Y-94320724D01*
X196818267Y-94263283D01*
X196671050Y-94234000D01*
X196520950Y-94234000D01*
X196373733Y-94263283D01*
X196235058Y-94320724D01*
X196110253Y-94404116D01*
X196004116Y-94510253D01*
X195920724Y-94635058D01*
X195863283Y-94773733D01*
X195834000Y-94920950D01*
X195834000Y-95039580D01*
X193421423Y-97452157D01*
X193101250Y-97452157D01*
X192983885Y-97463716D01*
X192871030Y-97497951D01*
X192767023Y-97553544D01*
X192675860Y-97628360D01*
X192601044Y-97719523D01*
X192545451Y-97823530D01*
X192511216Y-97936385D01*
X192499657Y-98053750D01*
X192499657Y-98491250D01*
X192505640Y-98552000D01*
X192003004Y-98552000D01*
X191971898Y-98476903D01*
X191837180Y-98275283D01*
X191665717Y-98103820D01*
X191464097Y-97969102D01*
X191240069Y-97876307D01*
X191002243Y-97829000D01*
X190759757Y-97829000D01*
X190521931Y-97876307D01*
X190297903Y-97969102D01*
X190096283Y-98103820D01*
X189924820Y-98275283D01*
X189790102Y-98476903D01*
X189697307Y-98700931D01*
X189650000Y-98938757D01*
X189650000Y-99181243D01*
X189697307Y-99419069D01*
X189790102Y-99643097D01*
X189924820Y-99844717D01*
X190096283Y-100016180D01*
X190297903Y-100150898D01*
X190521931Y-100243693D01*
X190759757Y-100291000D01*
X191002243Y-100291000D01*
X191240069Y-100243693D01*
X191464097Y-100150898D01*
X191665717Y-100016180D01*
X191837180Y-99844717D01*
X191971898Y-99643097D01*
X192003004Y-99568000D01*
X192359580Y-99568000D01*
X192499657Y-99708077D01*
X192499657Y-100066250D01*
X192511216Y-100183615D01*
X192545451Y-100296470D01*
X192601044Y-100400477D01*
X192675860Y-100491640D01*
X192767023Y-100566456D01*
X192871030Y-100622049D01*
X192983885Y-100656284D01*
X193101250Y-100667843D01*
X193613750Y-100667843D01*
X193731115Y-100656284D01*
X193843970Y-100622049D01*
X193947977Y-100566456D01*
X194039140Y-100491640D01*
X194113956Y-100400477D01*
X194169549Y-100296470D01*
X194203784Y-100183615D01*
X194215343Y-100066250D01*
X194215343Y-99628750D01*
X194203784Y-99511385D01*
X194169549Y-99398530D01*
X194113956Y-99294523D01*
X194039140Y-99203360D01*
X193947977Y-99128544D01*
X193843970Y-99072951D01*
X193801277Y-99060000D01*
X193843970Y-99047049D01*
X193947977Y-98991456D01*
X194039140Y-98916640D01*
X194113956Y-98825477D01*
X194169549Y-98721470D01*
X194203784Y-98608615D01*
X194215343Y-98491250D01*
X194215343Y-98095077D01*
X196552420Y-95758000D01*
X196671050Y-95758000D01*
X196818267Y-95728717D01*
X196956942Y-95671276D01*
X197081747Y-95587884D01*
X197187884Y-95481747D01*
X197206000Y-95454634D01*
X197206000Y-99650132D01*
X197178159Y-99655443D01*
X197172732Y-99657081D01*
X196876762Y-99748699D01*
X196842799Y-99762976D01*
X196808721Y-99776744D01*
X196803720Y-99779402D01*
X196803716Y-99779404D01*
X196803715Y-99779405D01*
X196531177Y-99926766D01*
X196500686Y-99947333D01*
X196469881Y-99967491D01*
X196465488Y-99971074D01*
X196226762Y-100168564D01*
X196200791Y-100194717D01*
X196174542Y-100220422D01*
X196170933Y-100224784D01*
X196170929Y-100224788D01*
X196170928Y-100224790D01*
X195975110Y-100464888D01*
X195954753Y-100495527D01*
X195933958Y-100525898D01*
X195931262Y-100530885D01*
X195785807Y-100804445D01*
X195771776Y-100838485D01*
X195757288Y-100872289D01*
X195755613Y-100877697D01*
X195755611Y-100877703D01*
X195755611Y-100877705D01*
X195666062Y-101174307D01*
X195662163Y-101194000D01*
X189939019Y-101194000D01*
X189948843Y-101094250D01*
X189948843Y-100581750D01*
X189937284Y-100464385D01*
X189903049Y-100351530D01*
X189847456Y-100247523D01*
X189772640Y-100156360D01*
X189681477Y-100081544D01*
X189636500Y-100057503D01*
X189636500Y-99872443D01*
X189638957Y-99847499D01*
X189636189Y-99819397D01*
X189629149Y-99747915D01*
X189600101Y-99652157D01*
X189580000Y-99614551D01*
X189552929Y-99563904D01*
X189505350Y-99505929D01*
X189494295Y-99492458D01*
X189524693Y-99419069D01*
X189572000Y-99181243D01*
X189572000Y-98938757D01*
X189524693Y-98700931D01*
X189431898Y-98476903D01*
X189297180Y-98275283D01*
X189125717Y-98103820D01*
X188989560Y-98012843D01*
X189347250Y-98012843D01*
X189464615Y-98001284D01*
X189577470Y-97967049D01*
X189681477Y-97911456D01*
X189772640Y-97836640D01*
X189847456Y-97745477D01*
X189903049Y-97641470D01*
X189937284Y-97528615D01*
X189948843Y-97411250D01*
X189948843Y-96898750D01*
X189937284Y-96781385D01*
X189903049Y-96668530D01*
X189847456Y-96564523D01*
X189772640Y-96473360D01*
X189681477Y-96398544D01*
X189636500Y-96374503D01*
X189636500Y-96062443D01*
X189638957Y-96037499D01*
X189636500Y-96012553D01*
X189629149Y-95937915D01*
X189600101Y-95842157D01*
X189586471Y-95816657D01*
X189552929Y-95753904D01*
X189505350Y-95695929D01*
X189494295Y-95682458D01*
X189524693Y-95609069D01*
X189572000Y-95371243D01*
X189572000Y-95128757D01*
X189524693Y-94890931D01*
X189431898Y-94666903D01*
X189297180Y-94465283D01*
X189125717Y-94293820D01*
X188989560Y-94202843D01*
X189347250Y-94202843D01*
X189464615Y-94191284D01*
X189577470Y-94157049D01*
X189681477Y-94101456D01*
X189772640Y-94026640D01*
X189847456Y-93935477D01*
X189903049Y-93831470D01*
X189937284Y-93718615D01*
X189948843Y-93601250D01*
X189948843Y-93088750D01*
X189937284Y-92971385D01*
X189903049Y-92858530D01*
X189847456Y-92754523D01*
X189772640Y-92663360D01*
X189681477Y-92588544D01*
X189636500Y-92564503D01*
X189636500Y-92252443D01*
X189638957Y-92227499D01*
X189636500Y-92202553D01*
X189629149Y-92127915D01*
X189600101Y-92032157D01*
X189568116Y-91972317D01*
X189552929Y-91943904D01*
X189505350Y-91885929D01*
X189494295Y-91872458D01*
X189524693Y-91799069D01*
X189572000Y-91561243D01*
X189572000Y-91318757D01*
X189524693Y-91080931D01*
X189431898Y-90856903D01*
X189297180Y-90655283D01*
X189125717Y-90483820D01*
X188989560Y-90392843D01*
X189347250Y-90392843D01*
X189464615Y-90381284D01*
X189577470Y-90347049D01*
X189681477Y-90291456D01*
X189772640Y-90216640D01*
X189847456Y-90125477D01*
X189903049Y-90021470D01*
X189937284Y-89908615D01*
X189948843Y-89791250D01*
X189948843Y-89278750D01*
X189937284Y-89161385D01*
X189903049Y-89048530D01*
X189847456Y-88944523D01*
X189772640Y-88853360D01*
X189681477Y-88778544D01*
X189636500Y-88754503D01*
X189636500Y-88442443D01*
X189638957Y-88417499D01*
X189636500Y-88392553D01*
X189629149Y-88317915D01*
X189600101Y-88222157D01*
X189571839Y-88169283D01*
X189552929Y-88133904D01*
X189505350Y-88075929D01*
X189494295Y-88062458D01*
X189524693Y-87989069D01*
X189572000Y-87751243D01*
X189572000Y-87508757D01*
X189650000Y-87508757D01*
X189650000Y-87751243D01*
X189697307Y-87989069D01*
X189790102Y-88213097D01*
X189924820Y-88414717D01*
X190096283Y-88586180D01*
X190297903Y-88720898D01*
X190521931Y-88813693D01*
X190759757Y-88861000D01*
X191002243Y-88861000D01*
X191240069Y-88813693D01*
X191464097Y-88720898D01*
X191665717Y-88586180D01*
X191837180Y-88414717D01*
X191971898Y-88213097D01*
X192003004Y-88138000D01*
X192359580Y-88138000D01*
X192499657Y-88278077D01*
X192499657Y-88636250D01*
X192511216Y-88753615D01*
X192545451Y-88866470D01*
X192601044Y-88970477D01*
X192675860Y-89061640D01*
X192767023Y-89136456D01*
X192871030Y-89192049D01*
X192983885Y-89226284D01*
X193101250Y-89237843D01*
X193613750Y-89237843D01*
X193731115Y-89226284D01*
X193843970Y-89192049D01*
X193947977Y-89136456D01*
X194039140Y-89061640D01*
X194113956Y-88970477D01*
X194169549Y-88866470D01*
X194203784Y-88753615D01*
X194215343Y-88636250D01*
X194215343Y-88198750D01*
X194203784Y-88081385D01*
X194169549Y-87968530D01*
X194113956Y-87864523D01*
X194039140Y-87773360D01*
X193947977Y-87698544D01*
X193843970Y-87642951D01*
X193801277Y-87630000D01*
X193843970Y-87617049D01*
X193947977Y-87561456D01*
X194039140Y-87486640D01*
X194058409Y-87463161D01*
X194085283Y-87598267D01*
X194142724Y-87736942D01*
X194226116Y-87861747D01*
X194332253Y-87967884D01*
X194457058Y-88051276D01*
X194595733Y-88108717D01*
X194742950Y-88138000D01*
X194893050Y-88138000D01*
X195040267Y-88108717D01*
X195178942Y-88051276D01*
X195303747Y-87967884D01*
X195409884Y-87861747D01*
X195493276Y-87736942D01*
X195550717Y-87598267D01*
X195580000Y-87451050D01*
X195580000Y-87300950D01*
X195550717Y-87153733D01*
X195493276Y-87015058D01*
X195409884Y-86890253D01*
X195303747Y-86784116D01*
X195178942Y-86700724D01*
X195040267Y-86643283D01*
X194893050Y-86614000D01*
X194774420Y-86614000D01*
X194661355Y-86500935D01*
X194645448Y-86481552D01*
X194568095Y-86418071D01*
X194479843Y-86370899D01*
X194384085Y-86341851D01*
X194309447Y-86334500D01*
X194309444Y-86334500D01*
X194284500Y-86332043D01*
X194259556Y-86334500D01*
X194137997Y-86334500D01*
X194113956Y-86289523D01*
X194039140Y-86198360D01*
X193947977Y-86123544D01*
X193843970Y-86067951D01*
X193731115Y-86033716D01*
X193613750Y-86022157D01*
X193101250Y-86022157D01*
X192983885Y-86033716D01*
X192871030Y-86067951D01*
X192767023Y-86123544D01*
X192675860Y-86198360D01*
X192601044Y-86289523D01*
X192545451Y-86393530D01*
X192511216Y-86506385D01*
X192499657Y-86623750D01*
X192499657Y-87061250D01*
X192505640Y-87122000D01*
X192003004Y-87122000D01*
X191971898Y-87046903D01*
X191837180Y-86845283D01*
X191665717Y-86673820D01*
X191464097Y-86539102D01*
X191240069Y-86446307D01*
X191002243Y-86399000D01*
X190759757Y-86399000D01*
X190521931Y-86446307D01*
X190297903Y-86539102D01*
X190096283Y-86673820D01*
X189924820Y-86845283D01*
X189790102Y-87046903D01*
X189697307Y-87270931D01*
X189650000Y-87508757D01*
X189572000Y-87508757D01*
X189524693Y-87270931D01*
X189431898Y-87046903D01*
X189297180Y-86845283D01*
X189125717Y-86673820D01*
X188989560Y-86582843D01*
X189347250Y-86582843D01*
X189464615Y-86571284D01*
X189577470Y-86537049D01*
X189681477Y-86481456D01*
X189772640Y-86406640D01*
X189847456Y-86315477D01*
X189903049Y-86211470D01*
X189937284Y-86098615D01*
X189948843Y-85981250D01*
X189948843Y-85468750D01*
X189937284Y-85351385D01*
X189903049Y-85238530D01*
X189847456Y-85134523D01*
X189772640Y-85043360D01*
X189681477Y-84968544D01*
X189636500Y-84944503D01*
X189636500Y-84632443D01*
X189638957Y-84607499D01*
X189635228Y-84569641D01*
X189629149Y-84507915D01*
X189600101Y-84412157D01*
X189572422Y-84360373D01*
X189552929Y-84323904D01*
X189505350Y-84265929D01*
X189494295Y-84252458D01*
X189524693Y-84179069D01*
X189572000Y-83941243D01*
X189572000Y-83698757D01*
X189524693Y-83460931D01*
X189431898Y-83236903D01*
X189297180Y-83035283D01*
X189125717Y-82863820D01*
X188989560Y-82772843D01*
X189347250Y-82772843D01*
X189464615Y-82761284D01*
X189577470Y-82727049D01*
X189681477Y-82671456D01*
X189772640Y-82596640D01*
X189847456Y-82505477D01*
X189903049Y-82401470D01*
X189937284Y-82288615D01*
X189948843Y-82171250D01*
X189948843Y-81658750D01*
X189937284Y-81541385D01*
X189903049Y-81428530D01*
X189847456Y-81324523D01*
X189772640Y-81233360D01*
X189681477Y-81158544D01*
X189636500Y-81134503D01*
X189636500Y-80822443D01*
X189638957Y-80797499D01*
X189636087Y-80768362D01*
X189629149Y-80697915D01*
X189600101Y-80602157D01*
X189571115Y-80547928D01*
X189552929Y-80513904D01*
X189505350Y-80455929D01*
X189494295Y-80442458D01*
X189524693Y-80369069D01*
X189572000Y-80131243D01*
X189572000Y-79888757D01*
X189524693Y-79650931D01*
X189431898Y-79426903D01*
X189297180Y-79225283D01*
X189125717Y-79053820D01*
X188989560Y-78962843D01*
X189347250Y-78962843D01*
X189464615Y-78951284D01*
X189577470Y-78917049D01*
X189681477Y-78861456D01*
X189772640Y-78786640D01*
X189847456Y-78695477D01*
X189903049Y-78591470D01*
X189937284Y-78478615D01*
X189948843Y-78361250D01*
X189948843Y-77848750D01*
X189937284Y-77731385D01*
X189903049Y-77618530D01*
X189847456Y-77514523D01*
X189772640Y-77423360D01*
X189681477Y-77348544D01*
X189636500Y-77324503D01*
X189636500Y-77012443D01*
X189638957Y-76987499D01*
X189636500Y-76962553D01*
X189629149Y-76887915D01*
X189600101Y-76792157D01*
X189559048Y-76715352D01*
X189552929Y-76703904D01*
X189505350Y-76645929D01*
X189494295Y-76632458D01*
X189524693Y-76559069D01*
X189572000Y-76321243D01*
X189572000Y-76078757D01*
X189524693Y-75840931D01*
X189431898Y-75616903D01*
X189297180Y-75415283D01*
X189125717Y-75243820D01*
X188924097Y-75109102D01*
X188700069Y-75016307D01*
X188462243Y-74969000D01*
X188219757Y-74969000D01*
X187981931Y-75016307D01*
X187757903Y-75109102D01*
X187556283Y-75243820D01*
X187384820Y-75415283D01*
X187250102Y-75616903D01*
X187202772Y-75731168D01*
X187145157Y-75568748D01*
X186996178Y-75318645D01*
X186801269Y-75102412D01*
X186567920Y-74928359D01*
X186305099Y-74803175D01*
X186157890Y-74758524D01*
X185928000Y-74879845D01*
X185928000Y-76073000D01*
X185948000Y-76073000D01*
X185948000Y-76327000D01*
X185928000Y-76327000D01*
X185928000Y-77520155D01*
X186157890Y-77641476D01*
X186305099Y-77596825D01*
X186489863Y-77508820D01*
X186477928Y-77630000D01*
X186481000Y-77819250D01*
X186639750Y-77978000D01*
X187426500Y-77978000D01*
X187426500Y-77958000D01*
X187680500Y-77958000D01*
X187680500Y-77978000D01*
X187700500Y-77978000D01*
X187700500Y-78232000D01*
X187680500Y-78232000D01*
X187680500Y-78252000D01*
X187426500Y-78252000D01*
X187426500Y-78232000D01*
X186639750Y-78232000D01*
X186481000Y-78390750D01*
X186477928Y-78580000D01*
X186489863Y-78701180D01*
X186305099Y-78613175D01*
X186157890Y-78568524D01*
X185928000Y-78689845D01*
X185928000Y-79883000D01*
X185948000Y-79883000D01*
X185948000Y-80137000D01*
X185928000Y-80137000D01*
X185928000Y-81330155D01*
X186157890Y-81451476D01*
X186305099Y-81406825D01*
X186489863Y-81318820D01*
X186477928Y-81440000D01*
X186481000Y-81629250D01*
X186639750Y-81788000D01*
X187426500Y-81788000D01*
X187426500Y-81768000D01*
X187680500Y-81768000D01*
X187680500Y-81788000D01*
X187700500Y-81788000D01*
X187700500Y-82042000D01*
X187680500Y-82042000D01*
X187680500Y-82062000D01*
X187426500Y-82062000D01*
X187426500Y-82042000D01*
X186639750Y-82042000D01*
X186481000Y-82200750D01*
X186477928Y-82390000D01*
X186489863Y-82511180D01*
X186305099Y-82423175D01*
X186157890Y-82378524D01*
X185928000Y-82499845D01*
X185928000Y-83693000D01*
X185948000Y-83693000D01*
X185948000Y-83947000D01*
X185928000Y-83947000D01*
X185928000Y-85140155D01*
X186157890Y-85261476D01*
X186305099Y-85216825D01*
X186489863Y-85128820D01*
X186477928Y-85250000D01*
X186481000Y-85439250D01*
X186639750Y-85598000D01*
X187426500Y-85598000D01*
X187426500Y-85578000D01*
X187680500Y-85578000D01*
X187680500Y-85598000D01*
X187700500Y-85598000D01*
X187700500Y-85852000D01*
X187680500Y-85852000D01*
X187680500Y-85872000D01*
X187426500Y-85872000D01*
X187426500Y-85852000D01*
X186639750Y-85852000D01*
X186481000Y-86010750D01*
X186477928Y-86200000D01*
X186489863Y-86321180D01*
X186305099Y-86233175D01*
X186157890Y-86188524D01*
X185928000Y-86309845D01*
X185928000Y-87503000D01*
X185948000Y-87503000D01*
X185948000Y-87757000D01*
X185928000Y-87757000D01*
X185928000Y-88950155D01*
X186157890Y-89071476D01*
X186305099Y-89026825D01*
X186489863Y-88938820D01*
X186477928Y-89060000D01*
X186481000Y-89249250D01*
X186639750Y-89408000D01*
X187426500Y-89408000D01*
X187426500Y-89388000D01*
X187680500Y-89388000D01*
X187680500Y-89408000D01*
X187700500Y-89408000D01*
X187700500Y-89662000D01*
X187680500Y-89662000D01*
X187680500Y-89682000D01*
X187426500Y-89682000D01*
X187426500Y-89662000D01*
X186639750Y-89662000D01*
X186481000Y-89820750D01*
X186477928Y-90010000D01*
X186489863Y-90131180D01*
X186305099Y-90043175D01*
X186157890Y-89998524D01*
X185928000Y-90119845D01*
X185928000Y-91313000D01*
X185948000Y-91313000D01*
X185948000Y-91567000D01*
X185928000Y-91567000D01*
X185928000Y-92760155D01*
X186157890Y-92881476D01*
X186305099Y-92836825D01*
X186489863Y-92748820D01*
X186477928Y-92870000D01*
X186481000Y-93059250D01*
X186639750Y-93218000D01*
X187426500Y-93218000D01*
X187426500Y-93198000D01*
X187680500Y-93198000D01*
X187680500Y-93218000D01*
X187700500Y-93218000D01*
X187700500Y-93472000D01*
X187680500Y-93472000D01*
X187680500Y-93492000D01*
X187426500Y-93492000D01*
X187426500Y-93472000D01*
X186639750Y-93472000D01*
X186481000Y-93630750D01*
X186477928Y-93820000D01*
X186489863Y-93941180D01*
X186305099Y-93853175D01*
X186157890Y-93808524D01*
X185928000Y-93929845D01*
X185928000Y-95123000D01*
X185948000Y-95123000D01*
X185948000Y-95377000D01*
X185928000Y-95377000D01*
X185928000Y-96570155D01*
X186157890Y-96691476D01*
X186305099Y-96646825D01*
X186489863Y-96558820D01*
X186477928Y-96680000D01*
X186481000Y-96869250D01*
X186639750Y-97028000D01*
X187426500Y-97028000D01*
X187426500Y-97008000D01*
X187680500Y-97008000D01*
X187680500Y-97028000D01*
X187700500Y-97028000D01*
X187700500Y-97282000D01*
X187680500Y-97282000D01*
X187680500Y-97302000D01*
X187426500Y-97302000D01*
X187426500Y-97282000D01*
X186639750Y-97282000D01*
X186481000Y-97440750D01*
X186477928Y-97630000D01*
X186489863Y-97751180D01*
X186305099Y-97663175D01*
X186157890Y-97618524D01*
X185928000Y-97739845D01*
X185928000Y-98933000D01*
X185948000Y-98933000D01*
X185948000Y-99187000D01*
X185928000Y-99187000D01*
X185928000Y-100380155D01*
X186157890Y-100501476D01*
X186305099Y-100456825D01*
X186478113Y-100374417D01*
X186481000Y-100552250D01*
X186639750Y-100711000D01*
X187426500Y-100711000D01*
X187426500Y-100691000D01*
X187680500Y-100691000D01*
X187680500Y-100711000D01*
X187700500Y-100711000D01*
X187700500Y-100965000D01*
X187680500Y-100965000D01*
X187680500Y-100985000D01*
X187426500Y-100985000D01*
X187426500Y-100965000D01*
X186639750Y-100965000D01*
X186481000Y-101123750D01*
X186479860Y-101194000D01*
X179305420Y-101194000D01*
X180286833Y-100212587D01*
X180361931Y-100243693D01*
X180599757Y-100291000D01*
X180842243Y-100291000D01*
X181080069Y-100243693D01*
X181304097Y-100150898D01*
X181505717Y-100016180D01*
X181677180Y-99844717D01*
X181811898Y-99643097D01*
X181904693Y-99419069D01*
X181952000Y-99181243D01*
X181952000Y-98938757D01*
X181904693Y-98700931D01*
X181811898Y-98476903D01*
X181677180Y-98275283D01*
X181505717Y-98103820D01*
X181304097Y-97969102D01*
X181080069Y-97876307D01*
X180842243Y-97829000D01*
X180599757Y-97829000D01*
X180361931Y-97876307D01*
X180137903Y-97969102D01*
X179936283Y-98103820D01*
X179764820Y-98275283D01*
X179630102Y-98476903D01*
X179537307Y-98700931D01*
X179490000Y-98938757D01*
X179490000Y-99181243D01*
X179537307Y-99419069D01*
X179568413Y-99494167D01*
X178376590Y-100685990D01*
X177273430Y-100685990D01*
X177746834Y-100212587D01*
X177821931Y-100243693D01*
X178059757Y-100291000D01*
X178302243Y-100291000D01*
X178540069Y-100243693D01*
X178764097Y-100150898D01*
X178965717Y-100016180D01*
X179137180Y-99844717D01*
X179271898Y-99643097D01*
X179364693Y-99419069D01*
X179412000Y-99181243D01*
X179412000Y-98938757D01*
X179364693Y-98700931D01*
X179271898Y-98476903D01*
X179137180Y-98275283D01*
X178965717Y-98103820D01*
X178764097Y-97969102D01*
X178733141Y-97956279D01*
X180286834Y-96402587D01*
X180361931Y-96433693D01*
X180599757Y-96481000D01*
X180842243Y-96481000D01*
X181080069Y-96433693D01*
X181304097Y-96340898D01*
X181505717Y-96206180D01*
X181677180Y-96034717D01*
X181811898Y-95833097D01*
X181904693Y-95609069D01*
X181952000Y-95371243D01*
X181952000Y-95128757D01*
X181904693Y-94890931D01*
X181811898Y-94666903D01*
X181677180Y-94465283D01*
X181505717Y-94293820D01*
X181304097Y-94159102D01*
X181080069Y-94066307D01*
X180842243Y-94019000D01*
X180599757Y-94019000D01*
X180361931Y-94066307D01*
X180137903Y-94159102D01*
X179936283Y-94293820D01*
X179764820Y-94465283D01*
X179630102Y-94666903D01*
X179537307Y-94890931D01*
X179490000Y-95128757D01*
X179490000Y-95371243D01*
X179537307Y-95609069D01*
X179568413Y-95684166D01*
X177931581Y-97320999D01*
X176828421Y-97320999D01*
X177746833Y-96402587D01*
X177821931Y-96433693D01*
X178059757Y-96481000D01*
X178302243Y-96481000D01*
X178540069Y-96433693D01*
X178764097Y-96340898D01*
X178965717Y-96206180D01*
X179137180Y-96034717D01*
X179271898Y-95833097D01*
X179364693Y-95609069D01*
X179412000Y-95371243D01*
X179412000Y-95128757D01*
X179364693Y-94890931D01*
X179271898Y-94666903D01*
X179137180Y-94465283D01*
X178965717Y-94293820D01*
X178764097Y-94159102D01*
X178733141Y-94146279D01*
X180286834Y-92592587D01*
X180361931Y-92623693D01*
X180599757Y-92671000D01*
X180842243Y-92671000D01*
X181080069Y-92623693D01*
X181304097Y-92530898D01*
X181505717Y-92396180D01*
X181677180Y-92224717D01*
X181811898Y-92023097D01*
X181904693Y-91799069D01*
X181952000Y-91561243D01*
X181952000Y-91318757D01*
X181904693Y-91080931D01*
X181811898Y-90856903D01*
X181677180Y-90655283D01*
X181505717Y-90483820D01*
X181304097Y-90349102D01*
X181080069Y-90256307D01*
X180842243Y-90209000D01*
X180599757Y-90209000D01*
X180361931Y-90256307D01*
X180137903Y-90349102D01*
X179936283Y-90483820D01*
X179764820Y-90655283D01*
X179630102Y-90856903D01*
X179537307Y-91080931D01*
X179490000Y-91318757D01*
X179490000Y-91561243D01*
X179537307Y-91799069D01*
X179568413Y-91874166D01*
X177970580Y-93472000D01*
X176867420Y-93472000D01*
X177746833Y-92592587D01*
X177821931Y-92623693D01*
X178059757Y-92671000D01*
X178302243Y-92671000D01*
X178540069Y-92623693D01*
X178764097Y-92530898D01*
X178965717Y-92396180D01*
X179137180Y-92224717D01*
X179271898Y-92023097D01*
X179364693Y-91799069D01*
X179412000Y-91561243D01*
X179412000Y-91318757D01*
X179364693Y-91080931D01*
X179271898Y-90856903D01*
X179137180Y-90655283D01*
X178965717Y-90483820D01*
X178764097Y-90349102D01*
X178540069Y-90256307D01*
X178302243Y-90209000D01*
X178059757Y-90209000D01*
X177821931Y-90256307D01*
X177597903Y-90349102D01*
X177396283Y-90483820D01*
X177224820Y-90655283D01*
X177090102Y-90856903D01*
X176997307Y-91080931D01*
X176950000Y-91318757D01*
X176950000Y-91561243D01*
X176997307Y-91799069D01*
X177028413Y-91874167D01*
X176873843Y-92028737D01*
X176873843Y-90590000D01*
X176866487Y-90515311D01*
X176844701Y-90443492D01*
X176809322Y-90377304D01*
X176761711Y-90319289D01*
X176703696Y-90271678D01*
X176637508Y-90236299D01*
X176565689Y-90214513D01*
X176491000Y-90207157D01*
X174791000Y-90207157D01*
X174716311Y-90214513D01*
X174644492Y-90236299D01*
X174605580Y-90257098D01*
X174605580Y-88812902D01*
X174644492Y-88833701D01*
X174716311Y-88855487D01*
X174791000Y-88862843D01*
X176491000Y-88862843D01*
X176565689Y-88855487D01*
X176637508Y-88833701D01*
X176703696Y-88798322D01*
X176761711Y-88750711D01*
X176809322Y-88692696D01*
X176844701Y-88626508D01*
X176866487Y-88554689D01*
X176873843Y-88480000D01*
X176873843Y-87508757D01*
X176950000Y-87508757D01*
X176950000Y-87751243D01*
X176997307Y-87989069D01*
X177090102Y-88213097D01*
X177224820Y-88414717D01*
X177396283Y-88586180D01*
X177597903Y-88720898D01*
X177821931Y-88813693D01*
X178059757Y-88861000D01*
X178302243Y-88861000D01*
X178540069Y-88813693D01*
X178764097Y-88720898D01*
X178965717Y-88586180D01*
X179137180Y-88414717D01*
X179271898Y-88213097D01*
X179364693Y-87989069D01*
X179412000Y-87751243D01*
X179412000Y-87508757D01*
X179490000Y-87508757D01*
X179490000Y-87751243D01*
X179537307Y-87989069D01*
X179630102Y-88213097D01*
X179764820Y-88414717D01*
X179936283Y-88586180D01*
X180137903Y-88720898D01*
X180361931Y-88813693D01*
X180599757Y-88861000D01*
X180842243Y-88861000D01*
X181080069Y-88813693D01*
X181304097Y-88720898D01*
X181505717Y-88586180D01*
X181677180Y-88414717D01*
X181811898Y-88213097D01*
X181904693Y-87989069D01*
X181952000Y-87751243D01*
X181952000Y-87508757D01*
X181904693Y-87270931D01*
X181811898Y-87046903D01*
X181677180Y-86845283D01*
X181505717Y-86673820D01*
X181304097Y-86539102D01*
X181080069Y-86446307D01*
X180842243Y-86399000D01*
X180599757Y-86399000D01*
X180361931Y-86446307D01*
X180137903Y-86539102D01*
X179936283Y-86673820D01*
X179764820Y-86845283D01*
X179630102Y-87046903D01*
X179537307Y-87270931D01*
X179490000Y-87508757D01*
X179412000Y-87508757D01*
X179364693Y-87270931D01*
X179271898Y-87046903D01*
X179137180Y-86845283D01*
X178965717Y-86673820D01*
X178764097Y-86539102D01*
X178540069Y-86446307D01*
X178302243Y-86399000D01*
X178059757Y-86399000D01*
X177821931Y-86446307D01*
X177597903Y-86539102D01*
X177396283Y-86673820D01*
X177224820Y-86845283D01*
X177090102Y-87046903D01*
X176997307Y-87270931D01*
X176950000Y-87508757D01*
X176873843Y-87508757D01*
X176873843Y-86780000D01*
X176866487Y-86705311D01*
X176844701Y-86633492D01*
X176809322Y-86567304D01*
X176761711Y-86509289D01*
X176703696Y-86461678D01*
X176637508Y-86426299D01*
X176565689Y-86404513D01*
X176491000Y-86397157D01*
X174791000Y-86397157D01*
X174716311Y-86404513D01*
X174644492Y-86426299D01*
X174578304Y-86461678D01*
X174520289Y-86509289D01*
X174472678Y-86567304D01*
X174437299Y-86633492D01*
X174415513Y-86705311D01*
X174408157Y-86780000D01*
X174408157Y-88271897D01*
X171831625Y-85695365D01*
X171815723Y-85675988D01*
X171796345Y-85660085D01*
X171738370Y-85612506D01*
X171650118Y-85565335D01*
X171598517Y-85549682D01*
X171554360Y-85536287D01*
X171545449Y-85535409D01*
X171454775Y-85526478D01*
X171429821Y-85528936D01*
X170794720Y-85528936D01*
X170907576Y-85416080D01*
X170926959Y-85400173D01*
X170990440Y-85322820D01*
X171037612Y-85234568D01*
X171066660Y-85138810D01*
X171074011Y-85064172D01*
X171074011Y-85064169D01*
X171076468Y-85039225D01*
X171074011Y-85014281D01*
X171074011Y-81991408D01*
X171112429Y-81944595D01*
X171139032Y-81894824D01*
X171256846Y-81777011D01*
X172573469Y-81777011D01*
X172552724Y-81808058D01*
X172495283Y-81946733D01*
X172466000Y-82093950D01*
X172466000Y-82244050D01*
X172495283Y-82391267D01*
X172552724Y-82529942D01*
X172636116Y-82654747D01*
X172742253Y-82760884D01*
X172867058Y-82844276D01*
X173005733Y-82901717D01*
X173152950Y-82931000D01*
X173303050Y-82931000D01*
X173450267Y-82901717D01*
X173588942Y-82844276D01*
X173649219Y-82804000D01*
X174447718Y-82804000D01*
X174437299Y-82823492D01*
X174415513Y-82895311D01*
X174408157Y-82970000D01*
X174408157Y-84670000D01*
X174415513Y-84744689D01*
X174437299Y-84816508D01*
X174472678Y-84882696D01*
X174520289Y-84940711D01*
X174578304Y-84988322D01*
X174644492Y-85023701D01*
X174716311Y-85045487D01*
X174791000Y-85052843D01*
X176491000Y-85052843D01*
X176565689Y-85045487D01*
X176637508Y-85023701D01*
X176703696Y-84988322D01*
X176761711Y-84940711D01*
X176809322Y-84882696D01*
X176844701Y-84816508D01*
X176866487Y-84744689D01*
X176873843Y-84670000D01*
X176873843Y-82970000D01*
X176866487Y-82895311D01*
X176844701Y-82823492D01*
X176834282Y-82804000D01*
X177485810Y-82804000D01*
X177396283Y-82863820D01*
X177224820Y-83035283D01*
X177090102Y-83236903D01*
X176997307Y-83460931D01*
X176950000Y-83698757D01*
X176950000Y-83941243D01*
X176997307Y-84179069D01*
X177090102Y-84403097D01*
X177224820Y-84604717D01*
X177396283Y-84776180D01*
X177597903Y-84910898D01*
X177821931Y-85003693D01*
X178059757Y-85051000D01*
X178302243Y-85051000D01*
X178540069Y-85003693D01*
X178764097Y-84910898D01*
X178965717Y-84776180D01*
X179137180Y-84604717D01*
X179271898Y-84403097D01*
X179364693Y-84179069D01*
X179412000Y-83941243D01*
X179412000Y-83698757D01*
X179364693Y-83460931D01*
X179271898Y-83236903D01*
X179137180Y-83035283D01*
X178965717Y-82863820D01*
X178876190Y-82804000D01*
X180025810Y-82804000D01*
X179936283Y-82863820D01*
X179764820Y-83035283D01*
X179630102Y-83236903D01*
X179537307Y-83460931D01*
X179490000Y-83698757D01*
X179490000Y-83941243D01*
X179537307Y-84179069D01*
X179630102Y-84403097D01*
X179764820Y-84604717D01*
X179936283Y-84776180D01*
X180137903Y-84910898D01*
X180361931Y-85003693D01*
X180599757Y-85051000D01*
X180842243Y-85051000D01*
X181080069Y-85003693D01*
X181304097Y-84910898D01*
X181505717Y-84776180D01*
X181677180Y-84604717D01*
X181811898Y-84403097D01*
X181904693Y-84179069D01*
X181952000Y-83941243D01*
X181952000Y-83698757D01*
X181904693Y-83460931D01*
X181811898Y-83236903D01*
X181677180Y-83035283D01*
X181505717Y-82863820D01*
X181347245Y-82757933D01*
X181456494Y-82699537D01*
X181553185Y-82620185D01*
X181573074Y-82595950D01*
X182626000Y-81543024D01*
X182626001Y-82763782D01*
X182476283Y-82863820D01*
X182304820Y-83035283D01*
X182170102Y-83236903D01*
X182077307Y-83460931D01*
X182030000Y-83698757D01*
X182030000Y-83941243D01*
X182077307Y-84179069D01*
X182170102Y-84403097D01*
X182304820Y-84604717D01*
X182476283Y-84776180D01*
X182626000Y-84876218D01*
X182626001Y-86573782D01*
X182476283Y-86673820D01*
X182304820Y-86845283D01*
X182170102Y-87046903D01*
X182077307Y-87270931D01*
X182030000Y-87508757D01*
X182030000Y-87751243D01*
X182077307Y-87989069D01*
X182170102Y-88213097D01*
X182304820Y-88414717D01*
X182476283Y-88586180D01*
X182626000Y-88686218D01*
X182626001Y-90383782D01*
X182476283Y-90483820D01*
X182304820Y-90655283D01*
X182170102Y-90856903D01*
X182077307Y-91080931D01*
X182030000Y-91318757D01*
X182030000Y-91561243D01*
X182077307Y-91799069D01*
X182170102Y-92023097D01*
X182304820Y-92224717D01*
X182476283Y-92396180D01*
X182626000Y-92496218D01*
X182626001Y-94193782D01*
X182476283Y-94293820D01*
X182304820Y-94465283D01*
X182170102Y-94666903D01*
X182077307Y-94890931D01*
X182030000Y-95128757D01*
X182030000Y-95371243D01*
X182077307Y-95609069D01*
X182170102Y-95833097D01*
X182304820Y-96034717D01*
X182476283Y-96206180D01*
X182626000Y-96306218D01*
X182626001Y-98003782D01*
X182476283Y-98103820D01*
X182304820Y-98275283D01*
X182170102Y-98476903D01*
X182077307Y-98700931D01*
X182030000Y-98938757D01*
X182030000Y-99181243D01*
X182077307Y-99419069D01*
X182170102Y-99643097D01*
X182304820Y-99844717D01*
X182476283Y-100016180D01*
X182677903Y-100150898D01*
X182901931Y-100243693D01*
X183139757Y-100291000D01*
X183382243Y-100291000D01*
X183620069Y-100243693D01*
X183844097Y-100150898D01*
X184045717Y-100016180D01*
X184217180Y-99844717D01*
X184351898Y-99643097D01*
X184399228Y-99528832D01*
X184456843Y-99691252D01*
X184605822Y-99941355D01*
X184800731Y-100157588D01*
X185034080Y-100331641D01*
X185296901Y-100456825D01*
X185444110Y-100501476D01*
X185674000Y-100380155D01*
X185674000Y-99187000D01*
X185654000Y-99187000D01*
X185654000Y-98933000D01*
X185674000Y-98933000D01*
X185674000Y-97739845D01*
X185444110Y-97618524D01*
X185296901Y-97663175D01*
X185034080Y-97788359D01*
X184800731Y-97962412D01*
X184605822Y-98178645D01*
X184456843Y-98428748D01*
X184399228Y-98591168D01*
X184351898Y-98476903D01*
X184217180Y-98275283D01*
X184045717Y-98103820D01*
X183896000Y-98003782D01*
X183896000Y-96306218D01*
X184045717Y-96206180D01*
X184217180Y-96034717D01*
X184351898Y-95833097D01*
X184399228Y-95718832D01*
X184456843Y-95881252D01*
X184605822Y-96131355D01*
X184800731Y-96347588D01*
X185034080Y-96521641D01*
X185296901Y-96646825D01*
X185444110Y-96691476D01*
X185674000Y-96570155D01*
X185674000Y-95377000D01*
X185654000Y-95377000D01*
X185654000Y-95123000D01*
X185674000Y-95123000D01*
X185674000Y-93929845D01*
X185444110Y-93808524D01*
X185296901Y-93853175D01*
X185034080Y-93978359D01*
X184800731Y-94152412D01*
X184605822Y-94368645D01*
X184456843Y-94618748D01*
X184399228Y-94781168D01*
X184351898Y-94666903D01*
X184217180Y-94465283D01*
X184045717Y-94293820D01*
X183896000Y-94193782D01*
X183896000Y-92496218D01*
X184045717Y-92396180D01*
X184217180Y-92224717D01*
X184351898Y-92023097D01*
X184399228Y-91908832D01*
X184456843Y-92071252D01*
X184605822Y-92321355D01*
X184800731Y-92537588D01*
X185034080Y-92711641D01*
X185296901Y-92836825D01*
X185444110Y-92881476D01*
X185674000Y-92760155D01*
X185674000Y-91567000D01*
X185654000Y-91567000D01*
X185654000Y-91313000D01*
X185674000Y-91313000D01*
X185674000Y-90119845D01*
X185444110Y-89998524D01*
X185296901Y-90043175D01*
X185034080Y-90168359D01*
X184800731Y-90342412D01*
X184605822Y-90558645D01*
X184456843Y-90808748D01*
X184399228Y-90971168D01*
X184351898Y-90856903D01*
X184217180Y-90655283D01*
X184045717Y-90483820D01*
X183896000Y-90383782D01*
X183896000Y-88686218D01*
X184045717Y-88586180D01*
X184217180Y-88414717D01*
X184351898Y-88213097D01*
X184399228Y-88098832D01*
X184456843Y-88261252D01*
X184605822Y-88511355D01*
X184800731Y-88727588D01*
X185034080Y-88901641D01*
X185296901Y-89026825D01*
X185444110Y-89071476D01*
X185674000Y-88950155D01*
X185674000Y-87757000D01*
X185654000Y-87757000D01*
X185654000Y-87503000D01*
X185674000Y-87503000D01*
X185674000Y-86309845D01*
X185444110Y-86188524D01*
X185296901Y-86233175D01*
X185034080Y-86358359D01*
X184800731Y-86532412D01*
X184605822Y-86748645D01*
X184456843Y-86998748D01*
X184399228Y-87161168D01*
X184351898Y-87046903D01*
X184217180Y-86845283D01*
X184045717Y-86673820D01*
X183896000Y-86573782D01*
X183896000Y-84876218D01*
X184045717Y-84776180D01*
X184217180Y-84604717D01*
X184351898Y-84403097D01*
X184399228Y-84288832D01*
X184456843Y-84451252D01*
X184605822Y-84701355D01*
X184800731Y-84917588D01*
X185034080Y-85091641D01*
X185296901Y-85216825D01*
X185444110Y-85261476D01*
X185674000Y-85140155D01*
X185674000Y-83947000D01*
X185654000Y-83947000D01*
X185654000Y-83693000D01*
X185674000Y-83693000D01*
X185674000Y-82499845D01*
X185444110Y-82378524D01*
X185296901Y-82423175D01*
X185034080Y-82548359D01*
X184800731Y-82722412D01*
X184605822Y-82938645D01*
X184456843Y-83188748D01*
X184399228Y-83351168D01*
X184351898Y-83236903D01*
X184217180Y-83035283D01*
X184045717Y-82863820D01*
X183896000Y-82763782D01*
X183896000Y-81066218D01*
X184045717Y-80966180D01*
X184217180Y-80794717D01*
X184351898Y-80593097D01*
X184399228Y-80478832D01*
X184456843Y-80641252D01*
X184605822Y-80891355D01*
X184800731Y-81107588D01*
X185034080Y-81281641D01*
X185296901Y-81406825D01*
X185444110Y-81451476D01*
X185674000Y-81330155D01*
X185674000Y-80137000D01*
X185654000Y-80137000D01*
X185654000Y-79883000D01*
X185674000Y-79883000D01*
X185674000Y-78689845D01*
X185444110Y-78568524D01*
X185296901Y-78613175D01*
X185034080Y-78738359D01*
X184800731Y-78912412D01*
X184605822Y-79128645D01*
X184456843Y-79378748D01*
X184399228Y-79541168D01*
X184351898Y-79426903D01*
X184217180Y-79225283D01*
X184045717Y-79053820D01*
X183896000Y-78953782D01*
X183896000Y-77256218D01*
X184045717Y-77156180D01*
X184217180Y-76984717D01*
X184351898Y-76783097D01*
X184399228Y-76668832D01*
X184456843Y-76831252D01*
X184605822Y-77081355D01*
X184800731Y-77297588D01*
X185034080Y-77471641D01*
X185296901Y-77596825D01*
X185444110Y-77641476D01*
X185674000Y-77520155D01*
X185674000Y-76327000D01*
X185654000Y-76327000D01*
X185654000Y-76073000D01*
X185674000Y-76073000D01*
X185674000Y-74879845D01*
X185444110Y-74758524D01*
X185296901Y-74803175D01*
X185034080Y-74928359D01*
X184800731Y-75102412D01*
X184605822Y-75318645D01*
X184456843Y-75568748D01*
X184399228Y-75731168D01*
X184351898Y-75616903D01*
X184217180Y-75415283D01*
X184045717Y-75243820D01*
X183844097Y-75109102D01*
X183620069Y-75016307D01*
X183382243Y-74969000D01*
X183139757Y-74969000D01*
X182901931Y-75016307D01*
X182677903Y-75109102D01*
X182476283Y-75243820D01*
X182304820Y-75415283D01*
X182170102Y-75616903D01*
X182077307Y-75840931D01*
X182030000Y-76078757D01*
X182030000Y-76321243D01*
X182077307Y-76559069D01*
X182170102Y-76783097D01*
X182304820Y-76984717D01*
X182476283Y-77156180D01*
X182626000Y-77256218D01*
X182626001Y-78953782D01*
X182476283Y-79053820D01*
X182304820Y-79225283D01*
X182170102Y-79426903D01*
X182077307Y-79650931D01*
X182030000Y-79888757D01*
X182030000Y-80131243D01*
X182065129Y-80307846D01*
X181834539Y-80538436D01*
X181904693Y-80369069D01*
X181952000Y-80131243D01*
X181952000Y-79888757D01*
X181904693Y-79650931D01*
X181811898Y-79426903D01*
X181677180Y-79225283D01*
X181505717Y-79053820D01*
X181304097Y-78919102D01*
X181080069Y-78826307D01*
X180842243Y-78779000D01*
X180599757Y-78779000D01*
X180361931Y-78826307D01*
X180137903Y-78919102D01*
X179936283Y-79053820D01*
X179764820Y-79225283D01*
X179630102Y-79426903D01*
X179537307Y-79650931D01*
X179490000Y-79888757D01*
X179490000Y-80131243D01*
X179537307Y-80369069D01*
X179630102Y-80593097D01*
X179764820Y-80794717D01*
X179936283Y-80966180D01*
X180137903Y-81100898D01*
X180361931Y-81193693D01*
X180599757Y-81241000D01*
X180842243Y-81241000D01*
X181080069Y-81193693D01*
X181249437Y-81123539D01*
X180838976Y-81534000D01*
X177221222Y-81534000D01*
X177637799Y-81117423D01*
X177821931Y-81193693D01*
X178059757Y-81241000D01*
X178302243Y-81241000D01*
X178540069Y-81193693D01*
X178764097Y-81100898D01*
X178965717Y-80966180D01*
X179137180Y-80794717D01*
X179271898Y-80593097D01*
X179364693Y-80369069D01*
X179412000Y-80131243D01*
X179412000Y-79888757D01*
X179364693Y-79650931D01*
X179271898Y-79426903D01*
X179137180Y-79225283D01*
X178965717Y-79053820D01*
X178764097Y-78919102D01*
X178540069Y-78826307D01*
X178302243Y-78779000D01*
X178059757Y-78779000D01*
X177821931Y-78826307D01*
X177597903Y-78919102D01*
X177396283Y-79053820D01*
X177224820Y-79225283D01*
X177090102Y-79426903D01*
X176997307Y-79650931D01*
X176950000Y-79888757D01*
X176950000Y-80131243D01*
X176989344Y-80329037D01*
X176873843Y-80444539D01*
X176873843Y-79160000D01*
X176866487Y-79085311D01*
X176844701Y-79013492D01*
X176809322Y-78947304D01*
X176761711Y-78889289D01*
X176703696Y-78841678D01*
X176637508Y-78806299D01*
X176565689Y-78784513D01*
X176491000Y-78777157D01*
X174791000Y-78777157D01*
X174716311Y-78784513D01*
X174644492Y-78806299D01*
X174578304Y-78841678D01*
X174520289Y-78889289D01*
X174472678Y-78947304D01*
X174437299Y-79013492D01*
X174415513Y-79085311D01*
X174408157Y-79160000D01*
X174408157Y-80253001D01*
X173358346Y-80253001D01*
X173450267Y-80234717D01*
X173588942Y-80177276D01*
X173713747Y-80093884D01*
X173819884Y-79987747D01*
X173903276Y-79862942D01*
X173960717Y-79724267D01*
X173990000Y-79577050D01*
X173990000Y-79426950D01*
X173960717Y-79279733D01*
X173903276Y-79141058D01*
X173819884Y-79016253D01*
X173713747Y-78910116D01*
X173588942Y-78826724D01*
X173450267Y-78769283D01*
X173303050Y-78740000D01*
X173152950Y-78740000D01*
X173005733Y-78769283D01*
X172867058Y-78826724D01*
X172742253Y-78910116D01*
X172658369Y-78994000D01*
X172459843Y-78994000D01*
X172459843Y-77870000D01*
X172452487Y-77795311D01*
X172430855Y-77724000D01*
X174600056Y-77724000D01*
X174625000Y-77726457D01*
X174649944Y-77724000D01*
X174649947Y-77724000D01*
X174724585Y-77716649D01*
X174820343Y-77687601D01*
X174908595Y-77640429D01*
X174985948Y-77576948D01*
X175001855Y-77557565D01*
X175126577Y-77432843D01*
X176491000Y-77432843D01*
X176565689Y-77425487D01*
X176637508Y-77403701D01*
X176703696Y-77368322D01*
X176761711Y-77320711D01*
X176809322Y-77262696D01*
X176844701Y-77196508D01*
X176866487Y-77124689D01*
X176873843Y-77050000D01*
X176873843Y-75611263D01*
X177028413Y-75765834D01*
X176997307Y-75840931D01*
X176950000Y-76078757D01*
X176950000Y-76321243D01*
X176997307Y-76559069D01*
X177090102Y-76783097D01*
X177224820Y-76984717D01*
X177396283Y-77156180D01*
X177597903Y-77290898D01*
X177821931Y-77383693D01*
X178059757Y-77431000D01*
X178302243Y-77431000D01*
X178540069Y-77383693D01*
X178764097Y-77290898D01*
X178965717Y-77156180D01*
X179137180Y-76984717D01*
X179271898Y-76783097D01*
X179364693Y-76559069D01*
X179412000Y-76321243D01*
X179412000Y-76078757D01*
X179364693Y-75840931D01*
X179271898Y-75616903D01*
X179137180Y-75415283D01*
X178965717Y-75243820D01*
X178764097Y-75109102D01*
X178540069Y-75016307D01*
X178302243Y-74969000D01*
X178059757Y-74969000D01*
X177821931Y-75016307D01*
X177746834Y-75047413D01*
X177386419Y-74686999D01*
X178489579Y-74686999D01*
X179568413Y-75765834D01*
X179537307Y-75840931D01*
X179490000Y-76078757D01*
X179490000Y-76321243D01*
X179537307Y-76559069D01*
X179630102Y-76783097D01*
X179764820Y-76984717D01*
X179936283Y-77156180D01*
X180137903Y-77290898D01*
X180361931Y-77383693D01*
X180599757Y-77431000D01*
X180842243Y-77431000D01*
X181080069Y-77383693D01*
X181304097Y-77290898D01*
X181505717Y-77156180D01*
X181677180Y-76984717D01*
X181811898Y-76783097D01*
X181904693Y-76559069D01*
X181952000Y-76321243D01*
X181952000Y-76078757D01*
X181904693Y-75840931D01*
X181811898Y-75616903D01*
X181677180Y-75415283D01*
X181505717Y-75243820D01*
X181304097Y-75109102D01*
X181080069Y-75016307D01*
X180842243Y-74969000D01*
X180599757Y-74969000D01*
X180361931Y-75016307D01*
X180286834Y-75047413D01*
X179305420Y-74066000D01*
X195662132Y-74066000D01*
X195667443Y-74093841D01*
G36*
X157742000Y-95849250D02*
G01*
X157900750Y-96008000D01*
X158750000Y-96008000D01*
X158750000Y-95988000D01*
X159004000Y-95988000D01*
X159004000Y-96008000D01*
X159853250Y-96008000D01*
X160012000Y-95849250D01*
X160013254Y-95453674D01*
X161036145Y-96476565D01*
X161052052Y-96495948D01*
X161129405Y-96559429D01*
X161217657Y-96606601D01*
X161313415Y-96635649D01*
X161388053Y-96643000D01*
X161388056Y-96643000D01*
X161413000Y-96645457D01*
X161437944Y-96643000D01*
X163074157Y-96643000D01*
X163074157Y-97279133D01*
X162777074Y-96982050D01*
X162757185Y-96957815D01*
X162660494Y-96878463D01*
X162550180Y-96819498D01*
X162430482Y-96783188D01*
X162337192Y-96774000D01*
X162337181Y-96774000D01*
X162306000Y-96770929D01*
X162274819Y-96774000D01*
X160686180Y-96774000D01*
X160654999Y-96770929D01*
X160623818Y-96774000D01*
X160623808Y-96774000D01*
X160530518Y-96783188D01*
X160410820Y-96819498D01*
X160300506Y-96878463D01*
X160203815Y-96957815D01*
X160183930Y-96982045D01*
X160014317Y-97151659D01*
X160012000Y-96420750D01*
X159853250Y-96262000D01*
X159004000Y-96262000D01*
X159004000Y-96282000D01*
X158750000Y-96282000D01*
X158750000Y-96262000D01*
X157900750Y-96262000D01*
X157742000Y-96420750D01*
X157738928Y-97390000D01*
X157751188Y-97514482D01*
X157787498Y-97634180D01*
X157846463Y-97744494D01*
X157925815Y-97841185D01*
X158018196Y-97917000D01*
X155756141Y-97917000D01*
X155748640Y-97907860D01*
X155657477Y-97833044D01*
X155553470Y-97777451D01*
X155510777Y-97764500D01*
X155553470Y-97751549D01*
X155657477Y-97695956D01*
X155748640Y-97621140D01*
X155823456Y-97529977D01*
X155879049Y-97425970D01*
X155913284Y-97313115D01*
X155924843Y-97195750D01*
X155924843Y-96837577D01*
X157739381Y-95023039D01*
X157742000Y-95849250D01*
G37*
X157742000Y-95849250D02*
X157900750Y-96008000D01*
X158750000Y-96008000D01*
X158750000Y-95988000D01*
X159004000Y-95988000D01*
X159004000Y-96008000D01*
X159853250Y-96008000D01*
X160012000Y-95849250D01*
X160013254Y-95453674D01*
X161036145Y-96476565D01*
X161052052Y-96495948D01*
X161129405Y-96559429D01*
X161217657Y-96606601D01*
X161313415Y-96635649D01*
X161388053Y-96643000D01*
X161388056Y-96643000D01*
X161413000Y-96645457D01*
X161437944Y-96643000D01*
X163074157Y-96643000D01*
X163074157Y-97279133D01*
X162777074Y-96982050D01*
X162757185Y-96957815D01*
X162660494Y-96878463D01*
X162550180Y-96819498D01*
X162430482Y-96783188D01*
X162337192Y-96774000D01*
X162337181Y-96774000D01*
X162306000Y-96770929D01*
X162274819Y-96774000D01*
X160686180Y-96774000D01*
X160654999Y-96770929D01*
X160623818Y-96774000D01*
X160623808Y-96774000D01*
X160530518Y-96783188D01*
X160410820Y-96819498D01*
X160300506Y-96878463D01*
X160203815Y-96957815D01*
X160183930Y-96982045D01*
X160014317Y-97151659D01*
X160012000Y-96420750D01*
X159853250Y-96262000D01*
X159004000Y-96262000D01*
X159004000Y-96282000D01*
X158750000Y-96282000D01*
X158750000Y-96262000D01*
X157900750Y-96262000D01*
X157742000Y-96420750D01*
X157738928Y-97390000D01*
X157751188Y-97514482D01*
X157787498Y-97634180D01*
X157846463Y-97744494D01*
X157925815Y-97841185D01*
X158018196Y-97917000D01*
X155756141Y-97917000D01*
X155748640Y-97907860D01*
X155657477Y-97833044D01*
X155553470Y-97777451D01*
X155510777Y-97764500D01*
X155553470Y-97751549D01*
X155657477Y-97695956D01*
X155748640Y-97621140D01*
X155823456Y-97529977D01*
X155879049Y-97425970D01*
X155913284Y-97313115D01*
X155924843Y-97195750D01*
X155924843Y-96837577D01*
X157739381Y-95023039D01*
X157742000Y-95849250D01*
G36*
X161220973Y-82297750D02*
G01*
X161180400Y-82373657D01*
X161176474Y-82386601D01*
X161175091Y-82391157D01*
X160777000Y-82391157D01*
X160702311Y-82398513D01*
X160630492Y-82420299D01*
X160564304Y-82455678D01*
X160506289Y-82503289D01*
X160458678Y-82561304D01*
X160423299Y-82627492D01*
X160401513Y-82699311D01*
X160394157Y-82774000D01*
X160394157Y-84524000D01*
X160401513Y-84598689D01*
X160423299Y-84670508D01*
X160458678Y-84736696D01*
X160494001Y-84779737D01*
X160494001Y-84892510D01*
X160421058Y-84922724D01*
X160296253Y-85006116D01*
X160190116Y-85112253D01*
X160106724Y-85237058D01*
X160049283Y-85375733D01*
X160020000Y-85522950D01*
X160020000Y-85673050D01*
X160049283Y-85820267D01*
X160106724Y-85958942D01*
X160190116Y-86083747D01*
X160296253Y-86189884D01*
X160421058Y-86273276D01*
X160559733Y-86330717D01*
X160706950Y-86360000D01*
X160857050Y-86360000D01*
X161004267Y-86330717D01*
X161142942Y-86273276D01*
X161267747Y-86189884D01*
X161290000Y-86167631D01*
X161312253Y-86189884D01*
X161437058Y-86273276D01*
X161575733Y-86330717D01*
X161722950Y-86360000D01*
X161873050Y-86360000D01*
X162020267Y-86330717D01*
X162158942Y-86273276D01*
X162283747Y-86189884D01*
X162306000Y-86167631D01*
X162328253Y-86189884D01*
X162453058Y-86273276D01*
X162591733Y-86330717D01*
X162738950Y-86360000D01*
X162889050Y-86360000D01*
X163036267Y-86330717D01*
X163174942Y-86273276D01*
X163299747Y-86189884D01*
X163322000Y-86167631D01*
X163344253Y-86189884D01*
X163469058Y-86273276D01*
X163607733Y-86330717D01*
X163754950Y-86360000D01*
X163905050Y-86360000D01*
X164052267Y-86330717D01*
X164190942Y-86273276D01*
X164315747Y-86189884D01*
X164338000Y-86167631D01*
X164360253Y-86189884D01*
X164485058Y-86273276D01*
X164623733Y-86330717D01*
X164770950Y-86360000D01*
X164921050Y-86360000D01*
X165068267Y-86330717D01*
X165206942Y-86273276D01*
X165331747Y-86189884D01*
X165354000Y-86167631D01*
X165376253Y-86189884D01*
X165501058Y-86273276D01*
X165639733Y-86330717D01*
X165762593Y-86355155D01*
X164233755Y-87883990D01*
X163579718Y-87883990D01*
X163554774Y-87881533D01*
X163529830Y-87883990D01*
X163529827Y-87883990D01*
X163455189Y-87891341D01*
X163359431Y-87920389D01*
X163318350Y-87942347D01*
X163271178Y-87967561D01*
X163216584Y-88012366D01*
X163193826Y-88031042D01*
X163177924Y-88050419D01*
X162534018Y-88694326D01*
X162530717Y-88677733D01*
X162473276Y-88539058D01*
X162389884Y-88414253D01*
X162283747Y-88308116D01*
X162158942Y-88224724D01*
X162020267Y-88167283D01*
X161873050Y-88138000D01*
X161722950Y-88138000D01*
X161575733Y-88167283D01*
X161437058Y-88224724D01*
X161312253Y-88308116D01*
X161290000Y-88330369D01*
X161267747Y-88308116D01*
X161142942Y-88224724D01*
X161004267Y-88167283D01*
X160857050Y-88138000D01*
X160706950Y-88138000D01*
X160559733Y-88167283D01*
X160421058Y-88224724D01*
X160296253Y-88308116D01*
X160190116Y-88414253D01*
X160106724Y-88539058D01*
X160049283Y-88677733D01*
X160020000Y-88824950D01*
X160020000Y-88975050D01*
X160049283Y-89122267D01*
X160106724Y-89260942D01*
X160190116Y-89385747D01*
X160296253Y-89491884D01*
X160421058Y-89575276D01*
X160494001Y-89605490D01*
X160494001Y-89718263D01*
X160458678Y-89761304D01*
X160423299Y-89827492D01*
X160401513Y-89899311D01*
X160394157Y-89974000D01*
X160394157Y-91724000D01*
X160401513Y-91798689D01*
X160423299Y-91870508D01*
X160458678Y-91936696D01*
X160506289Y-91994711D01*
X160564304Y-92042322D01*
X160630492Y-92077701D01*
X160702311Y-92099487D01*
X160777000Y-92106843D01*
X161210064Y-92106843D01*
X161176188Y-92218518D01*
X161163928Y-92343000D01*
X161167000Y-92932250D01*
X161325750Y-93091000D01*
X162300000Y-93091000D01*
X162300000Y-93071000D01*
X162554000Y-93071000D01*
X162554000Y-93091000D01*
X163528250Y-93091000D01*
X163687000Y-92932250D01*
X163689989Y-92359000D01*
X163729002Y-92359000D01*
X163729002Y-92229252D01*
X163858750Y-92359000D01*
X163901570Y-92354381D01*
X163910430Y-92361652D01*
X164219157Y-92670379D01*
X164219157Y-93843000D01*
X164231317Y-93966462D01*
X164267329Y-94085179D01*
X164325810Y-94194589D01*
X164404512Y-94290488D01*
X164500411Y-94369190D01*
X164609821Y-94427671D01*
X164728538Y-94463683D01*
X164852000Y-94475843D01*
X165602000Y-94475843D01*
X165725462Y-94463683D01*
X165844179Y-94427671D01*
X165953589Y-94369190D01*
X166049488Y-94290488D01*
X166128190Y-94194589D01*
X166186671Y-94085179D01*
X166222683Y-93966462D01*
X166234843Y-93843000D01*
X166234843Y-92593000D01*
X166222683Y-92469538D01*
X166186671Y-92350821D01*
X166128190Y-92241411D01*
X166049488Y-92145512D01*
X166002370Y-92106843D01*
X166427000Y-92106843D01*
X166501689Y-92099487D01*
X166527000Y-92091809D01*
X166552311Y-92099487D01*
X166627000Y-92106843D01*
X167077000Y-92106843D01*
X167129636Y-92101659D01*
X167120998Y-92117820D01*
X167084688Y-92237518D01*
X167072428Y-92362000D01*
X167075500Y-92551250D01*
X167234250Y-92710000D01*
X168021000Y-92710000D01*
X168021000Y-92690000D01*
X168275000Y-92690000D01*
X168275000Y-92710000D01*
X168295000Y-92710000D01*
X168295000Y-92964000D01*
X168275000Y-92964000D01*
X168275000Y-92984000D01*
X168021000Y-92984000D01*
X168021000Y-92964000D01*
X167234250Y-92964000D01*
X167075500Y-93122750D01*
X167072428Y-93312000D01*
X167084688Y-93436482D01*
X167120998Y-93556180D01*
X167179963Y-93666494D01*
X167259315Y-93763185D01*
X167351208Y-93838599D01*
X167131859Y-93838599D01*
X167100678Y-93835528D01*
X167069497Y-93838599D01*
X167069487Y-93838599D01*
X166976197Y-93847787D01*
X166856499Y-93884097D01*
X166746185Y-93943062D01*
X166649494Y-94022414D01*
X166629610Y-94046643D01*
X164927046Y-95749208D01*
X164902816Y-95769093D01*
X164882932Y-95793322D01*
X164839843Y-95845826D01*
X164839843Y-94880000D01*
X164832487Y-94805311D01*
X164810701Y-94733492D01*
X164775322Y-94667304D01*
X164727711Y-94609289D01*
X164669696Y-94561678D01*
X164603508Y-94526299D01*
X164531689Y-94504513D01*
X164457000Y-94497157D01*
X163541780Y-94497157D01*
X163582537Y-94447494D01*
X163641502Y-94337180D01*
X163677812Y-94217482D01*
X163690072Y-94093000D01*
X163687000Y-93503750D01*
X163528250Y-93345000D01*
X162554000Y-93345000D01*
X162554000Y-94569250D01*
X162712750Y-94728000D01*
X163052000Y-94731072D01*
X163107515Y-94725604D01*
X163103299Y-94733492D01*
X163081513Y-94805311D01*
X163074157Y-94880000D01*
X163074157Y-95627000D01*
X161623420Y-95627000D01*
X160153854Y-94157434D01*
X160137947Y-94138051D01*
X160083052Y-94093000D01*
X161163928Y-94093000D01*
X161176188Y-94217482D01*
X161212498Y-94337180D01*
X161271463Y-94447494D01*
X161350815Y-94544185D01*
X161447506Y-94623537D01*
X161557820Y-94682502D01*
X161677518Y-94718812D01*
X161802000Y-94731072D01*
X162141250Y-94728000D01*
X162300000Y-94569250D01*
X162300000Y-93345000D01*
X161325750Y-93345000D01*
X161167000Y-93503750D01*
X161163928Y-94093000D01*
X160083052Y-94093000D01*
X160060594Y-94074570D01*
X159972342Y-94027398D01*
X159876584Y-93998350D01*
X159801946Y-93990999D01*
X159801943Y-93990999D01*
X159776999Y-93988542D01*
X159752055Y-93990999D01*
X157569945Y-93990999D01*
X157545001Y-93988542D01*
X157520057Y-93990999D01*
X157520054Y-93990999D01*
X157445416Y-93998350D01*
X157349658Y-94027398D01*
X157261406Y-94074570D01*
X157184053Y-94138051D01*
X157168146Y-94157434D01*
X155168923Y-96156657D01*
X154810750Y-96156657D01*
X154693385Y-96168216D01*
X154580530Y-96202451D01*
X154476523Y-96258044D01*
X154385360Y-96332860D01*
X154310544Y-96424023D01*
X154254951Y-96528030D01*
X154220716Y-96640885D01*
X154209157Y-96758250D01*
X154209157Y-97195750D01*
X154217392Y-97279367D01*
X153060010Y-96121986D01*
X153060010Y-93991172D01*
X153165748Y-94054157D01*
X153440109Y-94151481D01*
X153670000Y-94030814D01*
X153670000Y-92837000D01*
X153924000Y-92837000D01*
X153924000Y-94030814D01*
X154153891Y-94151481D01*
X154428252Y-94054157D01*
X154678355Y-93905178D01*
X154894588Y-93710269D01*
X155068641Y-93476920D01*
X155193825Y-93214099D01*
X155238476Y-93066890D01*
X155117155Y-92837000D01*
X153924000Y-92837000D01*
X153670000Y-92837000D01*
X153650000Y-92837000D01*
X153650000Y-92583000D01*
X153670000Y-92583000D01*
X153670000Y-92563000D01*
X153924000Y-92563000D01*
X153924000Y-92583000D01*
X155117155Y-92583000D01*
X155238476Y-92353110D01*
X155193825Y-92205901D01*
X155068641Y-91943080D01*
X154894588Y-91709731D01*
X154678355Y-91514822D01*
X154428252Y-91365843D01*
X154265832Y-91308228D01*
X154380097Y-91260898D01*
X154581717Y-91126180D01*
X154753180Y-90954717D01*
X154887898Y-90753097D01*
X154980693Y-90529069D01*
X155028000Y-90291243D01*
X155028000Y-90048757D01*
X154980693Y-89810931D01*
X154887898Y-89586903D01*
X154753180Y-89385283D01*
X154581717Y-89213820D01*
X154380097Y-89079102D01*
X154156069Y-88986307D01*
X153918243Y-88939000D01*
X153675757Y-88939000D01*
X153437931Y-88986307D01*
X153213903Y-89079102D01*
X153060010Y-89181930D01*
X153060010Y-88618070D01*
X153213903Y-88720898D01*
X153437931Y-88813693D01*
X153675757Y-88861000D01*
X153918243Y-88861000D01*
X154156069Y-88813693D01*
X154380097Y-88720898D01*
X154581717Y-88586180D01*
X154753180Y-88414717D01*
X154887898Y-88213097D01*
X154980693Y-87989069D01*
X155028000Y-87751243D01*
X155028000Y-87508757D01*
X154980693Y-87270931D01*
X154887898Y-87046903D01*
X154753180Y-86845283D01*
X154581717Y-86673820D01*
X154380097Y-86539102D01*
X154156069Y-86446307D01*
X153918243Y-86399000D01*
X153675757Y-86399000D01*
X153437931Y-86446307D01*
X153213903Y-86539102D01*
X153060010Y-86641930D01*
X153060010Y-86078070D01*
X153213903Y-86180898D01*
X153437931Y-86273693D01*
X153675757Y-86321000D01*
X153918243Y-86321000D01*
X154156069Y-86273693D01*
X154380097Y-86180898D01*
X154581717Y-86046180D01*
X154753180Y-85874717D01*
X154887898Y-85673097D01*
X154980693Y-85449069D01*
X155028000Y-85211243D01*
X155028000Y-84968757D01*
X154980693Y-84730931D01*
X154887898Y-84506903D01*
X154753180Y-84305283D01*
X154581717Y-84133820D01*
X154380097Y-83999102D01*
X154156069Y-83906307D01*
X153918243Y-83859000D01*
X153675757Y-83859000D01*
X153437931Y-83906307D01*
X153268563Y-83976461D01*
X153462181Y-83782843D01*
X154647000Y-83782843D01*
X154721689Y-83775487D01*
X154793508Y-83753701D01*
X154859696Y-83718322D01*
X154917711Y-83670711D01*
X154965322Y-83612696D01*
X155000701Y-83546508D01*
X155022487Y-83474689D01*
X155029843Y-83400000D01*
X155029843Y-82296000D01*
X161221908Y-82296000D01*
X161220973Y-82297750D01*
G37*
X161220973Y-82297750D02*
X161180400Y-82373657D01*
X161176474Y-82386601D01*
X161175091Y-82391157D01*
X160777000Y-82391157D01*
X160702311Y-82398513D01*
X160630492Y-82420299D01*
X160564304Y-82455678D01*
X160506289Y-82503289D01*
X160458678Y-82561304D01*
X160423299Y-82627492D01*
X160401513Y-82699311D01*
X160394157Y-82774000D01*
X160394157Y-84524000D01*
X160401513Y-84598689D01*
X160423299Y-84670508D01*
X160458678Y-84736696D01*
X160494001Y-84779737D01*
X160494001Y-84892510D01*
X160421058Y-84922724D01*
X160296253Y-85006116D01*
X160190116Y-85112253D01*
X160106724Y-85237058D01*
X160049283Y-85375733D01*
X160020000Y-85522950D01*
X160020000Y-85673050D01*
X160049283Y-85820267D01*
X160106724Y-85958942D01*
X160190116Y-86083747D01*
X160296253Y-86189884D01*
X160421058Y-86273276D01*
X160559733Y-86330717D01*
X160706950Y-86360000D01*
X160857050Y-86360000D01*
X161004267Y-86330717D01*
X161142942Y-86273276D01*
X161267747Y-86189884D01*
X161290000Y-86167631D01*
X161312253Y-86189884D01*
X161437058Y-86273276D01*
X161575733Y-86330717D01*
X161722950Y-86360000D01*
X161873050Y-86360000D01*
X162020267Y-86330717D01*
X162158942Y-86273276D01*
X162283747Y-86189884D01*
X162306000Y-86167631D01*
X162328253Y-86189884D01*
X162453058Y-86273276D01*
X162591733Y-86330717D01*
X162738950Y-86360000D01*
X162889050Y-86360000D01*
X163036267Y-86330717D01*
X163174942Y-86273276D01*
X163299747Y-86189884D01*
X163322000Y-86167631D01*
X163344253Y-86189884D01*
X163469058Y-86273276D01*
X163607733Y-86330717D01*
X163754950Y-86360000D01*
X163905050Y-86360000D01*
X164052267Y-86330717D01*
X164190942Y-86273276D01*
X164315747Y-86189884D01*
X164338000Y-86167631D01*
X164360253Y-86189884D01*
X164485058Y-86273276D01*
X164623733Y-86330717D01*
X164770950Y-86360000D01*
X164921050Y-86360000D01*
X165068267Y-86330717D01*
X165206942Y-86273276D01*
X165331747Y-86189884D01*
X165354000Y-86167631D01*
X165376253Y-86189884D01*
X165501058Y-86273276D01*
X165639733Y-86330717D01*
X165762593Y-86355155D01*
X164233755Y-87883990D01*
X163579718Y-87883990D01*
X163554774Y-87881533D01*
X163529830Y-87883990D01*
X163529827Y-87883990D01*
X163455189Y-87891341D01*
X163359431Y-87920389D01*
X163318350Y-87942347D01*
X163271178Y-87967561D01*
X163216584Y-88012366D01*
X163193826Y-88031042D01*
X163177924Y-88050419D01*
X162534018Y-88694326D01*
X162530717Y-88677733D01*
X162473276Y-88539058D01*
X162389884Y-88414253D01*
X162283747Y-88308116D01*
X162158942Y-88224724D01*
X162020267Y-88167283D01*
X161873050Y-88138000D01*
X161722950Y-88138000D01*
X161575733Y-88167283D01*
X161437058Y-88224724D01*
X161312253Y-88308116D01*
X161290000Y-88330369D01*
X161267747Y-88308116D01*
X161142942Y-88224724D01*
X161004267Y-88167283D01*
X160857050Y-88138000D01*
X160706950Y-88138000D01*
X160559733Y-88167283D01*
X160421058Y-88224724D01*
X160296253Y-88308116D01*
X160190116Y-88414253D01*
X160106724Y-88539058D01*
X160049283Y-88677733D01*
X160020000Y-88824950D01*
X160020000Y-88975050D01*
X160049283Y-89122267D01*
X160106724Y-89260942D01*
X160190116Y-89385747D01*
X160296253Y-89491884D01*
X160421058Y-89575276D01*
X160494001Y-89605490D01*
X160494001Y-89718263D01*
X160458678Y-89761304D01*
X160423299Y-89827492D01*
X160401513Y-89899311D01*
X160394157Y-89974000D01*
X160394157Y-91724000D01*
X160401513Y-91798689D01*
X160423299Y-91870508D01*
X160458678Y-91936696D01*
X160506289Y-91994711D01*
X160564304Y-92042322D01*
X160630492Y-92077701D01*
X160702311Y-92099487D01*
X160777000Y-92106843D01*
X161210064Y-92106843D01*
X161176188Y-92218518D01*
X161163928Y-92343000D01*
X161167000Y-92932250D01*
X161325750Y-93091000D01*
X162300000Y-93091000D01*
X162300000Y-93071000D01*
X162554000Y-93071000D01*
X162554000Y-93091000D01*
X163528250Y-93091000D01*
X163687000Y-92932250D01*
X163689989Y-92359000D01*
X163729002Y-92359000D01*
X163729002Y-92229252D01*
X163858750Y-92359000D01*
X163901570Y-92354381D01*
X163910430Y-92361652D01*
X164219157Y-92670379D01*
X164219157Y-93843000D01*
X164231317Y-93966462D01*
X164267329Y-94085179D01*
X164325810Y-94194589D01*
X164404512Y-94290488D01*
X164500411Y-94369190D01*
X164609821Y-94427671D01*
X164728538Y-94463683D01*
X164852000Y-94475843D01*
X165602000Y-94475843D01*
X165725462Y-94463683D01*
X165844179Y-94427671D01*
X165953589Y-94369190D01*
X166049488Y-94290488D01*
X166128190Y-94194589D01*
X166186671Y-94085179D01*
X166222683Y-93966462D01*
X166234843Y-93843000D01*
X166234843Y-92593000D01*
X166222683Y-92469538D01*
X166186671Y-92350821D01*
X166128190Y-92241411D01*
X166049488Y-92145512D01*
X166002370Y-92106843D01*
X166427000Y-92106843D01*
X166501689Y-92099487D01*
X166527000Y-92091809D01*
X166552311Y-92099487D01*
X166627000Y-92106843D01*
X167077000Y-92106843D01*
X167129636Y-92101659D01*
X167120998Y-92117820D01*
X167084688Y-92237518D01*
X167072428Y-92362000D01*
X167075500Y-92551250D01*
X167234250Y-92710000D01*
X168021000Y-92710000D01*
X168021000Y-92690000D01*
X168275000Y-92690000D01*
X168275000Y-92710000D01*
X168295000Y-92710000D01*
X168295000Y-92964000D01*
X168275000Y-92964000D01*
X168275000Y-92984000D01*
X168021000Y-92984000D01*
X168021000Y-92964000D01*
X167234250Y-92964000D01*
X167075500Y-93122750D01*
X167072428Y-93312000D01*
X167084688Y-93436482D01*
X167120998Y-93556180D01*
X167179963Y-93666494D01*
X167259315Y-93763185D01*
X167351208Y-93838599D01*
X167131859Y-93838599D01*
X167100678Y-93835528D01*
X167069497Y-93838599D01*
X167069487Y-93838599D01*
X166976197Y-93847787D01*
X166856499Y-93884097D01*
X166746185Y-93943062D01*
X166649494Y-94022414D01*
X166629610Y-94046643D01*
X164927046Y-95749208D01*
X164902816Y-95769093D01*
X164882932Y-95793322D01*
X164839843Y-95845826D01*
X164839843Y-94880000D01*
X164832487Y-94805311D01*
X164810701Y-94733492D01*
X164775322Y-94667304D01*
X164727711Y-94609289D01*
X164669696Y-94561678D01*
X164603508Y-94526299D01*
X164531689Y-94504513D01*
X164457000Y-94497157D01*
X163541780Y-94497157D01*
X163582537Y-94447494D01*
X163641502Y-94337180D01*
X163677812Y-94217482D01*
X163690072Y-94093000D01*
X163687000Y-93503750D01*
X163528250Y-93345000D01*
X162554000Y-93345000D01*
X162554000Y-94569250D01*
X162712750Y-94728000D01*
X163052000Y-94731072D01*
X163107515Y-94725604D01*
X163103299Y-94733492D01*
X163081513Y-94805311D01*
X163074157Y-94880000D01*
X163074157Y-95627000D01*
X161623420Y-95627000D01*
X160153854Y-94157434D01*
X160137947Y-94138051D01*
X160083052Y-94093000D01*
X161163928Y-94093000D01*
X161176188Y-94217482D01*
X161212498Y-94337180D01*
X161271463Y-94447494D01*
X161350815Y-94544185D01*
X161447506Y-94623537D01*
X161557820Y-94682502D01*
X161677518Y-94718812D01*
X161802000Y-94731072D01*
X162141250Y-94728000D01*
X162300000Y-94569250D01*
X162300000Y-93345000D01*
X161325750Y-93345000D01*
X161167000Y-93503750D01*
X161163928Y-94093000D01*
X160083052Y-94093000D01*
X160060594Y-94074570D01*
X159972342Y-94027398D01*
X159876584Y-93998350D01*
X159801946Y-93990999D01*
X159801943Y-93990999D01*
X159776999Y-93988542D01*
X159752055Y-93990999D01*
X157569945Y-93990999D01*
X157545001Y-93988542D01*
X157520057Y-93990999D01*
X157520054Y-93990999D01*
X157445416Y-93998350D01*
X157349658Y-94027398D01*
X157261406Y-94074570D01*
X157184053Y-94138051D01*
X157168146Y-94157434D01*
X155168923Y-96156657D01*
X154810750Y-96156657D01*
X154693385Y-96168216D01*
X154580530Y-96202451D01*
X154476523Y-96258044D01*
X154385360Y-96332860D01*
X154310544Y-96424023D01*
X154254951Y-96528030D01*
X154220716Y-96640885D01*
X154209157Y-96758250D01*
X154209157Y-97195750D01*
X154217392Y-97279367D01*
X153060010Y-96121986D01*
X153060010Y-93991172D01*
X153165748Y-94054157D01*
X153440109Y-94151481D01*
X153670000Y-94030814D01*
X153670000Y-92837000D01*
X153924000Y-92837000D01*
X153924000Y-94030814D01*
X154153891Y-94151481D01*
X154428252Y-94054157D01*
X154678355Y-93905178D01*
X154894588Y-93710269D01*
X155068641Y-93476920D01*
X155193825Y-93214099D01*
X155238476Y-93066890D01*
X155117155Y-92837000D01*
X153924000Y-92837000D01*
X153670000Y-92837000D01*
X153650000Y-92837000D01*
X153650000Y-92583000D01*
X153670000Y-92583000D01*
X153670000Y-92563000D01*
X153924000Y-92563000D01*
X153924000Y-92583000D01*
X155117155Y-92583000D01*
X155238476Y-92353110D01*
X155193825Y-92205901D01*
X155068641Y-91943080D01*
X154894588Y-91709731D01*
X154678355Y-91514822D01*
X154428252Y-91365843D01*
X154265832Y-91308228D01*
X154380097Y-91260898D01*
X154581717Y-91126180D01*
X154753180Y-90954717D01*
X154887898Y-90753097D01*
X154980693Y-90529069D01*
X155028000Y-90291243D01*
X155028000Y-90048757D01*
X154980693Y-89810931D01*
X154887898Y-89586903D01*
X154753180Y-89385283D01*
X154581717Y-89213820D01*
X154380097Y-89079102D01*
X154156069Y-88986307D01*
X153918243Y-88939000D01*
X153675757Y-88939000D01*
X153437931Y-88986307D01*
X153213903Y-89079102D01*
X153060010Y-89181930D01*
X153060010Y-88618070D01*
X153213903Y-88720898D01*
X153437931Y-88813693D01*
X153675757Y-88861000D01*
X153918243Y-88861000D01*
X154156069Y-88813693D01*
X154380097Y-88720898D01*
X154581717Y-88586180D01*
X154753180Y-88414717D01*
X154887898Y-88213097D01*
X154980693Y-87989069D01*
X155028000Y-87751243D01*
X155028000Y-87508757D01*
X154980693Y-87270931D01*
X154887898Y-87046903D01*
X154753180Y-86845283D01*
X154581717Y-86673820D01*
X154380097Y-86539102D01*
X154156069Y-86446307D01*
X153918243Y-86399000D01*
X153675757Y-86399000D01*
X153437931Y-86446307D01*
X153213903Y-86539102D01*
X153060010Y-86641930D01*
X153060010Y-86078070D01*
X153213903Y-86180898D01*
X153437931Y-86273693D01*
X153675757Y-86321000D01*
X153918243Y-86321000D01*
X154156069Y-86273693D01*
X154380097Y-86180898D01*
X154581717Y-86046180D01*
X154753180Y-85874717D01*
X154887898Y-85673097D01*
X154980693Y-85449069D01*
X155028000Y-85211243D01*
X155028000Y-84968757D01*
X154980693Y-84730931D01*
X154887898Y-84506903D01*
X154753180Y-84305283D01*
X154581717Y-84133820D01*
X154380097Y-83999102D01*
X154156069Y-83906307D01*
X153918243Y-83859000D01*
X153675757Y-83859000D01*
X153437931Y-83906307D01*
X153268563Y-83976461D01*
X153462181Y-83782843D01*
X154647000Y-83782843D01*
X154721689Y-83775487D01*
X154793508Y-83753701D01*
X154859696Y-83718322D01*
X154917711Y-83670711D01*
X154965322Y-83612696D01*
X155000701Y-83546508D01*
X155022487Y-83474689D01*
X155029843Y-83400000D01*
X155029843Y-82296000D01*
X161221908Y-82296000D01*
X161220973Y-82297750D01*
G36*
X168844157Y-90996000D02*
G01*
X168759843Y-90996000D01*
X168759843Y-90702000D01*
X168844157Y-90702000D01*
X168844157Y-90996000D01*
G37*
X168844157Y-90996000D02*
X168759843Y-90996000D01*
X168759843Y-90702000D01*
X168844157Y-90702000D01*
X168844157Y-90996000D01*
G36*
X163644157Y-90996000D02*
G01*
X163559843Y-90996000D01*
X163559843Y-90702000D01*
X163644157Y-90702000D01*
X163644157Y-90996000D01*
G37*
X163644157Y-90996000D02*
X163559843Y-90996000D01*
X163559843Y-90702000D01*
X163644157Y-90702000D01*
X163644157Y-90996000D01*
G36*
X164944157Y-83796000D02*
G01*
X164859843Y-83796000D01*
X164859843Y-83502000D01*
X164944157Y-83502000D01*
X164944157Y-83796000D01*
G37*
X164944157Y-83796000D02*
X164859843Y-83796000D01*
X164859843Y-83502000D01*
X164944157Y-83502000D01*
X164944157Y-83796000D01*
G36*
X164744199Y-74309381D02*
G01*
X164727711Y-74289289D01*
X164669696Y-74241678D01*
X164603508Y-74206299D01*
X164531689Y-74184513D01*
X164457000Y-74177157D01*
X163457000Y-74177157D01*
X163382311Y-74184513D01*
X163310492Y-74206299D01*
X163244304Y-74241678D01*
X163186289Y-74289289D01*
X163138678Y-74347304D01*
X163103299Y-74413492D01*
X163081513Y-74485311D01*
X163074157Y-74560000D01*
X163074157Y-77070000D01*
X163081513Y-77144689D01*
X163103299Y-77216508D01*
X163138678Y-77282696D01*
X163186289Y-77340711D01*
X163244304Y-77388322D01*
X163310492Y-77423701D01*
X163382311Y-77445487D01*
X163457000Y-77452843D01*
X164457000Y-77452843D01*
X164531689Y-77445487D01*
X164603508Y-77423701D01*
X164669696Y-77388322D01*
X164727711Y-77340711D01*
X164775322Y-77282696D01*
X164810701Y-77216508D01*
X164832487Y-77144689D01*
X164839843Y-77070000D01*
X164839843Y-76323000D01*
X165417382Y-76323000D01*
X166369998Y-77275617D01*
X166369998Y-77393748D01*
X166211250Y-77235000D01*
X165997000Y-77231928D01*
X165872518Y-77244188D01*
X165752820Y-77280498D01*
X165642506Y-77339463D01*
X165545815Y-77418815D01*
X165466463Y-77515506D01*
X165407498Y-77625820D01*
X165371188Y-77745518D01*
X165358928Y-77870000D01*
X165362000Y-78839250D01*
X165520750Y-78998000D01*
X166370000Y-78998000D01*
X166370000Y-78978000D01*
X166624000Y-78978000D01*
X166624000Y-78998000D01*
X166644000Y-78998000D01*
X166644000Y-79252000D01*
X166624000Y-79252000D01*
X166624000Y-80856250D01*
X166782750Y-81015000D01*
X166994000Y-81018029D01*
X166994000Y-82062815D01*
X165944041Y-81012856D01*
X165997000Y-81018072D01*
X166211250Y-81015000D01*
X166370000Y-80856250D01*
X166370000Y-79252000D01*
X165520750Y-79252000D01*
X165362000Y-79410750D01*
X165358928Y-80380000D01*
X165364144Y-80432959D01*
X163714619Y-78783435D01*
X163698712Y-78764052D01*
X163621359Y-78700571D01*
X163533107Y-78653399D01*
X163437349Y-78624351D01*
X163362711Y-78617000D01*
X163362708Y-78617000D01*
X163337764Y-78614543D01*
X163312820Y-78617000D01*
X162299843Y-78617000D01*
X162299843Y-77870000D01*
X162292487Y-77795311D01*
X162270701Y-77723492D01*
X162235322Y-77657304D01*
X162187711Y-77599289D01*
X162129696Y-77551678D01*
X162063508Y-77516299D01*
X161991689Y-77494513D01*
X161917000Y-77487157D01*
X160917000Y-77487157D01*
X160842311Y-77494513D01*
X160770492Y-77516299D01*
X160704304Y-77551678D01*
X160646289Y-77599289D01*
X160598678Y-77657304D01*
X160563299Y-77723492D01*
X160541513Y-77795311D01*
X160534157Y-77870000D01*
X160534157Y-80380000D01*
X160541513Y-80454689D01*
X160563299Y-80526508D01*
X160598678Y-80592696D01*
X160646289Y-80650711D01*
X160704304Y-80698322D01*
X160770492Y-80733701D01*
X160842311Y-80755487D01*
X160917000Y-80762843D01*
X161917000Y-80762843D01*
X161991689Y-80755487D01*
X162063508Y-80733701D01*
X162129696Y-80698322D01*
X162187711Y-80650711D01*
X162235322Y-80592696D01*
X162270701Y-80526508D01*
X162292487Y-80454689D01*
X162299843Y-80380000D01*
X162299843Y-79633000D01*
X163127344Y-79633000D01*
X164045344Y-80551000D01*
X164007998Y-80551000D01*
X164007998Y-80709748D01*
X163849250Y-80551000D01*
X163697500Y-80547928D01*
X163573018Y-80560188D01*
X163453320Y-80596498D01*
X163343006Y-80655463D01*
X163246315Y-80734815D01*
X163166963Y-80831506D01*
X163123366Y-80913070D01*
X163112977Y-80904544D01*
X163008970Y-80848951D01*
X162896115Y-80814716D01*
X162778750Y-80803157D01*
X162341250Y-80803157D01*
X162223885Y-80814716D01*
X162111030Y-80848951D01*
X162007023Y-80904544D01*
X161915860Y-80979360D01*
X161877583Y-81026000D01*
X154717189Y-81026000D01*
X154686000Y-81022928D01*
X154654811Y-81026000D01*
X154654808Y-81026000D01*
X154561518Y-81035188D01*
X154450991Y-81068716D01*
X154441820Y-81071498D01*
X154331506Y-81130462D01*
X154297407Y-81158447D01*
X154234815Y-81209815D01*
X154214930Y-81234045D01*
X154131818Y-81317157D01*
X152947000Y-81317157D01*
X152872311Y-81324513D01*
X152800492Y-81346299D01*
X152734304Y-81381678D01*
X152676289Y-81429289D01*
X152628678Y-81487304D01*
X152593299Y-81553492D01*
X152571513Y-81625311D01*
X152564157Y-81700000D01*
X152564157Y-82884819D01*
X152298000Y-83150976D01*
X152298000Y-75609868D01*
X152325841Y-75604557D01*
X152331268Y-75602919D01*
X152627239Y-75511301D01*
X152661215Y-75497019D01*
X152695279Y-75483256D01*
X152700280Y-75480598D01*
X152700284Y-75480596D01*
X152700287Y-75480594D01*
X152972823Y-75333234D01*
X153003364Y-75312634D01*
X153034119Y-75292508D01*
X153038513Y-75288926D01*
X153277238Y-75091435D01*
X153303173Y-75065318D01*
X153329458Y-75039578D01*
X153333072Y-75035210D01*
X153528890Y-74795112D01*
X153549247Y-74764473D01*
X153570042Y-74734102D01*
X153572738Y-74729115D01*
X153662658Y-74560000D01*
X157994157Y-74560000D01*
X157994157Y-77070000D01*
X158001513Y-77144689D01*
X158023299Y-77216508D01*
X158058678Y-77282696D01*
X158106289Y-77340711D01*
X158164304Y-77388322D01*
X158230492Y-77423701D01*
X158302311Y-77445487D01*
X158377000Y-77452843D01*
X159377000Y-77452843D01*
X159451689Y-77445487D01*
X159523508Y-77423701D01*
X159589696Y-77388322D01*
X159647711Y-77340711D01*
X159695322Y-77282696D01*
X159730701Y-77216508D01*
X159752487Y-77144689D01*
X159759843Y-77070000D01*
X159759843Y-74560000D01*
X159752487Y-74485311D01*
X159730701Y-74413492D01*
X159695322Y-74347304D01*
X159647711Y-74289289D01*
X159589696Y-74241678D01*
X159523508Y-74206299D01*
X159451689Y-74184513D01*
X159377000Y-74177157D01*
X158377000Y-74177157D01*
X158302311Y-74184513D01*
X158230492Y-74206299D01*
X158164304Y-74241678D01*
X158106289Y-74289289D01*
X158058678Y-74347304D01*
X158023299Y-74413492D01*
X158001513Y-74485311D01*
X157994157Y-74560000D01*
X153662658Y-74560000D01*
X153718193Y-74455555D01*
X153732224Y-74421515D01*
X153746712Y-74387711D01*
X153748387Y-74382303D01*
X153748389Y-74382297D01*
X153748390Y-74382291D01*
X153837938Y-74085694D01*
X153841837Y-74066000D01*
X164987580Y-74066000D01*
X164744199Y-74309381D01*
G37*
X164744199Y-74309381D02*
X164727711Y-74289289D01*
X164669696Y-74241678D01*
X164603508Y-74206299D01*
X164531689Y-74184513D01*
X164457000Y-74177157D01*
X163457000Y-74177157D01*
X163382311Y-74184513D01*
X163310492Y-74206299D01*
X163244304Y-74241678D01*
X163186289Y-74289289D01*
X163138678Y-74347304D01*
X163103299Y-74413492D01*
X163081513Y-74485311D01*
X163074157Y-74560000D01*
X163074157Y-77070000D01*
X163081513Y-77144689D01*
X163103299Y-77216508D01*
X163138678Y-77282696D01*
X163186289Y-77340711D01*
X163244304Y-77388322D01*
X163310492Y-77423701D01*
X163382311Y-77445487D01*
X163457000Y-77452843D01*
X164457000Y-77452843D01*
X164531689Y-77445487D01*
X164603508Y-77423701D01*
X164669696Y-77388322D01*
X164727711Y-77340711D01*
X164775322Y-77282696D01*
X164810701Y-77216508D01*
X164832487Y-77144689D01*
X164839843Y-77070000D01*
X164839843Y-76323000D01*
X165417382Y-76323000D01*
X166369998Y-77275617D01*
X166369998Y-77393748D01*
X166211250Y-77235000D01*
X165997000Y-77231928D01*
X165872518Y-77244188D01*
X165752820Y-77280498D01*
X165642506Y-77339463D01*
X165545815Y-77418815D01*
X165466463Y-77515506D01*
X165407498Y-77625820D01*
X165371188Y-77745518D01*
X165358928Y-77870000D01*
X165362000Y-78839250D01*
X165520750Y-78998000D01*
X166370000Y-78998000D01*
X166370000Y-78978000D01*
X166624000Y-78978000D01*
X166624000Y-78998000D01*
X166644000Y-78998000D01*
X166644000Y-79252000D01*
X166624000Y-79252000D01*
X166624000Y-80856250D01*
X166782750Y-81015000D01*
X166994000Y-81018029D01*
X166994000Y-82062815D01*
X165944041Y-81012856D01*
X165997000Y-81018072D01*
X166211250Y-81015000D01*
X166370000Y-80856250D01*
X166370000Y-79252000D01*
X165520750Y-79252000D01*
X165362000Y-79410750D01*
X165358928Y-80380000D01*
X165364144Y-80432959D01*
X163714619Y-78783435D01*
X163698712Y-78764052D01*
X163621359Y-78700571D01*
X163533107Y-78653399D01*
X163437349Y-78624351D01*
X163362711Y-78617000D01*
X163362708Y-78617000D01*
X163337764Y-78614543D01*
X163312820Y-78617000D01*
X162299843Y-78617000D01*
X162299843Y-77870000D01*
X162292487Y-77795311D01*
X162270701Y-77723492D01*
X162235322Y-77657304D01*
X162187711Y-77599289D01*
X162129696Y-77551678D01*
X162063508Y-77516299D01*
X161991689Y-77494513D01*
X161917000Y-77487157D01*
X160917000Y-77487157D01*
X160842311Y-77494513D01*
X160770492Y-77516299D01*
X160704304Y-77551678D01*
X160646289Y-77599289D01*
X160598678Y-77657304D01*
X160563299Y-77723492D01*
X160541513Y-77795311D01*
X160534157Y-77870000D01*
X160534157Y-80380000D01*
X160541513Y-80454689D01*
X160563299Y-80526508D01*
X160598678Y-80592696D01*
X160646289Y-80650711D01*
X160704304Y-80698322D01*
X160770492Y-80733701D01*
X160842311Y-80755487D01*
X160917000Y-80762843D01*
X161917000Y-80762843D01*
X161991689Y-80755487D01*
X162063508Y-80733701D01*
X162129696Y-80698322D01*
X162187711Y-80650711D01*
X162235322Y-80592696D01*
X162270701Y-80526508D01*
X162292487Y-80454689D01*
X162299843Y-80380000D01*
X162299843Y-79633000D01*
X163127344Y-79633000D01*
X164045344Y-80551000D01*
X164007998Y-80551000D01*
X164007998Y-80709748D01*
X163849250Y-80551000D01*
X163697500Y-80547928D01*
X163573018Y-80560188D01*
X163453320Y-80596498D01*
X163343006Y-80655463D01*
X163246315Y-80734815D01*
X163166963Y-80831506D01*
X163123366Y-80913070D01*
X163112977Y-80904544D01*
X163008970Y-80848951D01*
X162896115Y-80814716D01*
X162778750Y-80803157D01*
X162341250Y-80803157D01*
X162223885Y-80814716D01*
X162111030Y-80848951D01*
X162007023Y-80904544D01*
X161915860Y-80979360D01*
X161877583Y-81026000D01*
X154717189Y-81026000D01*
X154686000Y-81022928D01*
X154654811Y-81026000D01*
X154654808Y-81026000D01*
X154561518Y-81035188D01*
X154450991Y-81068716D01*
X154441820Y-81071498D01*
X154331506Y-81130462D01*
X154297407Y-81158447D01*
X154234815Y-81209815D01*
X154214930Y-81234045D01*
X154131818Y-81317157D01*
X152947000Y-81317157D01*
X152872311Y-81324513D01*
X152800492Y-81346299D01*
X152734304Y-81381678D01*
X152676289Y-81429289D01*
X152628678Y-81487304D01*
X152593299Y-81553492D01*
X152571513Y-81625311D01*
X152564157Y-81700000D01*
X152564157Y-82884819D01*
X152298000Y-83150976D01*
X152298000Y-75609868D01*
X152325841Y-75604557D01*
X152331268Y-75602919D01*
X152627239Y-75511301D01*
X152661215Y-75497019D01*
X152695279Y-75483256D01*
X152700280Y-75480598D01*
X152700284Y-75480596D01*
X152700287Y-75480594D01*
X152972823Y-75333234D01*
X153003364Y-75312634D01*
X153034119Y-75292508D01*
X153038513Y-75288926D01*
X153277238Y-75091435D01*
X153303173Y-75065318D01*
X153329458Y-75039578D01*
X153333072Y-75035210D01*
X153528890Y-74795112D01*
X153549247Y-74764473D01*
X153570042Y-74734102D01*
X153572738Y-74729115D01*
X153662658Y-74560000D01*
X157994157Y-74560000D01*
X157994157Y-77070000D01*
X158001513Y-77144689D01*
X158023299Y-77216508D01*
X158058678Y-77282696D01*
X158106289Y-77340711D01*
X158164304Y-77388322D01*
X158230492Y-77423701D01*
X158302311Y-77445487D01*
X158377000Y-77452843D01*
X159377000Y-77452843D01*
X159451689Y-77445487D01*
X159523508Y-77423701D01*
X159589696Y-77388322D01*
X159647711Y-77340711D01*
X159695322Y-77282696D01*
X159730701Y-77216508D01*
X159752487Y-77144689D01*
X159759843Y-77070000D01*
X159759843Y-74560000D01*
X159752487Y-74485311D01*
X159730701Y-74413492D01*
X159695322Y-74347304D01*
X159647711Y-74289289D01*
X159589696Y-74241678D01*
X159523508Y-74206299D01*
X159451689Y-74184513D01*
X159377000Y-74177157D01*
X158377000Y-74177157D01*
X158302311Y-74184513D01*
X158230492Y-74206299D01*
X158164304Y-74241678D01*
X158106289Y-74289289D01*
X158058678Y-74347304D01*
X158023299Y-74413492D01*
X158001513Y-74485311D01*
X157994157Y-74560000D01*
X153662658Y-74560000D01*
X153718193Y-74455555D01*
X153732224Y-74421515D01*
X153746712Y-74387711D01*
X153748387Y-74382303D01*
X153748389Y-74382297D01*
X153748390Y-74382291D01*
X153837938Y-74085694D01*
X153841837Y-74066000D01*
X164987580Y-74066000D01*
X164744199Y-74309381D01*
G36*
X164262000Y-81534000D02*
G01*
X164282000Y-81534000D01*
X164282000Y-81788000D01*
X164262000Y-81788000D01*
X164262000Y-81808000D01*
X164008000Y-81808000D01*
X164008000Y-81788000D01*
X163988000Y-81788000D01*
X163988000Y-81534000D01*
X164008000Y-81534000D01*
X164008000Y-81514000D01*
X164262000Y-81514000D01*
X164262000Y-81534000D01*
G37*
X164262000Y-81534000D02*
X164282000Y-81534000D01*
X164282000Y-81788000D01*
X164262000Y-81788000D01*
X164262000Y-81808000D01*
X164008000Y-81808000D01*
X164008000Y-81788000D01*
X163988000Y-81788000D01*
X163988000Y-81534000D01*
X164008000Y-81534000D01*
X164008000Y-81514000D01*
X164262000Y-81514000D01*
X164262000Y-81534000D01*
%TD*%
M02*
